<svg id="Layer_1" data-name="Layer 1" xmlns="http://www.w3.org/2000/svg" xmlns:xlink="http://www.w3.org/1999/xlink" viewBox="0 0 1000 456"><defs><style>.cls-1,.cls-11,.cls-13,.cls-15,.cls-16,.cls-17,.cls-18,.cls-19,.cls-20,.cls-22,.cls-24,.cls-26,.cls-28,.cls-29,.cls-31,.cls-9{fill:none;}.cls-2{clip-path:url(#clip-path);}.cls-3{fill:#fff;}.cls-4{fill:#75afff;}.cls-5{fill:#003b98;}.cls-6{fill:#8ebeff;}.cls-7{fill:#bed9ff;}.cls-8{fill:#dfecff;}.cls-9{stroke:#8ebeff;}.cls-19,.cls-20,.cls-26,.cls-28,.cls-29,.cls-9{stroke-width:10px;}.cls-10{fill:#579fff;}.cls-11,.cls-15{stroke:#bed9ff;}.cls-11,.cls-18{stroke-width:20px;}.cls-12{fill:#f1f7ff;}.cls-13{stroke:#0064e1;}.cls-13,.cls-15{stroke-width:25px;}.cls-14{fill:#0081fc;}.cls-16{stroke:#f1f7ff;}.cls-16,.cls-17{stroke-width:15px;}.cls-17,.cls-22,.cls-24,.cls-26{stroke:#fff;}.cls-18,.cls-19,.cls-31{stroke:#579fff;}.cls-20{stroke:#dfecff;}.cls-21{fill:#f35c6c;}.cls-22{stroke-width:30px;}.cls-23{fill:#0064e1;}.cls-24{stroke-width:5px;}.cls-25{fill:#f23953;}.cls-27{fill:#be0e31;}.cls-28{stroke:#be0e31;}.cls-29{stroke:#f35c6c;}.cls-30{fill:#001745;}.cls-31{stroke-width:8px;}</style><clipPath id="clip-path"><rect class="cls-1" x="0.81" y="1.03" width="1000.19" height="455.81"/></clipPath></defs><g class="cls-2"><rect class="cls-3" x="0.81" y="1.03" width="1000.19" height="455.81"/><rect class="cls-4" x="0.81" y="1.03" width="1000.19" height="455.81"/><rect class="cls-5" x="0.81" y="407.09" width="1000.19" height="50.3"/><rect class="cls-6" x="0.81" y="274.04" width="1000.19" height="135.78"/><path class="cls-4" d="M256.14,320.15,2.45,298.28V346.4Z"/><rect class="cls-7" x="304.08" y="316.69" width="171.31" height="91.12"/><rect class="cls-7" x="221.7" y="349.5" width="96.41" height="58.32"/><rect class="cls-8" x="299.34" y="311.22" width="80.19" height="5.47"/><line class="cls-9" x1="304.08" y1="316.69" x2="379.53" y2="316.69"/><rect class="cls-8" x="329.59" y="296.64" width="27.52" height="14.58"/><line class="cls-9" x1="304.08" y1="310.86" x2="379.53" y2="310.86"/><rect class="cls-4" x="357.11" y="296.64" width="16.95" height="15.13"/><rect class="cls-10" x="221.7" y="362.25" width="82.38" height="5.1"/><rect class="cls-10" x="221.7" y="376.1" width="82.38" height="5.1"/><rect class="cls-10" x="221.7" y="389.96" width="82.38" height="5.1"/><rect class="cls-10" x="304.08" y="332" width="14.76" height="24.42"/><rect class="cls-10" x="323.39" y="332" width="14.76" height="24.42"/><rect class="cls-10" x="342.9" y="332" width="14.76" height="24.42"/><path class="cls-10" d="M362.21,332H377l-2.37,24.42h-12.4Z"/><path class="cls-7" d="M385,216.27h29.88l8,191.55H374.06Z"/><path class="cls-6" d="M374.06,407.09l40.82-190.27,7.66,190.27Z"/><path class="cls-10" d="M405.59,264.2l483.14-70.71,7.84,263.35H422.72V416.56Z"/><line class="cls-11" x1="801.62" y1="123.87" x2="896.57" y2="123.87"/><line class="cls-11" x1="0.81" y1="168.52" x2="95.76" y2="168.52"/><line class="cls-11" x1="0.81" y1="184.56" x2="40.54" y2="184.56"/><path class="cls-3" d="M589.84,49.84c-8.53-9.3-21.7,1.33-29.15,10A8.57,8.57,0,0,0,558.86,67H642.7a60.14,60.14,0,0,0-12-14.21C621.92,45.1,611.71,63,607,63S601.87,63,589.84,49.84Z"/><path class="cls-3" d="M173.51,72.73c-27.24-31.5-52.1-35.69-67-32.56-7,1.48-12.49,6.61-17.37,11.9L47.47,97.26H366.41c-18-21.81-43.85-11.36-54.53-3.41-7.95-16.58-33.4-49.74-71.57-49.74C192.6,44.11,217.14,123.16,173.51,72.73Z"/><path class="cls-3" d="M935.12,56.53c21-1.83,32.4,18.66,35.44,29.13L702.47,88.51c12.58-16,30.87-2.85,41.73-2.85s33.73-24,65.74-29.13,36,10.85,62.31,18.85S908.83,58.81,935.12,56.53Z"/><path class="cls-12" d="M385.36,266l583.2-85.66V188l-583.2,85.66Z"/><path class="cls-12" d="M534.44,192H890.19L534.44,247.44Z"/><path class="cls-8" d="M891.65,265.66l75.82-78-75.82,10.93Z"/><line class="cls-13" x1="405.25" y1="271.43" x2="968.22" y2="186.5"/><path class="cls-14" d="M890.19,300.65l4.38,156.74H422.9Z"/><path class="cls-15" d="M890.92,189.2,533,243.2"/><path class="cls-16" d="M527.88,248.53,546.1,454.47"/><path class="cls-16" d="M648.16,230.67l19.32,223.8"/><path class="cls-16" d="M768.45,213.17l20.41,241.3"/><path class="cls-8" d="M432.38,203.7l-18.59,14.58h-27.7L366.41,203.7Z"/><rect class="cls-8" x="362.76" y="181.83" width="71.26" height="4.19"/><rect class="cls-8" x="362.76" y="202.97" width="71.26" height="4.19"/><rect class="cls-10" x="364.58" y="186.02" width="67.8" height="17.68"/><rect class="cls-8" x="383.54" y="170.34" width="28.07" height="13.67"/><path class="cls-8" d="M401.94,175.63h-8l3.52-43.7a.91.91,0,0,1,1.82,0Z"/><line class="cls-17" x1="422.9" y1="406.45" x2="894.57" y2="406.45"/><path class="cls-18" d="M405.23,271,385.91,274l-1.1-7.83"/><path class="cls-19" d="M434.39,207.71H363.67"/><path class="cls-14" d="M364.4,203.7l68.34-17.5v17.5Z"/><line class="cls-20" x1="374.06" y1="186.02" x2="374.06" y2="205.15"/><line class="cls-20" x1="405.23" y1="186.02" x2="405.23" y2="205.15"/><line class="cls-20" x1="384.45" y1="186.02" x2="384.45" y2="205.15"/><line class="cls-20" x1="415.61" y1="186.02" x2="415.61" y2="205.15"/><line class="cls-20" x1="394.84" y1="186.02" x2="394.84" y2="205.15"/><line class="cls-20" x1="426" y1="186.02" x2="426" y2="205.15"/><rect class="cls-21" x="383.54" y="175.63" width="28.07" height="6.2"/><path class="cls-19" d="M426.73,208.62l-12.21,8.93,2.37,43.55"/><path class="cls-9" d="M379.16,311.22,369,407.82"/><line class="cls-9" x1="304.99" y1="349.5" x2="304.99" y2="407.82"/><rect class="cls-10" x="318.84" y="367.36" width="32.8" height="8.75"/><rect class="cls-10" x="357.11" y="367.36" width="7.65" height="8.75"/><path class="cls-3" d="M318.11,385.22c-65.38.3-209.37,2.43-273.19,3.45a16,16,0,0,0,9.21,14.58c17.52,4.73,56.55,15.19,72.51,19.18s40.68,6,51,6.53h147c22.64,0,46.05-7.29,52.19-13,4.91-4.6,2-8.06,0-9.21-2.76-1.55-9.83-3-18.42-10.36S328,385.86,318.11,385.22Z"/><path class="cls-21" d="M112.71,378.63l24.06,8.53-83,1.16L36.9,323.07h9.85a18.81,18.81,0,0,1,14.61,7l23,28.46A64,64,0,0,0,112.71,378.63Z"/><path class="cls-21" d="M39.27,398.16a1.32,1.32,0,0,1,1.27-1.33l43.2-1.65a3,3,0,1,1,0,6l-43.2-1.66A1.32,1.32,0,0,1,39.27,398.16Z"/><rect class="cls-12" x="563.96" y="125.69" width="2.92" height="66.34"/><rect class="cls-12" x="625.93" y="125.69" width="2.92" height="66.34"/><path class="cls-22" d="M836.61,202.24l60.87,287.22,40.1-287.22"/><rect class="cls-12" x="687.35" y="125.69" width="2.92" height="66.34"/><rect class="cls-3" x="628.85" y="125.69" width="45.02" height="29.16"/><rect class="cls-3" x="566.88" y="125.69" width="45.02" height="29.16"/><rect class="cls-3" x="690.26" y="125.69" width="44.47" height="29.16"/><path class="cls-23" d="M178.51,211.66v9.53l-6.93-3.85,5.1-7.08Z"/><path class="cls-8" d="M170.85,217.61l24.32-12.46,20.33,9.63-37.05,6.41Z"/><ellipse class="cls-10" cx="194.9" cy="211.29" rx="7.68" ry="7.75" transform="translate(-58.61 75.78) rotate(-19.18)"/><ellipse class="cls-5" cx="194.9" cy="211.29" rx="6.11" ry="6.19" transform="translate(-58.61 75.78) rotate(-19.18)"/><ellipse class="cls-10" cx="207.93" cy="215.38" rx="5.95" ry="6.03" transform="translate(-59.23 80.29) rotate(-19.18)"/><circle class="cls-3" cx="193.79" cy="210.86" r="2.04"/><path class="cls-10" d="M211,210.24c-3-2.34-9.54-4.7-12.81-5.83l2.9,3.55.76,3.39-2,5.18L193.94,219c7.32,2.16,12.24,2.62,14.45,2.43Z"/><path class="cls-5" d="M289.13,185.77l-11.28,36.15-19.52-13.25,22.08-23.18a5.29,5.29,0,0,1,6.35-1Z"/><path class="cls-24" d="M184.24,225.29l19.86,11.93"/><path class="cls-24" d="M205.5,238l5.65,3.44"/><path class="cls-24" d="M305.81,198.57,333.69,213"/><path class="cls-24" d="M336.2,214.61l13.16,6.58"/><path class="cls-24" d="M352.49,222.91l5.17,2.47"/><path class="cls-3" d="M242.67,199.05c15.51,8.2,32.32,20.63,38.78,25.81,1.67,4.25-.7,6.71-2.09,7.4l-9.7,1.14C198.37,213.85,155.41,182.92,151.22,178s-1.33-8,2.66-9.11c4.17-1.19,14.26-4.75,23-1.71S223.27,188.8,242.67,199.05Z"/><path class="cls-8" d="M291.47,190.57l-79.25,8.92c2.59,5.15,14.38,8.72,20,9.86l69-13.28Z"/><path class="cls-3" d="M301.34,194.7v1.35l-9.88-5.19L212,199.5a2.61,2.61,0,0,1,0-3.45l79.48-7.12Z"/><path class="cls-23" d="M301.34,181.56v13l-9.29-5.27,6.84-9.67Z"/><ellipse class="cls-10" cx="229.91" cy="200.52" rx="7.68" ry="7.75" transform="translate(-29.84 40.54) rotate(-9.46)"/><ellipse class="cls-23" cx="229.91" cy="200.52" rx="6.11" ry="6.19" transform="translate(-29.84 40.54) rotate(-9.46)"/><ellipse class="cls-10" cx="242.07" cy="206.76" rx="5.95" ry="6.03" transform="translate(-30.7 42.62) rotate(-9.46)"/><path class="cls-23" d="M240.14,231h22.2l-13-3.64-11.87,1.3a.55.55,0,0,0-.18,1L239.9,231A.52.52,0,0,0,240.14,231Z"/><path class="cls-10" d="M170.65,173.26c-4.09-2.23-11.41-4.39-14.56-5.19l6.62-1.74a37.36,37.36,0,0,1,11.06,4.43Z"/><path class="cls-10" d="M182.68,175.42h0a1.72,1.72,0,0,1,.8,2.29l-.57,1.17a1.7,1.7,0,0,1-2.28.79h0a1.71,1.71,0,0,1-.8-2.28l.56-1.17A1.72,1.72,0,0,1,182.68,175.42Z"/><path class="cls-10" d="M187.43,177.71h0a1.71,1.71,0,0,1,.8,2.28l-.56,1.17a1.72,1.72,0,0,1-2.29.8h0a1.72,1.72,0,0,1-.8-2.29l.57-1.17A1.7,1.7,0,0,1,187.43,177.71Z"/><path class="cls-10" d="M200.36,184.17h0a1.72,1.72,0,0,1,.8,2.29l-.56,1.16a1.72,1.72,0,0,1-2.29.8h0a1.71,1.71,0,0,1-.8-2.28l.57-1.17A1.71,1.71,0,0,1,200.36,184.17Z"/><path class="cls-10" d="M196,181.89h0a1.71,1.71,0,0,1,.8,2.28l-.57,1.17a1.71,1.71,0,0,1-2.28.8h0a1.72,1.72,0,0,1-.8-2.29l.56-1.16A1.72,1.72,0,0,1,196,181.89Z"/><path class="cls-10" d="M209.3,188.73h0a1.72,1.72,0,0,1,.8,2.29l-.56,1.17a1.71,1.71,0,0,1-2.29.79h0a1.71,1.71,0,0,1-.8-2.28l.56-1.17A1.72,1.72,0,0,1,209.3,188.73Z"/><path class="cls-10" d="M204.93,186.45h0a1.72,1.72,0,0,1,.79,2.29l-.56,1.16a1.7,1.7,0,0,1-2.28.8h0a1.71,1.71,0,0,1-.8-2.28l.56-1.17A1.72,1.72,0,0,1,204.93,186.45Z"/><path class="cls-10" d="M257.22,212.31h0a1.72,1.72,0,0,1,.8,2.29l-.57,1.16a1.71,1.71,0,0,1-2.28.8h0a1.71,1.71,0,0,1-.8-2.28l.56-1.17A1.72,1.72,0,0,1,257.22,212.31Z"/><path class="cls-10" d="M261.78,214.59h0a1.72,1.72,0,0,1,.8,2.29l-.56,1.17a1.72,1.72,0,0,1-2.29.79h0a1.71,1.71,0,0,1-.8-2.28l.57-1.17A1.71,1.71,0,0,1,261.78,214.59Z"/><path class="cls-10" d="M252.84,210h0a1.7,1.7,0,0,1,.8,2.28l-.56,1.17a1.71,1.71,0,0,1-2.28.8h0A1.71,1.71,0,0,1,250,212l.56-1.17A1.71,1.71,0,0,1,252.84,210Z"/><path class="cls-10" d="M192,180h0a1.7,1.7,0,0,1,.8,2.28l-.56,1.17a1.71,1.71,0,0,1-2.28.8h0a1.72,1.72,0,0,1-.8-2.29l.56-1.16A1.7,1.7,0,0,1,192,180Z"/><circle class="cls-3" cx="228.89" cy="199.91" r="2.04"/><path class="cls-8" d="M210,201.37c-23.6-11.48-48.78-23.91-60.48-27.56,2,4.23,1.88,4.85,30.24,22.24,25.16,15.42,65.08,30.17,86.26,36.74a17.4,17.4,0,0,0,7.79.56l6.38-1C267.56,227,233.82,213,210,201.37Z"/><path class="cls-10" d="M246,202.21c-2.56-2.81-8.61-6.24-11.64-7.91l2.26,4,.18,3.46-2.86,4.76L227.66,208c6.85,3.36,11.62,4.65,13.83,4.84Z"/><path class="cls-19" d="M247.94,206.25,301.34,196"/><path class="cls-19" d="M149.53,175.45c6.11,7.35,27.09,21,63.12,37.24,25.08,11.33,43,17.26,52.26,19.94a23.74,23.74,0,0,0,11.18.41l3.67-.71a6.22,6.22,0,0,0,2.43-5.4"/><line class="cls-19" x1="192.54" y1="220.08" x2="179.22" y2="222.12"/><path class="cls-23" d="M292.67,220.81l-22.49,1.64,8,4.94L298.3,225a.91.91,0,0,0,.43-1.64L296.89,222A6.42,6.42,0,0,0,292.67,220.81Z"/><path class="cls-7" d="M935,202.06h6.56l-12,40.27Z"/><rect class="cls-3" x="567.43" y="125.69" width="45.02" height="29.16"/><rect class="cls-25" x="602.05" y="125.69" width="10.39" height="29.16"/><rect class="cls-25" x="567.43" y="125.69" width="10.39" height="29.16"/><path class="cls-25" d="M590.32,144.68l.2,3.43h-1.17l.2-3.43a.18.18,0,0,0-.2-.19l-3.31.3.34-.92a.38.38,0,0,0-.12-.42l-3.52-2.72.91-.37a.18.18,0,0,0,.11-.22l-.7-2.3,2.17.5a.19.19,0,0,0,.22-.13l.27-1,1.72,1.73a.19.19,0,0,0,.31-.17l-.64-3.59,1.24.57a.18.18,0,0,0,.23-.07l1.41-2.32,1.3,2.31a.19.19,0,0,0,.24.08l1.23-.57-.82,3.86a.18.18,0,0,0,.31.16l1.9-2,.09,1.08a.18.18,0,0,0,.22.16l2.35-.49-.79,2.38a.2.2,0,0,0,.13.24l1,.27-3.59,2.7a.37.37,0,0,0-.11.46l.4.79-3.31-.3A.18.18,0,0,0,590.32,144.68Z"/><rect class="cls-3" x="628.85" y="125.69" width="45.02" height="29.16"/><rect class="cls-25" x="663.47" y="125.69" width="10.39" height="29.16"/><rect class="cls-25" x="628.85" y="125.69" width="10.39" height="29.16"/><path class="cls-25" d="M651.74,144.68l.2,3.43h-1.17l.2-3.43a.19.19,0,0,0-.2-.19l-3.31.3.34-.92a.39.39,0,0,0-.12-.42l-3.53-2.72.92-.37a.18.18,0,0,0,.1-.22l-.69-2.3,2.17.5a.19.19,0,0,0,.22-.13l.27-1,1.72,1.73a.19.19,0,0,0,.31-.17l-.64-3.59,1.24.57a.18.18,0,0,0,.23-.07l1.41-2.32,1.3,2.31a.19.19,0,0,0,.24.08l1.23-.57-.83,3.86a.18.18,0,0,0,.31.16l1.91-2,.09,1.08a.18.18,0,0,0,.22.16l2.35-.49-.79,2.38a.19.19,0,0,0,.12.24l1,.27-3.6,2.7a.37.37,0,0,0-.1.46l.4.79-3.31-.3A.18.18,0,0,0,651.74,144.68Z"/><rect class="cls-3" x="690.81" y="125.69" width="45.02" height="29.16"/><rect class="cls-25" x="725.44" y="125.69" width="10.39" height="29.16"/><rect class="cls-25" x="690.81" y="125.69" width="10.39" height="29.16"/><path class="cls-25" d="M713.7,144.68l.21,3.43h-1.18l.2-3.43a.18.18,0,0,0-.2-.19l-3.3.3.33-.92a.36.36,0,0,0-.12-.42l-3.52-2.72.91-.37a.18.18,0,0,0,.11-.22l-.7-2.3,2.17.5a.19.19,0,0,0,.22-.13l.28-1,1.72,1.73a.19.19,0,0,0,.31-.17l-.65-3.59,1.24.57a.18.18,0,0,0,.23-.07l1.41-2.32,1.31,2.31a.18.18,0,0,0,.23.08l1.24-.57-.83,3.86a.18.18,0,0,0,.31.16l1.9-2,.09,1.08a.18.18,0,0,0,.22.16l2.36-.49-.79,2.38a.18.18,0,0,0,.12.24l1,.27-3.6,2.7a.39.39,0,0,0-.11.46l.4.79-3.31-.3A.19.19,0,0,0,713.7,144.68Z"/><path class="cls-10" d="M336,395.06h21.34c2.19,2.62,8.81,6.92,11.85,8.75h-24a8.61,8.61,0,0,1-6.06-2.51l-4.06-4.06A1.28,1.28,0,0,1,336,395.06Z"/><line class="cls-26" x1="347.42" y1="393.02" x2="357.81" y2="405.41"/><path class="cls-7" d="M328.16,428.9l.06.06H179.42c31.71-2.19,98.87-8.86,119.28-8.57C318.92,420.68,325.91,426.9,328.16,428.9Z"/><path class="cls-21" d="M190,421.19l3.11-.8v12.76l-3-.68a5.8,5.8,0,0,1-.14-11.28Z"/><path class="cls-21" d="M230.27,438.72V414.19c-21.93,0-34.78,2.79-38.46,4.18v16.35C203.32,439.81,222.24,439.5,230.27,438.72Z"/><ellipse class="cls-27" cx="225.53" cy="426.77" rx="6.38" ry="12.39"/><line class="cls-28" x1="225.53" y1="418.75" x2="192.18" y2="419.04"/><path class="cls-21" d="M145.25,381.21l15,33H136v-33Z"/><path class="cls-27" d="M142,381.21l15,33-24.24,1.67V381.21Z"/><ellipse class="cls-21" cx="230.27" cy="426.77" rx="6.38" ry="12.39"/><ellipse class="cls-27" cx="230.45" cy="427.23" rx="4.19" ry="9.39"/><path class="cls-21" d="M147.71,415.83a1.29,1.29,0,0,1,1.27-1.29l97.87-1.75a3,3,0,1,1,0,6.09L149,417.13A1.29,1.29,0,0,1,147.71,415.83Z"/><path class="cls-27" d="M132.76,415.84a1.3,1.3,0,0,1,1.28-1.3l41.05-.59a1.93,1.93,0,1,1,0,3.86L134,417.13A1.3,1.3,0,0,1,132.76,415.84Z"/><line class="cls-29" x1="159.38" y1="413.47" x2="138.42" y2="413.65"/><line class="cls-28" x1="192.72" y1="418.93" x2="192.72" y2="434.97"/><ellipse class="cls-21" cx="231.27" cy="427.32" rx="1.73" ry="2.37"/><path class="cls-10" d="M305.17,397.79h0a2.55,2.55,0,0,1,2.55,2.55v1.83a2.55,2.55,0,0,1-2.55,2.55h0a2.55,2.55,0,0,1-2.55-2.55v-1.83A2.55,2.55,0,0,1,305.17,397.79Z"/><path class="cls-10" d="M270.91,397.79h0a2.55,2.55,0,0,1,2.55,2.55v1.83a2.55,2.55,0,0,1-2.55,2.55h0a2.55,2.55,0,0,1-2.55-2.55v-1.83A2.55,2.55,0,0,1,270.91,397.79Z"/><path class="cls-10" d="M207.67,397.79h0a2.55,2.55,0,0,1,2.55,2.55v1.83a2.55,2.55,0,0,1-2.55,2.55h0a2.56,2.56,0,0,1-2.56-2.55v-1.83A2.56,2.56,0,0,1,207.67,397.79Z"/><path class="cls-10" d="M288,397.79h0a2.55,2.55,0,0,1,2.55,2.55v1.83a2.55,2.55,0,0,1-2.55,2.55h0a2.55,2.55,0,0,1-2.55-2.55v-1.83A2.55,2.55,0,0,1,288,397.79Z"/><path class="cls-10" d="M224.8,397.79h0a2.55,2.55,0,0,1,2.55,2.55v1.83a2.55,2.55,0,0,1-2.55,2.55h0a2.55,2.55,0,0,1-2.55-2.55v-1.83A2.55,2.55,0,0,1,224.8,397.79Z"/><path class="cls-10" d="M253.78,397.79h0a2.55,2.55,0,0,1,2.55,2.55v1.83a2.55,2.55,0,0,1-2.55,2.55h0a2.56,2.56,0,0,1-2.56-2.55v-1.83A2.56,2.56,0,0,1,253.78,397.79Z"/><path class="cls-10" d="M190.53,397.79h0a2.56,2.56,0,0,1,2.56,2.55v1.83a2.56,2.56,0,0,1-2.56,2.55h0a2.55,2.55,0,0,1-2.55-2.55v-1.83A2.55,2.55,0,0,1,190.53,397.79Z"/><path class="cls-10" d="M296.6,397.79h0a2.56,2.56,0,0,1,2.56,2.55v1.83a2.56,2.56,0,0,1-2.56,2.55h0a2.55,2.55,0,0,1-2.55-2.55v-1.83A2.55,2.55,0,0,1,296.6,397.79Z"/><path class="cls-10" d="M262.34,397.79h0a2.55,2.55,0,0,1,2.55,2.55v1.83a2.55,2.55,0,0,1-2.55,2.55h0a2.55,2.55,0,0,1-2.55-2.55v-1.83A2.55,2.55,0,0,1,262.34,397.79Z"/><path class="cls-10" d="M199.1,397.79h0a2.55,2.55,0,0,1,2.55,2.55v1.83a2.55,2.55,0,0,1-2.55,2.55h0a2.55,2.55,0,0,1-2.55-2.55v-1.83A2.55,2.55,0,0,1,199.1,397.79Z"/><path class="cls-10" d="M279.47,397.79h0a2.55,2.55,0,0,1,2.55,2.55v1.83a2.55,2.55,0,0,1-2.55,2.55h0a2.55,2.55,0,0,1-2.55-2.55v-1.83A2.55,2.55,0,0,1,279.47,397.79Z"/><path class="cls-10" d="M216.23,397.79h0a2.55,2.55,0,0,1,2.55,2.55v1.83a2.55,2.55,0,0,1-2.55,2.55h0a2.55,2.55,0,0,1-2.55-2.55v-1.83A2.55,2.55,0,0,1,216.23,397.79Z"/><path class="cls-10" d="M245.21,397.79h0a2.55,2.55,0,0,1,2.55,2.55v1.83a2.55,2.55,0,0,1-2.55,2.55h0a2.55,2.55,0,0,1-2.55-2.55v-1.83A2.55,2.55,0,0,1,245.21,397.79Z"/><path class="cls-10" d="M182,397.79h0a2.55,2.55,0,0,1,2.55,2.55v1.83a2.55,2.55,0,0,1-2.55,2.55h0a2.55,2.55,0,0,1-2.55-2.55v-1.83A2.55,2.55,0,0,1,182,397.79Z"/><path class="cls-30" d="M108,441.35H346.72l-20,5.65H87.93Z"/><circle class="cls-10" cx="300.07" cy="439.53" r="3.28"/><circle class="cls-5" cx="300.07" cy="439.53" r="1.64"/><line class="cls-31" x1="300.07" y1="437.16" x2="300.07" y2="428.96"/><path class="cls-7" d="M297.52,434.15l7.19-5.1-6.56-.46-6.92,5.56Z"/></g></svg>