<svg id="Layer_1" data-name="Layer 1" xmlns="http://www.w3.org/2000/svg" viewBox="0 0 1000 773"><defs><style>.cls-1{fill:#002060;}.cls-2{fill:#00328a;}.cls-3{fill:none;}.cls-4{fill:#fff;}.cls-5{fill:#0062e9;}.cls-6{fill:#0080ff;}.cls-7{fill:#00399e;}.cls-8{fill:#ffbf2a;}.cls-9{fill:#0042b2;}.cls-10{fill:#00b37e;}.cls-11{fill:#0ec18d;}.cls-12{fill:#00965b;}.cls-13{fill:#65ebb8;}.cls-14{fill:#b96000;}.cls-15{fill:#9b4a00;}.cls-16{opacity:0.31;}.cls-17{fill:#9dccff;}.cls-18{fill:#ff4d68;}</style></defs><path class="cls-1" d="M130.25,678.8,329.48,510.06s-90.88,8.35-145.83,17.87-70.68-3.89-66-7,44.86-38.25,48-45.43-4.85-11.07-49.51-11.85S4.82,430.45,15.69,414.91s76.89-85.43,76.89-85.43S20.93,309.67,12.39,301.9s-24.27-16.5,15-43.88S215.5,95.5,236.86,70.45,301.32,12.78,336.47,11,385,16.47,385,16.47s23.3,1.55,6.8,14.75S317,105.11,317,105.11,371.32,108.8,415,82s82.72-55.53,112.24-36.51,100.58,35.93,65,76.51-55.15,62.91-55.15,62.91L735.4,118.5s39.42-10.29,38.45,19.62-14,55.34-14,55.34S888.22,133.84,908.8,136s16.9,39.22,16.9,39.22,28.54-21.74,36.11-17.86,41.56,70.1,31.27,88.74-73.79,89.71-74.37,96.7,5,24.46-27.19,57.47-84.47,84.67-86.6,101.17S893.66,482.2,903,488,927.44,577,915,608s-18.26,38.26-18.26,38.26,1.56,5.24-4.46,8.54S753.07,747.25,691.13,760.26s-97.67-5.63-137.28-29.13-65.05-38.45-66-46.41,1.75-12,31.65-44.27l29.9-32.23-71.84,5.43L276.76,697.73s-25.44,10.88-43.11,10.68-43.88-7.18-43.88-7.18L136,687.83s-3.49,1-5.82-4.08S130.25,678.8,130.25,678.8Z"/><path class="cls-1" d="M925.78,174.1l-.08,1.1S925.74,174.8,925.78,174.1Z"/><path class="cls-2" d="M339.87,587.44l76.5-23.3,297.09-146.8L814.82,345.5s-25.63-12.24-27-36.31,19.42-39.62,19.42-39.62L925.7,175.2l.08-1.1c.42-6.13,1.5-36.2-17-38.12-20.58-2.14-148.93,57.48-148.93,57.48s13-25.44,14-55.34S735.4,118.5,735.4,118.5L537.15,184.91S556.76,162.58,592.3,122s-35.54-57.48-65-76.51S458.7,55.2,415,82,317,105.11,317,105.11s58.35-60.68,74.86-73.89S385,16.47,385,16.47,371.61,9.28,336.47,11,258.22,45.4,236.86,70.45,66.56,230.64,27.34,258,3.85,294.14,12.39,301.9c2.41,2.2,9.84,5.35,19.28,8.74,19.72-11.13,72.46-40.68,101.59-54.85,36.31-17.67,38.64-.39,50.1,13s14.95,28.35,8.16,48.15-52.43,67.38-49.32,67,11.84.39,15.14,3.69,7,13.4,1.56,21.94c-4.23,6.64-42,38.7-58.59,52.68a119.29,119.29,0,0,0,15.77,1.4c44.66.78,52.62,4.66,49.51,11.85s-43.3,42.33-48,45.43,11.07,16.51,66,7,145.83-17.87,145.83-17.87l24,24.76Z"/><path class="cls-3" d="M130.25,678.8,329.48,510.06s-90.88,8.35-145.83,17.87-70.68-3.89-66-7,44.86-38.25,48-45.43-4.85-11.07-49.51-11.85S4.82,430.45,15.69,414.91s76.89-85.43,76.89-85.43S20.93,309.67,12.39,301.9s-24.27-16.5,15-43.88S215.5,95.5,236.86,70.45,301.32,12.78,336.47,11,385,16.47,385,16.47s23.3,1.55,6.8,14.75S317,105.11,317,105.11,371.32,108.8,415,82s82.72-55.53,112.24-36.51,100.58,35.93,65,76.51-55.15,62.91-55.15,62.91L735.4,118.5s39.42-10.29,38.45,19.62-14,55.34-14,55.34S888.22,133.84,908.8,136s16.9,39.22,16.9,39.22,28.54-21.74,36.11-17.86,41.56,70.1,31.27,88.74-73.79,89.71-74.37,96.7,5,24.46-27.19,57.47-84.47,84.67-86.6,101.17S893.66,482.2,903,488,927.44,577,915,608s-18.26,38.26-18.26,38.26,1.56,5.24-4.46,8.54S753.07,747.25,691.13,760.26s-97.67-5.63-137.28-29.13-65.05-38.45-66-46.41,1.75-12,31.65-44.27l29.9-32.23-71.84,5.43L276.76,697.73s-25.44,10.88-43.11,10.68-43.88-7.18-43.88-7.18L136,687.83s-3.49,1-5.82-4.08S130.25,678.8,130.25,678.8Z"/><path class="cls-1" d="M61.52,186.56S60,193.94,67,196.08s6.22,1.75,12-4.47,44.86-52,44.86-52,4.85-7.18,0-10.68-12.82,1.17-17.48,6.8S66,176.47,61.52,186.56Z"/><path class="cls-1" d="M609.48,132.19s-3.88,4.08-.39,8,12.43-3.31,18.45-3.89,33.79-14.56,35.92-18.64,5.83-8.35,2.91-12.23-13.78-1-19.41,2.91S609.48,129.28,609.48,132.19Z"/><path class="cls-1" d="M689.87,91.81s-12.23,5-11.85,10.29,7.38,6,15.34,1.94S707.73,96.66,707.73,93s-1.16-7.57-7.18-5.82A47,47,0,0,0,689.87,91.81Z"/><path class="cls-1" d="M408.12,663.65s-32.82,14.57-32,23.89,8.35,4.85,11.65,4.08S447.34,666,448.9,663.07s1-10.87-7.58-10.29S408.12,663.65,408.12,663.65Z"/><ellipse class="cls-4" cx="264.53" cy="150.06" rx="3.59" ry="3.69"/><circle class="cls-4" cx="226.37" cy="190.06" r="3.3"/><ellipse class="cls-4" cx="204.14" cy="280.93" rx="2.82" ry="3.3"/><ellipse class="cls-4" cx="135.79" cy="256.56" rx="1.84" ry="2.23"/><circle class="cls-4" cx="199.96" cy="354.14" r="3.69"/><circle class="cls-4" cx="228.99" cy="379.09" r="2.04"/><circle class="cls-4" cx="175.89" cy="414.91" r="2.52"/><circle class="cls-4" cx="289.96" cy="502.78" r="2.62"/><circle class="cls-4" cx="347.93" cy="598.02" r="2.14"/><circle class="cls-4" cx="355.89" cy="666.57" r="3.5"/><circle class="cls-4" cx="319.38" cy="632.59" r="5.44"/><circle class="cls-4" cx="256.76" cy="662.97" r="2.23"/><circle class="cls-4" cx="450.74" cy="611.91" r="1.84"/><circle class="cls-4" cx="605.69" cy="621.62" r="2.62"/><circle class="cls-4" cx="603.27" cy="693.56" r="3.11"/><circle class="cls-4" cx="738.03" cy="647.15" r="3.3"/><circle class="cls-4" cx="761.71" cy="593.17" r="1.94"/><circle class="cls-4" cx="711.91" cy="572.29" r="5.34"/><circle class="cls-4" cx="747.35" cy="348.12" r="2.33"/><circle class="cls-4" cx="740.06" cy="436.37" r="3.2"/><ellipse class="cls-4" cx="718.61" cy="271.52" rx="3.5" ry="3.98"/><ellipse class="cls-4" cx="701.52" cy="190.64" rx="3.5" ry="2.72"/><circle class="cls-4" cx="542.39" cy="119.28" r="3.2"/><circle class="cls-4" cx="511.03" cy="152.78" r="2.14"/><circle class="cls-4" cx="506.37" cy="75.11" r="3.88"/><rect class="cls-4" x="762.69" y="230.13" width="10.1" height="9.88" rx="3.79" transform="translate(356.28 -454.41) rotate(42.15)"/><path class="cls-4" d="M767.15,215.69c.31.85.56,1.69.79,2.54s.42,1.69.61,2.54c.37,1.69.66,3.39.89,5.08a91.64,91.64,0,0,1,.8,10.17A96.12,96.12,0,0,1,770,246.2c-.07.86-.15,1.7-.24,2.55s-.21,1.71-.32,2.56-.27,1.71-.41,2.56c0,.21-.07.43-.12.64s-.09.44-.12.65c-.08.43-.15.86-.26,1.31-.2-.4-.38-.81-.56-1.23s-.31-.83-.45-1.25-.28-.84-.4-1.26-.23-.85-.35-1.27c-.23-.84-.41-1.69-.58-2.54-.09-.42-.17-.85-.25-1.27s-.15-.85-.22-1.28a76.34,76.34,0,0,1-.89-10.21,83.29,83.29,0,0,1,.36-10.23c.18-1.71.41-3.41.72-5.12.16-.85.33-1.71.54-2.56S766.86,216.54,767.15,215.69Z"/><path class="cls-4" d="M785.6,233.55a18.75,18.75,0,0,1-2.12.85c-.71.26-1.42.47-2.13.68-1.42.41-2.84.75-4.26,1a69.35,69.35,0,0,1-8.56,1.1,74.74,74.74,0,0,1-8.6.08c-1.43-.07-2.87-.2-4.32-.36-.72-.08-1.45-.17-2.17-.27l-1.1-.13a5.82,5.82,0,0,0-1.11-.06,2.38,2.38,0,0,1,.43-.41,5.39,5.39,0,0,1,.5-.33,11.33,11.33,0,0,1,1-.56c.69-.34,1.39-.62,2.1-.89a37.09,37.09,0,0,1,4.27-1.26,53.94,53.94,0,0,1,8.62-1.24,58.65,58.65,0,0,1,8.69.07,43.78,43.78,0,0,1,4.36.58c.73.14,1.46.28,2.19.47A20.18,20.18,0,0,1,785.6,233.55Z"/><path class="cls-4" d="M185.08,237.4,182,235.51a1.28,1.28,0,0,1-.4-1.95l2.11-2.57a1.83,1.83,0,0,1,2.28-.34l3.12,1.89a1.28,1.28,0,0,1,.39,2l-2.1,2.57A1.83,1.83,0,0,1,185.08,237.4Z"/><path class="cls-4" d="M183.46,222.49a15.62,15.62,0,0,1,.76,1.46c.23.49.44,1,.65,1.47q.58,1.49,1,3a49.11,49.11,0,0,1,1.42,6,50.1,50.1,0,0,1,.69,6.11c0,.51,0,1,.05,1.54s0,1,0,1.55,0,1-.07,1.56c0,.13,0,.26,0,.39a2.69,2.69,0,0,0,0,.4c0,.26,0,.52-.07.8-.18-.22-.34-.46-.5-.69s-.28-.48-.42-.72-.27-.48-.39-.72-.23-.49-.35-.73c-.22-.49-.43-1-.62-1.48-.1-.25-.19-.5-.28-.74l-.26-.75a41.6,41.6,0,0,1-1.49-6,42,42,0,0,1-.62-6.14c0-1,0-2.07.07-3.11,0-.52.08-1,.15-1.57A14.59,14.59,0,0,1,183.46,222.49Z"/><path class="cls-4" d="M197.83,231.82c-.47.25-.94.46-1.41.66s-.94.38-1.42.56c-.95.35-1.92.65-2.88.92a53.92,53.92,0,0,1-5.87,1.29,59.11,59.11,0,0,1-6,.67c-1,.06-2,.1-3,.11h-2.31a4.09,4.09,0,0,0-.78,0,1.43,1.43,0,0,1,.27-.28,3.55,3.55,0,0,1,.31-.23,6.68,6.68,0,0,1,.67-.41,14.7,14.7,0,0,1,1.38-.68,27.56,27.56,0,0,1,2.87-1.07,41,41,0,0,1,5.9-1.37,46.77,46.77,0,0,1,6.05-.59c1,0,2,0,3.09,0q.78,0,1.56.12C196.77,231.64,197.29,231.71,197.83,231.82Z"/><path class="cls-4" d="M369.42,620.71,366.51,618a1.76,1.76,0,0,1-.13-2.44l2.49-2.88a1.63,1.63,0,0,1,2.35-.14l2.91,2.69a1.77,1.77,0,0,1,.14,2.44l-2.49,2.88A1.64,1.64,0,0,1,369.42,620.71Z"/><path class="cls-4" d="M369.8,602.27c.23.62.41,1.25.58,1.88s.31,1.25.45,1.88c.27,1.25.49,2.51.67,3.76a74.21,74.21,0,0,1,.49,15.09c0,.63-.09,1.26-.16,1.89s-.14,1.27-.22,1.9-.17,1.27-.28,1.9a4,4,0,0,1-.08.48c0,.16-.06.32-.08.48-.05.32-.1.64-.18,1-.15-.3-.27-.6-.41-.91s-.22-.61-.33-.92-.2-.63-.29-.94-.17-.62-.26-.93c-.16-.63-.3-1.26-.43-1.89-.07-.31-.12-.62-.18-.94s-.11-.63-.16-.94a58.69,58.69,0,0,1-.7-7.57,62.07,62.07,0,0,1,.21-7.59c.11-1.27.27-2.53.49-3.8.11-.63.23-1.27.37-1.9S369.6,602.9,369.8,602.27Z"/><path class="cls-4" d="M383.12,615.42a16.35,16.35,0,0,1-1.51.65c-.51.19-1,.35-1.52.51-1,.31-2,.57-3,.78a47.82,47.82,0,0,1-6.13.86,52.9,52.9,0,0,1-6.17.1c-1-.05-2.06-.13-3.1-.24l-1.56-.19-.79-.1a4.21,4.21,0,0,0-.8,0,1.82,1.82,0,0,1,.31-.31,3.75,3.75,0,0,1,.36-.24,5.3,5.3,0,0,1,.73-.42,14.31,14.31,0,0,1,1.5-.67,24.92,24.92,0,0,1,3.05-1,37.46,37.46,0,0,1,6.18-1,40.49,40.49,0,0,1,6.23,0c1,.09,2.08.22,3.13.41.52.1,1,.21,1.57.34A15.59,15.59,0,0,1,383.12,615.42Z"/><path class="cls-4" d="M663.07,598.8c.37,2.3.55,4.6.69,6.89s.19,4.6.19,6.9-.06,4.59-.19,6.89-.32,4.59-.69,6.89c-.36-2.3-.55-4.59-.68-6.89s-.19-4.6-.19-6.89.06-4.6.19-6.9S662.71,601.1,663.07,598.8Z"/><path class="cls-4" d="M657.05,603.27a29.23,29.23,0,0,1,3.3,3c1,1,2,2.15,2.92,3.28s1.79,2.3,2.62,3.52a28.83,28.83,0,0,1,2.23,3.83,28.37,28.37,0,0,1-3.3-3q-1.53-1.57-2.91-3.28c-.92-1.13-1.8-2.3-2.62-3.51A29.07,29.07,0,0,1,657.05,603.27Z"/><path class="cls-4" d="M670.45,603.85a33.59,33.59,0,0,1-2.76,3.78q-1.5,1.79-3.12,3.43t-3.39,3.17a30.76,30.76,0,0,1-3.74,2.82,30.85,30.85,0,0,1,2.77-3.78q1.49-1.78,3.11-3.43t3.39-3.17A31.56,31.56,0,0,1,670.45,603.85Z"/><path class="cls-4" d="M648.9,609.67c2.25-.23,4.5-.28,6.74-.29s4.47.07,6.71.2,4.46.32,6.69.57a66.22,66.22,0,0,1,6.65,1.08,66,66,0,0,1-6.73.29q-3.36,0-6.71-.2t-6.69-.57A66,66,0,0,1,648.9,609.67Z"/><path class="cls-5" d="M217.83,236.86s-2.14-3.31,1.16-7.19,90.88-126.21,90.88-126.21,2.91-5.25,6.79-6.22,93.6-12,104.86-13,73-6.79,75.34-5.82,7.38,6,5.24,10.68-36.5,66.21-36.5,66.21l29.51,33.59L324,302.1s-11.16-25.92-13.49-38.35-4.28-22.91-4.28-22.91-70.68,1.74-79.22,3.3S217.83,236.86,217.83,236.86Z"/><path class="cls-6" d="M222.52,243.88l-.23-4.69,94.57-127.38s-.72-5.7,19.73-6S502.1,89.09,502.1,89.09s4.86-4.66-5.24-10.68-180.2,18.83-180.2,18.83L219,229.67S214.39,241.19,222.52,243.88Z"/><path class="cls-7" d="M306.27,240.84l-83.75,3s-1.78-2.75-.23-4.69,78.21-111.68,84-112.06,4.49,5.36-1.14,14.09-15.34,28.35-17.67,37.09-2.52,12.62-2.52,12.62,20-18.64,35.14-15-15.53,13.21-15.73,33.21S306.27,240.84,306.27,240.84Z"/><path class="cls-6" d="M343.27,167.34s12.81,65.44,30.68,80,121.16-58.45,121.16-58.45l-38.64-42.71s-12-12.24-52.43-7.19S343.27,167.34,343.27,167.34Z"/><path class="cls-8" d="M265.2,350.84a2.92,2.92,0,0,1-2.88-2.5c-.14-1-3.53-24.93-2.54-37.92,1-12.55.77-65.64.77-66.18a2.91,2.91,0,0,1,2.9-2.92h0a2.91,2.91,0,0,1,2.91,2.9c0,2.2.18,53.86-.78,66.64-.94,12.36,2.47,36.41,2.5,36.65a2.92,2.92,0,0,1-2.47,3.3Z"/><ellipse class="cls-8" cx="264.57" cy="353.29" rx="7.06" ry="6.17" transform="translate(-166.41 258.06) rotate(-40.71)"/><path class="cls-8" d="M261.91,356.86s-4.47,11.06-4.47,16.7S260,401.71,259,408.9s-1.94,11.65-.77,12.42,14.75.2,15.72-1.74-1.74-16.7-1.35-22.34,2.13-28.54,0-34.17-3.13-.89-4-5.11S261.91,356.86,261.91,356.86Z"/><circle class="cls-5" cx="507.83" cy="406.08" r="213.69"/><path class="cls-9" d="M477.83,615.5s26.6-5.63,34.56-8.93,25.25-13.4,24.86-14.18-28.35-1.16-30.88-4.66-1-5.82,1-5.82,43.31,2.52,47.19,0,30.68-28.55,31.26-30.68,48,0,49.52-1.36,8.35-9.91,6.79-11.27-11.45,1.56-27.18.78-18.25-2.13-18.25-2.13,7.57-7,7.57-10.1-4.27-2.91-10.49.78S574,532,568.9,536.27s-27.77,24.47-37.28,26.61-24.86-1.94-38.64,3.88-21.75-.78-30.3.78-13.39,2.13-13.78-1.17,3.69-7,3.69-7l149.12-63.69-12.62-56.11L656.86,420l25.24,85.25-9.71,39.61s-31.84,39.61-76.89,58.64S519.19,619,500.94,620s-23.5-2.52-23.4-2.42A12.68,12.68,0,0,0,477.83,615.5Z"/><path class="cls-9" d="M621.52,225.79s18.64,51.07,15,70.68,44.47-15.93,44.47-15.93S665.21,253,645.6,238.8,621.52,225.79,621.52,225.79Z"/><path class="cls-6" d="M405.6,239.38s11.65,6.6,12.81,19.42-.78,26-12.23,40.77-36.12,42.93-37.29,55.84-33,72.9-27.37,113.29,15.14,65.05,30.48,78.45,46.8,34.56,80,17.28S504.24,473,504.24,473s-61.9-94-75.86-90.17-38.22,15.12-43.27,52.6,8.74,61.36,15.53,67.57,9.91,7.19,10.49,5S398.05,496,399.54,466s21-43.86,37.27-43.23S472.68,442.2,470,468.6s-22.92,61.95-54.18,62.72-44.47-46.79-47.57-65.43-3.5-58.84,1.55-65.25,3.88-23.49,24.08-48.15,41.16-51.65,44.66-73.6S431.43,242.6,422,237.73s-16.66-2.53-17-1.75A2.6,2.6,0,0,0,405.6,239.38Z"/><path class="cls-6" d="M390.64,375.89s-4.27-2.72,5.05-13,7-17.09,12.62-16.9,1,4.66-3.1,13S393.17,379.19,390.64,375.89Z"/><circle class="cls-4" cx="515.79" cy="253.07" r="2.62"/><ellipse class="cls-4" cx="507.73" cy="260.16" rx="4.08" ry="3.5"/><ellipse class="cls-4" cx="430.94" cy="315.79" rx="4.37" ry="2.82"/><ellipse class="cls-4" cx="411.81" cy="455.3" rx="5.63" ry="3.5"/><ellipse class="cls-4" cx="415.01" cy="471.42" rx="3.79" ry="3.3"/><ellipse class="cls-4" cx="441.13" cy="471.13" rx="2.72" ry="2.43"/><rect class="cls-4" x="372.78" y="465.4" width="27.57" height="7.18" rx="2.75"/><path class="cls-9" d="M407.35,485.5h-.12c-.19,0-19.79-1-30.41-.2-11,.79-29.13-2.61-29.89-2.75a2.23,2.23,0,0,1,.83-4.39c.18,0,18.29,3.43,28.74,2.68,10.89-.77,30.14.15,30.95.19a2.24,2.24,0,0,1-.1,4.47Z"/><path class="cls-9" d="M431.13,488.92a116,116,0,0,1-12.44-1.11,2.24,2.24,0,0,1,.6-4.43c5.32.72,11.87,1.31,13.18,1,2.66-.61,13.21-1,14.41-1a2.24,2.24,0,1,1,.15,4.47c-4.35.14-11.87.52-13.55.91A11.23,11.23,0,0,1,431.13,488.92Z"/><path class="cls-9" d="M428.26,502.18c-2.3,0-4.09-1.95-5.24-3.21-.3-.33-.61-.67-.86-.9-3.19-.58-22.82-.81-40.24-.73h0a2.23,2.23,0,1,1,0-4.46c.1,0,10.08-.05,20.12.05,21,.2,21.75.74,22.59,1.36a13.91,13.91,0,0,1,1.7,1.66,8,8,0,0,0,1.94,1.75,17.15,17.15,0,0,0,1.92-1.06c2.2-1.33,4.93-3,7.56-1.55,2,1.11,4.11,2.05,4.13,2.06a2.24,2.24,0,1,1-1.85,4.07c-.09,0-2.23-1-4.42-2.21-.51-.12-2.27.94-3.11,1.45a20.21,20.21,0,0,1-2.53,1.37A4.3,4.3,0,0,1,428.26,502.18Z"/><path class="cls-9" d="M400.16,511.13a2.41,2.41,0,0,1-.64-.09l-5.24-1.56a2.23,2.23,0,0,1,1.27-4.28l5.24,1.55a2.24,2.24,0,0,1-.63,4.38Z"/><path class="cls-9" d="M426.8,331.58c-1.1,0-2.34,0-3.75-.07-4.47-.14-8.45-.47-8.61-.49a2.23,2.23,0,1,1,.37-4.45c7.48.63,16.69.81,18.52,0a25.78,25.78,0,0,1,9.06-1.74,2.23,2.23,0,1,1,0,4.46,21.58,21.58,0,0,0-7.25,1.36C434.19,331.07,432.3,331.58,426.8,331.58Z"/><path class="cls-9" d="M441.61,317.83a2.24,2.24,0,0,1-.3-4.45c10.66-1.46,12.12-.62,12.68-.31a2.24,2.24,0,0,1-2,4c-1.16-.22-6.08.2-10.06.75Zm10.16-.88Z"/><path class="cls-9" d="M535.6,274.33a2.24,2.24,0,0,1-2.18-1.73,14,14,0,0,0-4-2.46c-2.77-.39-23.48,1.63-37.48,3.21a2.23,2.23,0,1,1-.5-4.44c.09,0,9.16-1,18.39-1.92,19.2-1.85,20.34-1.38,21.17-1,1.6.66,6.81,3.08,6.81,6.14A2.23,2.23,0,0,1,535.6,274.33Zm-2.24-2.23Z"/><path class="cls-9" d="M524.34,263.65h-.13l-7.18-.39a2.23,2.23,0,1,1,.24-4.46l7.19.39a2.23,2.23,0,0,1-.12,4.46Z"/><path class="cls-9" d="M544.47,570.57h-.41c-2.91,0-4.66-.54-5.63-1.6a10.12,10.12,0,0,0-3.9-.46,2.24,2.24,0,0,1-.2-4.47,21.85,21.85,0,0,1,2.69.09c2.21.21,3.68.75,4.59,1.69A17.11,17.11,0,0,0,547,566a2.24,2.24,0,0,1,.43,4.45C547.4,570.45,546.05,570.57,544.47,570.57ZM541.76,566Z"/><path class="cls-9" d="M516.2,332.61s-4.39,7.16,16.39,11.24,15.73,22.33,15.73,22.33,1.35,19.22,7.76,22.91,10.9-.36,10.9-.36-6.82-8.77-6.63-13.82.78-6.6.78-6.6,9.32,9.52,18.64,9.91,15.73-8.94,23.89-9.91,20.19.59,20.19.59l4.85-18.65-105.05-26Z"/><path class="cls-10" d="M447,537.83s3.1-6.22,1.74-18.06,11.85-18.45,16.9-29.71,10.48-22.33,10.48-28.35-1.94-31.65-1.94-31.65l-35.92-16.5s-13.4-13.6-8.93-35.93a53.84,53.84,0,0,1,28-37.86c8.93-4.86,44.07-1,50.48,1.55S520,352.78,527,352.39s28.15,3.3,26.6,17.09,1.36,18.25,9.12,18.83,11.07-5.43,17.48-2.91,10.87,8.35,11.46,11.07,1.55,6,1.55,6,12.62-6.41,13-14-3.5-14.95,4.85-18.06,6.8-3.5,7-6.22-7.18-4.66-18.44.78-15.34,7.57-21.75,3.69-24.08-24.85-30.1-26.8-25.82-1.16-30.29-6.21-6.21-13-1.55-19.81,12.81,1.36,18.25-5.63-1.94-22.33,7.18-28.35,15.34.39,15.73,1.36,3.3,5.83-1.36,13.6,11.46,11.45,21.56,10.68,12.62,0,14-4.08-14.57-8.16-13.59-14.76,3.69-11.65,13.39-9.9,36.31,19.22,43.89,18.64,10.29-3.69,11.26-19.61,0-21.17,4.47-21.95,14.75-2.33,22.33,10.88,17.67,30.29,21.55,34.37S707.11,321.9,711.81,338c2.72,9.32,4.86,18.84,4.86,18.84s1.94,2.52,1.74,8.35,1,10.68,3.3,12.23,6.61,4.27,4.08,10.1-2.13,17.67-2.52,36.11-9.71,76.51-37.48,110.68S674,513.07,674,513.07s1.75-27.57-6.21-42.72-10.87-20.77-9.32-24.46S651.91,442,650,435.4s-10.88-5-11.07-.78-1,8.35-1.75,9.71,7.77,7.19,8,10.68-2.52,9.52-12.23,15.15-15.54,9.9-24.47,5.43-7-16.11-11.26-15.53-2.7,3.61-1.93,4.91,2.67,9,2.21,11.77,3.6,6.43,13.9,5.07,11.65,1.75,8.15,12-14.17,16.7-29.51,24.66-30.49,6.6-38.84,14.37-18.06,18.44-31.07,20.39-17.08-3.5-27.38-1.95-19.61,9.32-31.84,6.41-10.78-5-10.58-10.19S446.28,541.23,447,537.83Z"/><path class="cls-11" d="M550.65,407.15s-7.58.19-7.58-2.14.59-5.24,9.32-4.27,6.8,4.47,6.8,4.85,1.94,1.17,6.8.2c6-1.19,12-2.33,13.78.39s1.91,7.64-8.93,6.79c-9.9-.77-16.7,5.25-21.17.59S550.65,407.15,550.65,407.15Z"/><path class="cls-11" d="M504.24,369.87c-.22-1.94,1.36-4.66,7-4.47s6.79,3.5,10.48,4.85a20.06,20.06,0,0,0,9.91.59c1.36-.39,4.66-.39,5.24,1.74s-4.33,3.73-7.77,3.69-8.72-.72-12-3.49a9.09,9.09,0,0,0-5.82-1.75c-1.82.13-3.36,1.45-4.47,1.36A2.49,2.49,0,0,1,504.24,369.87Z"/><path class="cls-12" d="M540.55,356.08c-1.34,1-1.17,2.72.77,4.08s7.77,1.55,7,6-2.33,5.24-2.14,8.35-.39,4.07,3.11,8,1.16,4.46,2.52,6,3.5,1.55,4.27.58,1.45-2.59-1.12-6-1.21-7.93-1-11.81,1-8.55-4.08-12.43S542.1,354.91,540.55,356.08Z"/><path class="cls-12" d="M514.72,331.81s-1.16-3.11,4.47-2.33,16.89,6.6,25.24,7,13.88,2.42,15.34,3.88c1.94,1.94,6.22,8.54,11.26,17.67,3.35,6,12.2,6.61,16.12,6.21,7.21-.73,7.38-7.76,16.12-7.37s12.4,2.05,11.93,5.88-8.29-1.31-12.73,2.13-11.53,10.53-23.18,7.42S558.63,346.52,549.64,344s-16.85-1.74-22.3-2.84C521.1,339.86,514.7,336.59,514.72,331.81Z"/><path class="cls-12" d="M635.31,430.06c2.09-2.4,10.09-2.14,11.26-.58s1.36,4.85-2.14,4.66-5-1.36-5.43,1.36.38,8.54-2,9.32-5.24-2.53-4.27-4.86S632.59,433.17,635.31,430.06Z"/><path class="cls-13" d="M578.25,311.4c7.09-.76,11.69,3.16,11.9,4s.63,5.68-5.84,3.58-10.23,0-12.53,2.94c-.91,1.17-7.09-.42-4.59-4S572.41,312,578.25,311.4Z"/><path class="cls-13" d="M588.93,326.31c0-3.63,2.47-4.81,9.15-9s8.35-4.42,11.69-.64,5.85,5.89,9.6,5.47,7.93,6.74-.21,6.32-10-6.11-15.44-3.37S588.93,329.93,588.93,326.31Z"/><path class="cls-13" d="M597.32,279.45s2.53-1,8.58,2.82,23.26,14.07,30.38,10.41c9.08-4.66,10.74-23.4,9.08-32.87s7.41-15.94,11-14.46,28.8,28.4,30,36.6S694.31,297.73,702,304s15.65,38.08,13.77,44.39-23-20.19-35.06-18.09-39.24.63-38.62-4.21,3.55-5.47,7.94-5.05,20.24,1.05,19.62-4.84-33.19-3.57-44.25-10.73S594.37,288.83,594.37,284,597.32,279.45,597.32,279.45Z"/><path class="cls-14" d="M441.91,381.32s-1.17,5.63,2.52,13.21A23.7,23.7,0,0,0,459,406.76c3.89,1,11.85,1.55,13-1s-.38-6-4.46-7.19-12.43-10.29-13.21-13.2-3.3-9.51-7-9.71S441.91,378.8,441.91,381.32Z"/><path class="cls-14" d="M460.35,533.36s-4.46-11.26,5-26S480.74,478.6,480,471s-7.19-1.94-5.83-14.95-1.56-27.86-2.92-28.1,2.53-8.79,9.91-9.76,1-18.06-6.8-23.89S456.86,379,457.05,371.61s-1.36-16.7,1-18.83,3.3-3.11,12.82,4.85,21.16,19.61,22.91,22.72,13.79,10.88,19.42,14,17.48,28,13.79,33.79,7.57,7.77,12.62,5.24,13,0,12,10.49-10.49,23.1-11.27,31.07.39,13.78,6.8,18.83,9.13,10.29.19,19.42-26.79,13.4-38.64,12.62-22.13-7.19-30.87-1-10.87,10.1-14.18,9.32Z"/><path class="cls-15" d="M470.06,503.65s1.17,4.86,13.79-3.3,14-.58,16.7-.39,0-4.27,9.12-8.15,20-12,16.51-23.89-12.82-15.53-12.23-26.4-10.55-33.36-20.39-44.28c-11.23-12.45-21.49-17-22.53-12.62-.28,1.24,20.62,25.08,13.4,30.1-8.37,5.82-15.23,9.51-13.2,13.2,1.49,2.73.63,1.83,2,8.51,1.51,7.16-.5,10.35.29,20,.77,9.51-.39,8,5.24,11.26,3.78,2.21-4,22.23-6.7,26.89a34.77,34.77,0,0,0-3.49,7.52Z"/><path class="cls-14" d="M569.87,447.83s-.9-9.66,24.43-10S629,436.24,633.21,440s18.8,14.72,8.12,24c-5.14,4.46-9.17,6-13.79,8.93-5,3.19-10.49,7.55-13.51,5.5-6.1-4.14-10.76-3.75-13.2-11.1-2.62-7.88-9.5-17.68-19.89-18.28S571.42,448.9,569.87,447.83Z"/><path class="cls-14" d="M642.3,406.57s-3.3.19-3.69,4.27,2.91,5.24,8,5.05,18.25.19,23.88-1.95,9.13-2.13,8-5.82-10.29-6.8-14.95-12.62-7.77-4.08-9.71-2.92-3.3,3.31-2.13,7,.39,4.86-1.36,5.64S642.3,406.57,642.3,406.57Z"/><path class="cls-15" d="M626.18,399.57s3.88-11.06,8.74-11.06,8.15,7.76,8.15,7.76,1.36,5.25-5.82,7.19-9.71.58-10.29-.2S626.18,399.57,626.18,399.57Z"/><path class="cls-15" d="M668.7,384.43s-1.16-3.3,4.08-3.88,10.49-2.33,11.65-5.05,14.57-4.08,15.93.77-2.72,6.22-2.72,6.22-9.91,9.9-15.93,9.32S669.48,387.73,668.7,384.43Z"/><path class="cls-14" d="M671.23,524s6.13-19.25-2.07-38.61-13.64-24.57-13.64-27.61-1.3-7.17,15.21-10.65,28.25-34.11,30.64-41.5S710.5,385.46,719,382s11.08-3.48,11.52-.44-5.65,8.69-5.87,15.21-1.75,57.17-8.37,79.76-25.69,54.42-28.52,55.29S671.23,524,671.23,524Z"/><path class="cls-15" d="M686.37,511.61s8.94-5.43,9.32-20.19-10.09-12.62-3.49-18.64,15.15-7.38,16.12-10.87S695.69,446.37,693.17,446a4.88,4.88,0,0,0-5.82,4.86c-.2,3.88-1.36,10.29-5.64,6.21s-13.39-12-18.44-9.71-9.41,6.87-8,11.65c3.41,11.28,23.19,27.19,15.92,65-.69,3.6,5.24-3.3,5.24-3.3l3.89-3.49Z"/><path class="cls-15" d="M692.78,437.44s8.74-7.19,9.91-9.52a4.88,4.88,0,0,1,7.18-1.94c2.91,1.94,7,7.19,6.6,9.52s-3.49,4.66-5.63,4.66-5.05-4.66-8.74-2.14-4.46,3.3-6.41,2.72S691.81,439,692.78,437.44Z"/><path class="cls-15" d="M571.22,445.84a27.9,27.9,0,0,1,16.12,1.5c8.16,3.5,12.24,10.1,13.4,10.1s3.89-2.33,4.27-5.44,12.24,1,12.24,5.05,7,3.5,10.48-1.36,7.38-12.62,9.91-11.65,7.37,8.54,7.47,11,1.26,7.48-12.23,15.15-14.69,9.92-18.85,8.31-11.57-5.25-13.2-11.1-10.77-16.92-21.83-17.7-9.32-.57-9.13-1.84A3.19,3.19,0,0,1,571.22,445.84Z"/><g class="cls-16"><path d="M438.22,427.92s-13-.19-18.26-4.85c-3.46-3.08-9.12-2.52-10.87,1.94s1,7.38,2.91,9.32,9.32,6.22,17.09,7.58a279.22,279.22,0,0,0,43.11,3.88,208.19,208.19,0,0,0,40-4.47c1.85-.39,3.64-.79,5.35-1.21,11.93-2.88,20.21-6.19,21.06-7.72,1-1.75-7.77-1.55-13-1s-40.39-2.14-46.61-4.27-26.6-12.43-32.42-12.62-9.13,2.52-9.71,4.85A11.86,11.86,0,0,0,438.22,427.92Z"/></g><g class="cls-16"><path d="M619.77,545.79s-2.33,0-1.94,2.72,11.26,3.3,11.26,3.3,28.93,6.21,53.4-.2,34-26,32.82-31.65-5.17-7.13-10.25-5.41-11.46,7.24-13.71,10.12-2.65,1.12-2.65,1.12,5-9.9-1-11.85-11.18,1.64-15,8.59-9.26,11.8-13.34,13.55-2.13-1.94-7.37-2.33-3.5,6.6-10.88,9.13S619.77,545.79,619.77,545.79Z"/></g><g class="cls-16"><path d="M644.14,353.26c-.39,1.95-1.07,5.73,7.87,9.23a96.32,96.32,0,0,0,32.81,5.82c10.29-.19,11.46.78,11.46.78s-.39,5.63,9.12,4.66,15-9.32,16.7-9.32,6.8-1.17,7.38,0,3.89,2.13,5,.39,1.17-4.08,3.88-3.69,4.66,1.36,5.83.19.39-3.49-.78-3.69-17.86-2.52-21.94.2S700.74,347,700.55,346s-2.91-3.69-6.8-2.91-3.1,3.3-3.1,3.3a104.22,104.22,0,0,1-13.51-8.59c-6.88-5.2-18.92-5.58-20.09.63s2.33,8,2.33,8-5-1.65-8.64-.1S644.53,351.32,644.14,353.26Z"/></g><path class="cls-4" d="M438.22,422.1s-13-.19-18.26-4.86c-3.46-3.07-9.12-2.52-10.87,1.95s1,7.38,2.91,9.32,9.32,6.21,17.09,7.57A276.6,276.6,0,0,0,472.2,440a208.37,208.37,0,0,0,40-4.46c1.85-.39,3.64-.8,5.35-1.21,11.93-2.89,20.21-6.2,21.06-7.72,1-1.75-7.77-1.56-13-1s-40.39-2.13-46.61-4.27-26.6-12.42-32.42-12.62-9.13,2.53-9.71,4.86A11.86,11.86,0,0,0,438.22,422.1Z"/><path class="cls-4" d="M619.77,540s-2.33,0-1.94,2.72,11.26,3.3,11.26,3.3,28.93,6.22,53.4-.19,34-26,32.82-31.65-5.17-7.14-10.25-5.41S693.6,516,691.35,518.84,688.7,520,688.7,520s5-9.9-1-11.84-11.18,1.63-15,8.58-9.26,11.81-13.34,13.56-2.13-2-7.37-2.33-3.5,6.6-10.88,9.12S619.77,540,619.77,540Z"/><path class="cls-4" d="M644.14,347.44c-.39,1.94-1.07,5.73,7.87,9.22a96.33,96.33,0,0,0,32.81,5.83c10.29-.2,11.46.77,11.46.77s-.39,5.64,9.12,4.66,15-9.32,16.7-9.32,6.8-1.16,7.38,0,3.89,2.14,5,.39,1.17-4.08,3.88-3.69,4.66,1.36,5.83.2.39-3.5-.78-3.69-17.86-2.53-21.94.19-20.78-10.87-21-11.84-2.91-3.69-6.8-2.92-3.1,3.31-3.1,3.31a103.69,103.69,0,0,1-13.51-8.6c-6.88-5.19-18.92-5.58-20.09.63s2.33,8,2.33,8-5-1.66-8.64-.1S644.53,345.5,644.14,347.44Z"/><path class="cls-4" d="M409.87,222.49s-5.63,3.88-6.22,1,1.82-5.75,4.6-7.15,21.81-15.18,43.95-17.9,29.9-11.65,29.9-11.65,7.19.58,9.71,2.52a24.39,24.39,0,0,1,4,3.82,16.06,16.06,0,0,0,4.75-8.67c1-5.44.58-4.86.58-4.86l6.21-4.07s13,5,19,9.7,11.27,9.71,11.27,9.71,4.46-2.33,11.65,1,8.73-.58,9.7-1.74,3.89-2.14,5.25-2.14,26.41,15.53,36.5,34.18,3.69,28.35-12.62,34.75-45.24,3.89-50.87-4.27-4.57-11-2.43-13.3,6.6-5.44,5.44-7.57-3.69-3.89-15,1-39.62,6.6-47,6-19.22,0-26.21-11.46S424.92,213.46,409.87,222.49Z"/><path class="cls-17" d="M534.33,252s-1.74-3.69,2.92-3.88,10.29,7.57,22.91,7.57,15.73-1.75,17.09-3.11-3.43-8.75-7.58-8.93c-4.46-.19-8.69,2.57-10.48.78s-1.55-3.5.39-6,3.49-5.24,3.1-8.16c-.3-2.25,5.64-2.91,10.68,1.17s7.19,4.46,8.74,3.69-.55-15.1-6.41-24.27-12.23-14.76-15.34-15.15,2.72-3.88,3.89-3.69,20.36,10.42,30.68,24.08S607.34,234.53,606,245s-20.78,20.93-38.06,21C548.21,266,536.68,260,534.33,252Z"/><path class="cls-17" d="M507.34,175.3s-3.88,1.36-.58,3.69,12,8.35,12.62,13.4-1.85,5.83-1.94,6.8c-.39,4.07,3.69,4.07,3.69,4.07a69,69,0,0,1,8-5.43c5-2.92,8.55-2.92,8.55-2.92a9.54,9.54,0,0,0-2.72-4.66,62,62,0,0,0-12.86-9.13C517.44,178.8,509.09,175.11,507.34,175.3Z"/><path class="cls-17" d="M482.1,186.76a54.61,54.61,0,0,1,8.93,1.36c3.38.94,6.7,2.72,6.61,2.91a15.06,15.06,0,0,1-1.75,2.14c-3.5,3.74-12.24,9.9-12.24,9.9s-1-.2-.58-.58,6.72-7.82,4.08-11.27A15.15,15.15,0,0,0,482.1,186.76Z"/><path class="cls-9" d="M296.66,452.78s6.22,33.4,14.95,30.87S323.07,454.92,344,445s15.54-14.95,17.67-25.82,13.79-18.84,15-32.24-14.37-45.82-14.17-58.25,5.44-9.71,6-15.53-4.66-27,3.88-35.15,27.77-40.58,27.77-42.52-1-7-8.93.77-43.5,59-46.22,81.56S296.66,452.78,296.66,452.78Z"/><path class="cls-10" d="M395.75,232.43s1.69-8.78-2.58-7.23-24.66,17.29-30.49,22.92-18.44,18.44-23.3,31.07S326.64,290.88,322.1,299s-16.89,31.85-19.42,43.3-4.5,23-5.82,25.83,4.46,26.41,4.46,26.41,47.19-22.72,46-38.84,3.21-18.93,5.15-18.93-3.3-6.41,4.85-19.81-4.85-16.7,4.86-32.42,22.33-36.7,26-39.42S393,233.73,395.75,232.43Z"/><path class="cls-14" d="M310.64,344.43c-3.1.19-5.21,12-11.63,20.86S285,384.23,286.18,393s3.3,12.62,1.36,19,8.79,17.13,9,23.22,2.32,24.9,6.87,25.31,4.17-2.31,8.24-10.47,11.66-17.67,20-21S345,421.71,347,408.51s10.49-16.7,14-23.11,4.27-16.7,0-26-6-26.41-10.49-24.08-2,13.29-4.85,17.09-1.85,11.94-7.09,12.72-14.57-.39-19.61,7-9.13,18.45-11.27,18.06-4.85-3.69-1.36-11.65,7.19-16.12,7-22.14S313.75,344.23,310.64,344.43Z"/><path class="cls-15" d="M305.4,462.49s-10-1.22-8.54-15.15-6.22-20.58-8.16-24.66S286,416,287.54,412a20.12,20.12,0,0,0,.58-8c-1-4.47,5.12-4.62,5.24-3.11.39,4.86,4.82,9.3,5.24,11.85,1.36,8.15,6.41,3.88,8-.2s5.82-6.6,9.32-1.16,4.46,3.69,7,.78,7.38-15,7.38-18.84,1.35-12,6.4-12.81,21,9.27,17.68,13.66-8.07,9.23-7.19,19.15-13.4,14.37-20.72,18.89c-7.51,4.63-10,11.21-12.87,16.45-2.29,4.11-4.66,7.38-4.76,10.39S305.4,462.49,305.4,462.49Z"/><g class="cls-16"><path d="M277.54,332.49a12.73,12.73,0,0,0-4.86,11.65c1,7.57,8.55,13.2,15.92,11.84s11.25-3.08,13.1-2.71,3.6,3.88,14.28,3.68,21.17-4.46,24.08-4.66,8.16-3.69,4.27-8.15-18.44-.58-21.55-2.72c0,0-2.91-3.11-6.6-2.91s-7.77,1.16-7.58-.39-.67-2.43-1.06-6.9,1.06-8.83-5.93-8.64-10.87,2.53-12.81,5.44-1.75,3.3-1.75,3.3A17.25,17.25,0,0,0,277.54,332.49Z"/></g><path class="cls-4" d="M277.92,325.11a12.75,12.75,0,0,0-4.85,11.65c1,7.57,8.54,13.2,15.92,11.84s11.25-3.08,13.1-2.7,3.6,3.87,14.28,3.67,21.17-4.46,24.08-4.66,8.16-3.69,4.27-8.15-18.45-.58-21.55-2.72c0,0-2.91-3.11-6.6-2.91s-9.23-.88-9-2.43,2.52-4.85,3.88-8.74c1.48-4.23-2.43-4.95-9.42-4.75s-10.87,2.52-12.81,5.43-1.75,3.3-1.75,3.3A17.29,17.29,0,0,0,277.92,325.11Z"/><path class="cls-4" d="M463.85,304.82h-47a1,1,0,1,1,0-1.94h47a1,1,0,1,1,0,1.94Z"/><path class="cls-4" d="M472.78,309.09H427.54a.59.59,0,0,1,0-1.17h45.24a.59.59,0,0,1,0,1.17Z"/><path class="cls-4" d="M420.74,300.55c-.95-3.84,16-36.7,16.89-36.7,2.14,0,9.52,13.59,10.88,24.85s.39,11.26.39,11.26Z"/><path class="cls-4" d="M454,271.22s8.73,7.38,9.51,17.87-.78,12.62-.78,12.62l-9.51.19Z"/><path class="cls-18" d="M458.9,307H426.28a1.07,1.07,0,1,1,0-2.13H458.9a1.07,1.07,0,1,1,0,2.13Z"/><path class="cls-17" d="M437.63,263.85c.05-2.26,10.34,12,11.27,25.82.79,11.86,0,10.29,0,10.29l-10.88.2Z"/><path class="cls-17" d="M453.17,301.9s8.93-.77,8.93-8.73a103.69,103.69,0,0,0-.39-11.07,26,26,0,0,1,2.33,13c-.77,6.79-1.36,6.6-1.36,6.6Z"/></svg>