<svg id="Layer_1" data-name="Layer 1" xmlns="http://www.w3.org/2000/svg" viewBox="0 0 877 785"><defs><style>.cls-1{fill:#dfecff;}.cls-2{fill:#00215c;}.cls-3{fill:#fff;}.cls-4{fill:#0064e1;}.cls-5{fill:#75afff;}.cls-6{fill:#ac7039;}.cls-7{fill:#fbddb1;}.cls-8{fill:#0044ab;}.cls-9{fill:#002b72;}.cls-10{fill:#3c1d00;}.cls-11{fill:#200c00;}.cls-12{fill:#8ebeff;}.cls-13{fill:#f35c6c;}.cls-14{fill:#001745;}.cls-15{fill:#d7aa89;}.cls-16{fill:#003384;}.cls-17{fill:#9e673e;}.cls-18{fill:#bc8c69;}.cls-19{fill:#0056d5;}.cls-20{fill:#0072ee;}.cls-21{fill:#974900;}.cls-22{fill:#ac0228;}.cls-23{fill:#9b0022;}.cls-24{fill:#c08259;}.cls-25{fill:#b67449;}.cls-26{fill:#000f33;}.cls-27{fill:#000631;}.cls-28{fill:#8d5027;}.cls-29{fill:#b67144;}.cls-30{fill:#bed9ff;}.cls-31{fill:#579fff;}.cls-32{fill:#0081fc;}.cls-33{fill:#003b98;}.cls-34{fill:#d88e00;}.cls-35{fill:#824500;}.cls-36{fill:#a6ccff;}.cls-37{fill:#f47782;}.cls-38{fill:#f7c14e;}.cls-39{fill:#e17544;}.cls-40{fill:#fad08a;}.cls-41{fill:#e97a4e;}.cls-42{fill:#a33e00;}.cls-43{fill:#be0e31;}.cls-44{fill:#592d00;}.cls-45{fill:#d25437;}</style></defs><path class="cls-1" d="M775,652.77l-673.19-79.6a21.16,21.16,0,0,1-18.67-21V198.51a21.21,21.21,0,0,1,18.59-21L772.57,95.15A21.19,21.19,0,0,1,796.34,116L798.7,631.6A21.21,21.21,0,0,1,775,652.77Z"/><path class="cls-2" d="M168.33,287.94l92.11,52.19s17.56-14.54,73.47-59.62l14.31,20.42-72.39,79.25A18.14,18.14,0,0,1,263,386.05L161.76,388.6Z"/><path class="cls-3" d="M695.55,206.52l-2.17-.85c.08-.23,8.36-21.26,27.3-20.88,10.6.24,15.24,5.88,19.34,10.83,3.24,3.94,6,7.34,11.29,7.5,7.73.31,18.79-7.5,24.59-30.16l2.24.55c-3.78,14.76-13,31.93-26.37,31.93h-.54c-6.26-.23-9.51-4.18-13-8.35-4-4.8-8.12-9.82-17.64-10.05C703.36,186.73,695.62,206.37,695.55,206.52Z"/><path class="cls-4" d="M736.46,744.8a8.27,8.27,0,1,0-8.28-8.27A8.27,8.27,0,0,0,736.46,744.8Z"/><path class="cls-5" d="M537.31,730.42A7.71,7.71,0,0,1,535,715.35l101-32.48,104.32,29.62a7.76,7.76,0,1,1-4.25,14.92L636.15,699l-96.52,31A8.1,8.1,0,0,1,537.31,730.42Z"/><path class="cls-5" d="M636.07,722.15a7.75,7.75,0,0,1-7.73-7.73v-20a7.74,7.74,0,0,1,15.47,0v20A7.76,7.76,0,0,1,636.07,722.15Z"/><path class="cls-4" d="M638.7,742.72h-5.33a5.55,5.55,0,0,1-5.57-5.57V729a5.54,5.54,0,0,1,5.57-5.56h5.33a5.54,5.54,0,0,1,5.57,5.56v8.12A5.55,5.55,0,0,1,638.7,742.72Z"/><path class="cls-5" d="M644.58,589.71H626.71V691.53h17.87Z"/><path class="cls-5" d="M558.89,598.36h94.2A47.41,47.41,0,0,0,700.5,551H511.4A47.47,47.47,0,0,0,558.89,598.36Z"/><path class="cls-6" d="M573.2,722.85l-2.48,11.67-27.06-1.93,5-18.64Z"/><path class="cls-6" d="M481.63,674.68s-5.26,6.11-4.87,11.83-1,17.63-9.52,22.57l-80.19-37.57s22.89-8.51,46-.77a27.19,27.19,0,0,0,32.1-12.37Z"/><path class="cls-7" d="M371.65,483.55,337.7,744.11l13.46.85,52.59-258.71Z"/><path class="cls-8" d="M681.24,556H570.72l80.51-289.24c3.48-12.52,14.31-21.11,26.61-21.11H835.76c18.48,0,31.86,18.87,26.61,37.73L816.27,449C798.56,512.46,743.65,556,681.24,556Z"/><path class="cls-2" d="M669,545.56H557l97.13-279.89a29,29,0,0,1,27.69-21H823.54a28.34,28.34,0,0,1,22.89,11.52,29.68,29.68,0,0,1,4.8,26.21L805.14,441.8a143.65,143.65,0,0,1-51.12,75A139.56,139.56,0,0,1,669,545.56Zm-108.89-2.32H669a136.78,136.78,0,0,0,83.6-28.38A142.14,142.14,0,0,0,803,441.1l46.09-159.43a27.11,27.11,0,0,0-4.4-24.2,26.34,26.34,0,0,0-21.12-10.59H681.78a26.82,26.82,0,0,0-25.52,19.49Z"/><path class="cls-9" d="M717.12,472.65s14,62.16-25.6,67.5-120.8.61-120.8.61l-93,148.84L463.61,682l-8.28-15,83.92-176.68Z"/><path class="cls-10" d="M226.8,218.5l-2.94,2.17L175,256.16l-7.27,20.33c-12.68-2.78-28-15.23-28-15.23-6.81-4.87-8.74-12.83-8.2-17.09s-1.32-6.1-2.86-9.66-3.41-14.38-.62-25.36,15.85-11.06,15.85-11.06a13.8,13.8,0,0,1,5.26-6.57c18.72-13,48.72-14.3,66.82-5.64a30.36,30.36,0,0,1,11.45,8.81C240.64,211.93,226.8,218.5,226.8,218.5Z"/><path class="cls-11" d="M167.71,276.49l4.41-20.64s-6.73-5.88-7.58-11.91"/><path class="cls-12" d="M67.87,360.15h95a80.47,80.47,0,0,1,77.65,59.3L285,583.06H130.59a80.87,80.87,0,0,1-78.11-59.77L23.86,417.75A45.59,45.59,0,0,1,67.87,360.15Z"/><path class="cls-11" d="M226.8,218.5l-2.94,2.17-21.5-26.83s1-8,13.84-8a30.46,30.46,0,0,1,11.45,8.81C240.64,211.93,226.8,218.5,226.8,218.5Z"/><path class="cls-10" d="M149.31,191.44s-2-5.87-19.34-4.48c-15.39,1.24-37.82,7.65-36.89,38.12a38.1,38.1,0,0,0,5.26,18c3,5.41,6.42,14.23,3.56,24-3.64,12.6,5.88,19,10,21.18a1.91,1.91,0,0,0,2.55-.85c1.4-3,4.88-9,11.37-9.51,8.74-.69,16.71-6.8,16.4-21.49S149.31,191.44,149.31,191.44Z"/><path class="cls-13" d="M245.21,470.33c0,11.21,114.07,20.25,254.75,20.25s254.75-9,254.75-20.25V456H245.21Z"/><path class="cls-7" d="M500,476.28c140.69,0,254.75-9.07,254.75-20.26S640.65,435.77,500,435.77,245.21,444.83,245.21,456,359.26,476.28,500,476.28Z"/><path class="cls-14" d="M248.69,487.34S313.11,493,326.64,520c12,24-58.39,201.25-58.39,201.25H233.76L261.6,559.94l-51.2-10.36L194.63,530.4Z"/><path class="cls-15" d="M169.65,252.06l45.7,14.84s-11.83,12.68.47,45.24c0,0,5.64,10.05-5.26,3.09s-41.84-29.61-44.78-35.88A33.65,33.65,0,0,0,169.65,252.06Z"/><path class="cls-15" d="M164.62,235.82c-.77,5.72.7,11.75,4.25,15.08,1.55,1.39,3.79,3.79,3.79,3.79L171.5,259a46.09,46.09,0,0,0,15.24,12.29c9.36,4.49,22.5,7.27,31.94,9.51s14-5.87,13.69-8.74a32.49,32.49,0,0,1,.23-6.65c2.09-2.93,2.94-1.46,2.63-4.56s-1.16-2.32-1.16-2.32l.54-4.64c2-1.23.31-4,.31-4a5.36,5.36,0,0,0,4.25-1.23c.55-3.1-2.08-3-2.08-3,.77-2.09,3.24-1.47,6.26-5s-.62-8.35-2.47-9.36S227.34,221.13,227.65,216s-3.09-11-3.09-11c-6.89-14.38-22.12-11.13-22.12-11.13.23,8.81-13.07,10.74-13.07,10.74,5.88,2,8.66,5,9.82,7.74a9.69,9.69,0,0,1-1.39,9.74c-1.24,1.54-2.55,3.86-1.39,5.33a9.42,9.42,0,0,1,2,4.87c-1,11.06-13.85,8.12-13.85,8.12s.31-10.59-7.65-12.6C169,225.69,165.08,232.34,164.62,235.82Z"/><path class="cls-16" d="M205.45,539.6,255.1,536s-11.21,25-11.36,32.78c0,0-59.4-1.86-81-.62S121,558,117.75,549s2.17-32.86-.23-36.5-5.8-7.49-4.18-13S126,392.08,126,392.08s-11.06-56,39.75-112.57c0,0,29,27.6,50.73,37.73,0,0,6.65,14.46,15.39,23s22.82,30.85,20.19,39.59-14.46,14.07-14.46,14.07l-1.4,9.12-8,26.83-.23.77s-3.09,12.76,0,15.54-2.78,7.43-4.18,9,3,2.55,2.17,4.87c-.77,2-1.47,12.6-1.7,15.78a3.75,3.75,0,0,1-.08.85l41.68,11.83S270,504.66,253.17,522C253.17,522,235.31,518.34,205.45,539.6Z"/><path class="cls-10" d="M209.24,222.52l-2.63-1.23c5.8-12.14,15.7-12,16.09-12l-.08,2.94C222.31,212.16,214.19,212.16,209.24,222.52Z"/><path class="cls-10" d="M214.66,228.25l-4.41-2.48,1.47-2.55,1.62.93A10.07,10.07,0,0,1,223.4,219l-.47,2.86c-.23,0-5.26-.7-7.58,4.95Z"/><path class="cls-10" d="M219.89,226.92c1,0,1.83-1.18,1.8-2.59s-.89-2.53-1.92-2.51S218,223,218,224.42,218.87,227,219.89,226.92Z"/><path class="cls-17" d="M177.15,249.35a1.1,1.1,0,0,1-1-.69,6.49,6.49,0,0,1,.08-5.65,5.59,5.59,0,0,1,3.33-2.32,6.07,6.07,0,0,0-2.79-7.11,5.37,5.37,0,0,0-4.17-1.08,4.16,4.16,0,0,0-2.25,1.62,1.07,1.07,0,1,1-1.85-1.08,6.13,6.13,0,0,1,3.55-2.71,7.52,7.52,0,0,1,5.88,1.32A8.33,8.33,0,0,1,181.4,242a.89.89,0,0,1-.85.62,3.56,3.56,0,0,0-2.4,1.47c-.54.85-.46,2.16.08,3.71a1.09,1.09,0,0,1-.62,1.39A.76.76,0,0,1,177.15,249.35Z"/><path class="cls-10" d="M234.46,261.49s-.7-3.55,1.7-8.81l-11.91,1.08Z"/><path class="cls-18" d="M211.1,278.43l-.77,1.78c0,13.22,1.39,18.24,1.39,18.24s-42.07-43.68-42.38-44.07c0,0,3,3.56,8,0,0,0,.54,3.79,5.57,5.1Z"/><path class="cls-17" d="M181.71,259.79a.94.94,0,0,1-.46-.08,8.81,8.81,0,0,1-4.49-3.86l-1.39.39h-.16a6.38,6.38,0,0,1-7.19-4.1,1.21,1.21,0,0,1,.7-1.39,1.19,1.19,0,0,1,1.39.69,4.17,4.17,0,0,0,4.8,2.63l2.32-.7a1,1,0,0,1,.92.16,1,1,0,0,1,.47.77c0,.08.38,1.94,3.63,3.4a1.11,1.11,0,0,1,.54,1.47A1.73,1.73,0,0,1,181.71,259.79Z"/><path class="cls-17" d="M213.65,280.51a1.06,1.06,0,0,1-.46-.07C205.69,277,194,270,193.85,269.92a1.08,1.08,0,0,1,1.09-1.86c.15.08,11.75,7,19.1,10.36a1.14,1.14,0,0,1,.54,1.47A1,1,0,0,1,213.65,280.51Z"/><path class="cls-13" d="M218.45,252.06s4.1,10.36,13.84,10.44c0,0,2.09.38,2.32-.7S232.52,255.23,218.45,252.06Z"/><path class="cls-3" d="M236.62,249.74l.23,3.63s-10,2.87-18.4-1.31l-1-2.32Z"/><path class="cls-17" d="M232.21,264.66c-5.26,0-10-2.63-13.53-7.65a28.31,28.31,0,0,1-3.87-7.66,1.51,1.51,0,0,1,1.86-1.85c8.89,2.55,21.65-.85,21.81-.93a1.44,1.44,0,1,1,.77,2.78c-.46.16-11.37,3.1-20.57,1.55,1.78,3.87,6,10.9,13.92,10.82a1.71,1.71,0,0,0,.93-.23,2.19,2.19,0,0,0-.31-1.23,1.45,1.45,0,1,1,2.63-1.24c.77,1.62.85,3,.15,4.1-1,1.62-3.17,1.54-3.4,1.54Z"/><path class="cls-11" d="M193.31,222.91a.91.91,0,0,1-.62-.23,1.11,1.11,0,0,1-.23-1.55c2-2.63,2.63-5,1.93-7-1.39-3.87-7.34-5.42-7.42-5.49a1.08,1.08,0,0,1,.54-2.09c.31.08,7.19,1.86,8.9,6.8.92,2.71.23,5.8-2.25,9.05A.75.75,0,0,1,193.31,222.91Z"/><path class="cls-11" d="M190.14,219.51a1.13,1.13,0,0,1-.7-.23,1,1,0,0,1-.07-1.55c1.54-1.85.54-3,.15-3.32a1.11,1.11,0,0,1-.15-1.55,1.09,1.09,0,0,1,1.54-.15,4.23,4.23,0,0,1,1.47,2.86,4.83,4.83,0,0,1-1.39,3.55A1.21,1.21,0,0,1,190.14,219.51Z"/><path class="cls-11" d="M155.65,271.62a1.24,1.24,0,0,1-.85-.38,1.11,1.11,0,0,1,.15-1.55c.08-.08,4.33-3.56,5.34-12.91a1.09,1.09,0,1,1,2.16.31c-1.16,10.36-5.95,14.22-6.11,14.38A2.44,2.44,0,0,1,155.65,271.62Z"/><path class="cls-11" d="M154.8,265.36a1.51,1.51,0,0,1-.54-.15,1.06,1.06,0,0,1-.39-1.47,24.25,24.25,0,0,0,2.09-5.42,1,1,0,0,1,1.31-.77,1,1,0,0,1,.78,1.32,25.71,25.71,0,0,1-2.32,6A1.56,1.56,0,0,1,154.8,265.36Z"/><path class="cls-11" d="M141.57,263.66a.94.94,0,0,1-.46-.08c-.23-.08-2.17-1.08-6.58-6.57-4-5.11-3.63-13.76-3.4-16-1.16-1.23-4.64-5.1-4.87-9,0-.38-.08-.92-.16-1.62-.69-6.88-2.47-25,11.06-31.85l.24-.08,5.87-1.47,5-6.26a1.1,1.1,0,1,1,1.7,1.39l-5.49,6.8-6.5,1.55c-12.06,6.18-10.44,23.19-9.82,29.61.08.7.16,1.32.16,1.7.23,3.71,4.56,7.89,4.56,7.89l.39.39-.08.54c0,.07-1.08,9.89,2.94,14.92s5.72,6,5.72,6a1.13,1.13,0,0,1,.54,1.47C142.42,263.43,142,263.66,141.57,263.66Z"/><path class="cls-11" d="M132.37,241.7a1.12,1.12,0,0,1-1-.7,1.07,1.07,0,0,1,.7-1.39c.15-.08,10.6-3.86,13.84-15.23.85-2.94,1.4-5.33,1.86-7.42,1.55-6.81,2.4-10.59,9.28-16.93a1.09,1.09,0,1,1,1.47,1.62c-6.42,5.87-7.12,9.2-8.66,15.77-.47,2.17-1,4.56-1.86,7.58a25.72,25.72,0,0,1-15.16,16.7Z"/><path class="cls-11" d="M132.37,251a1.16,1.16,0,0,1-1.08-.78,1,1,0,0,1,.77-1.31c.08,0,11.21-3.09,15.78-9.59,4.79-6.8,6.65-14.92,6.34-18.24-.16-1.94-.31-8.59,4.1-13.77.54-.69,1.08-1.31,1.62-2.08,2.79-3.56,5.57-7.27,13.54-9.36,9.12-2.4,10.44-3,12.06-5.72,2.24-3.71,6.27-5.49,11-4.87a1.09,1.09,0,1,1-.31,2.16c-3.94-.46-7.11.93-8.89,3.87-2.09,3.48-4.1,4.25-13.38,6.65-7.19,1.85-9.67,5.1-12.37,8.58-.54.7-1.09,1.47-1.71,2.17-3.86,4.56-3.71,10.51-3.55,12.21.31,3.79-1.55,12.37-6.73,19.64-5,7.11-16.47,10.28-17,10.44Z"/><path class="cls-11" d="M120.92,279.82a1.13,1.13,0,0,1-.85-1.86,78.36,78.36,0,0,1,7.12-6.73l.54-.38c3-2.32,5.49-4.18,1.47-10.59a33.45,33.45,0,0,0-3.33-4.64c-2.47-3.1-3.25-4.41-2.78-11.68a1.08,1.08,0,1,1,2.16.16c-.38,6.72.24,7.5,2.32,10.12a39.19,39.19,0,0,1,3.48,4.88c5,8.11,1.16,11.13-2,13.45l-.54.39a65.88,65.88,0,0,0-6.8,6.49A1,1,0,0,1,120.92,279.82Z"/><path class="cls-11" d="M113.5,289a1.08,1.08,0,0,1-1.08-.93c-.08-.31-1.09-7.65,2.93-12.83a39.57,39.57,0,0,1,5.88-6c1.39-1.23,2.63-2.24,3-3.17.62-1.47-1.78-5.41-3.87-7-2.63-2-6.57-12.29-5-22.42a1.1,1.1,0,1,1,2.17.31c-1.55,9.9,2.55,19.1,4.18,20.34,2.24,1.7,5.8,6.57,4.56,9.58-.54,1.32-1.93,2.48-3.56,3.95a35.44,35.44,0,0,0-5.57,5.64c-3.4,4.48-2.47,11.13-2.47,11.21a1.07,1.07,0,0,1-.93,1.24Z"/><path class="cls-11" d="M107.62,284.84a1.16,1.16,0,0,1-1.08-.77c-.23-.93-2.4-9.13.54-13a21,21,0,0,1,2.94-2.94c2.55-2.32,4.1-3.79,3.48-6.65a15.28,15.28,0,0,0-2.71-5c-2.78-4.18-6.57-9.82-6.57-19.57a1.08,1.08,0,0,1,2.16,0c0,9.13,3.41,14.23,6.19,18.41,1.39,2.08,2.63,3.94,3,5.87.85,4.18-1.86,6.57-4.18,8.66a17.24,17.24,0,0,0-2.63,2.71c-1.93,2.55-.77,8.81-.15,11.05a1,1,0,0,1-.78,1.32C107.85,284.84,107.7,284.84,107.62,284.84Z"/><path class="cls-11" d="M105.07,219.82h-.16a1.07,1.07,0,0,1-.92-1.24c3.63-28.22,35.42-32.55,35.73-32.63a1.1,1.1,0,0,1,.31,2.17c-.31,0-30.4,4.17-33.88,30.69A1.09,1.09,0,0,1,105.07,219.82Z"/><path class="cls-18" d="M244.43,237.83s-2.63,4.64-6,2.32c-3-2.08-6.26-.62-5.1,1.86,1.7,3.48,3.79,3.63,3.79,3.63a3.13,3.13,0,0,1,2.16-2C241.11,243,244.82,239.92,244.43,237.83Z"/><path class="cls-17" d="M234,241.54a1.19,1.19,0,0,1-.69-.23,1.09,1.09,0,0,1-.16-1.54c1.55-1.94,4.49-1.78,4.87-1.78a1.08,1.08,0,1,1-.15,2.16c-.62,0-2.32.08-3,1A1.24,1.24,0,0,1,234,241.54Z"/><path class="cls-2" d="M165.13,473.72l-.07,2.32,59.06,1.77.07-2.32Z"/><path class="cls-2" d="M249.69,516.25l-1.7-1.54c7.58-8.59,10.6-19.41,10.6-20.65a1.48,1.48,0,0,0,.07.39l2-1.08C261.53,494.91,257.5,507.44,249.69,516.25Z"/><path class="cls-2" d="M258.54,553.92l-5,14.49,2.2.75,4.94-14.49Z"/><path class="cls-19" d="M267,452.55l-1.24-1.94,13.84-9-16.16-6a1.31,1.31,0,0,1-.78-1,1.13,1.13,0,0,1,.62-1.09l15-7.42-17.56-7.42.85-2.09,19.88,8.35a1.11,1.11,0,0,1,.69,1,1.24,1.24,0,0,1-.61,1.08l-14.85,7.42,15.85,6a1.07,1.07,0,0,1,.7.92,1.29,1.29,0,0,1-.54,1.09Z"/><path class="cls-19" d="M258.89,431.44l-1.08-2.09,5.42-2.79-7.35-3.16.93-2.17,9.51,4.18a1.08,1.08,0,0,1,.69,1,1.24,1.24,0,0,1-.61,1.08Z"/><path class="cls-19" d="M258.88,438.82l-.87,2.06,9.48,4,.87-2.07Z"/><path class="cls-20" d="M230.51,347.32c-7.27-6.19-16-26-18.4-31.71-28.31-9.82-49.81-30.85-50.74-31.7l4.33-4.4c.23.23,22.12,21.57,49.65,30.77l1.32.46.54,1.32c2.78,6.8,11.37,25.59,17.25,30.62Z"/><path class="cls-21" d="M161.53,191l-1.09-1.93c11.68-6.57,25.22-6.73,25.76-6.73v2.17C186.12,184.49,172.66,184.72,161.53,191Z"/><path class="cls-21" d="M130.36,195.31l-1.09-1.93c13.15-7.43,16.71-2.71,17-2.17l-1.86,1.16C144.43,192.45,141.73,188.89,130.36,195.31Z"/><path class="cls-13" d="M194.94,360.69S199.89,305.41,157,290Z"/><path class="cls-22" d="M186,417.75l-50.34-44.53C135.62,373.14,138,415.51,186,417.75Z"/><path class="cls-13" d="M145.44,306,115.51,487.73l-19.1-3.64-16-15.77a22.79,22.79,0,0,1-6.73-16.93l.23-5.73L74.75,419S88.44,390.15,95,363.47s6.88-52.57,24.59-54.19S145.44,306,145.44,306Z"/><path class="cls-13" d="M138.09,307.42l.78-15.93-9.36.62-12,18.87Z"/><path class="cls-23" d="M146.21,306l-1.54-.08c.23-7-1.4-10.21-2.87-11.68a4.23,4.23,0,0,0-3-1.39l-.08-1.54a5.58,5.58,0,0,1,4.1,1.77C145.29,295.51,146.45,299.84,146.21,306Z"/><path class="cls-22" d="M121.08,453.78l-5.49,34-19.11-3.63-16-15.78a22.72,22.72,0,0,1-6.73-16.93l.23-5.72Z"/><path class="cls-13" d="M117.29,456.64l-3-.54.16-.77,3,.54Zm-7.66-1.31-3-.54.15-.78,3,.55ZM102.05,454l-3-.54.15-.77,3,.54ZM94.4,452.7l-3-.54.15-.78,3,.55Zm-7.58-1.32-3-.54.16-.77,3,.54Zm-7.66-1.23-3-.54.16-.78,3,.54Z"/><path class="cls-22" d="M114.1,374.75,99.67,440.53l2.27.5,14.43-65.78Z"/><path class="cls-22" d="M92.54,380.1a6.52,6.52,0,0,1-1.31-.16l.46-2.24c5.72,1.16,13.07-9.35,20.8-29.69,6-16,10.21-32.55,10.29-32.78l.15-.7,21.2-5.33.54,2.24-19.88,5c-.85,3.24-4.79,18-10.21,32.32C106.69,369.58,99.27,380.1,92.54,380.1Z"/><path class="cls-9" d="M213.19,721.84l-2.25-.46,22.28-108.17A24.59,24.59,0,0,0,210,584.68h-87.4a17.61,17.61,0,0,0-17.55,14.38L79.86,721.84l-2.25-.46L102.83,598.6a19.84,19.84,0,0,1,19.79-16.16h87.32a25.6,25.6,0,0,1,19.72,9.82,25.94,25.94,0,0,1,5.72,21.41Z"/><path class="cls-9" d="M258.28,584.29H130.59a82.26,82.26,0,0,1-79.27-60.61L22.7,418.14l2.25-.62L53.56,523.06a80,80,0,0,0,77,58.91H258.28Z"/><path class="cls-9" d="M260.83,567.82H114.43v2.32h146.4Z"/><path class="cls-16" d="M706.22,194.38s-15.47-19.87-51.35-19.71c0,0-18.88,4.94-12.38,19,0,0-4.17,1-4.48,4.63s-.31,7.27-.31,7.27l49-3.94L680,207.29l9,26.76L702.82,240l-12.38,13.61L687.81,264l2.48,8.74s2-10.13,3.79-12.45a50.22,50.22,0,0,1,4.17-4.64l2.17,1s10.05-10.28,13.76-28.45l3,1.77s1.32-13.6.62-15.69c0,0-.08-3.4-4.18-4.79C713.8,209.46,715.81,204.2,706.22,194.38Z"/><path class="cls-12" d="M634.29,302.47l-7,5.49s-24.12,9-27.61,13.92-29.31,70-29.31,70l-20.49,43.68L594.08,437l116,5L731,449a23.87,23.87,0,0,0,8.12-1.16c5.26-1.47,15.7-9,15.7-9l10.44-33.09,2.32-2.94,7.58-19.48-2.63-7.27s-.85,11.29-5.26,7.27-26.68-28.77-26.68-28.77L758,326.13s-3.48-9-7-12.22-28.47-16.54-28.47-16.54-3.16-4.64-4.64-4.95-8.73.31-8.73.31-5.49-12.45-17.71-18.32c0,0,3.78,6.1,3.78,9s-2,5.49-5.49,8.43-15.93,11.91-15.93,11.91-9.59.62-18.56,16.24l-9.9-24.13L644,291.49l2.63-5.26C646.44,286.54,638.93,289.71,634.29,302.47Z"/><path class="cls-24" d="M686.81,201.65s-11.45-11.91-26.3-10.59S642.8,196.7,641,199.48s-6.8,11.21-6.8,13.07.62,6.11.62,6.65-4.82,6.55-6.65,15.85c-1.31,6.65-1.31,9.3-2.48,22.5-.24,2.74,1.17,9.4,1.17,9.4s.2,5.23,6,10a32.73,32.73,0,0,0,13.29,4l-2.34,11,11.29,28.45L675,304.48l23-17.86-6.65-11.91s-2-7.81-2-9.28,2.17-9.74,2.17-9.74,6.1-2.47,9.9-6.65,5.64-13.22-1.47-16.23l-9.13-.31-.47-8.12C690.44,224.3,677.22,216.26,686.81,201.65Z"/><path class="cls-24" d="M738.62,360.69s18.72,25.59,26.68,28.76,5.26-7.26,5.26-7.26,10.6-53.51,12.15-60.85,29.62-14.15,29.62-14.15l11.13-34.41s.24-3.48-2.86-3.48a3.61,3.61,0,0,0-2.86-3c-2.63-.62-3.48,2.39-3.48,2.39a3.66,3.66,0,0,0-5.41-.85l-3.25,10.05s-.62-2.16-3.71-1.54-6.73,14.15-6.73,14.15-16.78,3.48-21.35,9.82C769.17,306.49,738.62,360.69,738.62,360.69Z"/><path class="cls-25" d="M814.72,298.68s10.91-3.24,12,2.86l-15.23,5.88Z"/><path class="cls-26" d="M695,232.89c-.61-.31-15.54-9.9-15.54-9.9l-3.25,5.41s6.65,2.94,9.13,3,7.11,3.55,7.11,3.55Z"/><path class="cls-27" d="M638.24,227a18.37,18.37,0,0,1-5.18-.77c-2.09-.39-6-2.25-6-6.27s.31-7.11.31-7.26a3.74,3.74,0,0,1,1.24-2.4c1.08-1,2.7-1.39,4.87-1.32,7.35.47,11.83,1.55,13.77,3.33s2.32,2.47,2,3.32l-.24.7H649a32.17,32.17,0,0,1-4.41,8.12C643,226.47,640.56,227,638.24,227Zm-5.49-15.62c-2.79,0-3,1.39-3,1.55s-.31,3.09-.31,7c0,3.1,4,3.87,4.1,3.95h.15c1.86.54,7.2,1.54,9.05-.85a26.76,26.76,0,0,0,4.1-7.74,8.77,8.77,0,0,0-1.23-1.23c-.86-.78-3.56-2.17-12.3-2.71Z"/><path class="cls-27" d="M655.33,217a14.61,14.61,0,0,0-7.35-1.4l-.31-2.78a16.68,16.68,0,0,1,9,1.7Z"/><path class="cls-10" d="M670,227.94c-5-7.89-12.52-4.41-12.83-4.25l-1.16-2.4c3.4-1.7,11.21-2.71,16.24,5.26Z"/><path class="cls-10" d="M664.72,224.89a2.28,2.28,0,1,0-2.78,2.16A2.51,2.51,0,0,0,664.72,224.89Z"/><path class="cls-10" d="M645.43,219.59c-4.72-4.18-10.44-1.47-10.44-1.47l-1.16-2.4c.31-.15,7.35-3.48,13.46,1.86Z"/><path class="cls-10" d="M641.52,219.44a2.28,2.28,0,1,0-2.78,2.15A2.5,2.5,0,0,0,641.52,219.44Z"/><path class="cls-16" d="M675.05,222.37c-3.4-8.89-15.08-11.6-15.16-11.6l.62-3c.54.15,13.46,3,17.4,13.53Z"/><path class="cls-27" d="M665.69,237.22a13.29,13.29,0,0,1-4.48-.78c-1.32-.38-9.9-2.94-10.52-8.5a36.5,36.5,0,0,1,.85-10.75v-.31c.15-1,1.08-1.55,4-2.4,3.25-.92,9.21.31,18,3.87,2.87,1.16,4.57,2.63,5,4.48a4.32,4.32,0,0,1-.62,3.64c-.08.08-2.4,3.63-5.8,7.88A8,8,0,0,1,665.69,237.22Zm-11.44-19.33a34.57,34.57,0,0,0-.77,9.82c.31,3.17,6.34,5.48,8.5,6.1l.16.08c.07,0,5.41,2,8-1.24,3.33-4.17,5.65-7.65,5.73-7.73a1.67,1.67,0,0,0,.15-1.24c-.31-.92-1.47-1.85-3.4-2.62-10.13-4.1-14.39-4.33-16.17-3.79A10.66,10.66,0,0,0,654.25,217.89Z"/><path class="cls-16" d="M636.69,211.93l-1.54-2.7a23,23,0,0,1,11.36-3.1l-.15,3.1A20.31,20.31,0,0,0,636.69,211.93Z"/><path class="cls-28" d="M638.47,237.45a1.5,1.5,0,0,1-.93-.31,11.08,11.08,0,0,1-2.16-2,5.7,5.7,0,0,1,.54-7.58l.15-.15,2.4-1.86.16-.08c2.39-1,3.86-3,5.49-5.1.38-.46.77-1,1.16-1.47l2.63-3.32a1.54,1.54,0,1,1,2.39,1.93l-2.63,3.32c-.38.47-.69.93-1.08,1.4-1.78,2.32-3.56,4.71-6.57,6l-2,1.54a2.6,2.6,0,0,0-.23,3.41,7.15,7.15,0,0,0,1.54,1.39,1.58,1.58,0,0,1,.39,2.16A1.34,1.34,0,0,1,638.47,237.45Z"/><path class="cls-28" d="M648.45,240.77a5.48,5.48,0,0,0-2.63-1.93l.93-2.94a8,8,0,0,1,4.41,3.4Z"/><path class="cls-14" d="M714,212.4a1.2,1.2,0,0,1-.69-.24,112.49,112.49,0,0,0-11.53-6.88c-7.27-3.71-12.45-4.71-14.15-2.86a1.15,1.15,0,0,1-1.7-1.54c5.72-6.42,26.37,7.8,28.69,9.43a1.13,1.13,0,0,1-.62,2.09Z"/><path class="cls-8" d="M757.88,409.4a6.18,6.18,0,0,1-1.7-.23,3.5,3.5,0,0,1-1.93-1.62l-25.45-42.3,11.14-10.2,1.55,1.7-9.75,9,24.6,40.9v.07a1.18,1.18,0,0,0,.69.39c.85.23,3.56.31,10.06-3.94l1.23,1.93C763.91,407.93,760.43,409.4,757.88,409.4Z"/><path class="cls-29" d="M679.38,272.93c.46-.31-11.29,14.62-18.79,26.29-5.72,8.82-5.34,21-5.34,21L644,291.8l2.19-10.9C646.07,280.83,658.11,283.56,679.38,272.93Z"/><path class="cls-8" d="M675.28,328.53,671,308.42l-15.77,13.3-18.87-17.16-6.81,14.53-2.09-1,8.12-17.4,19.65,17.86,17.16-14.46,4.41,20.49C707.53,303,708,293,708,292.88l2.32-.07c0,.46.08,11.36-33.64,34.71Z"/><path class="cls-30" d="M646.28,439.17l-7.73-.16c.54-37.81,8.59-53.5,13.22-59.53a4.12,4.12,0,0,0,.7-3.87,85.16,85.16,0,0,0-5.57-12.52,12.51,12.51,0,0,1-1.31-8l5.72-35.49L659,320.8l-5.73,35.48a5,5,0,0,0,.55,3.17,92.55,92.55,0,0,1,6.11,13.84,12.16,12.16,0,0,1-2,11C654.56,388.53,646.83,402.21,646.28,439.17Z"/><path class="cls-12" d="M653.17,336.57c.85,0,1.54-.94,1.54-2.09s-.69-2.09-1.54-2.09-1.55.94-1.55,2.09S652.31,336.57,653.17,336.57Z"/><path class="cls-12" d="M670.49,346.31c.85,0,1.54-.93,1.54-2.09s-.69-2.08-1.54-2.08-1.55.93-1.55,2.08S669.63,346.31,670.49,346.31Z"/><path class="cls-12" d="M650.54,392.55c.85,0,1.54-.94,1.54-2.09s-.69-2.09-1.54-2.09-1.55.94-1.55,2.09S649.68,392.55,650.54,392.55Z"/><path class="cls-12" d="M655.49,374.76c.85,0,1.54-.93,1.54-2.09s-.69-2.08-1.54-2.08-1.55.93-1.55,2.08S654.63,374.76,655.49,374.76Z"/><path class="cls-12" d="M650.15,354.81c.85,0,1.54-.93,1.54-2.08s-.69-2.09-1.54-2.09-1.55.93-1.55,2.09S649.29,354.81,650.15,354.81Z"/><path class="cls-12" d="M644.27,414.58c.85,0,1.55-.93,1.55-2.09s-.7-2.08-1.55-2.08-1.55.93-1.55,2.08S643.42,414.58,644.27,414.58Z"/><path class="cls-12" d="M642.41,436.39c.86,0,1.55-.94,1.55-2.09s-.69-2.09-1.55-2.09-1.54.94-1.54,2.09S641.56,436.39,642.41,436.39Z"/><path class="cls-8" d="M622.85,387.83a1.17,1.17,0,0,1-1.09-.77,1.25,1.25,0,0,1,.55-1.47c.31-.16,27.61-13.53,46.79-17.55l.46,2.24c-11.83,2.47-26.91,8.66-36.5,12.91,38.59-7.73,51.27-1.7,51.81-1.47l-1,2.09c-.16-.08-15-7-60.71,3.94A.58.58,0,0,1,622.85,387.83Z"/><path class="cls-31" d="M599.72,322s15,8.19,8.51,42.06-13.84,70.12-13.84,70.12l-44.47,1.47Z"/><path class="cls-8" d="M609.66,351.57,593,436.86l2.28.45L611.94,352Z"/><path class="cls-30" d="M729.11,327.21l-3-.62c0-.15,3.79-16.39,25.13-14l-.31,3.09C732.28,313.6,729.19,326.67,729.11,327.21Z"/><path class="cls-30" d="M740.48,315.38,718.9,304.56l-.23-.39c0-.08-3.87-6.26-8.82-5.41l-.46-3c6.19-1,10.59,4.87,11.68,6.5l20.8,10.44Z"/><path class="cls-31" d="M648.06,439.17l60.56,1.23,6-49.94Z"/><path class="cls-8" d="M708.62,441.57a.45.45,0,0,1-.31-.08,1.21,1.21,0,0,1-.85-1.32l14.77-100.12,2.32.31-13.3,90.15,20.41-51.81,2.17.86L709.7,440.79A1.17,1.17,0,0,1,708.62,441.57Z"/><path class="cls-9" d="M568.71,217.42l27.84,142.5C598.1,367.73,593,374,585.19,374H370.42c-7.82,0-15.32-6.34-16.86-14.07l-27.84-142.5c-1.24-6.41,2.93-11.6,9.35-11.6H554.79C561.21,205.82,567.4,211,568.71,217.42Z"/><path class="cls-12" d="M588.74,374.07H366.86c-5.8,0-11.45-4.72-12.61-10.52L351,347H593.92l3.25,16.54C598.33,369.35,594.54,374.07,588.74,374.07Z"/><path class="cls-12" d="M483.56,436.15H426.25a10.82,10.82,0,0,1-10.05-14.76l18.72-47.32h73.16Z"/><path class="cls-32" d="M509.7,437.7H425.48a11.64,11.64,0,0,1-9.74-5.18,12,12,0,0,1-1.24-11l19.41-49.17,2.86,1.16L417.36,422.7a8.48,8.48,0,0,0,.93,8.12,8.58,8.58,0,0,0,7.19,3.79H509.7Z"/><path class="cls-32" d="M500,395.25H426l8.81-22.34h74.17Z"/><path class="cls-33" d="M568.63,217,594,346.93,425.25,205.82H555.18C561.36,205.82,567.39,210.85,568.63,217Z"/><path class="cls-32" d="M507.54,375.61H370.42c-8.51,0-16.71-6.88-18.41-15.3l-27.84-142.5,3-.62L355,359.69c1.39,7.11,8.27,12.83,15.31,12.83H507.46v3.09Z"/><path class="cls-1" d="M589.59,376.31H525.32V374h64.27a7.4,7.4,0,0,0,5.88-2.63,8,8,0,0,0,1.47-6.57l-3.25-16.55,2.24-.46,3.25,16.55a10.24,10.24,0,0,1-1.93,8.5A9.51,9.51,0,0,1,589.59,376.31Z"/><path class="cls-3" d="M579.93,449.22H534.68l-12.84-52.5h45.25Z"/><path class="cls-3" d="M674.51,408.55H637.7v45.23h36.81Z"/><path class="cls-3" d="M647.52,110H568.87c-4.41,0-8.43-2-10.44-5.34L553.09,96H662.52l-4.33,8.2C656.34,107.79,652.16,110,647.52,110Z"/><path class="cls-3" d="M656.33,102.76h-96.9a6.23,6.23,0,0,1-6.26-6.26V27.38a6.24,6.24,0,0,1,6.26-6.27h96.9a6.24,6.24,0,0,1,6.27,6.27V96.57A6.22,6.22,0,0,1,656.33,102.76Z"/><path class="cls-30" d="M656.34,103.84H559.43a7.39,7.39,0,0,1-7.35-7.34V27.38A7.39,7.39,0,0,1,559.43,20h96.91a7.39,7.39,0,0,1,7.34,7.35V96.57A7.27,7.27,0,0,1,656.34,103.84ZM559.43,22.19a5.18,5.18,0,0,0-5.18,5.19V96.57a5.18,5.18,0,0,0,5.18,5.18h96.91a5.18,5.18,0,0,0,5.18-5.18V27.38a5.18,5.18,0,0,0-5.18-5.19Z"/><path class="cls-3" d="M779.07,165.62h-63a10,10,0,0,1-8.35-4.1l-4.26-6.72h87.63l-3.48,6.34C786.19,163.84,782.78,165.62,779.07,165.62Z"/><path class="cls-3" d="M786,159.05H708.62a5.11,5.11,0,0,1-5.11-5.11V95.88a5.1,5.1,0,0,1,5.11-5.1H786a5.1,5.1,0,0,1,5.1,5.1v58.06A5.1,5.1,0,0,1,786,159.05Z"/><path class="cls-30" d="M786,160.21H708.62a6.25,6.25,0,0,1-6.27-6.26V95.88a6.24,6.24,0,0,1,6.27-6.26H786a6.24,6.24,0,0,1,6.27,6.26V154A6.29,6.29,0,0,1,786,160.21ZM708.62,91.94a4,4,0,0,0-4,3.94V154a4,4,0,0,0,4,3.94H786a4,4,0,0,0,4-3.94V95.88a4,4,0,0,0-4-3.94Z"/><path class="cls-3" d="M338.09,176.14H278.54a8.92,8.92,0,0,1-7.89-4.8l-4-7.88h82.91l-3.33,7.42A9,9,0,0,1,338.09,176.14Z"/><path class="cls-3" d="M344.05,168.4H272.12a5.51,5.51,0,0,1-5.49-5.49V91a5.51,5.51,0,0,1,5.49-5.49h71.93A5.51,5.51,0,0,1,349.54,91v71.9A5.51,5.51,0,0,1,344.05,168.4Z"/><path class="cls-30" d="M344,169.64H272.12a6.73,6.73,0,0,1-6.73-6.73V91a6.74,6.74,0,0,1,6.73-6.73H344A6.73,6.73,0,0,1,350.77,91v71.9A6.73,6.73,0,0,1,344,169.64ZM272,86.76A4.29,4.29,0,0,0,267.79,91v71.9a4.29,4.29,0,0,0,4.25,4.26H344a4.29,4.29,0,0,0,4.25-4.26V91A4.29,4.29,0,0,0,344,86.76Z"/><path class="cls-3" d="M225.56,105.31H166a8.92,8.92,0,0,1-7.89-4.79l-4-7.89H237l-3.33,7.42A9,9,0,0,1,225.56,105.31Z"/><path class="cls-30" d="M225.56,106.55H166a10,10,0,0,1-9-5.49l-4.95-9.66h86.85l-4.1,9.2A10.43,10.43,0,0,1,225.56,106.55ZM156.11,93.87l3.1,6a7.68,7.68,0,0,0,6.8,4.18h59.55a7.65,7.65,0,0,0,7-4.49L235.07,94h-79Z"/><path class="cls-3" d="M231.44,97.58H159.52a5.51,5.51,0,0,1-5.5-5.49V20.18a5.51,5.51,0,0,1,5.5-5.48h71.92a5.5,5.5,0,0,1,5.49,5.48V92.09A5.51,5.51,0,0,1,231.44,97.58Z"/><path class="cls-30" d="M231.44,98.82H159.51a6.73,6.73,0,0,1-6.72-6.73V20.19a6.72,6.72,0,0,1,6.72-6.73h71.93a6.73,6.73,0,0,1,6.73,6.73v71.9A6.74,6.74,0,0,1,231.44,98.82ZM159.51,15.93a4.29,4.29,0,0,0-4.25,4.26v71.9a4.29,4.29,0,0,0,4.25,4.25h71.93a4.29,4.29,0,0,0,4.25-4.25V20.19a4.29,4.29,0,0,0-4.25-4.26Z"/><path class="cls-34" d="M679.92,455.64H633.44a1.16,1.16,0,0,1,0-2.32h46.48a1.2,1.2,0,0,1,1.17,1.16A1.15,1.15,0,0,1,679.92,455.64Z"/><path class="cls-34" d="M583.79,452.39H531.36a.93.93,0,1,1,0-1.86h52.43a.9.9,0,0,1,.93.93A.94.94,0,0,1,583.79,452.39Z"/><path class="cls-3" d="M809,165.94l-3.19,3.89,1.8,1.47,3.18-3.89Z"/><path class="cls-3" d="M803.56,173.13,800.37,177l1.8,1.47,3.18-3.89Z"/><path class="cls-3" d="M808,172.55l-1.47,1.79,3.89,3.19,1.47-1.8Z"/><path class="cls-3" d="M800.88,167l-1.47,1.8L803.3,172l1.47-1.8Z"/><path class="cls-3" d="M693,86.42l-5.19,6.34,1.79,1.47,5.2-6.34Z"/><path class="cls-3" d="M684,98.05l-5.19,6.35,1.8,1.47,5.19-6.35Z"/><path class="cls-3" d="M690.29,97.21,688.82,99l6.35,5.19,1.46-1.8Z"/><path class="cls-3" d="M678.59,88.23,677.12,90l6.35,5.19,1.47-1.8Z"/><path class="cls-30" d="M662.21,157c-10.05,0-19.8-6.65-27.53-12a60.48,60.48,0,0,0-9.28-5.72,8.56,8.56,0,0,0-6.88-.31c-5.42,2.16-8.51,9.35-8.59,9.43a1.18,1.18,0,1,1-2.16-.93c.15-.31,3.48-8.19,9.82-10.67a11,11,0,0,1,8.66.31,67.85,67.85,0,0,1,9.67,5.95c10.83,7.43,24.21,16.63,37,8.2a1.17,1.17,0,1,1,1.32,1.93A20.9,20.9,0,0,1,662.21,157Z"/><path class="cls-35" d="M640.17,411.72h32.1s-2.63,8.58-15.86,8.58S640.17,411.72,640.17,411.72Z"/><path class="cls-3" d="M671.81,448.06v-4.64c6.34,0,14.77-9.43,14.77-16.55,0-5.64-4.1-8.5-12.14-8.5v-4.64c10.67,0,16.78,4.79,16.78,13.14C691.22,435.77,681.47,448.06,671.81,448.06Z"/><path class="cls-32" d="M523.05,396.42l-2.41.58,12.86,52.58,2.4-.59Z"/><path class="cls-32" d="M572.42,443.5H539.09L529,402.29h33.33ZM541,441h28.15l-8.82-36.19H532.21Z"/><path class="cls-32" d="M535.61,423.71s2.4-5.18,7-5.18c2.86,0,5.57,2.78,7.27,4.87a3.73,3.73,0,0,0,3.79,1.46c2.78-.77,8.12-.69,14.31,6.42l2.78,10.9H540Z"/><path class="cls-32" d="M559.22,419.63c1.28-1.44.8-3.94-1.05-5.58s-4.39-1.8-5.67-.37-.8,3.94,1.06,5.58S558,421.07,559.22,419.63Z"/><path class="cls-32" d="M544.6,414.17c1.28-1.44.81-3.94-1.05-5.58s-4.39-1.81-5.66-.37-.81,3.94,1.05,5.58S543.33,415.61,544.6,414.17Z"/><path class="cls-12" d="M550.65,436.05c1.28-1.44.81-3.93-1-5.58s-4.39-1.8-5.67-.36-.8,3.94,1.06,5.58S549.38,437.49,550.65,436.05Z"/><path class="cls-32" d="M524.78,409.25l-6.88,34.94h15.47Z"/><path class="cls-9" d="M625.25,545.4s-25-30.69-43.55-28.76S542,728.41,542,728.41l31,4.1C573,732.43,622.07,594.65,625.25,545.4Z"/><path class="cls-15" d="M240.87,720.29s-9.89,30-8.81,33.33,85,.69,85,.69,3.64-1.08-56.84-20.95l3-12.06Z"/><path class="cls-7" d="M696,483.55l34,260.56-13.38.85L663.92,486.25Z"/><path class="cls-13" d="M674.39,495.8l-2.28.42,30.3,162.34,2.28-.42Z"/><path class="cls-13" d="M688.35,536.45l-2.28.41,10.17,56.69,2.28-.4Z"/><path class="cls-13" d="M375.49,498.15l-12.9,90.32,2.3.33,12.89-90.32Z"/><path class="cls-13" d="M380.56,512.63,377,535.31l2.29.36L382.86,513Z"/><path class="cls-28" d="M658.7,282.42a1.12,1.12,0,0,1-1.18-1.06,1.25,1.25,0,0,1,1.06-1.26c10.43-.57,21-7.72,21-7.8a1.17,1.17,0,0,1,1.35,1.91C680.52,274.52,669.83,281.75,658.7,282.42Z"/><path class="cls-28" d="M693.69,249.12a1.16,1.16,0,0,1-1.08-.77,1.12,1.12,0,0,1,.69-1.47c2.94-1.08,2.48-3.17,1.39-6.42-.53-1.7-1.08-3.17-.3-4.33a2.52,2.52,0,0,1,1.93-1,6.23,6.23,0,0,1,6.42,4.64,1.15,1.15,0,0,1-2.24.54,3.93,3.93,0,0,0-4-2.94h-.16a7.15,7.15,0,0,0,.62,2.16c.93,2.79,2.48,7.43-2.78,9.36A.62.62,0,0,1,693.69,249.12Z"/><path class="cls-4" d="M704.9,200.88a1,1,0,0,1-.93-.55c-4.48-6.64-13.14-11.9-13.22-12a1.18,1.18,0,1,1,1.24-2c.39.23,9.2,5.57,13.92,12.68a1.15,1.15,0,0,1-.31,1.62A1,1,0,0,1,704.9,200.88Z"/><path class="cls-4" d="M714.65,224.15a1.14,1.14,0,0,1-1.16-1.16l-.23-7.19a1.14,1.14,0,0,1,1.16-1.16,1.09,1.09,0,0,1,1.16,1.16l.23,7.19A1.19,1.19,0,0,1,714.65,224.15Z"/><path class="cls-14" d="M714.42,228.17l-24-3.94-2.55,6,6,2.47H700s7.81,2.32,3.64,13.15c0,0-2,5.72-12.07,9.82l-2.16,9.74,1,7.42s-1.7-5.56,8-17.08l2.94,2.86C701.35,258.48,711.4,244.87,714.42,228.17Z"/><path class="cls-14" d="M663.53,190.52s-11.14-10.91-19.18-6.73-.54,12.76-.54,12.76S649.06,191.37,663.53,190.52Z"/><path class="cls-28" d="M689.36,257.16a4.8,4.8,0,0,1-2.24-.46,5,5,0,0,1-2.56-2.86,1.15,1.15,0,1,1,2.17-.77,2.68,2.68,0,0,0,1.31,1.54,4.56,4.56,0,0,0,3.1-.08,1.15,1.15,0,0,1,1.47.62,1.18,1.18,0,0,1-.62,1.47A5.5,5.5,0,0,1,689.36,257.16Z"/><path class="cls-14" d="M572.66,731.35a71.64,71.64,0,0,1-29.39-6.26l-5.57,7.42-23.9,15.31a4.62,4.62,0,0,0-2.09,3.87l.08,6.34h64.27s5-5.18.62-19.41Z"/><path class="cls-4" d="M570,750.21H511.87v2.32H570Z"/><path class="cls-9" d="M546.28,722.85l-13.37-16.09,27.22-153.7L583.64,526l13.76,47Z"/><path class="cls-9" d="M625.25,545.4s-25-30.69-43.55-28.76-23.12,44.3-23.12,44.3"/><path class="cls-4" d="M559.74,561.1l-2.32-.23c.15-1.78,5-43.38,24.21-45.39,8-.85,18,3.87,29.62,13.92a145.07,145.07,0,0,1,14.92,15.23l-1.78,1.47c-.23-.31-24.74-30.23-42.45-28.38-9,.93-14.47,12.53-17.56,22A117,117,0,0,0,559.74,561.1Z"/><path class="cls-4" d="M540.6,705l-.51,2.27,25.65,5.77.51-2.26Z"/><path class="cls-9" d="M480.86,683.18l13.84-4.95L562,564.89l-19.79-10.75Z"/><path class="cls-14" d="M467.24,709.08a25.89,25.89,0,0,0,11.07-21s-17.64-6.26-21-22.42l-68.29-2.79s-5.42,8.9-3.71,10,24.36,19.33,53.2,24.66C438.55,697.56,444.74,709.47,467.24,709.08Z"/><path class="cls-4" d="M471,705.37c-19.25,0-29.07-10.74-30.85-12.83A125.77,125.77,0,0,1,387,666.64l1.54-1.7A123.34,123.34,0,0,0,441,690.37l.38.08.24.31c.07.16,9.58,12.29,29.31,12.29H472l.08,2.32Z"/><path class="cls-4" d="M478.23,678.24l-13.08-13.3a1.18,1.18,0,0,1-.15-1.47,1.21,1.21,0,0,1,1.39-.47l24.21,8.59-.77,2.16-19.49-6.88,9.59,9.74Z"/><path class="cls-36" d="M628.42,758.8H470.57v2.32H628.42Z"/><path class="cls-36" d="M735.84,744.65h-25.6V747h25.6Z"/><path class="cls-36" d="M358.82,743.1h-25.6v2.32h25.6Z"/><path class="cls-31" d="M730.89,449.07s2,.92,9.82-1.63a41.78,41.78,0,0,0,14-8.5l10.52-31.39s-7.43,3.63-9.2,2-14.47-23.12-14.47-23.12l7.2,37Z"/><path class="cls-37" d="M232,740.94s-3.63,12.29-3.33,15.93,21.66,6.88,27.92,3.32c0,0,51.12,6.65,61.95,3s3-16.24-9-18.33S297.72,756.33,258,747C258.12,747,243,731.66,232,740.94Z"/><path class="cls-38" d="M228.37,754l-.11,2.31,94.55,4.55.11-2.32Z"/><path class="cls-28" d="M812,308a1,1,0,0,1-.47-.08,1.17,1.17,0,0,1-.62-1.55l3.18-7.65a1.18,1.18,0,1,1,2.16.93l-3.17,7.65A1.41,1.41,0,0,1,812,308Z"/><path class="cls-28" d="M794.23,300.62a1.21,1.21,0,0,1-.93-.47,1.2,1.2,0,0,1,.16-1.62l8-6.5,2.86-14.53a1.23,1.23,0,0,1,1.4-.93,1.27,1.27,0,0,1,.92,1.39l-3,15.39-8.66,7A1.59,1.59,0,0,1,794.23,300.62Z"/><path class="cls-28" d="M802.27,302.86a1.37,1.37,0,0,1-.61-.16,1.21,1.21,0,0,1-.39-1.62l6.88-10.75,5-22a1.15,1.15,0,0,1,1.39-.85,1.17,1.17,0,0,1,.86,1.39l-5,22.35-7,11.06A1.32,1.32,0,0,1,802.27,302.86Z"/><path class="cls-28" d="M809,303.48a1.39,1.39,0,0,1-.54-.16,1.26,1.26,0,0,1-.54-1.54l5.8-11.52,5.72-21.34a1.16,1.16,0,0,1,2.25.54l-5.81,21.72L810,302.78A1.15,1.15,0,0,1,809,303.48Z"/><path class="cls-29" d="M770.64,388.29l12-67s1.93-4.33,5.72-5.65l-10.21,4.25-25.75,57.37C752.47,377.31,762.6,393.86,770.64,388.29Z"/><path class="cls-28" d="M775.36,321.34a1.16,1.16,0,0,1-1.08-.78,1.12,1.12,0,0,1,.69-1.47l18.41-7a1.15,1.15,0,1,1,.77,2.16l-18.4,7A.58.58,0,0,1,775.36,321.34Z"/><path class="cls-32" d="M645.28,598H626.4v4.79h18.88Z"/><path class="cls-32" d="M645.28,680.4H626.4v4.79h18.88Z"/><path class="cls-30" d="M617.34,121l-2.69,3.29,1.19,1,2.7-3.29Z"/><path class="cls-30" d="M612.82,127l-2.69,3.29,1.2,1L614,128Z"/><path class="cls-30" d="M616.29,126.51l-1,1.2,3.3,2.69,1-1.19Z"/><path class="cls-30" d="M610.29,122l-1,1.2,3.29,2.69,1-1.19Z"/><path class="cls-36" d="M342.5,763.52H215.12v2.31H342.5Z"/><path class="cls-39" d="M309.48,120.54h-7.27v8.35h7.27Z"/><path class="cls-4" d="M286.35,137.78a10.37,10.37,0,0,1,3.17-7.34,2.37,2.37,0,0,1,1.39-.77c1.63-.16,11.29-2.63,11.29-2.63h7.27L320,129.28a6.59,6.59,0,0,1,3.95,2.47l.07.08a6.57,6.57,0,0,1,1.4,4.1v22.73l-39.37.15C286,158.89,286.27,144.51,286.35,137.78Z"/><path class="cls-30" d="M331.59,160.29H279.47a1.24,1.24,0,0,1,0-2.48h52.12a1.24,1.24,0,0,1,0,2.48Z"/><path class="cls-39" d="M300,127.43s1.93,4.94,5.88,5.33,6.8-5.26,6.8-5.26l-3.17-1.16-7-.38Z"/><path class="cls-4" d="M306.3,96l17.64,6.8-18.56,4.72-15.94-5Z"/><path class="cls-4" d="M306.3,93.79l17.64,6.8-.23,2.09-18.33,2.63-15.78-2.7-.16-2.17Z"/><path class="cls-39" d="M308,123.33h-4.64a3.92,3.92,0,0,1-3.63-3.33l-2.17-9.66c0-1.63,1.78-5.72,3.41-5.72H311.1c1.62,0,3.17,4.56,3.17,6.18l-2.09,7.58C311,121.63,310.32,123.33,308,123.33Z"/><path class="cls-10" d="M311.25,106.86s-2.7,2.32-13.22,5.33c0,0-3.64-12.06,13.22-9.2,0,0,5.88,1.63,2.79,8.74C314,111.73,314.11,107.94,311.25,106.86Z"/><path class="cls-4" d="M315,108.64s-6.19-6-17.1-.08c0,0-2.39-4.87,5.65-6.65S315,104.54,315,108.64Z"/><path class="cls-40" d="M290.91,100h-1.54v15.23h1.54Z"/><path class="cls-40" d="M291.69,115h-2.94v5h2.94Z"/><path class="cls-14" d="M318.91,142.11h-.77v15.47h.77Z"/><path class="cls-14" d="M294,142.11h-.78v15.47H294Z"/><path class="cls-40" d="M313.5,128l-4-1.54s-3.78,3.79-7-.39l-4.72,2s-.7,6.73-.46,6.73,4.79-3.09,4.79-3.09L303.6,136a2,2,0,0,0,3.71.15l2.09-4.33,4.64,2.79Z"/><path class="cls-21" d="M306.3,124.18a12.83,12.83,0,0,1-4.33-.85.35.35,0,0,1-.23-.47c.08-.15.31-.31.46-.23s5.57,2.17,8.05-.85a.39.39,0,0,1,.62.46A5.63,5.63,0,0,1,306.3,124.18Z"/><path class="cls-8" d="M323.63,103.07l-17.25-5.88-15.23,5.34-.24-.77,15.47-5.34,17.48,5.88Z"/><path class="cls-8" d="M314.58,108.71v-.46c0-1.24.08-5-8.35-6.26l.07-.78c9.13,1.4,9.05,5.65,9.05,7v.31Z"/><path class="cls-1" d="M206.15,24.75s17.79-1.63,18.33,14.76L203.83,58.77,189.52,85.36S185,63.17,165.86,70.91l26.76-22.5Z"/><path class="cls-4" d="M178.93,86.14h-.62C173.82,85.75,167.4,81,166,77l-.08-.15c-.77-2.32-.69-4.18.16-5.49.93-1.47,2.71-2.32,5.41-2.55A15.74,15.74,0,0,1,181.94,71a17.33,17.33,0,0,1,5.34,5.49l12.91-20.56,23.67-20.73,1,1.09L201.36,56.83,187.28,79.26l-.62-1.09a16,16,0,0,0-5.41-6,14.57,14.57,0,0,0-9.52-2c-2.24.23-3.71.85-4.33,1.94-.62.92-.62,2.39,0,4.25l.08.15c1.16,3.4,7.12,7.81,11.06,8.2a2.78,2.78,0,0,0,2.86-1.24,3,3,0,0,0-.23-2.78c-.46-.93-1.86-3.17-5.72-3.87l-1.24-.23,4.41-5.26,1.16.93-2.86,3.4A8.57,8.57,0,0,1,182.48,80a4.52,4.52,0,0,1,.16,4.1A4,4,0,0,1,178.93,86.14Z"/><path class="cls-13" d="M187.51,52.35s6.42-2.24,13.69,10l2.71-3.63L207.85,55s-2-8.66-13.07-10.67l-2.16,4.17Z"/><path class="cls-3" d="M483.64,141.88H409.78c-4.1,0-7.89-1.54-9.74-4l-5-6.65H497.79l-4.1,6.27C491.92,140.1,488,141.88,483.64,141.88Z"/><path class="cls-3" d="M490.83,134.69H401.66a6.81,6.81,0,0,1-6.8-6.8V38.74a6.81,6.81,0,0,1,6.8-6.8h89.17a6.82,6.82,0,0,1,6.81,6.8v89.15A6.82,6.82,0,0,1,490.83,134.69Z"/><path class="cls-30" d="M490.83,135.85H401.66a7.94,7.94,0,0,1-8-8V38.74a7.94,7.94,0,0,1,8-8h89.17a8,8,0,0,1,8,8v89.15A8,8,0,0,1,490.83,135.85ZM401.66,33.1A5.67,5.67,0,0,0,396,38.74v89.15a5.67,5.67,0,0,0,5.64,5.64h89.17a5.67,5.67,0,0,0,5.65-5.64V38.74a5.67,5.67,0,0,0-5.65-5.64Z"/><path class="cls-40" d="M413.65,77.24l63.42-9.89V110H413.65Z"/><path class="cls-7" d="M479.15,69.44,411.72,81.73V77.55l67.43-12.29Z"/><path class="cls-4" d="M430.82,78.87l46-8.2V110h-46Z"/><path class="cls-7" d="M476.91,100.44H430.82v1.32h46.09Z"/><path class="cls-7" d="M476.91,85.44H430.82v1.32h46.09Z"/><path class="cls-7" d="M442.11,77.71h-1.32v32.47h1.32Z"/><path class="cls-7" d="M466.47,71.29h-1.32v38.89h1.32Z"/><path class="cls-4" d="M442.73,51.65h-1.32V71.76h1.32Z"/><path class="cls-8" d="M476.81,69.9,413.36,81.49l.24,1.29L477,71.19Z"/><path class="cls-4" d="M458.19,51.81h-13.3v9h13.3Z"/><path class="cls-38" d="M418.52,60.93a4.87,4.87,0,1,0-4.87-4.87A4.87,4.87,0,0,0,418.52,60.93Z"/><path class="cls-1" d="M433.52,61a4.4,4.4,0,0,1-.31,1.78H415A5,5,0,0,1,420,58.07a6.76,6.76,0,0,1,1.78.31A6.16,6.16,0,0,1,433.52,61Z"/><path class="cls-9" d="M482.32,105a10.55,10.55,0,0,1-1.7,5.8H451.93a6.3,6.3,0,0,1,6.34-6.26,5.62,5.62,0,0,1,2.32.46,10.87,10.87,0,0,1,21.73,0Z"/><path class="cls-37" d="M475.83,102a1.63,1.63,0,1,0-1.63-1.63A1.63,1.63,0,0,0,475.83,102Z"/><path class="cls-37" d="M467.48,100.9a.85.85,0,1,0-.85-.85A.85.85,0,0,0,467.48,100.9Z"/><path class="cls-37" d="M471.73,107.71a1.55,1.55,0,1,0-1.55-1.55A1.55,1.55,0,0,0,471.73,107.71Z"/><path class="cls-4" d="M394.31,144.2a15,15,0,1,0-15-15A15,15,0,0,0,394.31,144.2Z"/><path class="cls-32" d="M383.8,118.69A15,15,0,0,1,405,139.87Z"/><path class="cls-3" d="M395.47,124.1h-2.32v10.21h2.32Z"/><path class="cls-3" d="M399.42,128H389.21v2.32h10.21Z"/><path class="cls-41" d="M445.51,224.77s6.73,7.58,11.6,9.35,17.25,4.57,19,3.95,12.29-2.4,12.6-7.58c.24-4.64-2.86-9.67-1.31-18.94a8,8,0,0,0-1.94-6.65c-1.15-1.32-2.08-3.17-4.25-5,0,0-.77-5.95-1.16-7.5s-3-5.41-7.58-7.58-19,3-19,3l-10.29,27.68Z"/><path class="cls-26" d="M445.12,214.48l4.88,1.63s.23-17.17,8-23.27c0,0,15.08,6.34,21.35-1.94,5.57-7.34-3.4-12.45-9.13-13.22-9.43-1.24-19.18,3.09-28.07,12.68-5.41,5.8-9.67,6.11-9.67,6.11s.46,5.33,4.1,4.87c0,0-.54,5,3.17,11.75Z"/><path class="cls-33" d="M436.54,202.19a.83.83,0,0,1-.77-.54.84.84,0,0,1,.46-1.08,8.55,8.55,0,0,1,1.55-.31c3.63-.62,13.38-2.32,19.41-7.5l.31-.23,6.88.85a.82.82,0,1,1-.23,1.62l-6.11-.7c-6.42,5.26-16.24,7-20,7.58a8.21,8.21,0,0,0-1.24.23A.56.56,0,0,1,436.54,202.19Z"/><path class="cls-41" d="M448.58,226.52c1.88-1.25,1.43-5.27-1-9s-6-5.7-7.86-4.45-1.43,5.27,1,9S446.69,227.76,448.58,226.52Z"/><path class="cls-42" d="M445.36,223.84a.57.57,0,0,1-.39-.08c-2.71-1.47-2.09-3.24-1.7-4.48.23-.7.39-1.16.16-1.63a2.64,2.64,0,0,0-2.48-1.23.93.93,0,0,1-.93-.78.85.85,0,0,1,.78-.92c.15,0,3-.24,4.17,2.24a3.91,3.91,0,0,1-.08,2.86c-.38,1.16-.54,1.7.93,2.47a.86.86,0,0,1,.31,1.16A.92.92,0,0,1,445.36,223.84Z"/><path class="cls-42" d="M447.68,227.86a4.65,4.65,0,0,1-1-.08.83.83,0,1,1,.39-1.62,1.83,1.83,0,0,0,2.4-1.24.83.83,0,1,1,1.62.39A3.38,3.38,0,0,1,447.68,227.86Z"/><path class="cls-4" d="M533.22,259.25l-25.6,28.07c0,24.89-3.95,59.53-3.95,59.53H433l-27.07-8.12,13.77-28.53L393.85,295l19.57-29.07a20.16,20.16,0,0,1,10.82-8,114.27,114.27,0,0,0,21.58-9.67l35.42-.54,6.42,1,26.61-12.29S515.5,248.27,533.22,259.25Z"/><path class="cls-4" d="M505.3,304.25s3.47,4.25,4.09,5.95-6.11,14.69-6.11,14.69Z"/><path class="cls-41" d="M450.46,228.79s1.78,12.37-4.56,19.41c0,0,17.94,20.41,31.71,19.71s2.78-15.85,2.78-15.85,1.08-5.95.39-7.42-2.47-5.65-2.09-7.73Z"/><path class="cls-41" d="M485.88,341.67h12.3v.62a4.66,4.66,0,0,1-4.64,4.64H488Z"/><path class="cls-41" d="M514.27,236.36l22.58-18.94s-1.55-2.55,26.22-43c0,0,4.1-5.1,12.53.85l-19.49,51.19a23.76,23.76,0,0,1-3.56,6.26L531.74,259.1C531.67,258.94,515.58,248.27,514.27,236.36Z"/><path class="cls-3" d="M599.8,210.08l-2-1a33.18,33.18,0,0,0-1.31-32.78l1.85-1.31A35.73,35.73,0,0,1,599.8,210.08Z"/><path class="cls-3" d="M597,192.14l-2.25-.46c1.32-6.42-3.78-12.84-3.86-12.84l1.78-1.39C592.92,177.68,598.49,184.64,597,192.14Z"/><path class="cls-3" d="M586.19,126.65l1.39,6.34,6.27,1.55-7.2,2-2.7,6.11-1.16-7.43-4.95-3.4,6.34.47Z"/><path class="cls-3" d="M575.75,139.64l.77,3.71,3.72.93L576,145.52l-1.62,3.55-.62-4.4-2.94-2,3.71.31Z"/><path class="cls-41" d="M590.75,173.58l13.54-22a1.11,1.11,0,0,0-.7-1.71l-10.28-1.62a5.83,5.83,0,0,0-5.88,2.55L579,161.44l-6,.7a12.93,12.93,0,0,0-10,7.27l-1.16,7.27,14.62-2Z"/><path class="cls-41" d="M594.31,163.38s6-.31,5.65,1.85-8.36,2.86-8.36,2.86Z"/><path class="cls-30" d="M565.85,159.05a1,1,0,0,1-1.08-.85c-.08-.16-2.86-10.44-8.89-15.54a25,25,0,0,1-2.32,4.33c-2.25,3-6.19,2.93-9.13,1.93-2.71-1-5.41-3.17-5.26-5.8.08-1.62,1.31-3.87,6.57-5.18a12.4,12.4,0,0,1,9,1.08c1.17-4.1,1.55-9.28-.77-14.07-3.94-8.12-14.85-12.76-31.48-13.22a1.16,1.16,0,0,1,0-2.32c17.87.54,29.16,5.41,33.49,14.54,2.71,5.56,2.17,11.67.7,16.39a23.4,23.4,0,0,1,5.49,6.26,42.91,42.91,0,0,1,4.8,11.06,1.17,1.17,0,0,1-.86,1.39Zm-17.09-19.18a9.68,9.68,0,0,0-2.55.31c-2.94.7-4.72,1.86-4.8,3s1.63,2.7,3.79,3.48,4.95.85,6.42-1.16a18.5,18.5,0,0,0,2.25-4.33A10.85,10.85,0,0,0,548.76,139.87Z"/><path class="cls-3" d="M496.09,281.29l-10-4a9.41,9.41,0,0,0-7.65.16l-10.21,5.1a1.9,1.9,0,0,0-1,2.17,2.63,2.63,0,0,0,1.78,2l2.48.85c.08,0,.15.07.15.23V288a8.62,8.62,0,0,0-1.23,2.55c-.08.24-.08.55-.16.78a2.12,2.12,0,0,0-.85,2.09,2.39,2.39,0,0,0,1.24,1.7,3.5,3.5,0,0,1-2.32,3.71.62.62,0,0,0-.31.85,3.57,3.57,0,0,0,3.63,1.85,3.4,3.4,0,0,0,2.71-3.86,3.92,3.92,0,0,0-1.47-2.55,2.08,2.08,0,0,0,.77-2.09,2.6,2.6,0,0,0-.54-1.16c0-.08.08-.23.08-.31a4.64,4.64,0,0,1,1.47-2.47c.15-.08.23-.16.39-.16a.66.66,0,0,1,.38.08l5.88,1.93a9.79,9.79,0,0,0,4.18.46,7.63,7.63,0,0,0,3.63-1.31l7.89-5.26a1.58,1.58,0,0,0,.46-1.85A2.22,2.22,0,0,0,496.09,281.29Zm-1.39,2-7,4.4a6.85,6.85,0,0,1-6,.54l-3.09-1.08a.16.16,0,0,1-.16-.15c0-.08,0-.16.08-.16l4.87-2.86c.39-.23.24-.93-.23-1.08,0,0-.92-.31-1.23-.46a1.73,1.73,0,0,0-1.39.07c-1.17.7-4.34,2.48-5.73,3.17-.08,0-.15.08-.23.08a.45.45,0,0,1-.31-.08l-3-1c-.07,0-.15-.08-.15-.23a.29.29,0,0,1,.08-.24l8.58-4.56a7,7,0,0,1,5.88-.15l8.81,3.4a.17.17,0,0,1,.16.15Q494.82,283.3,494.7,283.3Z"/><path class="cls-3" d="M494,292.5l-.93-.31c-.38-.16-.77.15-.85.62a6.07,6.07,0,0,1-.85,2.55,6,6,0,0,1-4.25,2.55,7.86,7.86,0,0,1-5.49-1.24,8,8,0,0,1-2.24-2.32c-.31-.46-.86-.69-1.24-.38l-.85.54a.91.91,0,0,0-.23,1.23,10.77,10.77,0,0,0,3.4,3.64,10.46,10.46,0,0,0,7.35,1.62,8,8,0,0,0,5.56-3.55,7.61,7.61,0,0,0,1.24-3.87A1,1,0,0,0,494,292.5Z"/><path class="cls-41" d="M585.73,153.87l-1.94-.23a3.5,3.5,0,0,0-3.32,1.46l-6,9.21,4.57.46Z"/><path class="cls-42" d="M568.87,174.28a.85.85,0,0,1,0-1.7l20.26-.31a.85.85,0,1,1,0,1.7Z"/><path class="cls-42" d="M574,168.25a.7.7,0,0,1-.39-.08.85.85,0,0,1-.3-1.08l7.19-12.45a.79.79,0,1,1,1.39.77l-7.19,12.45A1.12,1.12,0,0,1,574,168.25Z"/><path class="cls-42" d="M578.92,169.18a.69.69,0,0,1-.39-.08.79.79,0,0,1-.31-1.08l10.6-19a.8.8,0,1,1,1.39.78l-10.59,18.94A1,1,0,0,1,578.92,169.18Z"/><path class="cls-42" d="M584.33,168.79a.66.66,0,0,1-.38-.08.77.77,0,0,1-.31-1.08l10.52-18.71a.79.79,0,1,1,1.39.77L585,168.4A.92.92,0,0,1,584.33,168.79Z"/><path class="cls-42" d="M589.05,169.1a.66.66,0,0,1-.38-.08.84.84,0,0,1-.31-1.08l10.75-18.63a.84.84,0,0,1,1.08-.31.85.85,0,0,1,.31,1.08l-10.75,18.63A.82.82,0,0,1,589.05,169.1Z"/><path class="cls-3" d="M342.5,195.31a31.28,31.28,0,0,1-11.91-2.24,31.66,31.66,0,0,1-8.28-4.95,1.15,1.15,0,0,1,1.47-1.78,29.39,29.39,0,0,0,7.66,4.64c8.12,3.33,16.7,2,22.58.31,16.63-4.72,31.32-14.61,44.7-24.59l.93-.69c6.19-4.64,11.6-8.66,19.65-10.75,8.89-2.32,18.09-2.16,26.75-1.85a1.11,1.11,0,0,1,1.09,1.23,1.12,1.12,0,0,1-1.16,1.08h-.08c-8.51-.3-17.56-.38-26.06,1.78-7.58,1.94-12.53,5.65-18.8,10.36l-.93.7c-13.53,10.13-28.38,20.1-45.39,25A47.29,47.29,0,0,1,342.5,195.31Z"/><path class="cls-3" d="M408.47,172.42a1,1,0,0,1-.78-.3,1.2,1.2,0,0,1-.07-1.63c12.83-13.76,37.35-8.66,37.58-8.66a1.15,1.15,0,1,1-.54,2.24c-.23-.07-23.35-4.87-35.34,8A1.24,1.24,0,0,1,408.47,172.42Z"/><path class="cls-26" d="M484.18,225.85a5.91,5.91,0,0,1-3,2,6.66,6.66,0,0,1-4.26-.08,10.94,10.94,0,0,1-3.48-1.93,17.67,17.67,0,0,1-2.94-2.94c0-.08-.07-.08-.07-.15l-1.16-1.55,15.46-2.94C484.65,218.2,486.5,222.83,484.18,225.85Z"/><path class="cls-13" d="M484.18,225.85a5.89,5.89,0,0,1-3,2c-2.93.93-5.72-.31-7.81-2a1.18,1.18,0,0,1-.31-.23c-.54-.46-1-.93-1.46-1.39a2,2,0,0,1-.39-.47c-.23-.23-.39-.46-.54-.62l-.24-.23-.15-.15a8.76,8.76,0,0,1,3.71-1.08,9.23,9.23,0,0,1,2.55.07,12,12,0,0,1,3.87,1.32,19.45,19.45,0,0,1,3.71,2.63A.28.28,0,0,0,484.18,225.85Z"/><path class="cls-31" d="M451.23,347.16l14.93-.31L487.59,353l4.79,6-18.95.31Z"/><path class="cls-41" d="M451.23,347.16l11.68-9.43h20.34l11.29,17.32-16,.77a11.61,11.61,0,0,1-10.82-6l-1.63-2.86Z"/><path class="cls-43" d="M480.39,223.07l-7,2.7a1.18,1.18,0,0,1-.31-.23c-.54-.46-1-.93-1.46-1.39a2,2,0,0,1-.39-.47c-.23-.23-.39-.46-.54-.61l-.24-.24,6.19-1.08A12.27,12.27,0,0,1,480.39,223.07Z"/><path class="cls-3" d="M469.18,221.13l15.54-3,.47,2.32-14.62,2.78Z"/><path class="cls-42" d="M479.31,229.56h-.7c-5.95-.54-10.75-7.89-11-8.2a.78.78,0,0,1-.08-.69.85.85,0,0,1,.54-.47l16.56-3.32a.77.77,0,0,1,.92.62.78.78,0,0,1-.61.93l-15.4,3.09c1.47,1.93,5.11,6.11,9.13,6.49a6.79,6.79,0,0,0,5.57-2.39.76.76,0,0,1,1.08,1.08A8.28,8.28,0,0,1,479.31,229.56Z"/><path class="cls-44" d="M468.48,209.54a1.47,1.47,0,1,0-1.47-1.47A1.47,1.47,0,0,0,468.48,209.54Z"/><path class="cls-44" d="M482.33,205.28a1.47,1.47,0,1,0-1.47-1.47A1.46,1.46,0,0,0,482.33,205.28Z"/><path class="cls-26" d="M483,199.64a4.36,4.36,0,0,0-4.72-1.16l-.61-1.47a6,6,0,0,1,6.41,1.47Z"/><path class="cls-44" d="M477.92,205.51a.77.77,0,0,1-.39-.07.87.87,0,0,1-.31-1.09c.08-.15,1.7-3,4.1-3.48a3.47,3.47,0,0,1,2.94.7.82.82,0,0,1,.15,1.08.83.83,0,0,1-1.08.16,2,2,0,0,0-1.7-.39c-1.39.31-2.71,2.09-3.1,2.78A.67.67,0,0,1,477.92,205.51Z"/><path class="cls-44" d="M463.76,210.23a1.18,1.18,0,0,1-.46-.15.7.7,0,0,1-.16-1.09c4.34-6.18,8.2-3.78,8.36-3.71a.78.78,0,0,1,.23,1.09.76.76,0,0,1-1.08.23c-.16-.08-2.86-1.63-6.27,3.25C464.31,210.15,464.07,210.23,463.76,210.23Z"/><path class="cls-26" d="M460.9,207.68l-1.39-.7a13.3,13.3,0,0,1,11.68-7.65l-.08,1.54C470.88,200.87,464.46,200.72,460.9,207.68Z"/><path class="cls-42" d="M481.09,216.49a4.72,4.72,0,0,1-2.4-.54.79.79,0,1,1,.77-1.39,4.34,4.34,0,0,0,2.79.16,2.48,2.48,0,0,0,1.39-1.4c1-2.32-1.47-3.55-1.55-3.55l-.07-.08a25.28,25.28,0,0,1-4.64-4.48.77.77,0,1,1,1.16-1,28.43,28.43,0,0,0,4.33,4.18,4.39,4.39,0,0,1,2.24,5.56,3.9,3.9,0,0,1-2.4,2.32A6.55,6.55,0,0,1,481.09,216.49Z"/><path class="cls-45" d="M455.41,231.11s6.42,17.32,25,20.95l.7-6.65-2.63-6.72S467.71,239.92,455.41,231.11Z"/><path class="cls-42" d="M475.29,238.92a22.46,22.46,0,0,1-4.41-.47c-7.19-1.54-16.09-7.19-16.4-7.42a.84.84,0,0,1,.93-1.39c.08.08,9,5.72,15.86,7.19a23.25,23.25,0,0,0,12.83-1.39.81.81,0,1,1,.7,1.47A23.11,23.11,0,0,1,475.29,238.92Z"/><path class="cls-8" d="M400.42,292.23l-.75,1.35,21.8,12,.75-1.36Z"/><path class="cls-8" d="M436.15,283.8l-17.06,26,1.29.85,17.06-26Z"/><path class="cls-8" d="M467.24,331l-.3-1.54c27.84-5.34,39.44-25.91,39.51-26.14l1.4.77C507.69,304.33,495.78,325.51,467.24,331Z"/><path class="cls-8" d="M496.32,331.62l-.85-1.32c5.42-3.32,9.9-11.51,10-11.59l1.39.77C506.61,319.79,502.05,328.06,496.32,331.62Z"/><path class="cls-9" d="M422.15,309.51l5,19.71-13.54-5.87C413.49,323.35,418.83,308.66,422.15,309.51Z"/><path class="cls-41" d="M419.76,310.2l-5.88,9.13s9.13,5.8,36,27.91l-31-.08-32.48-18.63a6.38,6.38,0,0,1-2.55-7.66l12.6-24.2Z"/><path class="cls-33" d="M416.36,214.52l-1.59,1.7,26.71,24.88,1.58-1.7Z"/><path class="cls-33" d="M415.52,225.53l-1.58,1.7,9.86,9.16,1.58-1.7Z"/><path class="cls-42" d="M477.61,356.59a.82.82,0,0,1-.7-.38L469,342.29a.85.85,0,1,1,1.47-.85l7.89,13.92a.87.87,0,0,1-.31,1.16A1.06,1.06,0,0,1,477.61,356.59Z"/><path class="cls-42" d="M483.33,356.59a.73.73,0,0,1-.69-.46l-9.91-17.55a.88.88,0,0,1,.31-1.16.87.87,0,0,1,1.16.31l9.9,17.55a.86.86,0,0,1-.31,1.16A.76.76,0,0,1,483.33,356.59Z"/><path class="cls-42" d="M489,356.59a.74.74,0,0,1-.7-.46l-9.9-17.55a.85.85,0,1,1,1.47-.85l9.9,17.55a.88.88,0,0,1-.31,1.16A.57.57,0,0,1,489,356.59Z"/><path class="cls-42" d="M413.88,320.1a1.39,1.39,0,0,1-.54-.16c-.08-.07-5.57-4.17-10.67-1.46a.84.84,0,0,1-1.16-.39.86.86,0,0,1,.31-1.16c6.1-3.25,12.22,1.39,12.45,1.62a.78.78,0,0,1,.15,1.16C414.42,320,414.11,320.1,413.88,320.1Z"/><path class="cls-33" d="M476.37,185.65a.83.83,0,0,1-.7-.39c-.07-.16-2.24-3.48-8.12-3.87a.84.84,0,0,1-.77-.85.79.79,0,0,1,.85-.77c6.81.46,9.28,4.48,9.44,4.64a.88.88,0,0,1-.31,1.16A3.7,3.7,0,0,1,476.37,185.65Z"/><path class="cls-19" d="M397.25,264.35l.85,3.87,3.87,1-4.41,1.24-1.62,3.79-.7-4.64-3.09-2.09,3.87.31Z"/><path class="cls-19" d="M526.64,308.12l1.24,5.87,5.87,1.47L527,317.32,524.55,323l-1.08-7-4.56-3.17,5.87.46Z"/><path class="cls-19" d="M405.77,239.1l-5.19,6.34,1.79,1.47,5.19-6.34Z"/><path class="cls-19" d="M396.78,250.8l-5.19,6.34,1.8,1.47,5.19-6.34Z"/><path class="cls-19" d="M403.14,249.85l-1.47,1.8,6.35,5.18,1.47-1.79Z"/><path class="cls-19" d="M391.4,241l-1.47,1.79,6.34,5.2,1.47-1.8Z"/><path class="cls-15" d="M150.62,682.64s-15.16,18.56-20.72,22.27-9.67,10.13-7.43,16.16,24.05,40.2,24.05,40.2l37,2.79a54.67,54.67,0,0,0-28.15-24.51V710.48l10.59-10.13Z"/><path class="cls-14" d="M236.85,533.73,146.29,682.1l20,24.36,104.1-125,5.1-50Z"/><path class="cls-4" d="M193.24,676.3l-1.78-1.47c.92-1.08,90.87-109.09,100-121.85s7.58-33.63.08-42.91c-7.65-9.44-23.35-17.48-25.29-17.71V490c1.55,0,7,2.79,11.37,5.57,4.72,2.94,11.29,7.58,15.7,13,8,9.89,9.82,32,.08,45.77C284.11,567.13,194.09,675.22,193.24,676.3Z"/><path class="cls-2" d="M221.06,544.5l-15.92,24.42,1.94,1.26L223,545.77Z"/><path class="cls-37" d="M134.3,698.49s-11.44,7.35-17.17,15.15c0,0,.54,16.17,9.59,23.9l4.72.54,9.2,17.86A18.08,18.08,0,0,0,156,765.68l20.42.77c5.18.39,11.29-.23,11.14-5.41-.23-8.58-2.55-14.92-12.92-14.46,0,0-13.3-1.31-24.75,4Z"/><path class="cls-38" d="M187.59,762.2l-37.51-1c-.85-.08-5.1-1-11.37-13.53s-16-41.06-16.09-41.29l2.17-.78c.08.31,9.82,28.69,16,41.06,5.49,10.9,9.12,12.14,9.43,12.22l37.44,1Z"/><path class="cls-17" d="M149.77,740.78a1.05,1.05,0,0,1-1.08-1.08,1.17,1.17,0,0,1,1.08-1.16l5.57-.23a1.12,1.12,0,1,1,.08,2.24Z"/><path class="cls-17" d="M260.21,734.52,249,734.06a1.09,1.09,0,1,1,.15-2.17l11.22.47a1,1,0,0,1,1,1.16A1.17,1.17,0,0,1,260.21,734.52Z"/><path class="cls-17" d="M155.34,711.56a.86.86,0,0,1-.62-.24l-10.67-7.73a1.1,1.1,0,1,1,1.31-1.77L156,709.55a1.11,1.11,0,0,1,.24,1.55A1.85,1.85,0,0,1,155.34,711.56Z"/><path class="cls-36" d="M187,765.68H120.69V768H187Z"/><path class="cls-2" d="M225.87,460c-.77,2-1.47,12.61-1.7,15.78l-2.55.31C182.33,453.86,177.77,417,177.77,417l50.34,12.91-.23.77s-3.09,12.76,0,15.54-2.78,7.43-4.17,9S226.8,457.72,225.87,460Z"/><path class="cls-16" d="M146.91,382.88l52.59,54.9c3.09,3.24,6.8,6.49,11.21,7.19l91.73,13.45L300.5,426.8l-79-23.35-53.21-92.4"/><path class="cls-2" d="M233.53,408.24l-12.92-3.87L193.7,357.6l2-1.16,26.45,46L234.22,406Z"/><path class="cls-2" d="M222.39,447.05,211,445.12a22,22,0,0,1-12.22-6.49l-52.59-54.9,1.7-1.62L200.43,437a20,20,0,0,0,11,5.8l11.45,1.94Z"/><path class="cls-20" d="M235.54,405.92l-2.24-.46,2.78-12.53.46-.23c4.26-2.24,15.08-9.43,14-15.15-1.39-7.5-17.55-34.26-17.71-34.49l2-1.23c.7,1.08,16.55,27.29,18,35.25s-12,15.78-14.77,17.32Z"/><path class="cls-20" d="M296.09,310.74s6.58,15.54,23.13,21.57l29-31.31-16.7-19.71Z"/><path class="cls-15" d="M356.88,257s13.38-2.86,17.17-1.62c7.81,2.62,4.41,7.34,4.41,7.34s2.86,2-.54,8.51c0,0,4,3.55-.93,9.66a12.14,12.14,0,0,1-2.32,8.12A43.25,43.25,0,0,1,355,290a114.66,114.66,0,0,1-7.5,9.89l-15-17.39,6.5-10,8-15.31a11.82,11.82,0,0,1,1.16-2.16c2-2.55,5.26-11.29,6.58-16.78.38-1.7,3.48.77,4.17,2.4C360.36,244,360.28,247.73,356.88,257Z"/><path class="cls-17" d="M353.32,281a1.1,1.1,0,0,1-.85-.47,1.11,1.11,0,0,1,.24-1.54c.31-.23,8.43-6.65,2.08-21.19a1.11,1.11,0,0,1,2-.93c3.64,8.35,2.79,14.39,1.32,17.94a14.27,14.27,0,0,1-4.1,5.88A.73.73,0,0,1,353.32,281Z"/><path class="cls-17" d="M364.54,266.91a1.16,1.16,0,0,1-1.08-.85l-.47-2.17a4.63,4.63,0,0,1,2.86-5.26c3.95-1.54,6-2.32,6.19-2.39a1.1,1.1,0,1,1,.7,2.08c-.23.08-2.55,1-6.11,2.32a2.52,2.52,0,0,0-1.55,2.86l.23,1.16,12.45-2.08a1.09,1.09,0,1,1,.31,2.16L364.62,267C364.7,266.91,364.62,266.91,364.54,266.91Z"/><path class="cls-17" d="M365.93,272.78a4,4,0,0,1-4-3.4,3.94,3.94,0,0,1,.69-3.17,4.11,4.11,0,0,1,2.71-1.7c10.6-1.7,12.3-2,12.53-2.09a1.09,1.09,0,0,1,1.32.7,1.13,1.13,0,0,1-.7,1.39c-.16.08-.31.08-12.84,2.16a2.09,2.09,0,0,0-1.31.78,2,2,0,0,0-.31,1.47,1.83,1.83,0,0,0,2.09,1.54l11.29-1.08a1.08,1.08,0,1,1,.15,2.16l-11.29,1.09C366.24,272.78,366.09,272.78,365.93,272.78Z"/><path class="cls-17" d="M365.16,279A4.1,4.1,0,0,1,362,272.4a4.32,4.32,0,0,1,2.78-1.55c10.06-1.08,11.76-1.32,12.07-1.39a1,1,0,0,1,1.23.69,1.19,1.19,0,0,1-.69,1.39c-.16.08-.31.08-12.38,1.4a2,2,0,0,0-1.31.69,1.83,1.83,0,0,0-.39,1.39,1.92,1.92,0,0,0,1.86,1.63l11.52-.08a1.09,1.09,0,0,1,0,2.17Z"/><path class="cls-17" d="M373.82,286.23h-.31l-6.11-1.62a4,4,0,0,1-2.94-3.63l-.07-2.86a.89.89,0,0,1,.31-.78,1.39,1.39,0,0,1,.77-.31c3.86,0,10,0,10.75-.07a1.08,1.08,0,0,1,.54,2.08c-.23.08-.39.16-10.21.16l.08,1.7a1.72,1.72,0,0,0,1.31,1.62l6.11,1.63a1.06,1.06,0,0,1,.78,1.31A1,1,0,0,1,373.82,286.23Z"/><path class="cls-3" d="M324.32,464.37l113.07-2.24L392.3,441,304,446.28Z"/><path class="cls-20" d="M272.27,418.14s5.88,15.93-8.89,35.95l46.25,5.72s3.79-3.32,5.72-13.84.46-15.46.46-15.46Z"/><path class="cls-38" d="M340.07,407.56l-3.8,3.86,40.78,40.24,3.8-3.86Z"/><path class="cls-13" d="M337.86,405.49l-3.75,3.79,3.19,3.15,3.75-3.79Z"/><path class="cls-15" d="M316.28,434.61l9.9,1.46,11.44-3.17a18.88,18.88,0,0,1,14.16,1.71l35.65,20-28,5.57a19.71,19.71,0,0,1-8.51-.16l-37.2-8.58Z"/><path class="cls-4" d="M593.07,82.89A25.46,25.46,0,0,1,583,73.53a25.91,25.91,0,0,1-3.64-13.6A26.12,26.12,0,0,1,583,46.32,24.57,24.57,0,0,1,593.07,37,32.47,32.47,0,0,1,622,37a24.8,24.8,0,0,1,10,9.36,25.92,25.92,0,0,1,3.64,13.61A26.11,26.11,0,0,1,632,73.53a24.66,24.66,0,0,1-10,9.36,32.47,32.47,0,0,1-28.93,0Zm23.82-12.6c2.4-2.55,3.64-6,3.64-10.29s-1.24-7.73-3.64-10.28a12.46,12.46,0,0,0-9.35-3.86,12.67,12.67,0,0,0-9.44,3.86c-2.47,2.55-3.71,6-3.71,10.28s1.24,7.74,3.71,10.29a12.55,12.55,0,0,0,9.44,3.86A12.33,12.33,0,0,0,616.89,70.29Z"/><path class="cls-38" d="M630.66,60.16a14.24,14.24,0,0,1-.08,1.85,26.21,26.21,0,0,1-24.21,24.2,14.87,14.87,0,0,1-1.93.08,26.17,26.17,0,1,1,26.22-26.13Z"/><path class="cls-3" d="M630.58,62.09a26.22,26.22,0,0,1-24.21,24.2Z"/><path class="cls-38" d="M604.44,80.72A20.72,20.72,0,1,0,583.72,60,20.72,20.72,0,0,0,604.44,80.72Z"/><path class="cls-4" d="M604.44,81.88A21.88,21.88,0,1,1,626.33,60,21.91,21.91,0,0,1,604.44,81.88Zm0-41.52A19.64,19.64,0,1,0,624.09,60,19.67,19.67,0,0,0,604.44,40.36Z"/><path class="cls-4" d="M604.6,46.55a1.3,1.3,0,0,1,1.31,1.32v.69a11.42,11.42,0,0,1,4.64,1.63,1.57,1.57,0,0,1,.93,1.46,1.65,1.65,0,0,1-1.7,1.63,2.13,2.13,0,0,1-.93-.23,10.55,10.55,0,0,0-3.09-1.32v5.72c4.56,1.16,6.49,2.94,6.49,6.11s-2.55,5.49-6.34,5.8v1.78a1.32,1.32,0,0,1-2.63,0V69.21a12.45,12.45,0,0,1-6.11-2.32,1.48,1.48,0,0,1-.77-1.4A1.58,1.58,0,0,1,598,63.87a2.26,2.26,0,0,1,1,.31,10.77,10.77,0,0,0,4.41,2V60.31c-4.34-1.16-6.42-2.78-6.42-6.1s2.55-5.42,6.26-5.73v-.61A1.31,1.31,0,0,1,604.6,46.55Zm-1.16,10.13V51.42c-1.94.16-2.86,1.16-2.86,2.48S601.12,55.91,603.44,56.68Zm2.32,4.18v5.41c1.93-.23,2.93-1.16,2.93-2.63S608.08,61.55,605.76,60.86Z"/><path class="cls-3" d="M589.05,42.61l1.39,3.86,4.1,1.16-4.1,2-1.39,4-1.47-4-4.25-2,4.25-1.16Z"/><path class="cls-26" d="M634.26,258.89a8.71,8.71,0,0,0,4.44,2.95,9.74,9.74,0,0,0,6.25-.11,16,16,0,0,0,5.11-2.84,25.43,25.43,0,0,0,4.32-4.32c0-.11.11-.11.11-.23l1.71-2.27-22.73-4.32C633.58,247.64,630.85,254.46,634.26,258.89Z"/><path class="cls-13" d="M634.26,258.89a8.71,8.71,0,0,0,4.44,2.95c4.32,1.37,8.41-.45,11.48-2.95a1.63,1.63,0,0,0,.45-.34c.8-.68,1.48-1.37,2.16-2.05a2.86,2.86,0,0,0,.57-.68c.34-.34.57-.68.79-.91l.35-.34.22-.23a13,13,0,0,0-5.45-1.59,13.49,13.49,0,0,0-3.75.12,17.35,17.35,0,0,0-5.69,1.93,29,29,0,0,0-5.45,3.86A.42.42,0,0,1,634.26,258.89Z"/><path class="cls-43" d="M639.83,254.8l10.35,4a1.42,1.42,0,0,0,.45-.34c.8-.68,1.48-1.36,2.16-2a3.37,3.37,0,0,0,.57-.68c.34-.35.57-.69.79-.91l.34-.34-9.09-1.6A18.1,18.1,0,0,0,639.83,254.8Z"/><path class="cls-3" d="M656.31,252l-22.84-4.43-.69,3.41L654.27,255Z"/><path class="cls-28" d="M641.42,264.34h1c8.76-.79,15.81-11.59,16.15-12a1.15,1.15,0,0,0,.11-1,1.2,1.2,0,0,0-.8-.68l-24.32-4.88a1.13,1.13,0,0,0-1.36.9,1.15,1.15,0,0,0,.9,1.37l22.62,4.54c-2.15,2.84-7.5,9-13.41,9.55-3,.23-5.68-.91-8.18-3.52a1.12,1.12,0,0,0-1.59,1.59C635.17,262.86,638.13,264.34,641.42,264.34Z"/><path class="cls-3" d="M744.25,101.21h-29v20.65h29Z"/><path class="cls-13" d="M744.11,101.14h-6.77v19.65h6.77Z"/><path class="cls-13" d="M721.94,101.14h-6.77v19.64h6.77Z"/><path class="cls-13" d="M730.5,113.08h-1.36V115h1.36Z"/><path class="cls-13" d="M729.78,110.78l-3,2.81H733Z"/><path class="cls-13" d="M734,109.92l-3.31,2.81-1.44-1.23,3.31-2.88Z"/><path class="cls-13" d="M725.68,109.92l3.31,2.81,1.44-1.23-3.24-2.88Z"/><path class="cls-13" d="M730.85,111.55v-4h-2.08v4Z"/><path class="cls-9" d="M744.83,121.5H715.17v-1.44h28.22V101.14h1.44Z"/><path class="cls-32" d="M745.05,127.19H716v20.65h29Z"/><path class="cls-3" d="M744.2,125.94l-29,20.79,1.68,2.34,29-20.79Z"/><path class="cls-3" d="M716.94,125.81l-1.68,2.34,29,20.79L746,146.6Z"/><path class="cls-13" d="M743.62,127.11,731.27,136l.42.59L744,127.69Z"/><path class="cls-13" d="M733.54,138.47l-.42.58,11.57,8.32.42-.58Z"/><path class="cls-13" d="M729.29,138.12,716,147.71l.42.58,13.32-9.59Z"/><path class="cls-13" d="M716.32,127.08l-.42.58,11.4,8.2.42-.59Z"/><path class="cls-3" d="M732.67,127.26h-4.32v20.58h4.32Z"/><path class="cls-3" d="M745.2,135.39H716v4.32H745.2Z"/><path class="cls-13" d="M731.59,127.26h-2.16v20.58h2.16Z"/><path class="cls-13" d="M745.2,136.47H716v2.16H745.2Z"/><path class="cls-9" d="M745.56,148.71H715.9v-1.44h28.22v-19h1.44Z"/><path class="cls-32" d="M778.92,127.19h-29v20.65h29Z"/><path class="cls-3" d="M764.19,125.88,749,136.74l.88,1.22,15.16-10.86Z"/><path class="cls-3" d="M750,125.81l-.88,1.22,15.16,10.86.88-1.22Z"/><path class="cls-13" d="M763.89,126.49l-6.45,4.62.22.3,6.45-4.62Z"/><path class="cls-13" d="M758.63,132.42l-.22.31,6,4.34.22-.3Z"/><path class="cls-13" d="M756.4,132.24l-6.95,5,.22.3,7-5Z"/><path class="cls-13" d="M749.63,126.47l-.22.31,6,4.28.22-.31Z"/><path class="cls-3" d="M758.18,126.57h-2.26v10.75h2.26Z"/><path class="cls-3" d="M764.72,130.82H749.49v2.25h15.23Z"/><path class="cls-13" d="M757.61,126.57h-1.13v10.75h1.13Z"/><path class="cls-13" d="M764.72,131.38H749.49v1.13h15.23Z"/><path class="cls-9" d="M779.42,148.71H749.76v-1.44H778v-19h1.44Z"/><path class="cls-3" d="M778.8,101h-29v20.66h29Z"/><path class="cls-13" d="M778.66,100.92h-15v1.66h15Z"/><path class="cls-13" d="M778.66,104.38h-15V106h15Z"/><path class="cls-13" d="M778.66,107.83h-15v1.66h15Z"/><path class="cls-13" d="M778.66,111.28H749.72v1.66h28.94Z"/><path class="cls-13" d="M778.59,114.81H749.8v1.66h28.79Z"/><path class="cls-13" d="M778.59,118.27H749.8v1.65h28.79Z"/><path class="cls-32" d="M763.62,100.92h-14v10.51h14Z"/><path class="cls-9" d="M779.89,121.5H750.23v-1.44h28.22V101.14h1.44Z"/><path class="cls-3" d="M757.45,140.06a.05.05,0,0,1,.1,0l.35,1.41a.06.06,0,0,0,.08,0l1.32-.6s.09,0,.06.08l-.88,1.16a.06.06,0,0,0,0,.08l1.29.65a.05.05,0,0,1,0,.1l-1.45,0a.05.05,0,0,0-.05.06l.29,1.42a.05.05,0,0,1-.09,0l-.93-1.11a.06.06,0,0,0-.08,0l-.93,1.11a.05.05,0,0,1-.09,0l.29-1.42a.06.06,0,0,0-.05-.06l-1.45,0c-.06,0-.07-.07,0-.1l1.29-.65a.05.05,0,0,0,0-.08l-.87-1.16a.05.05,0,0,1,.06-.08l1.32.6a0,0,0,0,0,.07,0Z"/><circle class="cls-3" cx="771.89" cy="142.4" r="0.85"/><circle class="cls-3" cx="775.7" cy="134.36" r="0.42"/><circle class="cls-3" cx="768.08" cy="135.21" r="0.42"/><circle class="cls-3" cx="774" cy="136.9" r="0.42"/><circle class="cls-3" cx="771.89" cy="132.24" r="0.85"/></svg>