<svg width="38" height="38" viewBox="0 0 38 38" fill="none" xmlns="http://www.w3.org/2000/svg">
<path d="M34.5914 29.6595C35.1309 30.533 34.7353 31.6754 33.7283 32.045C31.2107 33.0193 25.5641 34.8337 18.7307 34.8337C11.9692 34.8337 6.64638 33.0193 4.2367 32.045C3.26564 31.6418 2.87002 30.5666 3.4095 29.6931C5.63935 25.9636 12.7245 22.167 19.0185 22.167C24.7729 22.167 32.2177 25.8628 34.5914 29.6595Z" fill="#DCE9FE" stroke="#1E6DEB" stroke-width="2" stroke-miterlimit="10" stroke-linecap="round" stroke-linejoin="round"/>
<path d="M19 19.0003C23.3723 19.0003 26.9167 15.4559 26.9167 11.0837C26.9167 6.7114 23.3723 3.16699 19 3.16699C14.6278 3.16699 11.0834 6.7114 11.0834 11.0837C11.0834 15.4559 14.6278 19.0003 19 19.0003Z" fill="#DCE9FE" stroke="#1E6DEB" stroke-width="2" stroke-miterlimit="10" stroke-linecap="round" stroke-linejoin="round"/>
</svg>
