<svg width="30" height="30" viewBox="0 0 30 30" fill="none" xmlns="http://www.w3.org/2000/svg">
<path d="M12.8479 5L16.5767 5.52819L18.3706 12.5L13.0562 12.1875L12.8479 5Z" fill="#DCE9FE" stroke="#1E6DEB" stroke-width="2" stroke-linecap="round" stroke-linejoin="round"/>
<path d="M11.25 18.4584C7.32445 17.1091 3.61377 14.3653 3.61377 14.3653L3.125 8.02441L6.43076 8.57625L7.36888 12.4943C9.20307 12.1211 17.6619 11.9398 21.7481 13.3299C24.8463 14.3863 28.3623 16.5358 26.6858 18.8115C25.3872 20.5741 20.898 20.0351 17.1875 19.5278" stroke="#1E6DEB" stroke-width="2" stroke-linecap="round" stroke-linejoin="round"/>
<path d="M18.0534 17.8131L12.5351 26.0171C12.4763 26.1048 12.3925 26.1727 12.2945 26.2121C12.1965 26.2515 12.089 26.2604 11.9859 26.2378L9.50786 25.6939C9.43455 25.6776 9.36559 25.6457 9.30562 25.6005C9.24565 25.5553 9.19607 25.4978 9.16021 25.4318C9.12435 25.3658 9.10305 25.2929 9.09775 25.218C9.09244 25.1431 9.10326 25.0679 9.12946 24.9975L12.0673 17.2613C12.1105 17.1483 12.1913 17.0537 12.2962 16.9934C12.401 16.933 12.5234 16.9107 12.6428 16.9302L18.0534 17.8131Z" stroke="#1E6DEB" stroke-width="2" stroke-linecap="round" stroke-linejoin="round"/>
<path d="M25.871 15.6558C25.871 15.6558 24.7306 16.6202 22.2473 16.2707" stroke="#1E6DEB" stroke-width="2" stroke-linecap="round" stroke-linejoin="round"/>
</svg>
