<svg width="20" height="20" viewBox="0 0 20 20" fill="none" xmlns="http://www.w3.org/2000/svg">
<path d="M9.1665 7.50033V5.83366H10.8332V7.50033H9.1665Z" fill="#76132D"/>
<path d="M9.1665 13.3337V9.16699H10.8332V13.3337H9.1665Z" fill="#76132D"/>
<path fill-rule="evenodd" clip-rule="evenodd" d="M18.3332 10.0003C18.3332 14.6027 14.6022 18.3337 9.99984 18.3337C5.39746 18.3337 1.6665 14.6027 1.6665 10.0003C1.6665 5.39795 5.39746 1.66699 9.99984 1.66699C14.6022 1.66699 18.3332 5.39795 18.3332 10.0003ZM16.6665 10.0003C16.6665 13.6822 13.6817 16.667 9.99984 16.667C6.31794 16.667 3.33317 13.6822 3.33317 10.0003C3.33317 6.31843 6.31794 3.33366 9.99984 3.33366C13.6817 3.33366 16.6665 6.31843 16.6665 10.0003Z" fill="#76132D"/>
</svg>
