<svg width="60" height="47" viewBox="0 0 60 47" fill="none" xmlns="http://www.w3.org/2000/svg">
<g clip-path="url(#clip0_356_45441)">
<path d="M30.4511 26.0459C30.4511 24.8628 31.0561 24.6476 32.1762 25.2781C34.2389 26.4373 36.3866 27.6393 36.3866 27.6393C36.4579 26.9747 37.0279 26.4134 38.2618 26.7041C39.4169 26.9747 40.7032 27.2605 40.7032 27.2605C40.7032 27.2605 40.0094 25.6847 39.7031 24.9949C39.1381 23.7275 39.6831 23.1171 40.2332 22.9396C40.2332 22.9396 39.4444 22.3997 38.9281 22.0372C37.8142 21.2593 38.0767 20.5017 39.1556 20.0322C40.6332 19.4029 42.4584 18.5697 42.4584 18.5697C41.8808 18.2261 41.1945 17.2632 41.9583 16.143C42.7221 15.0229 43.8447 13.4886 43.8447 13.4886C43.8447 13.4886 41.8446 13.51 40.5169 13.4886C39.3093 13.4748 39.0168 12.5132 39.0268 11.8172C39.0268 11.8172 37.0604 13.2167 35.6515 14.1746C34.4664 14.9788 33.3926 14.1947 33.5689 12.814C33.8501 10.6555 34.1014 8.26407 34.1014 8.26407C33.3726 8.76752 32.1262 8.74235 31.5712 7.54414C30.7486 5.76193 29.8023 3.67387 29.8023 3.67387C29.8023 3.67387 28.8585 5.76445 28.0446 7.54666C27.4908 8.74486 26.2357 8.77004 25.5082 8.26659C25.5082 8.26659 25.7582 10.658 26.0382 12.8152C26.217 14.1997 25.1431 14.9801 23.963 14.1758C22.5567 13.218 20.5878 11.8184 20.5878 11.8184C20.5978 12.5144 20.3065 13.476 19.0964 13.4899C17.7675 13.5113 15.7723 13.4899 15.7723 13.4899C15.7723 13.4899 16.8974 15.0355 17.6562 16.1443C18.4151 17.2531 17.73 18.2273 17.1562 18.5709C17.1562 18.5709 18.9826 19.3991 20.4502 20.0334C21.5378 20.5029 21.7991 21.2606 20.6815 22.0384C20.1627 22.4009 19.3751 22.9409 19.3751 22.9409C19.9289 23.1183 20.4715 23.7288 19.9027 24.9962C19.5939 25.6847 18.9026 27.2617 18.9026 27.2617C18.9026 27.2617 20.189 26.976 21.3441 26.7054C22.5829 26.4147 23.1517 26.976 23.2192 27.6406L27.4283 25.2794C28.5472 24.6501 29.146 24.864 29.1535 26.0471V28.9508C29.1535 30.6247 28.861 32.4636 28.2247 33.439C20.3127 32.5681 13.7697 26.202 13.7534 17.7931C13.7434 9.1363 20.9403 2.12199 29.7948 2.12199C38.6493 2.12199 45.8287 9.1363 45.8287 17.7918C45.8287 25.8848 39.5781 32.4976 31.5774 33.3648V35.4868C40.9795 34.6234 48.3289 27.0289 48.3289 17.7918C48.3289 7.97459 40.0257 0.0175781 29.7885 0.0175781C19.5514 0.0175781 11.252 7.97836 11.252 17.7918C11.252 26.4335 17.6838 33.6228 26.2107 35.2313C27.6521 35.5044 28.5697 35.7197 29.3235 36.6561C30.2348 34.9808 30.4486 31.4265 30.4486 29.4202C30.4486 29.4202 30.4486 26.9697 30.4486 26.0459" fill="#ED1C24"/>
<path d="M12.3209 43.8719H12.8084C14.1335 43.8719 14.4035 43.6554 14.4035 43.0085C14.4035 42.3616 13.821 42.2697 12.9584 42.2697H12.3209V43.8719ZM11.2495 46.5603V41.6328H13.6247C14.8973 41.6416 15.4636 42.1753 15.5111 42.8625C15.5353 43.1764 15.4381 43.4875 15.2398 43.7309C15.0223 43.9827 14.9186 44.0657 14.5223 44.2583L16.3262 46.5641H14.9961L13.4009 44.5264H12.3209V46.5603H11.2495Z" fill="#ED1C24"/>
<path d="M2.19139 44.5931H3.88904L3.04272 42.6322L2.19014 44.5931H2.19139ZM0.5 46.5641L2.64393 41.6328H3.94404L6.06922 46.5641H4.73911L4.16781 45.2388H1.90637L1.33257 46.5641H0.5Z" fill="#ED1C24"/>
<path d="M8.7382 41.6338H7.58936V46.5651H8.7382V41.6338Z" fill="#ED1C24"/>
<path d="M24.5448 46.3998C23.8941 46.6326 23.2062 46.7423 22.5159 46.7233C21.5458 46.7233 20.792 46.4879 20.2494 46.0248C19.7069 45.5616 19.4419 44.921 19.4444 44.1029C19.4444 43.2596 19.7244 42.6126 20.2682 42.1633C20.812 41.714 21.5995 41.4912 22.6096 41.4912C23.2557 41.4933 23.9 41.5587 24.5335 41.6863V42.4981C23.9228 42.3018 23.2879 42.192 22.6471 42.1721C22.0221 42.1721 21.542 42.3332 21.202 42.6668C20.862 43.0003 20.6895 43.471 20.6895 44.0802C20.6895 44.6894 20.8645 45.15 21.232 45.4886C21.5995 45.8272 22.0983 45.9921 22.7509 45.9921C23.3683 45.9881 23.9787 45.8597 24.546 45.6145V46.3998" fill="#ED1C24"/>
<path d="M27.64 44.5931H29.3326L28.4913 42.6322L27.64 44.5931ZM25.9448 46.5641L28.0888 41.6328H29.3926L31.5178 46.5641H30.1814L29.6101 45.2388H27.3599L26.7811 46.5641H25.9448Z" fill="#ED1C24"/>
<path d="M41.7958 44.5931H43.4834L42.6421 42.6322L41.7958 44.5931ZM40.0981 46.5641L42.2408 41.6328H43.5459L45.6636 46.5641H44.3335L43.7685 45.2388H41.502L40.927 46.5641H40.0981Z" fill="#ED1C24"/>
<path d="M55.216 44.5931H56.9112L56.0686 42.6322L55.216 44.5931ZM53.5259 46.5641L55.6723 41.6328H56.9724L59.0976 46.5641H57.76L57.1924 45.2388H54.9335L54.3535 46.5641H53.5259Z" fill="#ED1C24"/>
<path d="M33.1416 46.5651V41.6338H34.4642L37.5245 45.1504L37.527 41.6338H38.4608V46.5651H37.2595L34.0729 42.8836V46.5651H33.1416Z" fill="#ED1C24"/>
<path d="M48.4216 45.8593H49.2667C49.8643 45.8593 50.3143 45.712 50.6081 45.4137C50.9018 45.1154 51.0506 44.6585 51.0531 44.0594C51.0693 43.6385 50.9462 43.2242 50.7031 42.8814C50.5559 42.6757 50.3501 42.5199 50.113 42.4346C49.7888 42.3377 49.4509 42.2952 49.1129 42.3087H48.4204V45.8593H48.4216ZM47.269 46.5641V41.6328H49.6442C50.4968 41.6378 51.1485 41.8447 51.5994 42.2533C52.0503 42.6619 52.2736 43.2472 52.2695 44.0091C52.2695 44.8197 52.0257 45.4515 51.5457 45.897C51.0656 46.3426 50.3918 46.5628 49.528 46.5628L47.269 46.5641Z" fill="#ED1C24"/>
</g>
<defs>
<clipPath id="clip0_356_45441">
<rect width="58.5887" height="46.7012" fill="white" transform="translate(0.5 0.0175781)"/>
</clipPath>
</defs>
</svg>
