<svg width="10" height="8" viewBox="0 0 10 8" fill="none" xmlns="http://www.w3.org/2000/svg">
<path fill-rule="evenodd" clip-rule="evenodd" d="M9.63688 0.0435143C9.41706 -0.0449311 9.16406 0.00395457 8.99582 0.167383L6.47059 2.62046L3.94535 0.167383C3.71565 -0.0557709 3.34319 -0.0557709 3.11346 0.167383L0.172288 3.0245C0.0619765 3.1317 0 3.27702 0 3.42856V7.42854C0 7.65969 0.143318 7.86803 0.363129 7.95649C0.582935 8.04494 0.835947 7.99603 1.00418 7.8326L3.52941 5.37952L6.05465 7.8326C6.28435 8.0558 6.65682 8.0558 6.88653 7.8326L9.82771 4.97547C9.938 4.86832 10 4.72295 10 4.57141V0.571444C10 0.340325 9.85671 0.13196 9.63688 0.0435143ZM2.94118 4.33473L1.17647 6.04901V3.66524L2.94118 1.95099V4.33473ZM4.11765 1.95099V4.33473L5.88235 6.04901V3.66524L4.11765 1.95099ZM7.05882 3.66524L8.82353 1.95099V4.33473L7.05882 6.04901V3.66524Z" fill="#F6F8FE"/>
</svg>
