<svg width="22" height="27" viewBox="0 0 22 27" fill="none" xmlns="http://www.w3.org/2000/svg">
<path fill-rule="evenodd" clip-rule="evenodd" d="M11 1.28222C5.63959 1.28222 1.29412 5.58774 1.29412 10.8989C1.29412 11.8082 1.60215 12.9296 2.15369 14.1896C2.7012 15.4404 3.46757 16.7809 4.33553 18.1149C6.07131 20.7826 8.18035 23.3742 9.65914 25.0941C10.3741 25.9257 11.6259 25.9257 12.3409 25.0941C13.8196 23.3742 15.9287 20.7826 17.6645 18.1149C18.5324 16.7809 19.2988 15.4404 19.8463 14.1896C20.3979 12.9296 20.7059 11.8082 20.7059 10.8989C20.7059 5.58774 16.3604 1.28222 11 1.28222ZM0 10.8989C0 4.87959 4.92487 0 11 0C17.0751 0 22 4.87959 22 10.8989C22 12.0627 21.6148 13.372 21.0336 14.6998C20.4483 16.0369 19.6424 17.4415 18.7522 18.8097C16.9716 21.5462 14.8209 24.187 13.326 25.9256C12.0943 27.3581 9.90565 27.3581 8.67402 25.9256C7.17913 24.187 5.02842 21.5462 3.24785 18.8097C2.35764 17.4415 1.55169 16.0369 0.966427 14.6998C0.385197 13.372 0 12.0627 0 10.8989ZM11 7.05221C8.85584 7.05221 7.11765 8.77441 7.11765 10.8989C7.11765 13.0233 8.85584 14.7455 11 14.7455C13.1442 14.7455 14.8824 13.0233 14.8824 10.8989C14.8824 8.77441 13.1442 7.05221 11 7.05221ZM5.82353 10.8989C5.82353 8.06626 8.14111 5.76999 11 5.76999C13.8589 5.76999 16.1765 8.06626 16.1765 10.8989C16.1765 13.7315 13.8589 16.0277 11 16.0277C8.14111 16.0277 5.82353 13.7315 5.82353 10.8989Z" fill="#1E6DEB"/>
</svg>
