<svg width="30" height="30" viewBox="0 0 30 30" fill="none" xmlns="http://www.w3.org/2000/svg">
<path fill-rule="evenodd" clip-rule="evenodd" d="M10.6129 2.07173C10.1687 0.72589 8.23208 0.827385 7.931 2.21229C7.71811 3.19152 6.57138 3.63171 5.75794 3.04645C4.60752 2.21872 3.1004 3.43917 3.67084 4.73654C4.0742 5.65389 3.4052 6.68405 2.40311 6.68868C0.985875 6.69524 0.483945 8.56847 1.70803 9.28277C2.57355 9.78783 2.63783 11.0145 1.82985 11.6072C0.687135 12.4456 1.38212 14.2561 2.79228 14.1145C3.78937 14.0143 4.56237 14.9689 4.25712 15.9234C3.82541 17.2733 5.45185 18.3295 6.50945 17.3861C7.25725 16.719 8.44372 17.0369 8.7578 17.9885C9.20199 19.3344 11.1386 19.2329 11.4397 17.848C11.6526 16.8687 12.7993 16.4285 13.6128 17.0138C14.7632 17.8415 16.2703 16.6211 15.6999 15.3237C15.2965 14.4064 15.9655 13.3762 16.9676 13.3716C18.3848 13.365 18.8868 11.4918 17.6627 10.7775C16.7972 10.2724 16.7329 9.04577 17.5409 8.453C18.6836 7.61467 17.9886 5.80417 16.5784 5.94579C15.5813 6.04592 14.8083 5.09134 15.1136 4.13686C15.5453 2.78696 13.9189 1.73074 12.8613 2.67418C12.1135 3.34126 10.927 3.02335 10.6129 2.07173ZM9.8866 13.8706C12.0076 13.7594 13.637 11.9499 13.5258 9.82885C13.4146 7.70782 11.6051 6.0785 9.48406 6.18965C7.36304 6.30081 5.73371 8.11036 5.84487 10.2314C5.95603 12.3524 7.76558 13.9817 9.8866 13.8706Z" fill="#1E6DEB"/>
<path fill-rule="evenodd" clip-rule="evenodd" d="M10.0078 2.2717C9.76709 1.54227 8.71744 1.59728 8.55426 2.34788C8.24387 3.77561 6.57192 4.41741 5.38592 3.56409C4.7624 3.11547 3.94556 3.77694 4.25473 4.48011C4.84282 5.81761 3.86743 7.31958 2.40637 7.32635C1.63824 7.3299 1.3662 8.34517 2.02964 8.73232C3.29157 9.4687 3.3853 11.2572 2.20725 12.1214C1.58791 12.5758 1.96459 13.5571 2.72888 13.4803C4.18264 13.3343 5.3097 14.7261 4.86464 16.1177C4.63065 16.8494 5.51217 17.4218 6.08538 16.9105C7.17568 15.9379 8.90556 16.4014 9.36349 17.7889C9.60423 18.5183 10.6539 18.4633 10.8171 17.7127C11.1274 16.285 12.7994 15.6432 13.9854 16.4965C14.6089 16.9451 15.4258 16.2836 15.1166 15.5805C14.5285 14.243 15.5039 12.741 16.965 12.7342C17.7331 12.7307 18.0051 11.7154 17.3417 11.3283C16.0797 10.5919 15.986 8.80342 17.1641 7.93916C17.7834 7.48478 17.4067 6.50351 16.6424 6.58027C15.1887 6.72626 14.0616 5.33447 14.5067 3.94283C14.7407 3.2112 13.8592 2.63873 13.2859 3.15007C12.1956 4.12268 10.4658 3.65916 10.0078 2.2717ZM7.30835 2.07702C7.74732 0.0578217 10.571 -0.0901586 11.2186 1.87209C11.3888 2.38786 12.0319 2.56017 12.4372 2.19861C13.9792 0.823067 16.3505 2.36305 15.7211 4.33121C15.5557 4.84853 15.9746 5.36591 16.515 5.31164C18.5711 5.10516 19.5844 7.74488 17.9183 8.96718C17.4803 9.28846 17.5152 9.95328 17.9843 10.227C19.769 11.2685 19.0372 13.9997 16.9709 14.0092C16.4277 14.0117 16.0651 14.5701 16.2838 15.0673C17.1155 16.9589 14.9181 18.7383 13.2407 17.5314C12.7999 17.2142 12.1783 17.4528 12.063 17.9835C11.624 20.0027 8.80035 20.1507 8.15272 18.1885C7.98249 17.6727 7.33943 17.5004 6.93413 17.862C5.39214 19.2375 3.02078 17.6975 3.65022 15.7294C3.81566 15.212 3.3967 14.6947 2.85628 14.7489C0.800263 14.9554 -0.213033 12.3157 1.45305 11.0934C1.89097 10.7721 1.85613 10.1073 1.38703 9.83355C-0.397698 8.79209 0.334122 6.06091 2.40046 6.05135C2.94359 6.04884 3.30618 5.4905 3.08756 4.99331C2.25584 3.10172 4.45324 1.3223 6.13057 2.52913C6.57145 2.84634 7.19297 2.60776 7.30835 2.07702ZM9.51773 6.82645C7.74831 6.91918 6.38908 8.42876 6.48181 10.1982C6.57454 11.9676 8.08412 13.3268 9.85355 13.2341C11.623 13.1414 12.9822 11.6318 12.8895 9.86238C12.7967 8.09295 11.2872 6.73372 9.51773 6.82645ZM5.20854 10.2649C5.07896 7.79228 6.97837 5.68277 9.45101 5.55319C11.9236 5.4236 14.0331 7.32301 14.1627 9.79565C14.2923 12.2683 12.3929 14.3778 9.92027 14.5074C7.44764 14.637 5.33813 12.7375 5.20854 10.2649Z" fill="#F6F8FE"/>
<path fill-rule="evenodd" clip-rule="evenodd" d="M21.2339 15.4976C22.3468 14.4102 24.2214 14.9695 24.5564 16.489C24.6272 16.8106 24.9104 17.0408 25.2396 17.0446C26.7955 17.0626 27.7255 18.7837 26.8879 20.095C26.7107 20.3725 26.7481 20.7355 26.9782 20.971C28.0657 22.0839 27.5063 23.9585 25.9868 24.2935C25.6653 24.3644 25.4351 24.6475 25.4312 24.9767C25.4132 26.5326 23.6922 27.4626 22.3808 26.625C22.1034 26.4478 21.7403 26.4852 21.5049 26.7153C20.3919 27.8028 18.5174 27.2434 18.1824 25.7239C18.1115 25.4024 17.8283 25.1722 17.4991 25.1684C15.9432 25.1504 15.0132 23.4293 15.8508 22.118C16.028 21.8405 15.9906 21.4775 15.7605 21.242C14.673 20.1291 15.2324 18.2545 16.7519 17.9195C17.0734 17.8486 17.3037 17.5654 17.3075 17.2362C17.3255 15.6803 19.0466 14.7503 20.3579 15.5879C20.6354 15.7651 20.9984 15.7277 21.2339 15.4976ZM23.3113 16.7635C23.1916 16.221 22.5223 16.0213 22.125 16.4096C21.4654 17.054 20.4487 17.1588 19.6716 16.6624C19.2034 16.3634 18.5888 16.6954 18.5824 17.251C18.5718 18.173 17.9269 18.9661 17.0264 19.1646C16.4839 19.2842 16.2842 19.9535 16.6724 20.3509C17.3169 21.0104 17.4217 22.0272 16.9253 22.8043C16.6263 23.2725 16.9583 23.887 17.5139 23.8934C18.4359 23.9041 19.229 24.5489 19.4275 25.4494C19.5471 25.992 20.2164 26.1917 20.6138 25.8034C21.2733 25.159 22.29 25.0542 23.0672 25.5505C23.5354 25.8496 24.1499 25.5175 24.1563 24.962C24.167 24.0399 24.8118 23.2469 25.7123 23.0484C26.2548 22.9287 26.4546 22.2594 26.0663 21.8621C25.4218 21.2025 25.317 20.1858 25.8134 19.4087C26.1125 18.9405 25.7804 18.326 25.2249 18.3195C24.3028 18.3089 23.5098 17.664 23.3113 16.7635Z" fill="#F6F8FE"/>
<path fill-rule="evenodd" clip-rule="evenodd" d="M21.8679 19.4351C20.945 19.1597 19.9735 19.6846 19.6981 20.6076C19.4227 21.5305 19.9477 22.502 20.8706 22.7774C21.7936 23.0528 22.765 22.5278 23.0404 21.6049C23.3158 20.682 22.7909 19.7105 21.8679 19.4351ZM18.4764 20.243C18.9531 18.6453 20.6348 17.7366 22.2325 18.2133C23.8302 18.6901 24.7389 20.3718 24.2622 21.9695C23.7854 23.5672 22.1037 24.4759 20.506 23.9992C18.9083 23.5224 17.9996 21.8407 18.4764 20.243Z" fill="#F6F8FE"/>
</svg>
