<svg width="17" height="17" viewBox="0 0 17 17" fill="none" xmlns="http://www.w3.org/2000/svg">
<path fill-rule="evenodd" clip-rule="evenodd" d="M6.16229 1.20288C5.90437 0.421422 4.77987 0.480354 4.60505 1.28449C4.48144 1.85308 3.81559 2.10867 3.34327 1.76884C2.67529 1.28823 1.80018 1.99687 2.13141 2.75019C2.36561 3.28284 1.97717 3.881 1.39531 3.88369C0.572396 3.8875 0.280953 4.97518 0.991711 5.38993C1.49427 5.68319 1.5316 6.39544 1.06244 6.73962C0.398935 7.2264 0.802474 8.27766 1.62128 8.19543C2.20023 8.13728 2.64907 8.69156 2.47183 9.24577C2.22116 10.0296 3.16554 10.6429 3.77963 10.0951C4.21384 9.70773 4.90276 9.89233 5.08512 10.4449C5.34304 11.2263 6.46755 11.1674 6.64236 10.3633C6.76597 9.79468 7.43182 9.53908 7.90414 9.87891C8.57213 10.3595 9.44723 9.65088 9.116 8.89757C8.8818 8.36492 9.27025 7.76676 9.85211 7.76407C10.675 7.76026 10.9665 6.67258 10.2557 6.25782C9.75314 5.96456 9.71582 5.25232 10.185 4.90813C10.8485 4.42136 10.4449 3.3701 9.62614 3.45233C9.04718 3.51047 8.59834 2.9562 8.77558 2.40198C9.02625 1.61817 8.08187 1.00488 7.46778 1.55268C7.03357 1.94002 6.34466 1.75543 6.16229 1.20288ZM5.74056 8.05382C6.97213 7.98928 7.91819 6.93857 7.85364 5.70701C7.7891 4.47544 6.73839 3.52939 5.50683 3.59393C4.27526 3.65847 3.32921 4.70918 3.39375 5.94074C3.45829 7.17231 4.509 8.11836 5.74056 8.05382Z" fill="#D0E4FF"/>
<path fill-rule="evenodd" clip-rule="evenodd" d="M5.811 1.31855C5.67121 0.895006 5.06174 0.926947 4.96699 1.36278C4.78676 2.19178 3.81595 2.56444 3.12731 2.06897C2.76527 1.80848 2.29097 2.19256 2.47049 2.60085C2.81196 3.37746 2.2456 4.24958 1.39724 4.2535C0.951234 4.25557 0.793275 4.84508 1.1785 5.06987C1.91123 5.49745 1.96566 6.53591 1.28163 7.03774C0.922014 7.30156 1.14073 7.87134 1.58451 7.82677C2.42863 7.742 3.08305 8.55013 2.82463 9.35818C2.68877 9.783 3.20061 10.1154 3.53344 9.8185C4.16653 9.25375 5.17097 9.52289 5.43686 10.3285C5.57665 10.7521 6.18612 10.7201 6.28087 10.2843C6.4611 9.45528 7.43191 9.08262 8.12055 9.5781C8.4826 9.83858 8.95689 9.4545 8.77737 9.04621C8.4359 8.2696 9.00226 7.39749 9.85062 7.39356C10.2966 7.3915 10.4546 6.80198 10.0694 6.57719C9.33663 6.14961 9.2822 5.11116 9.96623 4.60933C10.3258 4.3455 10.1071 3.77573 9.66335 3.8203C8.81923 3.90507 8.16481 3.09693 8.42323 2.28888C8.5591 1.86406 8.04725 1.53166 7.71442 1.82857C7.08134 2.39331 6.07689 2.12417 5.811 1.31855ZM4.24356 1.20551C4.49845 0.0330699 6.13798 -0.0528542 6.51403 1.08652C6.61287 1.386 6.98625 1.48604 7.22159 1.27611C8.11694 0.477406 9.49386 1.37159 9.12838 2.51439C9.03232 2.81477 9.27559 3.11518 9.58937 3.08367C10.7832 2.96378 11.3716 4.49652 10.4042 5.20625C10.1499 5.39279 10.1701 5.77882 10.4425 5.93777C11.4788 6.54248 11.0539 8.12833 9.85404 8.13388C9.53868 8.13534 9.32815 8.45954 9.45508 8.74823C9.93802 9.84657 8.66211 10.8798 7.68817 10.179C7.43218 9.99486 7.0713 10.1334 7.0043 10.4416C6.74942 11.614 5.10988 11.6999 4.73383 10.5605C4.63499 10.2611 4.26161 10.161 4.02627 10.371C3.13092 11.1697 1.754 10.2755 2.11948 9.13267C2.21555 8.83229 1.97228 8.53188 1.65849 8.56339C0.464669 8.68328 -0.123697 7.15054 0.843708 6.44082C1.09798 6.25427 1.07775 5.86824 0.80537 5.7093C-0.230921 5.10458 0.194007 3.51874 1.39382 3.51318C1.70918 3.51172 1.91972 3.18753 1.79278 2.89884C1.30985 1.80049 2.58575 0.767283 3.55969 1.46802C3.81568 1.65221 4.17656 1.51368 4.24356 1.20551ZM5.52643 3.96324C4.49902 4.01709 3.70979 4.89361 3.76363 5.92102C3.81748 6.94843 4.694 7.73766 5.72141 7.68382C6.74882 7.62997 7.53805 6.75345 7.48421 5.72604C7.43036 4.69863 6.55384 3.9094 5.52643 3.96324ZM3.02432 5.95977C2.94907 4.52405 4.05196 3.29917 5.48768 3.22393C6.9234 3.14868 8.14828 4.25157 8.22352 5.68729C8.29877 7.12301 7.19588 8.34789 5.76016 8.42313C4.32444 8.49838 3.09956 7.39549 3.02432 5.95977Z" fill="#0064E1"/>
<path fill-rule="evenodd" clip-rule="evenodd" d="M12.3294 8.99821C12.9756 8.36678 14.064 8.69157 14.2585 9.57387C14.2997 9.76056 14.4641 9.89425 14.6553 9.89646C15.5587 9.90691 16.0987 10.9062 15.6124 11.6677C15.5095 11.8288 15.5312 12.0396 15.6648 12.1763C16.2962 12.8225 15.9714 13.911 15.0891 14.1055C14.9024 14.1466 14.7687 14.311 14.7665 14.5022C14.7561 15.4056 13.7568 15.9456 12.9953 15.4593C12.8342 15.3564 12.6234 15.3781 12.4867 15.5117C11.8405 16.1432 10.752 15.8184 10.5575 14.9361C10.5164 14.7494 10.3519 14.6157 10.1608 14.6135C9.25736 14.603 8.71736 13.6037 9.2037 12.8423C9.3066 12.6812 9.28488 12.4704 9.15127 12.3336C8.51984 11.6874 8.84464 10.599 9.72693 10.4045C9.91362 10.3633 10.0473 10.1989 10.0495 10.0077C10.06 9.10429 11.0593 8.5643 11.8207 9.05063C11.9818 9.15354 12.1926 9.13181 12.3294 8.99821ZM13.5356 9.73326C13.4661 9.41823 13.0775 9.30227 12.8468 9.52772C12.4638 9.90192 11.8734 9.96277 11.4222 9.67455C11.1503 9.50091 10.7935 9.69371 10.7898 10.0163C10.7836 10.5517 10.4092 11.0121 9.88632 11.1274C9.5713 11.1969 9.45533 11.5855 9.68078 11.8162C10.055 12.1992 10.1158 12.7895 9.82762 13.2408C9.65397 13.5127 9.84678 13.8695 10.1693 13.8732C10.7047 13.8794 11.1652 14.2538 11.2805 14.7767C11.3499 15.0917 11.7386 15.2077 11.9693 14.9822C12.3523 14.608 12.9426 14.5472 13.3938 14.8354C13.6657 15.009 14.0225 14.8162 14.0263 14.4936C14.0324 13.9583 14.4069 13.4978 14.9297 13.3825C15.2448 13.3131 15.3607 12.9244 15.1353 12.6937C14.7611 12.3107 14.7002 11.7204 14.9884 11.2691C15.1621 10.9973 14.9693 10.6405 14.6467 10.6367C14.1113 10.6305 13.6508 10.2561 13.5356 9.73326Z" fill="#0064E1"/>
<path fill-rule="evenodd" clip-rule="evenodd" d="M12.6976 11.2849C12.1617 11.125 11.5976 11.4298 11.4377 11.9657C11.2778 12.5016 11.5826 13.0656 12.1185 13.2255C12.6544 13.3855 13.2184 13.0807 13.3783 12.5448C13.5383 12.0089 13.2335 11.4448 12.6976 11.2849ZM10.7283 11.754C11.0051 10.8263 11.9815 10.2986 12.9092 10.5755C13.8369 10.8523 14.3646 11.8287 14.0878 12.7564C13.8109 13.6841 12.8345 14.2118 11.9068 13.935C10.9791 13.6581 10.4514 12.6817 10.7283 11.754Z" fill="#0064E1"/>
</svg>
