<svg width="12" height="15" viewBox="0 0 12 15" fill="none" xmlns="http://www.w3.org/2000/svg">
<path fill-rule="evenodd" clip-rule="evenodd" d="M1.02468 2.6545C0.816094 2.6545 0.639366 2.82723 0.639366 3.04979V13.1672C0.639366 13.3897 0.816094 13.5625 1.02468 13.5625H5.71771V14.2018H1.02468C0.454549 14.2018 0 13.7343 0 13.1672V3.04979C0 2.48261 0.454549 2.01514 1.02468 2.01514H3.21511V2.6545H1.02468ZM9.7864 2.6545H7.59597V2.01514H9.7864C10.3565 2.01514 10.8111 2.48261 10.8111 3.04979V9.67952H10.1717V3.04979C10.1717 2.82723 9.99498 2.6545 9.7864 2.6545Z" fill="#1E6DEB"/>
<path fill-rule="evenodd" clip-rule="evenodd" d="M2.0791 7.36412C2.0791 7.18756 2.22223 7.04443 2.39878 7.04443H7.92483C8.10138 7.04443 8.24451 7.18756 8.24451 7.36412C8.24451 7.54067 8.10138 7.6838 7.92483 7.6838H2.39878C2.22223 7.6838 2.0791 7.54067 2.0791 7.36412Z" fill="#1E6DEB"/>
<path fill-rule="evenodd" clip-rule="evenodd" d="M2.0791 9.43638C2.0791 9.25983 2.22223 9.1167 2.39878 9.1167H6.32641C6.50297 9.1167 6.6461 9.25983 6.6461 9.43638C6.6461 9.61294 6.50297 9.75606 6.32641 9.75606H2.39878C2.22223 9.75606 2.0791 9.61294 2.0791 9.43638Z" fill="#1E6DEB"/>
<path fill-rule="evenodd" clip-rule="evenodd" d="M3.20749 2.34297C3.31551 1.20777 4.27162 0.319824 5.43511 0.319824C6.5986 0.319824 7.55471 1.20777 7.66273 2.34297H8.63194V3.92348C8.63194 4.27364 8.35097 4.55821 8.00082 4.56162C6.82387 4.57307 4.28386 4.59318 2.85124 4.57027C2.50785 4.56477 2.23828 4.28366 2.23828 3.94022V2.34297H3.20749Z" fill="#DCE9FE"/>
<path fill-rule="evenodd" clip-rule="evenodd" d="M2.93297 2.02315C3.17879 0.867068 4.20521 0 5.43448 0C6.66375 0 7.69017 0.867068 7.93599 2.02315H8.95099V3.92334C8.95099 4.4483 8.52933 4.87602 8.0033 4.88114C6.82732 4.89258 4.28301 4.91276 2.8455 4.88977C2.32282 4.88141 1.91797 4.45329 1.91797 3.94008V2.02315H2.93297ZM5.43448 0.639366C4.43738 0.639366 3.61766 1.40042 3.52511 2.37312L3.49757 2.66251H2.55733V3.94008C2.55733 4.11374 2.69162 4.24786 2.85572 4.25048C4.28346 4.27332 6.81916 4.25327 7.99708 4.24181C8.17134 4.24011 8.31163 4.09871 8.31163 3.92334V2.66251H7.37139L7.34386 2.37312C7.2513 1.40042 6.43158 0.639366 5.43448 0.639366Z" fill="#1E6DEB"/>
<path d="M5.43429 2.87688C5.7874 2.87688 6.07365 2.59062 6.07365 2.23751C6.07365 1.8844 5.7874 1.59814 5.43429 1.59814C5.08118 1.59814 4.79492 1.8844 4.79492 2.23751C4.79492 2.59062 5.08118 2.87688 5.43429 2.87688Z" fill="#1E6DEB"/>
<path fill-rule="evenodd" clip-rule="evenodd" d="M6.66257 11.7442C6.78742 11.6193 6.98983 11.6193 7.11467 11.7442L8.50575 13.1352L11.2829 10.3581C11.4078 10.2332 11.6102 10.2332 11.735 10.3581C11.8599 10.4829 11.8599 10.6853 11.735 10.8102L8.7318 13.8134C8.60696 13.9382 8.40455 13.9382 8.2797 13.8134L6.66257 12.1963C6.53773 12.0714 6.53773 11.869 6.66257 11.7442Z" fill="#1E6DEB"/>
</svg>
