<svg width="21" height="25" viewBox="0 0 21 25" fill="none" xmlns="http://www.w3.org/2000/svg">
<path fill-rule="evenodd" clip-rule="evenodd" d="M1.76473 4.69146C1.40549 4.69146 1.10113 4.98894 1.10113 5.37223V22.7966C1.10113 23.1799 1.40549 23.4774 1.76473 23.4774H9.84717V24.5785H1.76473C0.782834 24.5785 0 23.7734 0 22.7966V5.37223C0 4.39543 0.782834 3.59033 1.76473 3.59033H5.53713V4.69146H1.76473ZM16.8544 4.69146H13.0819V3.59033H16.8544C17.8362 3.59033 18.6191 4.39543 18.6191 5.37223V16.7901H17.518V5.37223C17.518 4.98894 17.2136 4.69146 16.8544 4.69146Z" fill="#F6F8FE"/>
<path fill-rule="evenodd" clip-rule="evenodd" d="M3.57983 12.802C3.57983 12.498 3.82633 12.2515 4.1304 12.2515H13.6475C13.9515 12.2515 14.198 12.498 14.198 12.802C14.198 13.1061 13.9515 13.3526 13.6475 13.3526H4.1304C3.82633 13.3526 3.57983 13.1061 3.57983 12.802Z" fill="#F6F8FE"/>
<path fill-rule="evenodd" clip-rule="evenodd" d="M3.57983 16.3714C3.57983 16.0673 3.82633 15.8208 4.1304 15.8208H10.8946C11.1987 15.8208 11.4452 16.0673 11.4452 16.3714C11.4452 16.6754 11.1987 16.9219 10.8946 16.9219H4.1304C3.82633 16.9219 3.57983 16.6754 3.57983 16.3714Z" fill="#F6F8FE"/>
<path fill-rule="evenodd" clip-rule="evenodd" d="M5.52307 4.15472C5.70911 2.19965 7.35574 0.67041 9.35953 0.67041C11.3633 0.67041 13.0099 2.19965 13.196 4.15472H14.8652V6.87671C14.8652 7.47977 14.3813 7.96985 13.7783 7.97572C11.7513 7.99544 7.37683 8.03008 4.90954 7.99062C4.31814 7.98116 3.85388 7.49701 3.85388 6.90553V4.15472H5.52307Z" fill="#002E75"/>
<path fill-rule="evenodd" clip-rule="evenodd" d="M5.05202 3.60443C5.47537 1.6134 7.2431 0.120117 9.36017 0.120117C11.4772 0.120117 13.245 1.6134 13.6683 3.60443H15.4164V6.87698C15.4164 7.78107 14.6902 8.51771 13.7843 8.52653C11.759 8.54623 7.37708 8.58099 4.90137 8.54138C4.0012 8.52699 3.30396 7.78967 3.30396 6.9058V3.60443H5.05202ZM9.36017 1.22125C7.64295 1.22125 6.23121 2.53196 6.0718 4.20715L6.02437 4.70556H4.40508V6.9058C4.40508 7.20488 4.63635 7.43587 4.91898 7.44039C7.37786 7.47973 11.7449 7.44519 13.7735 7.42545C14.0737 7.42253 14.3153 7.17901 14.3153 6.87698V4.70556H12.696L12.6485 4.20715C12.4891 2.53196 11.0774 1.22125 9.36017 1.22125Z" fill="#F6F8FE"/>
<path d="M9.3598 5.07531C9.96793 5.07531 10.4609 4.58231 10.4609 3.97418C10.4609 3.36604 9.96793 2.87305 9.3598 2.87305C8.75166 2.87305 8.25867 3.36604 8.25867 3.97418C8.25867 4.58231 8.75166 5.07531 9.3598 5.07531Z" fill="#F6F8FE"/>
<path fill-rule="evenodd" clip-rule="evenodd" d="M11.4735 20.3456C11.6885 20.1305 12.0371 20.1305 12.2522 20.3456L14.6479 22.7413L19.4308 17.9584C19.6459 17.7434 19.9945 17.7434 20.2095 17.9584C20.4245 18.1734 20.4245 18.522 20.2095 18.737L15.0372 23.9092C14.8222 24.1242 14.4736 24.1242 14.2586 23.9092L11.4735 21.1242C11.2585 20.9092 11.2585 20.5606 11.4735 20.3456Z" fill="#F6F8FE"/>
</svg>
