<svg id="Layer_1" data-name="Layer 1" xmlns="http://www.w3.org/2000/svg" viewBox="0 0 1000 773"><defs><style>.cls-1{fill:#dfecff;}.cls-2,.cls-53{fill:#fff;}.cls-3{fill:#9b5932;}.cls-4{fill:#6c3615;}.cls-10,.cls-101,.cls-102,.cls-103,.cls-106,.cls-107,.cls-108,.cls-109,.cls-11,.cls-112,.cls-114,.cls-117,.cls-118,.cls-119,.cls-124,.cls-125,.cls-126,.cls-127,.cls-128,.cls-13,.cls-130,.cls-131,.cls-133,.cls-134,.cls-135,.cls-136,.cls-138,.cls-14,.cls-146,.cls-150,.cls-154,.cls-156,.cls-157,.cls-158,.cls-159,.cls-160,.cls-162,.cls-163,.cls-165,.cls-166,.cls-168,.cls-169,.cls-17,.cls-170,.cls-172,.cls-173,.cls-174,.cls-177,.cls-178,.cls-180,.cls-181,.cls-20,.cls-21,.cls-29,.cls-30,.cls-31,.cls-32,.cls-33,.cls-35,.cls-37,.cls-47,.cls-5,.cls-56,.cls-57,.cls-6,.cls-60,.cls-61,.cls-64,.cls-68,.cls-78,.cls-8,.cls-82,.cls-88,.cls-90,.cls-91,.cls-93,.cls-94,.cls-97,.cls-98{fill:none;}.cls-20,.cls-5{stroke:#75afff;}.cls-10,.cls-11,.cls-13,.cls-17,.cls-5{stroke-width:3.43px;}.cls-14,.cls-6{stroke:#8ebeff;}.cls-101,.cls-103,.cls-107,.cls-11,.cls-112,.cls-117,.cls-119,.cls-124,.cls-125,.cls-13,.cls-130,.cls-156,.cls-157,.cls-163,.cls-165,.cls-169,.cls-17,.cls-177,.cls-180,.cls-181,.cls-30,.cls-37,.cls-56,.cls-6,.cls-78,.cls-82,.cls-93,.cls-98{stroke-linecap:round;}.cls-101,.cls-117,.cls-156,.cls-163,.cls-6{stroke-linejoin:round;}.cls-101,.cls-102,.cls-103,.cls-106,.cls-114,.cls-117,.cls-119,.cls-125,.cls-126,.cls-127,.cls-130,.cls-131,.cls-134,.cls-138,.cls-14,.cls-146,.cls-154,.cls-156,.cls-157,.cls-159,.cls-160,.cls-163,.cls-165,.cls-166,.cls-168,.cls-177,.cls-178,.cls-180,.cls-181,.cls-21,.cls-30,.cls-31,.cls-32,.cls-33,.cls-35,.cls-37,.cls-6,.cls-64,.cls-68,.cls-78,.cls-8,.cls-82,.cls-88,.cls-90,.cls-91,.cls-93,.cls-94,.cls-98{stroke-width:3px;}.cls-59,.cls-7{fill:#f7c14e;}.cls-8{stroke:#bc7100;}.cls-10,.cls-11,.cls-126,.cls-133,.cls-181,.cls-22,.cls-41,.cls-61,.cls-9{stroke:#000;}.cls-9{stroke-width:0.69px;}.cls-12{fill:#733a18;}.cls-13{stroke:#311203;}.cls-15{fill:#004dc0;}.cls-16{fill:#090909;}.cls-17{stroke:#4e2715;}.cls-18{fill:#6c2914;}.cls-19{fill:#cd928a;}.cls-20{stroke-width:3.43px;}.cls-21{stroke:#dfecff;}.cls-22,.cls-26{fill:#371c00;}.cls-23{fill:#d87ece;}.cls-24{fill:#b948ae;}.cls-25{fill:#de8f55;}.cls-27{fill:#c66118;}.cls-28{fill:#1d1002;}.cls-29,.cls-60{stroke:#f7c14e;}.cls-29{stroke-width:5px;}.cls-30{stroke:#6b2802;}.cls-31{stroke:#c66118;}.cls-32{stroke:#85167a;}.cls-158,.cls-177,.cls-33{stroke:#30180a;}.cls-34{fill:#30180a;}.cls-35{stroke:#371c00;}.cls-36{fill:#8d3f2f;}.cls-37{stroke:#4f0d00;}.cls-38{fill:#fad9db;}.cls-39{fill:#003b98;}.cls-40{fill:#f7e3be;}.cls-41,.cls-48,.cls-74{fill:#3c1d00;}.cls-41{stroke-width:0.61px;}.cls-104,.cls-120,.cls-42,.cls-43,.cls-49,.cls-51,.cls-53,.cls-54,.cls-59,.cls-67,.cls-71,.cls-74,.cls-75,.cls-76,.cls-77,.cls-79{fill-rule:evenodd;}.cls-43,.cls-46{fill:#c46e30;}.cls-44{fill:#974509;}.cls-45{fill:#200c00;}.cls-47,.cls-91{stroke:#3c1d00;}.cls-47,.cls-56,.cls-57,.cls-61{stroke-width:3.03px;}.cls-49{fill:#824500;}.cls-50{fill:#b35510;}.cls-51,.cls-52{fill:#3d0008;}.cls-54,.cls-55{fill:#8a3529;}.cls-56,.cls-82{stroke:#532402;}.cls-57,.cls-90{stroke:#2c1400;}.cls-58{fill:#2c1400;}.cls-60{stroke-width:4.24px;}.cls-62{fill:#bed9ff;}.cls-63{fill:#579fff;}.cls-107,.cls-170,.cls-172,.cls-64,.cls-97{stroke:#0064e1;}.cls-65{fill:#75afff;}.cls-66{fill:#0081fc;}.cls-67,.cls-73{fill:#eea672;}.cls-125,.cls-68{stroke:#003b98;}.cls-69{fill:#db8547;}.cls-70,.cls-71{fill:#000f33;}.cls-72,.cls-75{fill:#00215c;}.cls-76{fill:#984b14;}.cls-149,.cls-77{fill:#0056d5;}.cls-78{stroke:#984b14;}.cls-79,.cls-80{fill:#c95c4e;}.cls-81{fill:#c36e30;}.cls-83{fill:#f47782;}.cls-84{fill:#e32645;}.cls-85{fill:#001745;}.cls-86{fill:#ea9253;}.cls-87{fill:#a65317;}.cls-118,.cls-88{stroke:#c4c4c4;}.cls-89{fill:#1a0c00;}.cls-92{fill:#602005;}.cls-93{stroke:#602005;}.cls-94{stroke:#ac0228;}.cls-95{fill:#0072ee;}.cls-96{fill:#3590ff;}.cls-107,.cls-97{stroke-width:2.58px;}.cls-98{stroke:#0056d5;}.cls-99{fill:#f8cd9e;}.cls-100{fill:#dd9d63;}.cls-101,.cls-103{stroke:#9d4f18;}.cls-102{stroke:#001745;}.cls-104,.cls-105{fill:#973b1e;}.cls-106,.cls-162{stroke:#00215c;}.cls-108,.cls-114{stroke:#004dc0;}.cls-108{stroke-width:3.1px;}.cls-109,.cls-138,.cls-169,.cls-174{stroke:#003384;}.cls-109{stroke-width:5.16px;}.cls-110{fill:#0064e1;}.cls-111{fill:#f35c6c;}.cls-112{stroke:#fff;stroke-width:4.65px;}.cls-113{fill:#ffbf5f;}.cls-115{fill:#8a4945;}.cls-116{fill:#682824;}.cls-117{stroke:#579fff;}.cls-118,.cls-124{stroke-width:3.18px;}.cls-119,.cls-124{stroke:#370a07;}.cls-120,.cls-121{fill:#d24dc5;}.cls-122{fill:#2b1500;}.cls-123{fill:#2a1500;}.cls-127,.cls-128,.cls-156,.cls-157{stroke:#b65e39;}.cls-128,.cls-150,.cls-158,.cls-162,.cls-172{stroke-width:2.49px;}.cls-129{fill:#a63917;}.cls-130{stroke:#511902;}.cls-131{stroke:#311800;}.cls-132{fill:#311800;}.cls-133{stroke-width:2px;}.cls-134,.cls-135,.cls-136{stroke:#f7e6f5;}.cls-135{stroke-width:2.5px;}.cls-136{stroke-width:3.5px;}.cls-137{fill:#f7e6f5;}.cls-139{fill:#003384;}.cls-140{fill:#ffd7ba;}.cls-141{fill:#f8a569;}.cls-142{fill:#d0e4ff;}.cls-143{fill:#fad08a;}.cls-144{fill:#fef4f5;}.cls-145{fill:#edb03b;}.cls-146{stroke:#ca7f00;}.cls-147{fill:#fce6e7;}.cls-148{fill:#e39f24;}.cls-150,.cls-166{stroke:#000f33;}.cls-151{fill:#8ebeff;}.cls-152{fill:#f9cbce;}.cls-153{fill:#663500;}.cls-154{stroke:#663500;}.cls-155{fill:#291600;}.cls-159{stroke:#ae6400;}.cls-160{stroke:#914e00;}.cls-161{fill:#ca7f00;}.cls-163{stroke:#0081fc;}.cls-164{fill:#e78181;}.cls-165{stroke:#770018;}.cls-167{fill:#ad3aa1;}.cls-168{stroke:#680c5f;}.cls-169,.cls-174{stroke-width:7.31px;}.cls-170{stroke-width:3px;}.cls-171{fill:#002b72;}.cls-173{stroke:#bed9ff;stroke-width:3.65px;}.cls-175{fill:#e49b62;}.cls-176{fill:#b1764f;}.cls-178{stroke:#3590ff;}.cls-179{fill:#d1752d;}.cls-180{stroke:#3e0f00;}</style></defs><path class="cls-1" d="M973.81,232.51a137.08,137.08,0,0,1-4.09-22c-.63-7.39,1-14.27,1.14-21.57.43-18.22-22.55-16.92-36.14-17.9l-24.25-1.78q4.68-8.67,9.37-17.39c3.84-7.1,8.6-14.24,11.5-21.73,4-10.21-3.47-17.92-14.09-19.54-13.11-2-26.08,3.07-38.32,6.35l-42,11.24q5.26-8.36,10.57-16.69c2.43-3.81,4.83-7.62,7.25-11.43,2.55-4,5.64-8,7.09-12.57,2.33-7.27-1.78-13.39-6.72-18.85a221.41,221.41,0,0,0-16.79-17.06c-12.89-11.51-28-18.75-45.83-19.27-19.08-.56-38,5-56.33,9L496.68,93.55q-64.43,14-128.81,28.07c.31-15.61-18.1-27.3-34.47-26.18-11.58.79-22.09,6-31.61,11.73-11.8,7-23.31,14.49-34.92,21.77q-71.77,44.91-143.51,89.81Q105.6,229.83,87.86,241c-10,6.25-20.16,12.43-29.19,19.92-15.75,13-27.59,30.57-24.93,51.15a37.83,37.83,0,0,0,11.6,23.14c7.12,6.6,21,9,23.54,19,2.38,9.59-4.58,20-7.6,28.76-4.09,11.91-3.45,24.39-1.45,36.72,2.43,14.88,5.56,29.72,8.38,44.54q2.07,10.77,4.12,21.58c1.18,6.25,1.62,13.36,4.09,19.35,2.28,5.58,7.13,8.27,13,9.74,7.26,1.8,14.83,2.9,22.25,4.14,15,2.46,30.17,4.3,45.34,5.61-.75,10.67-7.2,19.8-14.37,27.85-8.33,9.35-17.91,17.7-25.43,27.68-7.21,9.59-12.3,20.74-11.11,32.83,1.19,12.4,8.66,23.66,18.39,32,25.46,21.88,60.51,20.05,91.58,13.56,18.33-3.82,36.41-8.6,54.68-12.61q28.33-6.25,57-11.47Q387.42,623.68,448,617.21A187.05,187.05,0,0,1,399.8,662c-10.43,6.75-22,11.68-32.55,18.13-9.6,5.83-17.88,14-20.1,24.89A23.07,23.07,0,0,0,358,729.45c8.67,5.31,19.73,6,29.69,5.37,13.45-.78,26.86-3.67,40.13-5.74q22.55-3.5,45.07-7c44.92-7,88.1-13.6,131.12-26.07a565.05,565.05,0,0,0,160.09-75.27c48.31-33,90.83-73.46,124.21-119.9,10.31-14.34,20-29.24,26.86-45.36s9.81-33,11.75-50.32c2-17.56,3.79-35.59,12.64-51.4,7.67-13.64,19.27-24.84,28.39-37.59,8.77-12.25,14.4-25.34,14.34-40.35C982.2,261.1,977.47,246.75,973.81,232.51Z"/><path class="cls-2" d="M582.08,376.85c5.92-20.42,22.33-42.64,22.33-42.64L627.65,343,616.22,556.6H563.73S576.16,397.27,582.08,376.85Z"/><path class="cls-2" d="M759,350.28c-8-15.26-28.93-31.1-28.93-31.1L759,556.86l41.59-6.76S767,365.55,759,350.28Z"/><path class="cls-3" d="M656.38,312.63,655,284.72l44.48-23.62-1.59,48.21L711,319.85s-19.05,8.56-33,9.76c-15.63,1.36-39.32-8-39.32-8Z"/><path class="cls-4" d="M655.3,296v15.52l6.08,6.17L690,286.16Z"/><path class="cls-2" d="M665.26,324.66l-10-19.72a.75.75,0,0,0-.94-.36l-14,5.37-36.63,23.81,14.18,52.81L607.33,560.18l154.24-.79L747.18,386.57V336.42l-17.67-18-29.78-14.72a.77.77,0,0,0-.93.21L687.2,318.4Z"/><path class="cls-1" d="M721.64,370.36s-54.39,20.16-73.74,48.43c-27.5,40.15-3,124-3,124l76.72,3.67Z"/><path class="cls-5" d="M614.21,473l4.1-79"/><path class="cls-6" d="M641.09,309.42l-2.45,7.31a1,1,0,0,0,.55,1.27l3.66,1.64a1,1,0,0,0,.6.08l12.69-2.1-5.93,16.87a1,1,0,0,0,.41,1.21l25.59,16.84a6.83,6.83,0,0,1,2.54,3.06l3,7.26a6.79,6.79,0,0,1,.49,1.87L701,533.14"/><path class="cls-6" d="M709.51,309,705,316.38a1.05,1.05,0,0,1-.63.46L695.57,319l4.61,13.63a1,1,0,0,1-.32,1.13l-20.22,16.68"/><path class="cls-7" d="M674,340.28l-12.29-22.37c11.86,3,14.68,1.29,27.27-1.53Z"/><path class="cls-8" d="M664.29,322.31l9.68,18"/><path class="cls-3" d="M629.46,231.46a139.45,139.45,0,0,1,4-14.94c3.51-11.74,15-21.33,26.85-25.34,18.37-6.21,41.2,1.71,48.86,19.43,3.51,8.14,5.44,17.48,2.39,25.79-1.55,4.24-4.1,9.63-4.1,9.63l-3.25,13.12-2.89,10.2c-3.49,6.08-6.63,13-11.91,17.86-1.63,1.49-9.45,4.68-15.52,7.65A61.41,61.41,0,0,1,661,299.6c-3,.55-9.88,1-14.2-2.72-2.92-2.53-1.84-4.73-3.88-8a36.82,36.82,0,0,0-3-4.23c-2.94-3.53-3.38-6.31-5-10.57l-.07-.16c-2-5-3.11-7.95-3.9-13.32-.83-5.64.42-10.23,0-13.49s-2.33-5.45-2.53-6.92C627.92,236.79,628.87,234.85,629.46,231.46Z"/><path class="cls-9" d="M709.4,254.44a102,102,0,0,0,6.38-12.53c6.4-15.9.21-31.63-8.48-40-17.7-17.08-43.15-19.58-62.32-3.64-9.58,8-14,15.82-15,27.62a.46.46,0,0,0,.9.15h0c0-.18,2.38-9,6.93-12.68,9.77-8,21.94-3.27,32.45,2.18,9.58,5,8.68,1.43,16.77,6.35,6.55,4,4.93,18.2,5.53,28.57a2,2,0,0,0,2,1.88h1a2.07,2.07,0,0,0,1.65-.81l5.22-6.76a3.16,3.16,0,0,1,1-.86l2.2-1.14a3.1,3.1,0,0,1,3.14.16l.34.22a3.1,3.1,0,0,1,1.38,3Z"/><path class="cls-9" d="M657,186.45l.82,1.14a2.3,2.3,0,0,1-.08,2.78,2.3,2.3,0,0,0,.95,3.59l54.17,21.12a1.41,1.41,0,0,0,1.85-1.73l-.13-.43a2.28,2.28,0,0,1,1.15-2.69,2.3,2.3,0,0,0,1.12-1.29l.82-2.4a2.81,2.81,0,0,1,1.55-1.67,2.79,2.79,0,0,0,1.66-3.06l-.17-.91a3.1,3.1,0,0,1,.78-2.68l1.38-1.48a3.11,3.11,0,0,0,.69-3.06L723,192a3.07,3.07,0,0,1,.12-2.19l.62-1.41a3.09,3.09,0,0,0-.94-3.69l-.94-.73a3.1,3.1,0,0,1-1.2-2.37l0-2.35a3.09,3.09,0,0,0-2.38-2.93l-1.88-.45a3.1,3.1,0,0,1-2.09-1.71l-.41-.89a3.14,3.14,0,0,0-2.36-1.76l-2.81-.42a3.09,3.09,0,0,1-2.14-1.37l-1-1.5a3.09,3.09,0,0,0-2.87-1.4l-3.26.28a3.14,3.14,0,0,1-1.94-.47L693,163.74a3.1,3.1,0,0,0-3.43.06l-1.5,1a3.13,3.13,0,0,1-3.59,0l-.85-.61a3.12,3.12,0,0,0-3.89.18l-1.22,1.08a3.19,3.19,0,0,1-2.62.73l-2.12-.38a3.13,3.13,0,0,0-3.19,1.39l-.33.53a3.12,3.12,0,0,1-3.29,1.37l-.52-.11a3.14,3.14,0,0,0-3.53,1.84l-.89,2.09a3.17,3.17,0,0,1-1.45,1.55l-1.49.77a3.11,3.11,0,0,0-1.64,3.29l.28,1.7a3.07,3.07,0,0,1-.46,2.21l-.36.55A3.11,3.11,0,0,0,657,186.45Z"/><path class="cls-10" d="M655.19,238.45a12,12,0,0,1,5.74-2.43c4.4-.53,13.41,1.69,13.41,1.69"/><path class="cls-10" d="M640.78,238.87a12,12,0,0,0-5.56-2.78,12.71,12.71,0,0,0-7.46.76"/><path class="cls-11" d="M653.62,247.85s3.09-2.28,5.63-2.54a12.52,12.52,0,0,1,6.69,1.17,15.31,15.31,0,0,1,3.19,1.91l3.13-.54"/><path class="cls-11" d="M642.28,247.67a49.26,49.26,0,0,0-5.32-1.91c-2.82-.66-6.32,1.81-6.32,1.81l-1.89-.45"/><path class="cls-12" d="M641.2,270.6s-2.61-1.22-2.73-2.45c-.26-2.57,4.3.26,6.87.3,4.38.07,10.51-1.37,10.9-.57s.2,1.13-.46,1.84c-2.87,3.08-10.5,2.16-10.5,2.16Z"/><path class="cls-13" d="M649.77,270.54h3.32"/><path class="cls-14" d="M642.62,250.57l4.5.74a3.85,3.85,0,0,1,2.87,2.16l6.53,13.77,22.28-3.35,11.38-5.54V242.21L661,240.82"/><path class="cls-15" d="M721.45,244.62a.78.78,0,1,0,.08-1.55Zm-103-6.45a.79.79,0,0,0-.82.74.77.77,0,0,0,.74.81Zm103.07,4.9-103.07-4.9-.08,1.55,103.07,4.9Z"/><ellipse class="cls-16" cx="636.87" cy="248.57" rx="3.32" ry="3.45"/><ellipse cx="660.85" cy="248.87" rx="3.72" ry="3.58" transform="translate(389.96 901) rotate(-88.08)"/><path class="cls-3" d="M709.74,240.59c-5.14-1.14-10.55,9.25-10.55,9.25l-2,20.52s5.17.91,8.21-.34a20.71,20.71,0,0,0,10-10.81c2.24-6.06,3.47-12.33-1.58-16.45A8.7,8.7,0,0,0,709.74,240.59Z"/><path class="cls-17" d="M701.84,262.49a11.75,11.75,0,0,1,2.32-3.57c1.33-1,2.59.73,3.88-.91s.73-6.17.73-6.17"/><path class="cls-13" d="M642.5,270.91s-3.5-1.82-4-3.09a5.38,5.38,0,0,1-.37-3.45c.19-1.64,5-13.62,5-13.62"/><path class="cls-18" d="M642,279.94l.4,1.45a16.69,16.69,0,0,0,.44,2.8,4.64,4.64,0,0,0,2.9,3.11,21.16,21.16,0,0,0,9.28-.08,13.05,13.05,0,0,0,6.4-3.54,19.33,19.33,0,0,0,3.11-5l-9.2-2.94a17.76,17.76,0,0,0-4.57,0c-1.53.28-4,1-4,1a14.14,14.14,0,0,0-3-.42c-1.45,0-3.38,2.33-3.38,2.33Z"/><path class="cls-19" d="M648.8,281.22C646.59,281.4,642,280,642,280c-.5,4.73,2.38,8,7.18,8s7.14-.44,10.51-2.72c3-2,5.35-6.36,5.35-6.36S651,281,648.8,281.22Z"/><path class="cls-13" d="M665.09,277.58a21.91,21.91,0,0,1-5.37,2.35,33.82,33.82,0,0,1-4.18.39"/><path class="cls-13" d="M650.88,280.86h-3.31"/><ellipse class="cls-7" cx="701.21" cy="272.54" rx="4.24" ry="4.18"/><path class="cls-20" d="M748.42,396.73,761.16,497"/><path class="cls-21" d="M617.74,240.14l3.49,20.05,13.07,6.67"/><path class="cls-22" d="M564.79,282.62C571.67,272.15,569,251,569,251L538.62,289l2.19,9.79S558.62,292,564.79,282.62Z"/><path class="cls-23" d="M489,320.77c6.78-4.89,34.25-14.73,34.25-14.73l45.17-2.44,41,13.85s13,7.34,19.57,21.6,24.05,95,24.05,95H615.3l-9.23-35.48L603.68,434H494.92l2-11.84L489,398.54,485.25,434H450.51s8.77-75.82,17.05-89.27C473.1,335.76,482.24,325.66,489,320.77Z"/><path class="cls-24" d="M557,390.91l-54.38,10.64,29.79,35.58Z"/><path class="cls-25" d="M573.39,303.56c-14.39,16.9-49.31,42.19-73.89,8.18C509.6,305.6,538.52,295.38,573.39,303.56Z"/><path class="cls-25" d="M565.15,301.23c-12.29-10.79-10.1-29.85-7.47-38l-43.17,30.66c8.3,13.08,1.66,23-1.25,27C544,337.21,559.2,312.54,565.15,301.23Z"/><path class="cls-26" d="M474.72,354.59,498.23,250l20.85,23.14s2.06,24.82-2.7,44.39c-6.55,26.94-14.9,43-25.81,58C478,392.93,474.72,354.59,474.72,354.59Z"/><path class="cls-27" d="M552.17,286.81c-8.72,22.49-29.89,27-35.29,27,1.33-7.52-.55-15.67-1.66-18L530.17,297Z"/><path class="cls-28" d="M507,345.57c3.26-25.3,2.84-38.05-2.88-64L516.47,297s1.42,10.95,1,18c-.68,11.61-7.29,25.83-9.78,30.82A.36.36,0,0,1,507,345.57Z"/><path class="cls-29" d="M498.27,262.73v17.45"/><path class="cls-25" d="M491.15,230.91c2.49-18.81,9.7-38,38.6-38,23.91,0,32.73,16.68,34.3,26.16s0,38.11,0,38.11v7.13a20.44,20.44,0,0,1-8.31,16.78c-8.93,6.35-14.17,8.58-16.6,10.84-6.48,6-24.27,8.27-31.39-.49-3.32-4.09-4.35-6.78-6.64-10.63-10.05-16.9-9-24.71-9-28.89s1.93-7.2,1.54-11S491.56,233.91,491.15,230.91Z"/><path class="cls-26" d="M528.92,208.42c-26.41-2.65-34.9,16-36.8,25.1a.4.4,0,0,1-.76,0c-10.14-31.56,19.92-44.35,28.79-46.23,20.11-4.26,30.92,8.44,30.92,8.44,24.21,12.67,16.87,31.93,16.87,40.88L558.39,242c0-6.13,4.57-11.45-1.24-15.54-4.65-3.27-9.41-8.72-8.72-10.63C539.71,206.38,533.76,209.38,528.92,208.42Z"/><path class="cls-26" d="M558.39,241.13c-4.65-20.61-21.31-30.39-29.06-32.71l10.8-5.72,25.73,27.39Z"/><path class="cls-25" d="M565.62,236.18c-4-.32-6.75,3.95-7.64,6.13l-.38,22.48c3.31-.82,7.79-2.62,9.93-4.91,2.68-2.86,6.51-11.44,5.74-15.11S570.59,236.59,565.62,236.18Z"/><path class="cls-30" d="M566,243.47s-4.91,3.47-3.73,6c.48,1,.87,1.26,1.36,2.3.78,1.63-1.92,5.61-1.92,5.61"/><path class="cls-31" d="M559.91,263.4l5.81-1.63"/><path class="cls-29" d="M564.53,260.45V277.9"/><path class="cls-30" d="M543.35,289.47c-8.76,6.2-18.89,9.34-26.92,7.77"/><path class="cls-32" d="M520.53,327.08a63.27,63.27,0,0,0,11.17,1.47c8.83-.1,21.6-6.61,21.6-6.61"/><path class="cls-33" d="M496.36,241.38a20,20,0,0,1,4.62-3,9,9,0,0,1,4-.79c2.26,0,7.4,2.23,7.4,2.23"/><ellipse class="cls-34" cx="504.67" cy="240.37" rx="3.41" ry="3.36"/><path class="cls-35" d="M523.61,231.65s10.09-3,13.81-2c1.48.37,6.91,5,6.91,5"/><path class="cls-35" d="M511,231.94s-7.74-2.3-10.91-1.54c-1.26.31-5.38,4-5.38,4"/><path class="cls-36" d="M521.72,270c2-.26,10.09,2.54,10.09,2.54s-3.89,6.85-8.24,8.42a12.56,12.56,0,0,1-7.43.54c-4.86-.86-9.65-7.68-9.65-7.68s5-3.12,7.5-3.44a6.68,6.68,0,0,1,3.6.86A16.34,16.34,0,0,1,521.72,270Z"/><path class="cls-37" d="M521,274.89l-5,.15"/><path class="cls-37" d="M527.26,272.5a12.6,12.6,0,0,0,3.48-.45,11.86,11.86,0,0,0,2.88-1.87"/><path class="cls-37" d="M506.88,273.81l2.1.14"/><path class="cls-27" d="M520.53,258.84c-2.52-.12-3.14,2.34-5.65,2.25-3.8-.14-4.11-2.89-6.94-.1s5.65,3.1,6.7,3.08c3.18-.05,6.47,1.17,8.09-1.53C524.55,259.53,523.71,259,520.53,258.84Z"/><path class="cls-30" d="M518.56,261.89l1.29-.45"/><path class="cls-30" d="M508.57,262.51a4,4,0,0,1-1.37-3.83c.19-1.29,2.53-3.87,2.53-3.87a29.25,29.25,0,0,0,3-7.29c.68-3.74,1-6.2-.19-9.75"/><path class="cls-30" d="M512.47,262.31l-1.32-.79"/><path class="cls-30" d="M521.92,256.26a6.66,6.66,0,0,1,1.8,3,6,6,0,0,1-.81,3"/><path class="cls-33" d="M523.88,238.77a24.44,24.44,0,0,1,6-2.16,11.73,11.73,0,0,1,3.74-.07c3.23.46,7.22,4,7.22,4"/><ellipse class="cls-34" cx="531.58" cy="239.63" rx="3.41" ry="3.36"/><rect class="cls-38" x="796.13" y="408.52" width="128.12" height="77.77"/><rect class="cls-39" x="467.64" y="484.08" width="117.69" height="55.76"/><path class="cls-40" d="M783.61,305.28c6.32-4.55,31.93-13.72,31.93-13.72l42.1-2.28,38.25,12.91S908,309,914.13,322.32s22.42,88.54,22.42,88.54H901.34l-8.61-33.08-2.23,33.08H789.12l1.86-11-7.37-22-3.51,33.08H747.71s8.18-70.68,15.9-83.22C768.77,319.26,777.3,309.84,783.61,305.28Z"/><path class="cls-41" d="M830.34,177.53C838,178,845.75,184,845.75,184L794.9,245.27l18.68,42.31.58,7.4-7.51,2.66-5.59,9.1s-10.3,3.87-16.37.76a20.13,20.13,0,0,1-11.37-15.74c-1-7.78,6-10.59,5.59-18.41-.34-5.77-4.07-7.93-3.28-13.66.84-6,6.56-8.32,6.55-14.42,0-4-.86-5.1-1-7.78-.37-9.48,2.5-12.52,4.43-22.77,1.72-9.14,9.44-13.66,11.36-19.54s5-9.77,10.79-13.47C814.34,177.53,822.56,177,830.34,177.53Z"/><path class="cls-42" d="M875.69,280.05a18,18,0,0,1,5,5.06l-2.18,1.18a15.94,15.94,0,0,0-4.31-4.26,26.92,26.92,0,0,0-8.46-4.13,19.76,19.76,0,0,0-10.56-.14A22.8,22.8,0,0,0,844,285.25l-1.89-1.6a25.43,25.43,0,0,1,12.41-8.26,22.3,22.3,0,0,1,11.91.15A29.29,29.29,0,0,1,875.69,280.05Z"/><path class="cls-43" d="M814,256.4a17.47,17.47,0,0,1,34.93-.74l.16,7.41.9-4.67c-1.71,10.47-.94,31.22,16.09,37.93s7.23.93,7.23.93c-20.72,28.64-64.73,19-67.61.76,3.27-1.32,5.68-2.28,8.3-3.23Z"/><path class="cls-44" d="M842.09,281.13c-5.81,16.37-24,20.86-29.31,20.12a25.23,25.23,0,0,0,0-15.64L827.46,288Z"/><path class="cls-45" d="M814.35,294.6l-15.6,6.26s-5.78-26.94-1.81-39.71l16.83,25.1Z"/><path class="cls-46" d="M794.24,218.78c4.79-18.38,14.31-36.61,43-33.16,23.74,2.85,30.45,20.47,30.84,30.09s-4.69,37.85-4.69,37.85c-1.37,11.06-7.55,21.22-17.72,26.09-5.71,2.73-9.28,4-11.29,5.46-7.19,5.23-25.13,5.31-31.13-4.24-2.79-4.46-5.82-7-7.62-11.13-7.9-18-5.09-24.73-4.8-27.05.35-2.84,4.54-13.05,4.8-15.08C795.86,226,794.28,221.81,794.24,218.78Z"/><path class="cls-47" d="M811.1,222.17s-5-1.1-8-.32c-2.67.69-6.14,3.46-6.14,3.46"/><path class="cls-47" d="M825.91,222.73s5.68-.31,9.06.76c4.71,1.51,10.21,7.4,10.21,7.4"/><path class="cls-48" d="M875.07,203.48c-12.23-22.9-27.8-17.77-34.22-21l6.5,4.9c10.23,1.23,10.41,21.86,11.56,24.88-.93,3.05-2,9.82,1.39,12.53s3.41,9.62,3,12.73L862.45,258l-5.66,1.79-5.17,11.33c-5,13.25-5.68,34.43,8.2,38.64,7.51,2.28,12.46-3,16.76-2.85,6,.28,12.74,2.59,17.14-1.51,8.73-8.16-.52-14.3,1.54-19.55,2.44-6.22,6.9-7.14,5.59-14.73-1.12-6.45-5.36-8.51-7.13-14.49-2.37-8-.49-15.17-2.87-19.14C877.37,218.62,883.26,218.83,875.07,203.48Z"/><path class="cls-48" d="M834.53,201c-34.95,11.88-38.56,20.78-40.83,28.89-1.6-37.7,24.7-47.31,33.92-47.44s20.15,2.83,29.18,7.63c7.23,3.83,8.56,17.65,8.32,24.08l4.69,19.52-10.13,4.14c.75-6.09,5.94-10.82.67-15.58-4.21-3.8-8.27-9.79-7.35-11.6C845.5,200.21,839.22,202.48,834.53,201Z"/><path class="cls-48" d="M859.78,237c-2.09-21-17.43-32.73-24.84-36l11.42-4.4,22.2,30.29Z"/><path class="cls-49" d="M829.77,177.05l-4.32,2a36.66,36.66,0,0,0-4.32,2.51,20.48,20.48,0,0,0-4.44,3.86l-2-1.5a22.34,22.34,0,0,1,5-4.38l.22-.15a31,31,0,0,0-8.88,2.76,33,33,0,0,0-8.57,5.81l-1.77-1.73A35.45,35.45,0,0,1,810,180a30.91,30.91,0,0,1,15-3.22Z"/><path class="cls-49" d="M870.63,207.92c-3.9-10.36-11.08-14.62-13.92-15.45l.71-2.35c3.62,1,11.38,5.89,15.55,16.95Z"/><path class="cls-45" d="M834.53,201c-8,2.75-25.83,9.84-33,16.23C809.44,203,827.09,179.94,834.53,201Z"/><path class="cls-49" d="M832.39,193.81a21.74,21.74,0,0,1,4.16,6.37l-2.3.94a19.17,19.17,0,0,0-3.66-5.61c-1.73-1.77-3.63-2.75-5.58-2.36a14.18,14.18,0,0,0-5.31,3,62,62,0,0,0-7.1,6.89,136.81,136.81,0,0,0-14.86,20.36c-3.68,6.16-7.54,9.18-11,10.31a9.3,9.3,0,0,1-8.2-.9l1.45-2a6.84,6.84,0,0,0,6,.56c2.73-.89,6.18-3.38,9.67-9.22a139.17,139.17,0,0,1,15.13-20.75,64.76,64.76,0,0,1,7.4-7.17,16.7,16.7,0,0,1,6.38-3.5C827.71,190.1,830.43,191.81,832.39,193.81Z"/><path d="M856.35,306.93c-5.2-12.14,4.43-42.61,14.64-58.56h-8.86L850.72,273C846.14,296.12,852.11,303,856.35,306.93Z"/><path d="M847.87,273.35c1.66-4.32,8.28-12.14,8.28-12.14l6.36,1.7s-1.82,7.5-3.47,12.15c-4.42,12.52-4.76,15.82-4,22.39.47,4.29,2.12,11.57,2.12,11.57s-11.36-4-11.36-12.71c0-4.28,1.75-5.37,2.11-9.49C848.28,282.17,846.2,277.72,847.87,273.35Z"/><path class="cls-46" d="M866,232.68c-4-.58-7.76,2.9-8.8,5l-1.15,23c3.37-.6,8-2.1,10.26-4.25,2.86-2.68,7.26-11,6.74-14.72S870.9,233.42,866,232.68Z"/><path class="cls-50" d="M802.52,216.07c9.88-6.73,25.73-12.85,32.42-15.07-7.48,9-27.8,18.37-37,21.93Z"/><path class="cls-51" d="M821.24,274.16a25.21,25.21,0,0,0,5.65-4,18.84,18.84,0,0,0-9.66.48C819.09,270.76,821,271.59,821.24,274.16Z"/><path class="cls-52" d="M809.67,274.62c-.87-3-2.1-5.65-2.94-7.92,2.45-1.3,3.6-.61,3.88-.11l3-2L830,266C824.08,275.38,813.19,275.41,809.67,274.62Z"/><path class="cls-52" d="M828.19,267.83c-12.36.38-13.81-.28-17.35,6.75C813.84,274.27,823,274.52,828.19,267.83Z"/><path class="cls-53" d="M829.13,268a51.79,51.79,0,0,1-20.63,2.17,1.63,1.63,0,0,1-1.48-1.8,1.65,1.65,0,0,1,1.82-1.46,48.17,48.17,0,0,0,19.34-2Z"/><path class="cls-54" d="M818,266a11.22,11.22,0,0,0-5.93,1.44,1.49,1.49,0,0,1-1.42,0c-1.89-1.09-2.86-1.09-3.34-1a2.34,2.34,0,0,0-1,.55,1.46,1.46,0,0,1,1.17.81c1.82,3.76,3.95,5.44,6,6a9.29,9.29,0,0,0,6.62-.91,21.74,21.74,0,0,0,6-4.54,20.84,20.84,0,0,0,1.42-1.65,23.88,23.88,0,0,1-3.59,0c-1.54-.11-3.12-.34-4.4-.51C819,266.13,818.42,266.05,818,266Zm-13.14,1.79a1.4,1.4,0,0,0,0,1.23c2,4.25,4.73,6.65,7.77,7.55a12.15,12.15,0,0,0,8.73-1.08,24.8,24.8,0,0,0,6.88-5.15,15.15,15.15,0,0,0,3.58-5.33,1.41,1.41,0,0,0-.44-1.46,1.47,1.47,0,0,0-1.54-.24,13,13,0,0,1-5.68.55c-1.45-.1-2.8-.29-4-.46-.64-.1-1.26-.18-1.82-.25a13.62,13.62,0,0,0-6.93,1.41,6.92,6.92,0,0,0-4.76-.91,6,6,0,0,0-2.56,1.42l-.21.17a1.43,1.43,0,0,0,1,2.55Z"/><path class="cls-55" d="M828.48,266.83c-9.6.89-20.53,1.75-23.67.69.59-.93,2.8-1.61,4.61-1.66l8.54-.25Z"/><path class="cls-56" d="M866.65,239.13c-5.33.41-7.14,5.24-6.11,9.81a3.74,3.74,0,0,1-1.47,5.13"/><path class="cls-56" d="M865.91,246.58a3.25,3.25,0,0,0-.12-1.93c-.84-1.89-3-1.26-4.25-1.67"/><path class="cls-56" d="M842.29,280.37c-5.18,3.89-11.14,7.4-17.72,8.16-3.28.38-13.1-.57-13.1-.57"/><path class="cls-57" d="M840.17,237.29c-2.68-2.21-7.6-5.41-11.38-5-2.93.29-7.5,3.44-7.5,3.44"/><ellipse class="cls-58" cx="829.44" cy="235.6" rx="3.86" ry="3.8"/><path class="cls-57" d="M809.2,235.93c-2.44-1.79-6.87-4.34-10.14-3.84-2.54.4-6.36,3.35-6.36,3.35"/><ellipse class="cls-58" cx="800.41" cy="234.91" rx="3.36" ry="3.31"/><path class="cls-59" d="M819.08,231.71a4.38,4.38,0,0,1,1.5,3.09l-2.49.06a2,2,0,0,0-.72-1.36,5.34,5.34,0,0,0-3.55-1.15l.12-2.45A7.75,7.75,0,0,1,819.08,231.71Z"/><path class="cls-59" d="M845.09,229.29a9.87,9.87,0,0,1,3.17,6.17v.17a22.84,22.84,0,0,1-3.68,11.09,12.94,12.94,0,0,1-12.8,5.71,17,17,0,0,1-8.55-3.15,12.79,12.79,0,0,1-4.14-5.46,17,17,0,0,1-.91-8.86,10.59,10.59,0,0,1,3.63-5.81c2.51-2.12,6.49-3.78,12.69-3.63C839.52,225.64,842.92,227.23,845.09,229.29Zm-1.74,1.77c-1.67-1.58-4.44-3-8.93-3.09-5.69-.14-9,1.38-11,3a8.19,8.19,0,0,0-2.81,4.39,14.77,14.77,0,0,0,.79,7.5,10.31,10.31,0,0,0,3.35,4.44,14.6,14.6,0,0,0,7.33,2.65,10.44,10.44,0,0,0,10.44-4.65,20.6,20.6,0,0,0,3.24-9.75A7.64,7.64,0,0,0,843.35,231.06Z"/><path class="cls-59" d="M786.59,227.77a9.4,9.4,0,0,0-3.65,5.43v.16A21.06,21.06,0,0,0,785.08,244a11.85,11.85,0,0,0,11.22,6.55,16.08,16.08,0,0,0,8.28-2.07A12.19,12.19,0,0,0,809,243.8a16,16,0,0,0,1.84-8.12,9.71,9.71,0,0,0-2.72-5.76c-2.09-2.21-5.59-4.14-11.34-4.61C792.17,224.93,788.84,226.07,786.59,227.77Zm1.51,1.94c1.69-1.28,4.38-2.29,8.51-2,5.23.42,8.12,2.14,9.72,3.84a7.44,7.44,0,0,1,2.07,4.27,13.65,13.65,0,0,1-1.56,6.78,9.66,9.66,0,0,1-3.55,3.72,13.64,13.64,0,0,1-7,1.71,9.43,9.43,0,0,1-9-5.25,18.74,18.74,0,0,1-1.88-9.25A7.11,7.11,0,0,1,788.1,229.71Z"/><path class="cls-59" d="M810.05,231.23a4.56,4.56,0,0,0-1.87,2.92l2.47.32a2.15,2.15,0,0,1,.89-1.28,5.38,5.38,0,0,1,3.66-.77l.18-2.45A7.9,7.9,0,0,0,810.05,231.23Z"/><path class="cls-60" d="M860.53,233.29,847,235.05"/><path class="cls-44" d="M819.1,255.57s2.07-.63,2.5-1.81c1.37-3.77-16.24-2.26-13,.84a7.54,7.54,0,0,0,5.17,2.23C815.93,257,819.1,255.57,819.1,255.57Z"/><path class="cls-56" d="M810.89,238.25s-4.9,10.16-4.17,13.32,4.22,4.34,7.81,4.28"/><path class="cls-56" d="M818.21,255l1.15-.38"/><path class="cls-61" d="M877.54,259.69s-2.12,7.23-1.93,11.95c.21,5.05,3.54,7.48,3.28,12.53-.3,5.6-5.59,13.28-5.59,13.28"/><path class="cls-61" d="M785.51,266s3.14,4.26,2.78,8.78c-.31,3.86-2.3,6.47-2.78,10.31-.7,5.52,6.11,12.79,6.11,12.79"/><path class="cls-61" d="M849,273.54s-1.51,10.23-6.41,18.63c-4.81,8.24,5.28,15.52,5.28,15.52"/><path class="cls-47" d="M834.77,200.68a34.74,34.74,0,0,0,15.41,15,24.36,24.36,0,0,1,12.72,14.42"/><rect class="cls-39" x="785.7" y="477.48" width="117.69" height="55.76"/><path class="cls-7" d="M911.59,332.21s-42.13,16.52-63.75,27.23C794.88,385.67,782.72,479,782.72,479H911.59Z"/><path class="cls-62" d="M790.91,381.1l109.24-22.9a1.53,1.53,0,0,1,1.8,1.17l16.28,75.39a1.5,1.5,0,0,1-1.16,1.79L807.84,459.44a1.51,1.51,0,0,1-1.8-1.16l-16.29-75.39A1.5,1.5,0,0,1,790.91,381.1Z"/><ellipse class="cls-63" cx="853.99" cy="408.82" rx="7.81" ry="7.69"/><path class="cls-64" d="M816.24,377l71.51-15.41"/><path class="cls-65" d="M389.33,322.8c-6.7-4.84-33.88-14.58-33.88-14.58l-44.68-2.42-40.58,13.72s-12.84,7.26-19.36,21.38-23.79,94-23.79,94h37.37l9.13-35.13,2.36,35.13H383.48l-2-11.73,7.82-23.4,3.72,35.13h34.36s-8.67-75.07-16.86-88.38C405.07,337.65,396,327.64,389.33,322.8Z"/><path class="cls-66" d="M283.35,315l10.1-4.68,3.19-2.07a.39.39,0,0,1,.57.21l2.66,8.87a.37.37,0,0,1-.41.48l-16-2.09A.38.38,0,0,1,283.35,315Z"/><path class="cls-66" d="M368.91,394.08c-23.53,13.48-29.54,14.33-47.27,18l12.92,78.62,47.27-39.31S392.43,380.6,368.91,394.08Z"/><path class="cls-42" d="M294.36,294.56a18,18,0,0,0-4.95,5l2.16,1.16a15.64,15.64,0,0,1,4.25-4.21,26.76,26.76,0,0,1,8.35-4.07,19.52,19.52,0,0,1,10.44-.14,22.59,22.59,0,0,1,11,7.39l1.87-1.58A25.1,25.1,0,0,0,315.26,290a21.92,21.92,0,0,0-11.75.15A29,29,0,0,0,294.36,294.56Z"/><path class="cls-67" d="M355.29,271.21a17.26,17.26,0,0,0-34.5-.74l-.16,7.32-.89-4.61c1.69,10.34.94,30.83-15.88,37.46l-7.63,1.85c11.63,15.69,38.82,33.66,38.82,33.66s26.32-22.25,28-31.06c-3.24-1.3-6.1-2.4-8.69-3.34Z"/><path class="cls-66" d="M355.53,315l-1.12-7.7,16,6.24-.56,3.56a1.13,1.13,0,0,1-1.38.93Z"/><path class="cls-68" d="M300,318.64l35,28.61L360,322.68"/><path class="cls-69" d="M327,296.91c5.74,16.16,24.2,19.31,29.48,18.58a24.91,24.91,0,0,1,0-15.44L342,303.27Z"/><path class="cls-70" d="M342.38,302.67c18.24-2.2,26.4,6.32,28.2,10.85,4.67-7.72,3-28.3,1.54-37.63Z"/><path class="cls-71" d="M372.41,275.08l-31.25,28.14,1.27-.15c18.08-2.18,26.05,6.26,27.77,10.6l.31.77.43-.71a22.49,22.49,0,0,0,2.46-8,70.54,70.54,0,0,0,.64-10.44,138.42,138.42,0,0,0-1.52-19.48Zm-.59,1.62a136.84,136.84,0,0,1,1.4,18.61,70,70,0,0,1-.63,10.32,23.92,23.92,0,0,1-2,7c-2.37-4.71-10.44-12.08-27-10.48Z"/><path class="cls-72" d="M345.05,190.84c-9.23.13-27.18,7.34-31.57,11.94l52.6,31.11c9.77,33.57,6.3,69.89,3.34,83.85,3,.86,13.84-1.67,19.82-6.87s5.2-51.5-3.61-82.59S356.6,190.67,345.05,190.84Z"/><path class="cls-73" d="M374.79,234.06c-4.73-18.15-14.13-36.15-42.48-32.75-23.46,2.82-30.08,20.22-30.47,29.71s4.63,37.38,4.63,37.38c1.36,10.92,7.46,21,17.5,25.76,5.64,2.7,9.17,3.94,11.16,5.39,7.09,5.17,24.81,5.25,30.73-4.18,2.76-4.4,5.75-6.94,7.53-11,7.8-17.75,5-24.42,4.74-26.71-.35-2.81-4.49-12.89-4.74-14.9C373.19,241.17,374.75,237.05,374.79,234.06Z"/><path class="cls-48" d="M336.71,252.66a2.38,2.38,0,1,1,2.56,2.22A2.41,2.41,0,0,1,336.71,252.66Z"/><path class="cls-74" d="M324.85,253.77l3.58,1.66.68-.44c4.77-3.11,8.06-3.58,10.3-3.27a10.16,10.16,0,0,1,4.38,1.85l.56.36,1.54-2.39-.45-.29a13.09,13.09,0,0,0-5.64-2.33c-3-.41-6.75.28-11.59,3.28l-2.13-1Z"/><path class="cls-48" d="M370.88,248.37a2.38,2.38,0,1,0-1.93,2.76A2.37,2.37,0,0,0,370.88,248.37Z"/><path class="cls-74" d="M364,248.91a14.47,14.47,0,0,0-4.78,4l-2.29-1.7a17.24,17.24,0,0,1,5.75-4.86,14.29,14.29,0,0,1,11.13-.72l1.56-1.57,2.06,2L374.54,249l-.88-.33A11.54,11.54,0,0,0,364,248.91Z"/><path class="cls-75" d="M338.27,239.76a8.37,8.37,0,0,1,3.27.18l.92-2.24a10.27,10.27,0,0,0-4.42-.36,24,24,0,0,0-6.21,1.49,22.1,22.1,0,0,0-12.1,10.77l2.21,1.06a19.64,19.64,0,0,1,10.79-9.57A21.32,21.32,0,0,1,338.27,239.76Z"/><path class="cls-75" d="M359.9,238.68a5.89,5.89,0,0,0-2.67.93l-1.66-1.79a8.08,8.08,0,0,1,3.91-1.53,21.8,21.8,0,0,1,5.89-.13,21,21,0,0,1,13.18,6.28l-1.81,1.64a18.5,18.5,0,0,0-11.64-5.51A19.11,19.11,0,0,0,359.9,238.68Z"/><path class="cls-76" d="M310.78,277.11l5.9.92.38-2.39-5.9-.92Z"/><path class="cls-76" d="M349,266.85a1.24,1.24,0,0,0-1.66-.52,3.78,3.78,0,0,0-1.88,2.12,3.94,3.94,0,0,0,1,3.86,1.25,1.25,0,0,0,1.74.15,1.2,1.2,0,0,0,.15-1.71c-.72-.84-.64-1.33-.57-1.54a1.37,1.37,0,0,1,.67-.73A1.2,1.2,0,0,0,349,266.85Z"/><path class="cls-76" d="M332.32,300a1.22,1.22,0,0,0,.58,1.62c9.1,4.3,18.27,3.44,21.83,2.43l-.68-2.32a31.54,31.54,0,0,1-20.08-2.3A1.25,1.25,0,0,0,332.32,300Z"/><path class="cls-72" d="M294.81,218.85c12.07-22.62,27.45-17.55,33.79-20.75l-6.42,4.84c-10.1,1.21-10.28,21.58-11.42,24.57.92,3,1.94,9.7-1.36,12.37s-3.37,9.5-3,12.57l.85,20.25,5.6,1.77,5.1,11.19c4.93,13.08-4.92,26.16-11,27.78-5.6,1.48-16.74,6.49-28.5-8.37-10.16-12.84-1.33-45.65,4.83-55.94C291.15,236,286.72,234,294.81,218.85Z"/><path class="cls-72" d="M335,216.46c34.5,11.72,38.07,20.52,40.31,28.52,1.58-37.22-24.38-46.72-33.49-46.84s-19.9,2.79-28.82,7.53c-7.13,3.79-8.45,17.43-8.21,23.78l-4.64,19.28,10,4.08c-.74-6-5.87-10.69-.66-15.38,4.16-3.76,8.17-9.67,7.26-11.46C324.17,215.72,330.37,218,335,216.46Z"/><path class="cls-72" d="M310.07,252c2.06-20.76,17.21-32.32,24.53-35.51l-11.28-4.34-21.92,29.9Z"/><path class="cls-76" d="M359.41,262.79a1.19,1.19,0,0,0,.34,1.68,8.77,8.77,0,0,1,2.2,2c.59.86.54,1.32.3,1.63-1.15,1.5-1.94,1.41-1.94,1.42l0,0a1.23,1.23,0,0,0-1.58.72,1.2,1.2,0,0,0,.73,1.55c1.21.44,3.09-.11,4.72-2.24a3.64,3.64,0,0,0-.24-4.47,11.12,11.12,0,0,0-2.85-2.7A1.24,1.24,0,0,0,359.41,262.79Z"/><path class="cls-76" d="M361.38,269a1.24,1.24,0,0,0-1.72.25,8.49,8.49,0,0,1-1.54,1.5,4.58,4.58,0,0,1-2.14,1,7.52,7.52,0,0,1-2.55-.23,10.76,10.76,0,0,1-1.92-.66,1.23,1.23,0,0,0-1.64.54,1.2,1.2,0,0,0,.55,1.63,12.82,12.82,0,0,0,2.42.85,9.86,9.86,0,0,0,3.43.27,7,7,0,0,0,3.35-1.49,10.76,10.76,0,0,0,2-2A1.21,1.21,0,0,0,361.38,269Z"/><path class="cls-77" d="M339,193.3l4.26,2a35,35,0,0,1,4.27,2.48,20,20,0,0,1,4.38,3.82l1.94-1.49A22.32,22.32,0,0,0,349,195.8l-.22-.14a30.29,30.29,0,0,1,8.77,2.73,32.62,32.62,0,0,1,8.47,5.73l1.75-1.71a35,35,0,0,0-9.15-6.2A30.48,30.48,0,0,0,343.75,193Z"/><path class="cls-77" d="M299.36,223.33c3.85-10.22,10.94-14.43,13.74-15.25l-.7-2.32c-3.57,1-11.24,5.82-15.35,16.73Z"/><path class="cls-70" d="M335,216.46c7.91,2.71,25.5,9.71,32.56,16C359.78,218.5,342.35,195.71,335,216.46Z"/><path class="cls-77" d="M337.12,209.4a21.41,21.41,0,0,0-4.11,6.29l2.27.93a19.08,19.08,0,0,1,3.61-5.54c1.71-1.75,3.59-2.71,5.51-2.33a14.09,14.09,0,0,1,5.25,3,61,61,0,0,1,7,6.79,135.48,135.48,0,0,1,14.67,20.12c3.63,6.08,7.45,9.05,10.89,10.17a9.19,9.19,0,0,0,8.1-.88l-1.43-2a6.72,6.72,0,0,1-5.9.56c-2.69-.88-6.09-3.34-9.54-9.11a137.35,137.35,0,0,0-14.95-20.48,63.22,63.22,0,0,0-7.31-7.08,16.13,16.13,0,0,0-6.3-3.45C341.73,205.74,339.05,207.43,337.12,209.4Z"/><path class="cls-70" d="M298.8,314.42c22.27-4.31,7.69-36.88-2.39-52.63l11.34,1.49L319,287.56C322.13,310,306.83,314.81,298.8,314.42Z"/><path class="cls-73" d="M301.68,248.07c3.86-.79,7.1,3.08,8.24,5.11l3.9,21.81c-3.35-.41-8.76-1.46-11.14-3.45-3-2.49-7.76-10.45-7.46-14.15S296.85,249.06,301.68,248.07Z"/><path class="cls-78" d="M303,256.23s3.84.86,4.33,3.51a24.87,24.87,0,0,1,0,4.11c.08,1.46,1.27,2.19,2.23,3.1"/><path class="cls-71" d="M304.88,288.51a67,67,0,0,0-4.2-11.74l-2.22,1a64,64,0,0,1,4,11.28c1.2,4.79,1.8,9.85.75,13.76l2.38.62C306.83,299,306.11,293.4,304.88,288.51Z"/><path class="cls-69" d="M366.61,231.38c-9.75-6.64-25.4-12.69-32-14.88,7.38,8.88,27.45,18.14,36.57,21.66Z"/><path class="cls-71" d="M375.54,286.8c1,16.08-.77,25.89-1.7,28.65l2.33.77c1.08-3.17,2.84-13.33,1.83-29.57Z"/><path class="cls-71" d="M381.42,294.1,380.83,306l2.45.12.6-11.88Z"/><path class="cls-52" d="M361.68,288.61c.37-3.1,1.16-5.83,1.62-8.17-2.59-.89-3.61-.05-3.8.48l-3.29-1.49-15.72,3.9C347.75,291.55,358.37,289.92,361.68,288.61Z"/><path class="cls-52" d="M342.55,284.82c12.11-1.52,13.43-2.39,18,3.92C357.56,288.9,348.67,290.55,342.55,284.82Z"/><path class="cls-51" d="M348.13,288.75a24.64,24.64,0,0,1-5.58-3.93,18.69,18.69,0,0,1,9.54.47C350.25,285.38,348.35,286.21,348.13,288.75Z"/><path class="cls-53" d="M341.65,285.11a51,51,0,0,0,20.47-1,1.62,1.62,0,0,0,1.16-2,1.65,1.65,0,0,0-2-1.14,47.75,47.75,0,0,1-19.18,1Z"/><path class="cls-79" d="M352.2,281.48a11.12,11.12,0,0,1,6,.5,1.46,1.46,0,0,0,1.38-.24c1.67-1.35,2.61-1.5,3.1-1.47a2.3,2.3,0,0,1,1.06.39,1.43,1.43,0,0,0-1,1c-1.18,3.94-3,5.91-4.88,6.8a9.1,9.1,0,0,1-6.6.12,22.74,22.74,0,0,1-8.25-4.89,23.23,23.23,0,0,0,3.5-.56c1.48-.34,3-.8,4.21-1.17C351.29,281.74,351.8,281.59,352.2,281.48Zm13.11-.25a1.4,1.4,0,0,1,.18,1.2c-1.33,4.45-3.56,7.2-6.39,8.54a12,12,0,0,1-8.68.28,24.6,24.6,0,0,1-7.52-4,15.1,15.1,0,0,1-4.33-4.65,1.39,1.39,0,0,1,.2-1.5,1.46,1.46,0,0,1,1.46-.47,12.74,12.74,0,0,0,5.62-.32c1.41-.32,2.69-.72,3.84-1.07.62-.19,1.2-.37,1.74-.52a13.52,13.52,0,0,1,7,.32,6.89,6.89,0,0,1,4.5-1.62,6.22,6.22,0,0,1,2.72,1l.23.14a1.41,1.41,0,0,1,.55,1.93A1.47,1.47,0,0,1,365.31,281.23Z"/><path class="cls-80" d="M342.11,283.89c9.51-.6,20.29-1.44,23.19-2.95-.72-.82-3-1.14-4.76-.91l-8.36,1.06Z"/><path class="cls-81" d="M868.49,465.43c-10-1.89-24.33-6.6-28.08-7.86a1.8,1.8,0,0,1-1.19-1.26l-5.07-18a1.89,1.89,0,0,1,2-2.4l32.38,2.31S860,437,857,434.66c-1.49-1.16-2.1-3.45-2.34-4.68a.7.7,0,0,1,.73-.82c4,.14,21.13.89,30.51,3.57,5.94,1.69,15.75,12.06,15.75,12.06l6.22,16.55S882.81,468.14,868.49,465.43Z"/><path class="cls-82" d="M834.85,446.52,857.33,450"/><path class="cls-82" d="M837.1,452.18l17.37,2.67"/><path class="cls-82" d="M834.65,441.16l25.55,3.93"/><path class="cls-83" d="M545.21,411.52c7.17-4.53,35.6-12.77,35.6-12.77l45.86.34,40.62,16.58S680,423.9,685.7,438.74s18.23,97.6,18.23,97.6L665.71,534l-7.06-36.48L654,533.26,545.21,534l1.48-19.37-6.48-24.41L534,536.34l-37.24-3.08s16-85.72,25.22-98.81C528.14,425.7,538,416,545.21,411.52Z"/><path class="cls-84" d="M596.13,509.88c11.34-.62,27.19-7.83,27.19-7.83v40l-68.53-6.16V502.05S578.75,510.84,596.13,509.88Z"/><path class="cls-85" d="M560,406.32v38.51c-3.71,39.29-2.76,61.3,1.86,100.52l-22.72,2.2,2.23-36.32V488.49l-7.82,61.63H491.48s18.25-96.85,27.56-113c7.16-12.42,11.59-20.24,26.07-26.05C549.72,409.24,560,406.32,560,406.32Z"/><path class="cls-85" d="M680.78,429.45l27.45,112.76L666.68,547l-8.16-48.37-6.3,56.19-38.59,1.86S615.5,450,617,441.16s14.45-39.25,14.45-39.25l15.21,6,22.63,9.3Z"/><path class="cls-86" d="M635.1,402.7c-15.64,16.2-52.61,39.62-75.28,3.67C570.43,400.79,600.35,392.25,635.1,402.7Z"/><path class="cls-86" d="M623,399.58c-11.74-11.68-8.3-30.82-5.12-38.93L572.25,389c7.56,13.76.2,23.41-3,27.23C599.28,434.67,616.27,410.66,623,399.58Z"/><path class="cls-87" d="M612.2,382.45c-10.26,22.21-34.07,24.81-39.53,24.47,1.82-7.52,2.54-15.26,1.58-17.67l15,2.17Z"/><path class="cls-88" d="M624.84,363l6-1.29"/><path class="cls-48" d="M581.61,284.77c8.62-3.89,31-.87,35.83,3.58l-52,35c-8,35,5.19,64.31,9.07,78.43-1.41.49.05,6.38-9.07,10.76-10.38,5-25.19,4-25.19,4s11.81-8.18,5.58-55.89C540.64,320.72,566.34,291.65,581.61,284.77Z"/><path class="cls-89" d="M569.85,408.52l-4.63-29.84,10,10.64s2.71,7.83,1.12,12.47c-.93,2.71-3.79,5.69-5.33,7.16A.72.72,0,0,1,569.85,408.52Z"/><path class="cls-86" d="M556.56,324.05c3.73-18.87,12.26-37.86,41.5-36.06,24.2,1.49,32.05,18.92,33,28.61s-2.45,38.56-2.45,38.56l-.47,7.36a20.5,20.5,0,0,1-9.36,16.25c-9.52,5.92-15,7.86-17.61,10-7,5.72-25.09,6.86-31.73-2.45-3.1-4.35-4-7.13-6-11.17-9.08-17.73-9-24.36-8.84-26.71.18-2.9,3.8-13.47,3.94-15.54C558.63,331.24,556.79,327.11,556.56,324.05Z"/><path class="cls-48" d="M634.87,303.48c-13.76-22.45-26.52-16.1-33.21-19l6.88,4.58c10.42.64,11.85,21.49,13.2,24.49-.76,3.13-1.4,10,2.15,12.59s4,9.52,3.83,12.69l.37,20.79-5.62,2.15L615.24,377c-4.25,13.69,0,49.76,0,49.76,14-2.13,21.12-9.9,42.35-12.84s-5.18-59.91-8.94-73.36C644.43,325.42,644.08,318.51,634.87,303.48Z"/><path class="cls-90" d="M616.25,377.21s-5.65,16-6.71,28.25c-.72,8.28,0,21.27,0,21.27"/><path class="cls-48" d="M596.23,303.66c-34.63,14.06-37.74,23.28-39.54,31.62-3.91-38,22.11-49.31,31.42-50s20.56,1.68,30,6c7.54,3.45,9.72,17.35,9.87,23.87l5.93,19.47-10,4.78c.4-6.21,5.36-11.3-.26-15.8-4.5-3.6-9-9.41-8.14-11.3C607.28,302.26,601.07,304.92,596.23,303.66Z"/><path class="cls-91" d="M595,300.91s7.67,9.77,13.41,16.51c6,7,18.25,15,18.25,15"/><path class="cls-48" d="M623.94,338.59c-3.38-21.14-19.61-32.08-27.3-34.91l11.29-5.12,24.28,29.33Z"/><path class="cls-86" d="M631.79,333.71c-4-.58-7.09,3.57-8.13,5.72l-1.83,22.72c3.4-.62,4.84,2.05,8.94-1.81,3.35-3.17,6.43-13.58,7.54-17.61C639.33,339.06,636.79,334.43,631.79,333.71Z"/><path class="cls-56" d="M632.6,340.53c-5.33.4-7.14,5.24-6.11,9.81a3.72,3.72,0,0,1-1.47,5.12"/><path class="cls-56" d="M631.87,348a3.29,3.29,0,0,0-.13-1.93c-.84-1.89-3-1.26-4.25-1.67"/><path class="cls-92" d="M603.85,388.35a.57.57,0,1,0-.54-1Zm-30.37,3.28c3.89,2.49,9.32,2.84,14.8,2a49.21,49.21,0,0,0,15.57-5.29l-.54-1a48,48,0,0,1-15.2,5.17c-5.37.82-10.47.43-14-1.85Z"/><path class="cls-87" d="M575.75,359.1c-1.84-.05-3.45-1-4.28-.34s1.15,2.41,2.81,2.82c3.16.76,10.45-.53,7.81-3.15C581,357.3,578.78,359.17,575.75,359.1Z"/><path class="cls-93" d="M579.39,360.42l1.5-.72"/><path class="cls-93" d="M573.8,360.73l-1.11-.38"/><path class="cls-94" d="M567.08,414.75s7.08,6.37,15.27,8.81c11.55,3.43,22.72-1.1,22.72-1.1"/><path class="cls-72" d="M760,311.44l-15.81-21.29,4.63-17.36s16.32-3.76,26.6,1.86c7.31,4,10.83,8.26,16.66,15.5,11.49,14.29,11.88,21.29,15.34,44.65,4.56,30.65,16.77,77.31,16.77,77.31H763.62l2.7-77.31Z"/><path class="cls-72" d="M706.46,384.27c4.41-15.29,2.5-40.73,2.5-40.73l26,55.88-35.77,2.84S704.35,391.56,706.46,384.27Z"/><path class="cls-95" d="M680.63,422.46c4.24-8.63,7-12.77,8.35-14.57a.63.63,0,0,1,1.15.35l12.52,136H669.5S669.27,445.57,680.63,422.46Z"/><path class="cls-96" d="M835.54,416.43c-13.57-8.25-22.4-13.25-38-19.51l-80.12-6.36-12.93,6.2-14.82,10.38a3.34,3.34,0,0,0-1.35,2c-4.57,20.68-3.31,31.28-4.7,45.65-1.42,14.67,9.85,52.84,9.85,52.84l-2,29.9-4.42,28L816.17,560,801.5,528l8.63-53.54L816,437.12l19.89-17A2.26,2.26,0,0,0,835.54,416.43Z"/><path class="cls-95" d="M768.57,546.45l41-67.13-7.42,48.22a.87.87,0,0,0,0,.39l7.38,18.52Z"/><path class="cls-97" d="M740.12,471.78l-2.7,73.5"/><path class="cls-15" d="M753.83,464.38l1.58-17.15a1.5,1.5,0,0,1,1.51-1.37h29.51a1.51,1.51,0,0,1,1.47,1.84l-3.8,17.15a1.51,1.51,0,0,1-1.47,1.19h-27.3A1.51,1.51,0,0,1,753.83,464.38Z"/><path class="cls-98" d="M782.72,279.69s8.16,7.72,13,15.84c4.21,7,9.31,27.15,9.31,27.15"/><path class="cls-99" d="M724.49,397.15v-16.7l40.94-19.29,2.67,41.2,13,2.36c-22.69,4.74-39.61,19.7-39.61,19.7S709,400.93,724.49,397.15Z"/><path class="cls-100" d="M733,414l16,4.74-7.31,7Z"/><path class="cls-96" d="M741.65,424.8l28.46-34.67,28.47,13.27L766.84,432s-8.35-7.39-14.23-8.9S741.65,424.8,741.65,424.8Z"/><path class="cls-100" d="M723.48,381.42l44.57,17.09-2.85-38.72-7,12.76-14.93,8Z"/><path class="cls-99" d="M727.16,289.28l18.72.65s9.92,6.9,14.42,14.21c5.32,8.61,6.91,25.46,6.91,25.46l2.67,21.92s-1.17,14.54-5.34,17.79-13.15,9.94-22.84,12c-7.26,1.56-18.45,0-18.45,0s-6.66-2.07-9-4.87-2.15-6.68-3.12-10.9c-1.6-7-5.34-17.54-5.34-17.54s-1.49-8.7-.76-14.61,6.1-12.56,6.1-12.56-1.52-12.41,1.94-19.07C716.45,295.28,727.16,289.28,727.16,289.28Z"/><path class="cls-99" d="M775.61,350.09c3.56-3.84,10.64-20.78,3.52-26.12-6.69-5-10.32,1.38-12.65,8.19l-.6,22.22S772.47,353.49,775.61,350.09Z"/><path class="cls-101" d="M773,331.42s-2.3,4.27-2.49,6.48c-.13,1.6,3.18.58,2.94,3.42-.11,1.31-2.73,2.31-3.56,3.85"/><path class="cls-102" d="M729.65,321.75s3.39-2.27,5.27-2.57c4.08-.65,11.62,3.68,11.62,3.68l2.87-1.3"/><ellipse class="cls-85" cx="735.58" cy="321.78" rx="2.85" ry="2.81"/><path class="cls-102" d="M720.74,321.56s-5.19-3.9-8.2-3a29.11,29.11,0,0,0-4.12,2"/><ellipse class="cls-85" cx="713.58" cy="321.26" rx="2.53" ry="2.5" transform="translate(-3.85 8.69) rotate(-0.7)"/><path class="cls-103" d="M721.94,381.33s11.31,1.17,18.38,0a44.71,44.71,0,0,0,7.95-1.91,75.63,75.63,0,0,0,7.49-3.19"/><path class="cls-52" d="M714.21,359c6.34-.75,21-2.56,21.52-2.51l-5.12,6-10.48,5Z"/><path class="cls-2" d="M713.88,359c7.82,3.07,17.21,1.33,20.17-.7l1.92-4.38-23.3,1.82Z"/><path class="cls-104" d="M734.52,356.08a31.38,31.38,0,0,1-19.41.16l.55.73v0a29.55,29.55,0,0,1,2.1,3.06,2.42,2.42,0,0,1,.25,1.76,3.46,3.46,0,0,0,.11,2.4,2.7,2.7,0,0,0,1.86,1.2c2.69.7,5.88-.6,9-3.14A29.22,29.22,0,0,0,734.52,356.08Zm3.72-3.38a1.93,1.93,0,0,1,.38,2.26,31.49,31.49,0,0,1-7.77,9.6c-3.31,2.71-7.51,4.79-11.62,3.71a5.56,5.56,0,0,1-3.72-2.66,6.24,6.24,0,0,1-.42-4.27,30.71,30.71,0,0,0-1.82-2.59s0-.05-.06-.08a27.26,27.26,0,0,1-2-2.88,2.11,2.11,0,0,1,.42-2.68,2.38,2.38,0,0,1,2.46-.36,28.51,28.51,0,0,0,21.93-.43A2,2,0,0,1,738.24,352.7Z"/><path class="cls-104" d="M735.47,352.84a7.73,7.73,0,0,1,2-.13,1.42,1.42,0,1,1-.27,2.83,4.66,4.66,0,0,0-1.18.09c-.42.07-.86.16-1.34.27l-.46.09a11.23,11.23,0,0,1-4.29.3l-.18,0a37.08,37.08,0,0,0-5.62-.84c-1.58,0-2.36.29-2.79.84a1.53,1.53,0,0,1-1.1.57,1.58,1.58,0,0,1-1.18-.42,7,7,0,0,0-3.61-1.54,4,4,0,0,0-1.56,0c-.27.08-.29.16-.3.19h0l-2.61-.74a3,3,0,0,1,2-2.15,7,7,0,0,1,2.92-.15,11.29,11.29,0,0,1,4.16,1.48,7.12,7.12,0,0,1,4.15-.95,37.18,37.18,0,0,1,6,.87l.32.06a8.56,8.56,0,0,0,3-.29l.4-.08C734.45,353,735,352.92,735.47,352.84Z"/><path class="cls-105" d="M724.06,353.31l5.38.48.25,2.61-7.78-1.22Z"/><path class="cls-106" d="M720.85,315.1s-2.63-2.56-4.88-3-6.16,1.23-6.16,1.23"/><path class="cls-106" d="M728.32,314.18c9.69-4.44,18.1-.5,22.85,2.19"/><path class="cls-100" d="M722.37,342.05s6.33,1.06,6.53,2.8-11.67,3.27-13.3,2.56-2.5-5.94-2.5-5.94Z"/><path class="cls-103" d="M725.13,345.31l-2.08.23"/><path class="cls-103" d="M716.8,346.89s-3.55-3.52-3-7.71S723.1,326.76,723,323s0-5.5,0-5.5"/><path class="cls-72" d="M745.44,290.36l8.13-16.53-12.74-4.67s-11.7-.56-18.23,2.38c-5.39,2.42-8.15,4.78-11.86,9.3-2.49,3-6.59,12.24-4.83,21.2a26.66,26.66,0,0,0,4.83,10.73A31.57,31.57,0,0,1,714.19,302c2.89-5.22,12.14-11.68,12.14-11.68Z"/><path class="cls-70" d="M735.77,285.17c-4.25,1.21-9.66,5.84-9.66,5.84,8-1.81,12.41-2,20.2,0l1.32-5.84S740.22,283.9,735.77,285.17Z"/><path class="cls-107" d="M747.85,285.6s-6.66-1.82-10.76-.87c-5.06,1.18-9.49,4.81-13.39,8"/><path class="cls-96" d="M741.84,425.18,724,384.08l-10.77,6.06,1,33C728.57,418,733.38,420.07,741.84,425.18Z"/><path class="cls-108" d="M741.46,425.64s4.62-6.82,15.19-1.89c4.62,2.15,9.81,8.52,9.81,8.52l14.43-16"/><path class="cls-95" d="M715.5,423.48l26,28.22V425.18s-8.19-5.08-14-5.11C722.57,420,715.5,423.48,715.5,423.48Z"/><path class="cls-108" d="M741.65,425.18a26.82,26.82,0,0,0-11.92-4.55c-8.46-1-16.73,4-16.73,4V392"/><path class="cls-72" d="M760.35,388.74c2.17-14.1,9.38-35,9.38-35l48,51.81C795,409.72,780.88,425,757.23,421,757.23,421,758.67,399.65,760.35,388.74Z"/><path class="cls-109" d="M741.84,424.8l-1.73,47.36"/><path class="cls-109" d="M716.46,502.47l-29.08-36.73"/><path class="cls-109" d="M753.67,503.16l49.17-29.35"/><ellipse class="cls-110" cx="707.64" cy="451.69" rx="15.96" ry="15.72"/><path class="cls-2" d="M712.39,437.19a.4.4,0,0,1,.7.14l.5,2.08a.39.39,0,0,0,.26.27l2,.67a.39.39,0,0,1,.08.71l-1.83,1.1a.37.37,0,0,0-.19.33v2.12a.4.4,0,0,1-.65.3l-1.65-1.39a.36.36,0,0,0-.36-.08l-2.07.65a.39.39,0,0,1-.47-.53l.82-1.95a.4.4,0,0,0,0-.38l-1.25-1.72a.39.39,0,0,1,.35-.62l2.15.17a.36.36,0,0,0,.34-.15Z"/><path class="cls-2" d="M704.94,456.28a.38.38,0,0,1,.61-.34l2.34,1.66a.4.4,0,0,0,.38,0l2.66-1.08a.39.39,0,0,1,.52.48l-.88,2.7a.39.39,0,0,0,.08.37l1.86,2.16a.39.39,0,0,1-.29.64h-2.89a.4.4,0,0,0-.33.18l-1.51,2.42a.4.4,0,0,1-.71-.08l-.9-2.69a.37.37,0,0,0-.28-.26l-2.79-.67a.39.39,0,0,1-.14-.69l2.32-1.67a.39.39,0,0,0,.16-.35Z"/><path class="cls-111" d="M702.05,450.73a24.22,24.22,0,0,0-9.16,7.54.18.18,0,0,0,.24.27,68.92,68.92,0,0,1,8.73-4.19c6.18-2.29,10.12,2.35,17.57-3.6,6.63-5.3,5.13-7.37,6.79-11.29.09-.22-.27-.49-.44-.32-2.06,2-6.32,5.9-10.06,7.56S705.92,449.1,702.05,450.73Z"/><ellipse class="cls-2" cx="700.91" cy="444.3" rx="1.92" ry="1.89"/><path class="cls-96" d="M816.62,593,882.94,522a11.34,11.34,0,0,0,1.68-13.13l-50.51-93.45a1.46,1.46,0,0,0-2.06-.57c-3.85,2.33-15.12,9.53-21.07,17.19-9.06,11.67-10,36.31-10,36.31L836.35,516l-49.53,45.49Z"/><path class="cls-110" d="M818.48,449.06a21.2,21.2,0,0,0,21.35,21c11.79,0,17.78-9.85,17.78-9.85L842,426.86S818.48,428.33,818.48,449.06Z"/><path class="cls-112" d="M841.37,427.57a21,21,0,1,0-4.59,41.81,21.49,21.49,0,0,0,19.6-8.58"/><path class="cls-113" d="M839.39,434.44a.39.39,0,0,0-.71-.05l-2.18,3.88a.38.38,0,0,1-.32.2l-4.49.22a.39.39,0,0,0-.27.66l3.07,3.23a.41.41,0,0,1,.09.37l-1.17,4.27a.39.39,0,0,0,.54.46L838,445.8a.35.35,0,0,1,.37,0l3.78,2.42a.39.39,0,0,0,.6-.38l-.55-4.38a.37.37,0,0,1,.14-.36l3.49-2.77a.39.39,0,0,0-.17-.69l-4.41-.84a.41.41,0,0,1-.29-.25Z"/><path class="cls-113" d="M839.31,451.85a.39.39,0,0,0-.68-.2l-2.06,2.25a.44.44,0,0,1-.36.12l-3-.55a.4.4,0,0,0-.41.59l1.53,2.61a.37.37,0,0,1,0,.38l-1.45,2.66a.39.39,0,0,0,.42.57l3-.62a.38.38,0,0,1,.36.11l2.12,2.19a.4.4,0,0,0,.68-.23l.32-3a.41.41,0,0,1,.23-.32l2.76-1.3a.39.39,0,0,0,0-.71l-2.8-1.24a.4.4,0,0,1-.23-.3Z"/><path class="cls-114" d="M834.86,516.74,846.41,509"/><path class="cls-114" d="M838.59,518.57l8.57,1.47"/><path class="cls-23" d="M196.48,314.6c-6.95-5-35.14-15.11-35.14-15.11L115,297,73.23,309.1s-13.64,9.62-20.4,24.25-24.67,97.44-24.67,97.44H66.92l9.47-36.4,2.45,36.4L66.92,481.15l125.49,7-4-69.48,8.11-24.25,3.86,36.4H236s-9-77.79-17.49-91.58C212.81,330,203.43,319.62,196.48,314.6Z"/><rect class="cls-65" x="81.79" y="483.35" width="66.29" height="48.42"/><path class="cls-115" d="M106.74,298.83c14.76,17.34,46.67,42.6,71.88,7.7C168.26,300.24,143.24,286.72,106.74,298.83Z"/><path class="cls-115" d="M118.36,296c12.61-11.07,6.72-33.53,4-41.92l47.93,34.37c-8.52,13.42-2.13,21.73.86,25.79C139.66,331,124.47,307.61,118.36,296Z"/><path class="cls-116" d="M129.46,280.85c8.94,23.08,30.66,27.69,36.2,27.69-1.36-7.72,2.14-15.4,3.28-17.78l-16.91.58Z"/><path class="cls-2" d="M117.54,294.8,63.91,311.3V514.17h53.63L239.7,377l-23.46-56.5-49.53-22L145.85,359Z"/><path class="cls-117" d="M103.76,299.57l5.5,34.06a1,1,0,0,0,.6.78l4,1.8a1,1,0,0,0,.6.08l12.69-2.11-5.93,16.88a1,1,0,0,0,.41,1.21l26.57,17.48a3.57,3.57,0,0,1,1.19,1.31l3.27,6.25a3.63,3.63,0,0,1,.38,1.25l19,171.15"/><path class="cls-117" d="M182.35,308.74l-7.29,23a1,1,0,0,1-1,.72h-9.85l6.54,11.72a1,1,0,0,1-.13,1.19L152.55,366"/><ellipse class="cls-65" cx="141.3" cy="388.63" rx="4.39" ry="4.32"/><path class="cls-1" d="M145.81,432.13c-16-13.43-66.25,21.49-66.25,21.49l-3.73,75.22h57S166.57,449.55,145.81,432.13Z"/><path class="cls-118" d="M118.88,259l-6-1.68"/><path class="cls-115" d="M189.8,222.53c-2.56-19.3-9.42-37.69-39.07-37.69-24.53,0-33.58,17.11-35.19,26.85s0,39.09,0,39.09v7a21.6,21.6,0,0,0,8.83,17.8c9,6.35,14.26,8.61,16.72,10.91,6.66,6.2,25.24,8.64,29.71,3.59s7-11,9.31-15c10.31-17.34,9.26-25.92,8.94-28.29-.74-5.5-3-8.81-3-12.47C186.07,232.59,189.37,225.6,189.8,222.53Z"/><path class="cls-116" d="M169.53,255.89a61.9,61.9,0,0,1-15.15-3.2.77.77,0,0,0-1,.91l.4,1.64a.74.74,0,0,0,.48.52l8.46,3.13a.79.79,0,0,0,.43,0l6.48-1.48A.79.79,0,0,0,169.53,255.89Z"/><path class="cls-119" d="M166.34,235s3.86,16.48,3.72,19.08-5.92,3.57-5.92,3.57"/><path class="cls-119" d="M159.19,256.41l-1.42-.44"/><path class="cls-119" d="M154.79,248.21s-2.5,2.34-2,4a5.3,5.3,0,0,0,1.48,2.24"/><path class="cls-52" d="M165.53,277c1.27-3.38,2.91-6.25,4.09-8.76-2.67-1.69-4.06-1-4.41-.48l-3.29-2.55-18.77.17C149,276.54,161.45,277.55,165.53,277Z"/><path class="cls-52" d="M145.05,267.58c14.06,1.53,15.78.91,19.16,9.24C160.81,276.2,150.36,275.66,145.05,267.58Z"/><path class="cls-53" d="M144,267.67A58.9,58.9,0,0,0,167.28,272a1.87,1.87,0,1,0-.09-3.74,55.16,55.16,0,0,1-21.85-4.07Z"/><path class="cls-120" d="M156.84,266.41a12.93,12.93,0,0,1,6.63,2.17,1.67,1.67,0,0,0,1.62.1c2.26-1.07,3.36-1,3.89-.81a2.54,2.54,0,0,1,1.09.71,1.66,1.66,0,0,0-1.41.82c-2.42,4.12-5,5.84-7.38,6.34a10.51,10.51,0,0,1-7.45-1.63,24.51,24.51,0,0,1-6.46-5.71,24.81,24.81,0,0,1-1.48-2,27.41,27.41,0,0,0,4.09.31c1.77,0,3.6-.1,5.07-.19Zm14.81,3.23a1.62,1.62,0,0,1-.12,1.4c-2.73,4.65-6,7.15-9.55,7.9a13.88,13.88,0,0,1-9.85-2,28.16,28.16,0,0,1-7.36-6.48,17.22,17.22,0,0,1-3.59-6.4,1.61,1.61,0,0,1,.64-1.63,1.69,1.69,0,0,1,1.77-.14,14.91,14.91,0,0,0,6.42,1.15c1.67,0,3.22-.09,4.61-.18.75,0,1.45-.09,2.1-.11a15.58,15.58,0,0,1,7.77,2.22,8,8,0,0,1,5.51-.61,6.91,6.91,0,0,1,2.78,1.85l.23.22a1.62,1.62,0,0,1,.08,2.31A1.69,1.69,0,0,1,171.65,269.64Z"/><path class="cls-121" d="M144.81,266.41c10.87,1.88,23.24,3.83,26.92,2.91-.59-1.12-3-2.09-5.1-2.31L156.92,266Z"/><path class="cls-122" d="M150.32,198c32.65,15.68,35.75,23.46,37.08,31.58a.37.37,0,0,0,.69.11C199.45,208,170.18,184,161,182.75s-20.87.42-30.66,4.19c-7.84,3-10.93,16.92-11.5,23.49l-7.24,19.3,9.8,5.45c0-6.29-4.69-11.75,1.27-15.94,4.77-3.36,9.66-9,8.95-10.91C140.51,198.69,145.35,198.93,150.32,198Z"/><path class="cls-123" d="M121.34,234.34C126.11,213.2,145,200,152.92,197.58l-12.84-2.67L113.68,223Z"/><path class="cls-115" d="M113.54,228.9c4.07-.33,6.93,4.06,7.84,6.29l.39,23.06c-3.4-.84-8-2.69-10.2-5-2.74-2.94-6.66-11.74-5.88-15.51S108.44,229.32,113.54,228.9Z"/><path class="cls-119" d="M113.27,235.37s2.92,2.6,2,5.15a25.57,25.57,0,0,1-2,3.6c-.66,1.32,0,2.53.41,3.79"/><path class="cls-124" d="M171.65,289.16c-10.16,9.3-24.31,2.7-43.3-10.51"/><ellipse class="cls-7" cx="114.49" cy="257.3" rx="5.14" ry="5.06"/><path class="cls-110" d="M99.67,210.8c0,3.57,3.46,23.39,4.53,29.42a.75.75,0,0,0,1.35.31l34.28-47.31,13-1.79,35.33,17.69s2-9.56,0-13.06-11.85-13.91-15-15.59-27.86-3.8-27.86-3.8S121.39,180,118.45,182,99.67,206.59,99.67,210.8Z"/><path class="cls-125" d="M156.65,188.41l-2.24-9.17"/><path class="cls-125" d="M155.53,183.64l27.19,6.24"/><path class="cls-125" d="M129.46,180.34l11.17,11"/><path class="cls-125" d="M105.63,215.56l32-27.15"/><path class="cls-126" d="M168.94,225.83s9-5.14,14.39-3.25a19,19,0,0,1,5,3.25"/><path class="cls-126" d="M157.84,223.63s-7-5.89-15.11-3.76c-3.61.94-7.24,4.1-7.24,4.1"/><path class="cls-126" d="M156,234.62s-2.73-4-5.46-5.14a9,9,0,0,0-4-.83c-3.08,0-7.14,3.24-7.14,3.24l-2.06-1.66"/><ellipse cx="149.07" cy="232.15" rx="3.72" ry="3.67" transform="translate(-1.98 1.28) rotate(-0.49)"/><path class="cls-126" d="M170.43,235.55s3.12-3.53,5.55-4.28a7.3,7.3,0,0,1,5.25.37,13.73,13.73,0,0,1,4.84,3.73l2.24-.73"/><ellipse cx="178.86" cy="234.15" rx="3.67" ry="3.73" transform="translate(-90.25 354.15) rotate(-76.66)"/><path class="cls-127" d="M252.37,529.57l16.35,2.2"/><path class="cls-128" d="M247.11,537l16.34,2.2"/><path class="cls-128" d="M242.65,544.35l16.35,2.2"/><path class="cls-32" d="M135.05,339.55l10.06,22.74"/><path class="cls-68" d="M351.44,423.19l-4.62-1.6a3.79,3.79,0,0,1-2.32-2.31l-1.78-5a3.59,3.59,0,0,1-.22-1.26V380.66a.76.76,0,0,1,.75-.76H379a.76.76,0,0,1,.75.76v11.71"/><ellipse class="cls-7" cx="626.3" cy="361.56" rx="2.98" ry="2.93"/><path class="cls-129" d="M585.35,367.3a38.27,38.27,0,0,1,8.33,2.86.36.36,0,0,1,0,.66l-2.33,1.2c-1.29.53-3.7,4.79-11.18,5.2-6.75.37-9.22-4-9.64-4.83a.35.35,0,0,0-.21-.2l-1.28-.52A.37.37,0,0,1,569,371a21.44,21.44,0,0,1,5.39-3.13C577.81,366.7,581.1,366.63,585.35,367.3Z"/><path class="cls-130" d="M571,370.94l-2-.58"/><path class="cls-130" d="M588.94,371.12c2.52-.08,6.29-2.19,6.29-2.19"/><path class="cls-130" d="M581.38,371.58l-4,.22"/><path class="cls-91" d="M585.33,334.05s4.47-1.84,7.07-1.84,10.43,2.57,10.43,2.57"/><path class="cls-91" d="M574.9,334.42s-9.44-2.53-11.18-2.17a48.31,48.31,0,0,0-6,2.17"/><path class="cls-131" d="M584.59,340.88a22.46,22.46,0,0,1,5.9-2.38c5-.79,11.23,3.57,11.23,3.57"/><ellipse class="cls-132" cx="591.97" cy="341.05" rx="3.01" ry="2.96"/><path class="cls-131" d="M574.16,340.35a22.1,22.1,0,0,0-5.4-1.9c-4.6-.64-10.24,2.86-10.24,2.86"/><ellipse class="cls-132" cx="567.26" cy="341.05" rx="3.01" ry="2.96"/><path class="cls-133" d="M610.35,342.63c0,7.74-6.43,14.09-14.51,14.15s-14.66-6.2-14.72-13.94,6.43-14.09,14.51-14.15S610.29,334.89,610.35,342.63Z"/><path class="cls-133" d="M574,341.85a12.53,12.53,0,1,1-12.62-12.93A12.78,12.78,0,0,1,574,341.85Z"/><path class="cls-134" d="M573.71,341.51a11.86,11.86,0,1,0-23.7.17"/><path class="cls-135" d="M582.06,339.39c-.61-.65-1.82-2.26-1.83-3.52,0-1.57-1-1.95-3.64-1.93s-1.8,2-3.59,4.73"/><path class="cls-134" d="M609.27,340.57c0-6.44-6.17-11.63-13.68-11.58s-13.56,5.33-13.52,11.78"/><path class="cls-136" d="M608.55,337.15l17-.35"/><path class="cls-137" d="M612.23,333.49l-3.41,5.71c-1.44-6.56-9.54-10.3-13.47-11.42,6.93,0,13.84,2.49,16.61,4.35A1,1,0,0,1,612.23,333.49Z"/><path class="cls-137" d="M546.85,334.56l3.11,5.75c1.18-6.59,8.36-10.59,11.8-11.76-6.13,0-12.29,2.82-14.69,4.74A1,1,0,0,0,546.85,334.56Z"/><path class="cls-93" d="M570.1,359.73a6,6,0,0,1-1-4.41c.56-2.2,2.94-4.36,4-7a21.86,21.86,0,0,0,1.12-4.76"/><path class="cls-138" d="M692.59,503.16l-2.23,31.18"/><path class="cls-15" d="M273.43,383H204.26l-25.61,7.37-32.16,36.82L133.41,549.84H340.73s-1.68-119.28-11.22-135.24S273.43,383,273.43,383Z"/><path class="cls-139" d="M158.1,485.61l-8.34,21.6,21.92,2.38-11.85-24.06A1,1,0,0,0,158.1,485.61Z"/><path class="cls-140" d="M217,379.3V354.58l39.57-3.47v26l19.51,7s-16.55,11.3-28.8,13a60.56,60.56,0,0,1-17.63,0c-11.57-1.77-24.72-13-24.72-13Z"/><path class="cls-141" d="M217.38,376.38c1.69,0,38.63-4.92,38.45-7.14S218.66,352,217.38,353.63,215.69,376.38,217.38,376.38Z"/><path class="cls-142" d="M236.7,386.26c-10.72-4-15.89-6.64-20.62-13.73L199.17,383.7l37.53,30.74,22.11-13.54,11.33-18.85-13.38-9.52C253.05,382.05,247.78,383.56,236.7,386.26Z"/><path class="cls-102" d="M237.07,415.35l6.5,14.64"/><path class="cls-143" d="M266.1,380.34l-29,82,3.52,85h66.18s-3.39-52,2.22-85c3.72-21.84,11.38-49.75,13.28-56.56a1.89,1.89,0,0,0-1-2.23l-52.57-24.26A1.89,1.89,0,0,0,266.1,380.34Z"/><path class="cls-102" d="M306.26,492.74s-1,21-.69,34.47c.2,8.88,1.15,22.64,1.15,22.64"/><path class="cls-144" d="M274.6,436.94c4.11-16.77,10.82-44.13,11.92-48.59a.54.54,0,0,1,.76-.37l13.47,5.61a.55.55,0,0,1,.35.59c-.49,3.31-3.81,25.49-6.63,41.3-7.54,42.27-7.24,110.88-7.24,110.88H262S263.66,481.52,274.6,436.94Z"/><path class="cls-145" d="M288,534.1l-27.49-50.5-23.41,65.14h61.3Z"/><path class="cls-143" d="M206.84,378.87l31.72,83.44-4.29,87.53H167.82s2.53-58.74-5.95-93.64c-4.93-20.25-14.74-46.69-17.39-53.67a1.88,1.88,0,0,1,1.11-2.43l58.82-22.32A1.89,1.89,0,0,1,206.84,378.87Z"/><path class="cls-146" d="M237.81,457.62l3,16.83"/><path class="cls-147" d="M191.37,447.74c-8-19.9-25.71-50.37-28.44-55a.55.55,0,0,1,.34-.81L182,386.38a.54.54,0,0,1,.63.23c2.33,3.76,22.61,36.73,31.18,61.13,13.78,39.2,11,106,11,106H204.37S207.44,487.92,191.37,447.74Z"/><path class="cls-148" d="M229.54,437.49h-10.3L191,387.17l15.6-9,23.47,58.51A.56.56,0,0,1,229.54,437.49Z"/><path class="cls-149" d="M172.63,462.83l87.23,18.49a.75.75,0,0,1,.58.89L236.58,591.4a.77.77,0,0,1-.9.58l-87.23-18.5a.75.75,0,0,1-.58-.89l23.86-109.18A.76.76,0,0,1,172.63,462.83Z"/><path class="cls-150" d="M167.22,484.7l-5.57,23.79"/><path class="cls-72" d="M253.24,506.63,159,575.92l76.86,16.32,19.21-84.51A1.13,1.13,0,0,0,253.24,506.63Z"/><path class="cls-151" d="M201.8,459.7a2.27,2.27,0,0,1,2.25-.8L232.87,465a2.25,2.25,0,0,1,1.72,1.65l2.46,9.82-41.6-8.81Z"/><path class="cls-64" d="M196,466l6.38-6.45a2.3,2.3,0,0,1,2.07-.63L229.27,464"/><path class="cls-152" d="M263.64,549.48l2.14-57,22.35,40.72,2.63,17.88Z"/><path class="cls-63" d="M218.25,375.75l-2-10.54a.37.37,0,0,0-.64-.18L208,373.22a.25.25,0,0,0-.08.12l-2,5.06a.38.38,0,0,0,0,.33l1.76,3a.36.36,0,0,0,.51.13l9.85-5.71A.38.38,0,0,0,218.25,375.75Z"/><path class="cls-153" d="M207.78,299.6l8-8.62-26.1,2.72,6.87,22.5s3,23.24,7.8,29.64a40.88,40.88,0,0,0,9.85,9.52Z"/><path class="cls-153" d="M279.42,298.45l-4.83,18.85-2.78-27.45h5Z"/><path class="cls-154" d="M200.28,355.52s-38.82,27.38-26,62.21"/><path class="cls-153" d="M214.59,358.26l2.47-6.48-7.81-4.72s-10.69,7.7-16.33,13.86c-7,7.68-12.21,11.95-14.6,22.2-2.51,10.75-.65,18.06,3.82,28.12,7,15.83,32.83,25.46,39.21,27.64a.54.54,0,0,0,.63-.82l-12.27-19.67s-8.84-20.33-5.79-33C206.28,375.51,214.59,358.26,214.59,358.26Z"/><path class="cls-155" d="M212.6,362.25l3.44-6.31a.94.94,0,0,0,0-.85l-3.69-7.9a.94.94,0,0,0-1.22-.47l-3.88,1.62-.21.11-4.62,3.5a.93.93,0,0,0-.12,1.4l8.78,9.11A.93.93,0,0,0,212.6,362.25Z"/><path class="cls-140" d="M275.14,294.78l-5.45-10.26-45.41.65-17.06,14.65c-.83,9.86-.73,15.34-1.57,25.2-.67,7.92,4.34,20.54,7.52,27.83,1.42,3.26,7.7,9.83,14.66,14.28,4.22,2.71,9.32,5.43,11.95,6.06s14.25-.62,16.71-1.95c5.29-2.86,9.66-9.11,13.79-16.07s5.43-11.52,6-19.93c.44-6.23-2.23-12.77-1.9-15.61s-.66-7.7-.5-12.64S275.14,294.78,275.14,294.78Z"/><path class="cls-141" d="M206.42,308.13l.55-8.24,57.41-4.57,3.34,3.29Z"/><path class="cls-154" d="M240.61,310.18s-4.9-2.16-8.2-2.06c-4.53.13-8.91,2.6-12.62,5"/><path class="cls-154" d="M252.73,309.49s4.26-2,7.18-2c4,0,7.92,2.07,11.25,4.07"/><path class="cls-140" d="M199,332.17c-3.15-3.4-9.42-18.39-3.12-23.12,5.92-4.43,9.14,1.22,11.2,7.24l.53,19.68S201.81,335.18,199,332.17Z"/><path class="cls-156" d="M201.34,315.65s2,3.77,2.2,5.73c.13,1.42-2.81.51-2.6,3,.1,1.16,2.42,2,3.15,3.4"/><path class="cls-141" d="M247.86,342.16c2.23-.3,5.23-2.37,4.68-3.27s-3.36.42-5.68.46c-1.9,0-5.12-1.23-5.13-.32,0,1.68,1.85,2.81,4.33,3.12A5.72,5.72,0,0,0,247.86,342.16Z"/><path class="cls-157" d="M244.26,340.1l-2.06-.78"/><path class="cls-157" d="M252.54,339.4l-1.56.75"/><path class="cls-157" d="M239.24,339.34a5.3,5.3,0,0,1-1.82-2.28,3.68,3.68,0,0,1,.77-3.32,4.94,4.94,0,0,1,1.79-1.18"/><path class="cls-157" d="M250.64,317.48c0,3.72-.54,8.7,1.42,12.64.62,1.24,1.52,2.22,2.25,3.39,1.18,1.87,1,2.94.25,4.77"/><path class="cls-158" d="M239.87,317.82c-2-2-5.21-3.66-8.16-3.07s-7,3.46-7,3.46"/><ellipse class="cls-34" cx="233.52" cy="317.8" rx="3.49" ry="3.44"/><path class="cls-158" d="M253.24,317.92s2.58-2.67,4.76-3.24a7.61,7.61,0,0,1,6.08.66,18,18,0,0,1,4.31,3.35"/><ellipse class="cls-34" cx="260.73" cy="317.24" rx="3.5" ry="3.44" transform="matrix(1, -0.02, 0.02, 1, -6.16, 5.16)"/><path class="cls-7" d="M189.9,264.44c-1.69,4.54-3.5,32.3-3.5,32.3l100.09-4S280.36,263,278,258s-11.3-16.95-17.19-20.56-18.37-4.07-18.37-4.07a10.6,10.6,0,0,0-3.86-3.65c-2.56-1.37-7.5-.8-9.51.37a13.23,13.23,0,0,0-3.67,4s-11.89,2.15-18.18,6.63S191.58,259.9,189.9,264.44Z"/><path class="cls-148" d="M255.3,268.74c-4,7.35-12.7,15.8-9.31,19.34s29.53,4.77,32.81-4.2-3.34-24.52-3.34-24.52-4.39-9.68-8.8-9.5S259.39,261.13,255.3,268.74Z"/><path class="cls-159" d="M195.94,290l21.72-5.07"/><path class="cls-159" d="M198.66,265.18l9.05,10.5a6.17,6.17,0,0,1,1.51,3.82l.31,7.4"/><path class="cls-160" d="M279.17,286.7l-22.05-3.33"/><path class="cls-160" d="M274.44,262.18l-8.17,11.18a6.19,6.19,0,0,0-1.19,3.92l.3,7.41"/><path class="cls-159" d="M226,235.21l-3.36,5.56a1.45,1.45,0,0,0-.22.84l.19,4.76"/><path class="cls-159" d="M241.67,234.37l4.22,5.47a1.45,1.45,0,0,1,.32.86l.2,4.94"/><path class="cls-161" d="M178.53,296.74h7.84l106.34-4.21a.57.57,0,0,1,.59.54l0,1a.57.57,0,0,1-.54.59l-17.74.7H275l-22.11,4.35h-.09l-60.93,2.53a.64.64,0,0,1-.2,0l-13.28-4.39A.57.57,0,0,1,178.53,296.74Z"/><path class="cls-161" d="M275.44,304.63l16.48-10-21.7.86,1.64,5.06Z"/><path class="cls-153" d="M275.89,306.5,264.56,297s5.86-1.52,9.66-1.28a39.31,39.31,0,0,1,6.5,1.28s-1.18,4.78-2.6,6.95A13.58,13.58,0,0,1,275.89,306.5Z"/><path class="cls-155" d="M272.74,295.5a58.2,58.2,0,0,0-8.55,1.28l3.53,2.75,12.45-.55.74-2.2A34.56,34.56,0,0,0,272.74,295.5Z"/><path class="cls-15" d="M135.45,412c3.17-5.22,9.66-8.5,9.66-8.5,10.07,22,14.61,38.93,18.58,61.12l-13.64,42.57L214,513.43l-9.42,43.73s-104-7.07-110.91-13.9S84.36,530.45,84.36,520C84.36,501.17,132.29,417.18,135.45,412Z"/><path class="cls-162" d="M148.46,552.59l58.14,4.94"/><path class="cls-140" d="M243.94,554.05c6,0,18.13-20,22.62-27.71a2.88,2.88,0,0,0-1.56-4.19c-6.29-2.15-20.07-6.48-27.38-5.79-9.66.91-25.07,4.39-25.07,4.39L206,548.38S236.51,554.05,243.94,554.05Z"/><path class="cls-141" d="M211.24,525.32,206,548.56l8.55,1.28Z"/><path class="cls-163" d="M213.85,393.94,227,400.35l9.1-11.71,8.17,11.71,13.75-6.41"/><path class="cls-157" d="M220.34,361.56a82.55,82.55,0,0,0,8.18,6.22,45.49,45.49,0,0,0,9.1,4.57c2.23.73,18-.73,18-.73"/><path class="cls-164" d="M239.08,346.16a58.18,58.18,0,0,0-8.66-1.46.36.36,0,0,0-.39.45c.53,1.89,2.61,8.48,6.12,10.72a13.53,13.53,0,0,0,6.75,2.4c6.32.67,12.46-3,15.46-8.42a.38.38,0,0,0-.29-.55c-1.06-.13-3.6-.49-6.92-1.22a14.07,14.07,0,0,0-6.9-.05.45.45,0,0,1-.28,0A45,45,0,0,0,239.08,346.16Z"/><path class="cls-2" d="M241.56,350.3c-1.63-.38-3.85-1.13-4.95-1.5a.17.17,0,0,0-.19.28c1.08,1.15,3.86,3.85,6.6,4.21,2.59.34,7.09-1.22,9.06-2A.18.18,0,0,0,252,351,51.44,51.44,0,0,1,241.56,350.3Z"/><path class="cls-165" d="M230,344.36a63.51,63.51,0,0,0,6.5,4.57"/><path class="cls-165" d="M251.93,351.08a27.72,27.72,0,0,0,5.8-1.44"/><path class="cls-166" d="M159.41,480.31,149.75,507l62.61,6"/><path class="cls-157" d="M274.72,311.67a33.63,33.63,0,0,0,0,6.24c.39,4.65,1.49,11.37,1.49,11.37"/><path class="cls-2" d="M363.26,396.45l33.44-19.62,62-4.5,29.79,21.79,3.65,31.68,18.46,128.52H322.69s6.76-82.28,21-128.52Z"/><path class="cls-142" d="M482.6,554.5H411.32l54.83-29,38.93-10.44,5.48,39.42Z"/><path class="cls-167" d="M386.59,343.06s-4.28-16.89-5.86-27.91c-2.69-18.84-2.67-30.82,9.21-48.1,9.41-13.68,18.43-19.54,35.27-18.92,14.07.52,21.2,7.2,30.89,17.46s12,33.94,12,33.94l-.33,34-4.68,22.13,4.87,14.6c-.19,12.74-2.16,23.54-12.94,32s-60.59,19.54-74.27,19.26c-8.77-.18-22-2.7-25.2-2.71s-9.82,6.13-11.28,7.75c-1.07,1.18-5.08,16.65-7.15,24.85a.81.81,0,0,1-1.59-.15c-.42-7.42-1-20.64.33-24.7,1.83-5.76,7.09-20.42,9.33-23.94s23.39-15.85,23.39-15.85,17.28-9.34,20.29-10.8,9-8.15,9-8.15Z"/><path class="cls-168" d="M411.83,249.75A51.34,51.34,0,0,1,423,247.92c6.45,0,10.95.36,16.76,3.67s12.29,12.11,12.29,12.11"/><path class="cls-65" d="M355.11,423l-10.31,3.9a.79.79,0,0,1-.82-1.33c3.38-3,8.58-7.47,10.14-7.47s8.89,1.14,14.46,2a.82.82,0,0,1-.06,1.62l-13.19,1.21A.59.59,0,0,0,355.11,423Z"/><path class="cls-168" d="M400,383.5s9.8,2.66,17.68,4c18.21,3.16,36.37-16.45,44.25-30.14l4.2-15.3"/><path class="cls-169" d="M395.6,420.63c-5.68-10.37-11.76-28.53-6.13-41.73A45.4,45.4,0,0,1,396.7,368"/><ellipse class="cls-62" cx="398.27" cy="427.55" rx="13.34" ry="13.14"/><ellipse class="cls-170" cx="398.25" cy="427.36" rx="8.22" ry="8.1"/><path class="cls-15" d="M356.76,474.66,428.3,446a1.12,1.12,0,0,1,1.45.61l38.71,93.6a1.1,1.1,0,0,1-.61,1.44l-71.54,28.7a1.12,1.12,0,0,1-1.45-.61l-38.71-93.61A1.09,1.09,0,0,1,356.76,474.66Z"/><path class="cls-171" d="M437.83,465.59,404.75,567.12l63.78-25.56Z"/><path class="cls-151" d="M375.7,458.9a3.28,3.28,0,0,1,2.06-2.87l22.3-8.95a3.36,3.36,0,0,1,3.5.64l6.22,5.66-34.51,13.85Z"/><path class="cls-172" d="M374.8,466.65l1.94-8.79a2.24,2.24,0,0,1,1.42-1.62l23.75-8.67"/><path class="cls-173" d="M476.21,413.61l-12.12,38.47a1.59,1.59,0,0,1-.22.43l-5.82,7.6a1.38,1.38,0,0,1-2.08.15l-9.55-9.6"/><path class="cls-95" d="M449.19,449.11l-1.56-1.56a1.69,1.69,0,0,0-2.37,0l-1.57,1.52a1.63,1.63,0,0,0,0,2.33l1.56,1.57a1.68,1.68,0,0,0,2.36,0l1.58-1.52A1.64,1.64,0,0,0,449.19,449.11Z"/><path class="cls-173" d="M453.32,406.61l-12.13,38.48a1.48,1.48,0,0,0-.06.47l.42,9.51a1.38,1.38,0,0,0,1.64,1.28l13.38-2.58"/><path class="cls-95" d="M455.19,451l2.19-.42a1.66,1.66,0,0,1,1.95,1.3l.42,2.14a1.64,1.64,0,0,1-1.31,1.93l-2.19.42a1.66,1.66,0,0,1-1.95-1.3l-.43-2.14A1.65,1.65,0,0,1,455.19,451Z"/><path class="cls-174" d="M447.56,425l5.36-17a2.83,2.83,0,0,1,.86-1.29l6.73-5.65a2.78,2.78,0,0,1,2.61-.53l9,2.74a2.74,2.74,0,0,1,1.87,2l1.87,8.21a2.67,2.67,0,0,1-.06,1.43L470.39,432"/><path class="cls-169" d="M467.28,401.51s4.25-10,4.28-13.56-1.94-14.4-1.94-14.4"/><path class="cls-175" d="M412.21,495.17c11.24-4.95,30.1-5.29,30.1-5.29l9.95,21.38s-15.35,8.68-17.72,10.66-38,15.3-40.15,14.4-11.75-13.39-10.84-15.84S398.49,501.21,412.21,495.17Z"/><path class="cls-176" d="M442.58,517.06,445.87,498l6.39,13.32Z"/><path class="cls-177" d="M385,525.16l17.91-13.68"/><path class="cls-177" d="M388.12,529.48l19.37-12.78"/><path class="cls-177" d="M391.22,533.44l16.45-9"/><path class="cls-2" d="M544.63,482.84c-12.73-27-36.55-73.46-56.38-89.26V473.5L437,488.13l11.28,42,84.1-21.79A18.35,18.35,0,0,0,544.63,482.84Z"/><path class="cls-142" d="M476.19,453.35,467,478.3l20.11-5.51Z"/><path class="cls-178" d="M451.5,489.69l10.42,37.9"/><path class="cls-178" d="M444.31,485.92l62.48-17.7"/><path class="cls-178" d="M475.52,450.41l12.29,22.75"/><ellipse class="cls-151" cx="421.92" cy="433.12" rx="4.39" ry="4.32"/><path class="cls-178" d="M365.82,511.3v43.2"/><path class="cls-175" d="M415.67,269.38s-10.54,11.7-11.46,13.4-13.54,30.15-11.09,43.74,3.29,19.67,8.91,27.89c2.66,3.88,13.2,11.62,18.62,13.6,7.08,2.6,14,.54,18.09-1.8,7.67-4.38,13.16-17.82,16.08-25.74,1.94-5.26,2-18.9,1.1-23.94s-2.75-6.3-3.5-9.3-1.59-9.11-3.45-12.3-8.58-10-16.08-15.48C426.43,274.72,415.67,269.38,415.67,269.38Z"/><path class="cls-168" d="M455.56,335.25l6.22-25.38"/><path class="cls-179" d="M401.82,348.21c-3.06-5.17-5.38-12.35-6.92-18.13-.09-.34-1.06-.17-1,.19l.62,5.16c1.33,6.74,3.93,14.11,8.23,19.62,4,5.18,13.89,10.63,13.89,10.63S406.36,355.89,401.82,348.21Z"/><path class="cls-126" d="M429.45,303.35c5.88-4.81,13.19-3.49,19.18-1"/><path class="cls-126" d="M417.78,303.69s-5.5-2-9.19-1.92c-4,.11-10,2.85-10,2.85"/><path class="cls-105" d="M411.79,340.78c-.09,0-.12-.11-.07-.15l.07.15c.76.47,5.66,1.21,8,1.09a16.38,16.38,0,0,1,5.92,1.22,28.18,28.18,0,0,1,4.83.07c1.89.27,8.43,1.86,8.43,1.86a22,22,0,0,1-7.38,6.24,13.08,13.08,0,0,1-13.06-1.06C415.36,348,412.31,341.85,411.79,340.78Z"/><path class="cls-180" d="M411.54,340.8c3.51,4,13.32,6.57,14.76,6.57a38.61,38.61,0,0,0,13-2.49"/><path class="cls-179" d="M424.62,333.79a8.23,8.23,0,0,1-2-1.18s-1.38-.8-2.11-1.1a6,6,0,0,0-2.48-.25l1.68,2.21a8.19,8.19,0,0,0,4.88,2.14c2.89.16,8.5-2.67,8.17-3.9a1.58,1.58,0,0,0-1.18-1,14.67,14.67,0,0,1-2.75,2.28C427.27,333.83,426.22,334.28,424.62,333.79Z"/><path class="cls-181" d="M428.5,334.89l2.05-.77"/><path class="cls-181" d="M419,328.5s-1.68,1.57-1.31,2.91a3.39,3.39,0,0,0,1,1.93,6.74,6.74,0,0,0,2.8,1"/><path class="cls-181" d="M428.06,316.8a23,23,0,0,0,.22,4.62,13.08,13.08,0,0,0,2.5,4.63l.05.06c.25.25,2.22,2.29,2.6,3.83a7.39,7.39,0,0,1-.19,2.8"/><path class="cls-33" d="M430.89,310.91a24.22,24.22,0,0,1,5.85-2.65,11.68,11.68,0,0,1,3.72-.39c3.26.19,7.54,3.44,7.54,3.44"/><ellipse class="cls-34" cx="439.38" cy="311.07" rx="3.41" ry="3.36"/><path class="cls-33" d="M402,312.6a19.65,19.65,0,0,1,4.62-3,9.11,9.11,0,0,1,4-.79c2.25,0,7.4,2.23,7.4,2.23"/><ellipse class="cls-34" cx="410.34" cy="311.58" rx="3.41" ry="3.36"/></svg>