<svg width="13" height="13" viewBox="0 0 13 13" fill="none" xmlns="http://www.w3.org/2000/svg">
<path d="M6.16359 12.6939H0.866376C0.519018 12.6939 0.246094 12.4045 0.246094 12.0361V8.87853C0.246094 8.51015 0.519018 8.2207 0.866376 8.2207H6.16359C6.51094 8.2207 6.78387 8.51015 6.78387 8.87853V12.0361C6.78387 12.3913 6.49854 12.6939 6.16359 12.6939Z" fill="#DCE9FE"/>
<path fill-rule="evenodd" clip-rule="evenodd" d="M0.865858 8.46625C0.667525 8.46625 0.491152 8.63195 0.491152 8.8785V12.0361C0.491152 12.2826 0.667525 12.4483 0.865858 12.4483H6.16307C6.349 12.4483 6.53777 12.2695 6.53777 12.0361V8.8785C6.53777 8.63195 6.3614 8.46625 6.16307 8.46625H0.865858ZM0 8.8785C0 8.38828 0.369476 7.9751 0.865858 7.9751H6.16307C6.65945 7.9751 7.02893 8.38828 7.02893 8.8785V12.0361C7.02893 12.5131 6.64704 12.9395 6.16307 12.9395H0.865858C0.369476 12.9395 0 12.5263 0 12.0361V8.8785Z" fill="#1E6DEB"/>
<path fill-rule="evenodd" clip-rule="evenodd" d="M3.38086 0.954872C3.38086 0.420526 3.80732 0 4.3402 0H11.9806C12.5135 0 12.9399 0.420527 12.9399 0.954872V12.0451C12.9399 12.5795 12.5135 13 11.9806 13H8.40201C8.23284 13 8.09569 12.8629 8.09569 12.6937C8.09569 12.5245 8.23284 12.3874 8.40201 12.3874H11.9806C12.1791 12.3874 12.3273 12.2372 12.3273 12.0451V0.954872C12.3273 0.762839 12.1791 0.612639 11.9806 0.612639H4.3402C4.1417 0.612639 3.9935 0.762839 3.9935 0.954872V6.84409C3.9935 7.01327 3.85635 7.15041 3.68718 7.15041C3.518 7.15041 3.38086 7.01327 3.38086 6.84409V0.954872Z" fill="#1E6DEB"/>
<path fill-rule="evenodd" clip-rule="evenodd" d="M3.01758 9.59698C3.01758 9.41775 3.16287 9.27246 3.3421 9.27246H5.75075C5.92998 9.27246 6.07527 9.41775 6.07527 9.59698C6.07527 9.77621 5.92998 9.9215 5.75075 9.9215H3.3421C3.16287 9.9215 3.01758 9.77621 3.01758 9.59698Z" fill="#1E6DEB"/>
<path fill-rule="evenodd" clip-rule="evenodd" d="M3.01758 11.3177C3.01758 11.1385 3.16287 10.9932 3.3421 10.9932H4.37438C4.5536 10.9932 4.6989 11.1385 4.6989 11.3177C4.6989 11.4969 4.5536 11.6422 4.37438 11.6422H3.3421C3.16287 11.6422 3.01758 11.4969 3.01758 11.3177Z" fill="#1E6DEB"/>
<path d="M1.79383 11.3171C2.26892 11.3171 2.65406 10.932 2.65406 10.4569C2.65406 9.98182 2.26892 9.59668 1.79383 9.59668C1.31873 9.59668 0.933594 9.98182 0.933594 10.4569C0.933594 10.932 1.31873 11.3171 1.79383 11.3171Z" fill="#1E6DEB"/>
<path d="M5.75069 3.05899C6.13076 3.05899 6.43887 2.75088 6.43887 2.3708C6.43887 1.99073 6.13076 1.68262 5.75069 1.68262C5.37061 1.68262 5.0625 1.99073 5.0625 2.3708C5.0625 2.75088 5.37061 3.05899 5.75069 3.05899Z" fill="#1E6DEB"/>
<path fill-rule="evenodd" clip-rule="evenodd" d="M7.14648 2.37091C7.14648 2.19168 7.29178 2.04639 7.471 2.04639H11.256C11.4353 2.04639 11.5805 2.19168 11.5805 2.37091C11.5805 2.55013 11.4353 2.69542 11.256 2.69542H7.471C7.29178 2.69542 7.14648 2.55013 7.14648 2.37091Z" fill="#1E6DEB"/>
<path fill-rule="evenodd" clip-rule="evenodd" d="M5.08203 4.09112C5.08203 3.91189 5.22732 3.7666 5.40655 3.7666H11.2561C11.4354 3.7666 11.5807 3.91189 11.5807 4.09112C11.5807 4.27035 11.4354 4.41564 11.2561 4.41564H5.40655C5.22732 4.41564 5.08203 4.27035 5.08203 4.09112Z" fill="#1E6DEB"/>
<path fill-rule="evenodd" clip-rule="evenodd" d="M5.08203 5.81182C5.08203 5.6326 5.22732 5.4873 5.40655 5.4873H11.2561C11.4354 5.4873 11.5807 5.6326 11.5807 5.81182C11.5807 5.99105 11.4354 6.13634 11.2561 6.13634H5.40655C5.22732 6.13634 5.08203 5.99105 5.08203 5.81182Z" fill="#1E6DEB"/>
<path fill-rule="evenodd" clip-rule="evenodd" d="M7.83594 7.53253C7.83594 7.3533 7.98123 7.20801 8.16046 7.20801H11.2573C11.4365 7.20801 11.5818 7.3533 11.5818 7.53253C11.5818 7.71175 11.4365 7.85704 11.2573 7.85704H8.16046C7.98123 7.85704 7.83594 7.71175 7.83594 7.53253Z" fill="#1E6DEB"/>
<path fill-rule="evenodd" clip-rule="evenodd" d="M7.83594 9.25274C7.83594 9.07351 7.98123 8.92822 8.16046 8.92822H11.2573C11.4365 8.92822 11.5818 9.07351 11.5818 9.25274C11.5818 9.43197 11.4365 9.57726 11.2573 9.57726H8.16046C7.98123 9.57726 7.83594 9.43197 7.83594 9.25274Z" fill="#1E6DEB"/>
<path fill-rule="evenodd" clip-rule="evenodd" d="M7.83594 10.973C7.83594 10.7937 7.98123 10.6484 8.16046 10.6484H11.2573C11.4365 10.6484 11.5818 10.7937 11.5818 10.973C11.5818 11.1522 11.4365 11.2975 11.2573 11.2975H8.16046C7.98123 11.2975 7.83594 11.1522 7.83594 10.973Z" fill="#1E6DEB"/>
</svg>
