<svg width="23" height="23" viewBox="0 0 23 23" fill="none" xmlns="http://www.w3.org/2000/svg">
<path d="M10.6143 21.9817H1.49136C0.893132 21.9817 0.423096 21.4832 0.423096 20.8488V15.4108C0.423096 14.7763 0.893132 14.2778 1.49136 14.2778H10.6143C11.2126 14.2778 11.6826 14.7763 11.6826 15.4108V20.8488C11.6826 21.4606 11.1912 21.9817 10.6143 21.9817Z" fill="#1E6DEB"/>
<path fill-rule="evenodd" clip-rule="evenodd" d="M1.4912 14.7009C1.14963 14.7009 0.845873 14.9862 0.845873 15.4108V20.8489C0.845873 21.2735 1.14963 21.5588 1.4912 21.5588H10.6142C10.9344 21.5588 11.2595 21.2508 11.2595 20.8489V15.4108C11.2595 14.9862 10.9557 14.7009 10.6142 14.7009H1.4912ZM0 15.4108C0 14.5666 0.636319 13.855 1.4912 13.855H10.6142C11.4691 13.855 12.1054 14.5666 12.1054 15.4108V20.8489C12.1054 21.6705 11.4477 22.4047 10.6142 22.4047H1.4912C0.636319 22.4047 0 21.6931 0 20.8489V15.4108Z" fill="#F6F8FE"/>
<path fill-rule="evenodd" clip-rule="evenodd" d="M5.82178 1.76462C5.82178 0.844357 6.55624 0.120117 7.47398 0.120117H20.6324C21.5502 0.120117 22.2846 0.844357 22.2846 1.76462V20.8645C22.2846 21.7848 21.5502 22.509 20.6324 22.509H14.4693C14.178 22.509 13.9418 22.2728 13.9418 21.9815C13.9418 21.6901 14.178 21.4539 14.4693 21.4539H20.6324C20.9743 21.4539 21.2295 21.1952 21.2295 20.8645V1.76462C21.2295 1.4339 20.9743 1.17522 20.6324 1.17522H7.47398C7.13211 1.17522 6.87688 1.4339 6.87688 1.76462V11.9072C6.87688 12.1985 6.64069 12.4347 6.34933 12.4347C6.05797 12.4347 5.82178 12.1985 5.82178 11.9072V1.76462Z" fill="#F6F8FE"/>
<path fill-rule="evenodd" clip-rule="evenodd" d="M5.19702 16.6482C5.19702 16.3396 5.44725 16.0894 5.75591 16.0894H9.90415C10.2128 16.0894 10.463 16.3396 10.463 16.6482C10.463 16.9569 10.2128 17.2071 9.90415 17.2071H5.75591C5.44725 17.2071 5.19702 16.9569 5.19702 16.6482Z" fill="#F6F8FE"/>
<path fill-rule="evenodd" clip-rule="evenodd" d="M5.19702 19.6111C5.19702 19.3025 5.44725 19.0522 5.75591 19.0522H7.53373C7.8424 19.0522 8.09262 19.3025 8.09262 19.6111C8.09262 19.9198 7.8424 20.17 7.53373 20.17H5.75591C5.44725 20.17 5.19702 19.9198 5.19702 19.6111Z" fill="#F6F8FE"/>
<path d="M3.08942 19.6115C3.90764 19.6115 4.57094 18.9482 4.57094 18.13C4.57094 17.3117 3.90764 16.6484 3.08942 16.6484C2.27121 16.6484 1.60791 17.3117 1.60791 18.13C1.60791 18.9482 2.27121 19.6115 3.08942 19.6115Z" fill="#F6F8FE"/>
<path d="M9.90482 5.38849C10.5594 5.38849 11.09 4.85785 11.09 4.20328C11.09 3.5487 10.5594 3.01807 9.90482 3.01807C9.25024 3.01807 8.7196 3.5487 8.7196 4.20328C8.7196 4.85785 9.25024 5.38849 9.90482 5.38849Z" fill="#F6F8FE"/>
<path fill-rule="evenodd" clip-rule="evenodd" d="M12.3079 4.20342C12.3079 3.89476 12.5581 3.64453 12.8668 3.64453H19.3854C19.6941 3.64453 19.9443 3.89476 19.9443 4.20342C19.9443 4.51209 19.6941 4.76232 19.3854 4.76232H12.8668C12.5581 4.76232 12.3079 4.51209 12.3079 4.20342Z" fill="#F6F8FE"/>
<path fill-rule="evenodd" clip-rule="evenodd" d="M8.7533 7.16631C8.7533 6.85765 9.00352 6.60742 9.31219 6.60742H19.3865C19.6951 6.60742 19.9454 6.85765 19.9454 7.16631C19.9454 7.47498 19.6951 7.72521 19.3865 7.72521H9.31219C9.00352 7.72521 8.7533 7.47498 8.7533 7.16631Z" fill="#F6F8FE"/>
<path fill-rule="evenodd" clip-rule="evenodd" d="M8.7533 10.1292C8.7533 9.82054 9.00352 9.57031 9.31219 9.57031H19.3865C19.6951 9.57031 19.9454 9.82054 19.9454 10.1292C19.9454 10.4379 19.6951 10.6881 19.3865 10.6881H9.31219C9.00352 10.6881 8.7533 10.4379 8.7533 10.1292Z" fill="#F6F8FE"/>
<path fill-rule="evenodd" clip-rule="evenodd" d="M13.4944 13.0926C13.4944 12.7839 13.7446 12.5337 14.0533 12.5337H19.3867C19.6954 12.5337 19.9456 12.7839 19.9456 13.0926C19.9456 13.4013 19.6954 13.6515 19.3867 13.6515H14.0533C13.7446 13.6515 13.4944 13.4013 13.4944 13.0926Z" fill="#F6F8FE"/>
<path fill-rule="evenodd" clip-rule="evenodd" d="M13.4944 16.0555C13.4944 15.7468 13.7446 15.4966 14.0533 15.4966H19.3867C19.6954 15.4966 19.9456 15.7468 19.9456 16.0555C19.9456 16.3641 19.6954 16.6144 19.3867 16.6144H14.0533C13.7446 16.6144 13.4944 16.3641 13.4944 16.0555Z" fill="#F6F8FE"/>
<path fill-rule="evenodd" clip-rule="evenodd" d="M13.4944 19.0184C13.4944 18.7097 13.7446 18.4595 14.0533 18.4595H19.3867C19.6954 18.4595 19.9456 18.7097 19.9456 19.0184C19.9456 19.327 19.6954 19.5773 19.3867 19.5773H14.0533C13.7446 19.5773 13.4944 19.327 13.4944 19.0184Z" fill="#F6F8FE"/>
</svg>
