<svg width="26" height="24" viewBox="0 0 26 24" fill="none" xmlns="http://www.w3.org/2000/svg">
<path d="M16.4699 0.599121H5.39006C2.74389 0.599121 0.598755 2.74426 0.598755 5.39042V11.679C0.598755 14.1598 2.60982 16.1708 5.0906 16.1708L5.39006 7.18716L8.68408 4.49205H20.3629C20.3629 2.34205 18.6199 0.599121 16.4699 0.599121Z" fill="#1E6DEB"/>
<path fill-rule="evenodd" clip-rule="evenodd" d="M0 5.39021C0 2.41328 2.41328 0 5.39021 0H16.4701C18.9509 0 20.9619 2.01107 20.9619 4.49184H19.7641C19.7641 2.67261 18.2893 1.19783 16.4701 1.19783H5.39021C3.07482 1.19783 1.19783 3.07482 1.19783 5.39021V11.6788C1.19783 13.8288 2.94075 15.5717 5.09076 15.5717V16.7696C2.27921 16.7696 0 14.4903 0 11.6788V5.39021Z" fill="#F6F8FE"/>
<path fill-rule="evenodd" clip-rule="evenodd" d="M9.90022 5.06159C7.58483 5.06159 5.70784 6.93859 5.70784 9.25398V15.2431C5.70784 17.5585 7.58483 19.4355 9.90022 19.4355H17.0402C17.199 19.4355 17.3514 19.4986 17.4637 19.6109L20.1432 22.2904C20.2375 22.3847 20.3988 22.3179 20.3988 22.1845V19.947C20.3988 19.6601 20.6022 19.4135 20.8839 19.359C22.8156 18.985 24.2741 17.2837 24.2741 15.2431V9.25398C24.2741 6.93859 22.3971 5.06159 20.0817 5.06159H9.90022ZM4.51001 9.25398C4.51001 6.27705 6.92329 3.86377 9.90022 3.86377H20.0817C23.0587 3.86377 25.472 6.27705 25.472 9.25398V15.2431C25.472 17.6945 23.8361 19.7627 21.5966 20.4174V22.1845C21.5966 23.385 20.1451 23.9863 19.2962 23.1374L16.7921 20.6333H9.90022C6.92329 20.6333 4.51001 18.22 4.51001 15.2431V9.25398Z" fill="#F6F8FE"/>
<path d="M14.4105 13.638H16.0946C16.0946 12.3154 17.9683 12.0908 17.9683 10.0944C17.9683 8.62211 16.8083 7.78613 15.1354 7.78613C13.6298 7.78613 12.5814 8.43495 11.9791 9.4581L13.3286 10.344C13.6855 9.77003 14.232 9.42066 14.9458 9.42066C15.6707 9.42066 16.1503 9.80746 16.1503 10.4189C16.1503 11.5044 14.4105 11.8912 14.4105 13.638ZM15.2581 16.7698C15.8827 16.7698 16.3288 16.2583 16.3288 15.6344C16.3288 14.998 15.8827 14.5239 15.2581 14.5239C14.6335 14.5239 14.1874 14.998 14.1874 15.6344C14.1874 16.2583 14.6335 16.7698 15.2581 16.7698Z" fill="#F6F8FE"/>
</svg>
