<svg width="25" height="25" viewBox="0 0 25 25" fill="none" xmlns="http://www.w3.org/2000/svg">
<path d="M0.634888 2.6582H23.477V9.00323H0.634888V2.6582Z" fill="#E6EFFF"/>
<path fill-rule="evenodd" clip-rule="evenodd" d="M0 3.92695C0 2.87567 0.85223 2.02344 1.90351 2.02344H22.2076C23.2589 2.02344 24.1111 2.87567 24.1111 3.92695V22.3275C24.1111 23.3788 23.2589 24.231 22.2076 24.231H1.90351C0.852231 24.231 0 23.3788 0 22.3275V3.92695ZM1.90351 3.29244C1.55308 3.29244 1.26901 3.57652 1.26901 3.92695V22.3275C1.26901 22.678 1.55308 22.962 1.90351 22.962H22.2076C22.558 22.962 22.8421 22.678 22.8421 22.3275V3.92695C22.8421 3.57652 22.558 3.29244 22.2076 3.29244H1.90351Z" fill="#F6F8FE"/>
<path fill-rule="evenodd" clip-rule="evenodd" d="M5.71035 0.120117C6.06077 0.120117 6.34485 0.404194 6.34485 0.75462L6.34485 4.56164C6.34485 4.91206 6.06077 5.19614 5.71035 5.19614C5.35992 5.19614 5.07584 4.91206 5.07584 4.56164L5.07584 0.75462C5.07584 0.404194 5.35992 0.120117 5.71035 0.120117Z" fill="#F6F8FE"/>
<path fill-rule="evenodd" clip-rule="evenodd" d="M12.0559 0.120117C12.4064 0.120117 12.6904 0.404194 12.6904 0.75462L12.6904 4.56164C12.6904 4.91206 12.4064 5.19614 12.0559 5.19614C11.7055 5.19614 11.4214 4.91206 11.4214 4.56164L11.4214 0.75462C11.4214 0.404194 11.7055 0.120117 12.0559 0.120117Z" fill="#F6F8FE"/>
<path fill-rule="evenodd" clip-rule="evenodd" d="M18.4008 0.120117C18.7512 0.120117 19.0353 0.404194 19.0353 0.75462L19.0353 4.56164C19.0353 4.91206 18.7512 5.19614 18.4008 5.19614C18.0503 5.19614 17.7663 4.91206 17.7663 4.56164L17.7663 0.75462C17.7663 0.404194 18.0503 0.120117 18.4008 0.120117Z" fill="#F6F8FE"/>
<path fill-rule="evenodd" clip-rule="evenodd" d="M3.80664 13.4446C3.80664 13.0941 4.09072 12.8101 4.44114 12.8101H6.97916C7.32958 12.8101 7.61366 13.0941 7.61366 13.4446C7.61366 13.795 7.32958 14.0791 6.97916 14.0791H4.44114C4.09072 14.0791 3.80664 13.795 3.80664 13.4446Z" fill="#F6F8FE"/>
<path fill-rule="evenodd" clip-rule="evenodd" d="M3.80664 17.886C3.80664 17.5355 4.09072 17.2515 4.44114 17.2515H6.97916C7.32958 17.2515 7.61366 17.5355 7.61366 17.886C7.61366 18.2364 7.32958 18.5205 6.97916 18.5205H4.44114C4.09072 18.5205 3.80664 18.2364 3.80664 17.886Z" fill="#F6F8FE"/>
<path fill-rule="evenodd" clip-rule="evenodd" d="M10.1515 13.4446C10.1515 13.0941 10.4356 12.8101 10.786 12.8101H13.324C13.6744 12.8101 13.9585 13.0941 13.9585 13.4446C13.9585 13.795 13.6744 14.0791 13.324 14.0791H10.786C10.4356 14.0791 10.1515 13.795 10.1515 13.4446Z" fill="#F6F8FE"/>
<path fill-rule="evenodd" clip-rule="evenodd" d="M10.1515 17.886C10.1515 17.5355 10.4356 17.2515 10.786 17.2515H13.324C13.6744 17.2515 13.9585 17.5355 13.9585 17.886C13.9585 18.2364 13.6744 18.5205 13.324 18.5205H10.786C10.4356 18.5205 10.1515 18.2364 10.1515 17.886Z" fill="#F6F8FE"/>
<path fill-rule="evenodd" clip-rule="evenodd" d="M16.4971 13.4446C16.4971 13.0941 16.7811 12.8101 17.1316 12.8101H19.6696C20.02 12.8101 20.3041 13.0941 20.3041 13.4446C20.3041 13.795 20.02 14.0791 19.6696 14.0791H17.1316C16.7811 14.0791 16.4971 13.795 16.4971 13.4446Z" fill="#F6F8FE"/>
<path fill-rule="evenodd" clip-rule="evenodd" d="M16.4971 17.886C16.4971 17.5355 16.7811 17.2515 17.1316 17.2515H19.6696C20.02 17.2515 20.3041 17.5355 20.3041 17.886C20.3041 18.2364 20.02 18.5205 19.6696 18.5205H17.1316C16.7811 18.5205 16.4971 18.2364 16.4971 17.886Z" fill="#F6F8FE"/>
<path fill-rule="evenodd" clip-rule="evenodd" d="M23.477 9.00289H0.634888V7.73389H23.477V9.00289Z" fill="#F6F8FE"/>
</svg>
