<svg width="14" height="14" viewBox="0 0 14 14" fill="none" xmlns="http://www.w3.org/2000/svg">
<path d="M0.368164 1.47363H13.6313V5.15784H0.368164V1.47363Z" fill="#E6EFFF"/>
<path fill-rule="evenodd" clip-rule="evenodd" d="M0 2.21073C0 1.60031 0.494843 1.10547 1.10526 1.10547H12.8947C13.5052 1.10547 14 1.60031 14 2.21073V12.8949C14 13.5054 13.5052 14.0002 12.8947 14.0002H1.10526C0.494844 14.0002 0 13.5054 0 12.8949V2.21073ZM1.10526 1.84231C0.90179 1.84231 0.736842 2.00726 0.736842 2.21073V12.8949C0.736842 13.0984 0.90179 13.2634 1.10526 13.2634H12.8947C13.0982 13.2634 13.2632 13.0984 13.2632 12.8949V2.21073C13.2632 2.00726 13.0982 1.84231 12.8947 1.84231H1.10526Z" fill="#1E6DEB"/>
<path fill-rule="evenodd" clip-rule="evenodd" d="M3.31615 -1.61041e-08C3.51962 -7.21007e-09 3.68457 0.164948 3.68457 0.368421L3.68457 2.57895C3.68457 2.78242 3.51962 2.94737 3.31615 2.94737C3.11268 2.94737 2.94773 2.78242 2.94773 2.57895L2.94773 0.368421C2.94773 0.164948 3.11268 -2.49982e-08 3.31615 -1.61041e-08Z" fill="#1E6DEB"/>
<path fill-rule="evenodd" clip-rule="evenodd" d="M6.99974 -1.61041e-08C7.20322 -7.21007e-09 7.36816 0.164948 7.36816 0.368421L7.36816 2.57895C7.36816 2.78242 7.20322 2.94737 6.99974 2.94737C6.79627 2.94737 6.63132 2.78242 6.63132 2.57895L6.63132 0.368421C6.63132 0.164948 6.79627 -2.49982e-08 6.99974 -1.61041e-08Z" fill="#1E6DEB"/>
<path fill-rule="evenodd" clip-rule="evenodd" d="M10.6843 -1.61041e-08C10.8878 -7.21007e-09 11.0527 0.164948 11.0527 0.368421L11.0527 2.57895C11.0527 2.78242 10.8878 2.94737 10.6843 2.94737C10.4808 2.94737 10.3159 2.78242 10.3159 2.57895L10.3159 0.368421C10.3159 0.164948 10.4808 -2.49982e-08 10.6843 -1.61041e-08Z" fill="#1E6DEB"/>
<path fill-rule="evenodd" clip-rule="evenodd" d="M2.21094 7.73707C2.21094 7.5336 2.37589 7.36865 2.57936 7.36865H4.05304C4.25652 7.36865 4.42146 7.5336 4.42146 7.73707C4.42146 7.94055 4.25652 8.10549 4.05304 8.10549H2.57936C2.37589 8.10549 2.21094 7.94055 2.21094 7.73707Z" fill="#1E6DEB"/>
<path fill-rule="evenodd" clip-rule="evenodd" d="M2.21094 10.3162C2.21094 10.1127 2.37589 9.94775 2.57936 9.94775H4.05304C4.25652 9.94775 4.42146 10.1127 4.42146 10.3162C4.42146 10.5196 4.25652 10.6846 4.05304 10.6846H2.57936C2.37589 10.6846 2.21094 10.5196 2.21094 10.3162Z" fill="#1E6DEB"/>
<path fill-rule="evenodd" clip-rule="evenodd" d="M5.89551 7.73707C5.89551 7.5336 6.06046 7.36865 6.26393 7.36865H7.73761C7.94109 7.36865 8.10603 7.5336 8.10603 7.73707C8.10603 7.94055 7.94109 8.10549 7.73761 8.10549H6.26393C6.06046 8.10549 5.89551 7.94055 5.89551 7.73707Z" fill="#1E6DEB"/>
<path fill-rule="evenodd" clip-rule="evenodd" d="M5.89551 10.3162C5.89551 10.1127 6.06046 9.94775 6.26393 9.94775H7.73761C7.94109 9.94775 8.10603 10.1127 8.10603 10.3162C8.10603 10.5196 7.94109 10.6846 7.73761 10.6846H6.26393C6.06046 10.6846 5.89551 10.5196 5.89551 10.3162Z" fill="#1E6DEB"/>
<path fill-rule="evenodd" clip-rule="evenodd" d="M9.5791 7.73707C9.5791 7.5336 9.74405 7.36865 9.94752 7.36865H11.4212C11.6247 7.36865 11.7896 7.5336 11.7896 7.73707C11.7896 7.94055 11.6247 8.10549 11.4212 8.10549H9.94752C9.74405 8.10549 9.5791 7.94055 9.5791 7.73707Z" fill="#1E6DEB"/>
<path fill-rule="evenodd" clip-rule="evenodd" d="M9.5791 10.3162C9.5791 10.1127 9.74405 9.94775 9.94752 9.94775H11.4212C11.6247 9.94775 11.7896 10.1127 11.7896 10.3162C11.7896 10.5196 11.6247 10.6846 11.4212 10.6846H9.94752C9.74405 10.6846 9.5791 10.5196 9.5791 10.3162Z" fill="#1E6DEB"/>
<path fill-rule="evenodd" clip-rule="evenodd" d="M13.6313 5.15774H0.368164V4.4209H13.6313V5.15774Z" fill="#1E6DEB"/>
</svg>
