<svg width="16" height="14" viewBox="0 0 16 14" fill="none" xmlns="http://www.w3.org/2000/svg">
<path d="M8.00261 0.366588L0.504969 2.37983C0.31302 2.43137 0.310071 2.70267 0.500855 2.75837L7.99843 4.94733C8.03497 4.958 8.07383 4.95783 8.11028 4.94684L15.3673 2.75785C15.5559 2.70096 15.5529 2.4329 15.3631 2.38024L8.10613 0.367017C8.07228 0.357626 8.03653 0.357478 8.00261 0.366588Z" fill="#1E6DEB"/>
<path fill-rule="evenodd" clip-rule="evenodd" d="M8.05328 0.725523L1.16121 2.57616L8.05316 4.58831L14.724 2.57613L8.05328 0.725523ZM8.09948 4.60184L8.09966 4.60189L8.05392 4.75856L8.09966 4.60189C8.0996 4.60187 8.09954 4.60185 8.09948 4.60184ZM7.90971 0.0190332C8.00573 -0.00675004 8.10691 -0.00633074 8.20271 0.0202473L15.4597 2.03347C15.9969 2.18251 16.0054 2.94121 15.4716 3.10221L8.21458 5.2912L8.11068 4.94675L8.21458 5.2912C8.11142 5.32232 8.00144 5.32281 7.898 5.29261L0.400428 3.10364C-0.139548 2.94599 -0.131193 2.17815 0.412071 2.03227L7.90971 0.0190333L8.00292 0.366152L7.90971 0.0190332Z" fill="#1E6DEB"/>
<path d="M1.12109 11.788L1.85157 9.57471L2.58205 11.788H1.12109Z" fill="#1E6DEB"/>
<path fill-rule="evenodd" clip-rule="evenodd" d="M1.851 9.21484C2.00625 9.21484 2.14399 9.31443 2.19265 9.46186L2.92313 11.6751C2.95931 11.7848 2.94068 11.9051 2.87303 11.9987C2.80538 12.0923 2.69694 12.1477 2.58148 12.1477H1.12052C1.00506 12.1477 0.896617 12.0923 0.828968 11.9987C0.761318 11.9051 0.742685 11.7848 0.778872 11.6751L1.50935 9.46186C1.55801 9.31443 1.69575 9.21484 1.851 9.21484ZM1.61813 11.4281H2.08387L1.851 10.7226L1.61813 11.4281Z" fill="#1E6DEB"/>
<path fill-rule="evenodd" clip-rule="evenodd" d="M2.21076 2.56592V11.837H1.49121V2.56592H2.21076Z" fill="#1E6DEB"/>
<path d="M6.45117 13.0512C6.45117 13.0512 13.0232 12.2995 11.0749 4.40723C11.0749 4.40723 14.1251 7.63629 11.8842 11.0014C9.6433 14.3666 6.45117 13.0512 6.45117 13.0512Z" fill="#DCE9FE"/>
<path fill-rule="evenodd" clip-rule="evenodd" d="M8.04383 4.03205C5.62983 4.03205 3.66682 6.00948 3.66682 8.4563C3.66682 10.9031 5.62983 12.8805 8.04383 12.8805C10.4578 12.8805 12.4208 10.9031 12.4208 8.4563C12.4208 6.00948 10.4578 4.03205 8.04383 4.03205ZM2.94727 8.4563C2.94727 5.61883 5.22572 3.3125 8.04383 3.3125C10.8619 3.3125 13.1404 5.61883 13.1404 8.4563C13.1404 11.2938 10.8619 13.6001 8.04383 13.6001C5.22572 13.6001 2.94727 11.2938 2.94727 8.4563Z" fill="#1E6DEB"/>
<path fill-rule="evenodd" clip-rule="evenodd" d="M6.30229 6.67229C6.52829 6.03159 7.1732 5.63381 7.84821 5.72351L9.21128 5.90465C9.40825 5.93083 9.5467 6.11172 9.52053 6.30869C9.49435 6.50566 9.31346 6.64411 9.11649 6.61794L7.75342 6.4368C7.41738 6.39214 7.09414 6.5905 6.98086 6.91165C6.83546 7.32388 7.0878 7.76991 7.51365 7.85682L8.62151 8.08292C9.35436 8.23248 9.84516 8.92419 9.76179 9.66098C9.67248 10.4502 8.95648 11.0309 8.16056 10.9352L6.77297 10.7684C6.5757 10.7447 6.435 10.5655 6.45872 10.3683C6.48244 10.171 6.66159 10.0303 6.85887 10.054L8.24646 10.2208C8.63857 10.268 9.00157 9.97983 9.0468 9.58007C9.089 9.20719 8.83897 8.86168 8.47763 8.78794L7.36977 8.56184C6.5136 8.38711 6.01245 7.49399 6.30229 6.67229Z" fill="#1E6DEB"/>
<path fill-rule="evenodd" clip-rule="evenodd" d="M7.98966 4.41943C8.18836 4.41943 8.34944 4.58051 8.34944 4.77921V5.9649C8.34944 6.1636 8.18836 6.32468 7.98966 6.32468C7.79096 6.32468 7.62988 6.1636 7.62988 5.9649V4.77921C7.62988 4.58051 7.79096 4.41943 7.98966 4.41943ZM7.98966 10.6443C8.18836 10.6443 8.34944 10.8054 8.34944 11.0041V11.8933C8.34944 12.092 8.18836 12.2531 7.98966 12.2531C7.79096 12.2531 7.62988 12.092 7.62988 11.8933V11.0041C7.62988 10.8054 7.79096 10.6443 7.98966 10.6443Z" fill="#1E6DEB"/>
</svg>
