<svg width="32" height="27" viewBox="0 0 32 27" fill="none" xmlns="http://www.w3.org/2000/svg">
<path d="M15.9017 0.711784L1.34804 4.61968C0.97545 4.71973 0.969726 5.24634 1.34006 5.35446L15.8936 9.60346C15.9645 9.62417 16.0399 9.62384 16.1107 9.60249L30.1973 5.35346C30.5633 5.24304 30.5575 4.72269 30.1891 4.62048L16.1026 0.712617C16.0369 0.694389 15.9675 0.694101 15.9017 0.711784Z" fill="#F5F8FF"/>
<path fill-rule="evenodd" clip-rule="evenodd" d="M15.9994 1.40831L2.62121 5.00058L15.9992 8.90636L28.948 5.00051L15.9994 1.40831ZM16.0891 8.93261L16.0894 8.93271L16.0006 9.23682L16.0894 8.93272C16.0893 8.93268 16.0892 8.93265 16.0891 8.93261ZM15.7207 0.0369453C15.9071 -0.0131025 16.1035 -0.0122886 16.2894 0.039302L30.3759 3.94716C31.4187 4.23645 31.4351 5.70917 30.3991 6.02169L16.3125 10.2707L16.1108 9.60212L16.3125 10.2707C16.1122 10.3311 15.8988 10.3321 15.698 10.2735L1.14446 6.02446C0.0963121 5.71845 0.112529 4.228 1.16706 3.94484L15.7207 0.0369455L15.9016 0.710737L15.7207 0.0369453Z" fill="#F5F8FF"/>
<path d="M2.54199 22.8812L3.95992 18.585L5.37785 22.8812H2.54199Z" fill="#F5F8FF"/>
<path fill-rule="evenodd" clip-rule="evenodd" d="M3.96102 17.8867C4.26238 17.8867 4.52975 18.08 4.6242 18.3662L6.04212 22.6624C6.11237 22.8752 6.0762 23.1088 5.94488 23.2905C5.81357 23.4721 5.60307 23.5796 5.37895 23.5796H2.54309C2.31897 23.5796 2.10847 23.4721 1.97716 23.2905C1.84585 23.1088 1.80968 22.8752 1.87992 22.6624L3.29785 18.3662C3.3923 18.08 3.65966 17.8867 3.96102 17.8867ZM3.509 22.1829H4.41305L3.96102 20.8133L3.509 22.1829Z" fill="#F5F8FF"/>
<path fill-rule="evenodd" clip-rule="evenodd" d="M4.65942 4.98096V22.9769H3.2627V4.98096H4.65942Z" fill="#F5F8FF"/>
<path d="M12.8887 25.3339C12.8887 25.3339 25.6456 23.8749 21.8638 8.55518C21.8638 8.55518 27.7846 14.8231 23.4347 21.3552C19.0849 27.8872 12.8887 25.3339 12.8887 25.3339Z" fill="#DCE9FE"/>
<path fill-rule="evenodd" clip-rule="evenodd" d="M15.9808 7.8269C11.295 7.8269 7.48461 11.6653 7.48461 16.4148C7.48461 21.1643 11.295 25.0027 15.9808 25.0027C20.6666 25.0027 24.477 21.1643 24.477 16.4148C24.477 11.6653 20.6666 7.8269 15.9808 7.8269ZM6.08789 16.4148C6.08789 10.907 10.5106 6.43018 15.9808 6.43018C21.451 6.43018 25.8737 10.907 25.8737 16.4148C25.8737 21.9226 21.451 26.3994 15.9808 26.3994C10.5106 26.3994 6.08789 21.9226 6.08789 16.4148Z" fill="#F5F8FF"/>
<path fill-rule="evenodd" clip-rule="evenodd" d="M12.5997 12.9515C13.0384 11.7079 14.2902 10.9357 15.6005 11.1099L18.2463 11.4615C18.6287 11.5123 18.8974 11.8634 18.8466 12.2457C18.7958 12.6281 18.4447 12.8968 18.0624 12.846L15.4165 12.4944C14.7642 12.4077 14.1368 12.7928 13.9169 13.4161C13.6346 14.2163 14.1245 15.0821 14.9511 15.2508L17.1016 15.6897C18.5241 15.98 19.4768 17.3227 19.3149 18.7529C19.1416 20.2849 17.7518 21.4121 16.2068 21.2263L13.5134 20.9025C13.1304 20.8565 12.8573 20.5087 12.9034 20.1258C12.9494 19.7428 13.2972 19.4697 13.6801 19.5158L16.3735 19.8396C17.1347 19.9311 17.8393 19.3718 17.9271 18.5958C18.009 17.872 17.5237 17.2013 16.8223 17.0582L14.6718 16.6193C13.0099 16.2802 12.0371 14.5465 12.5997 12.9515Z" fill="#F5F8FF"/>
<path fill-rule="evenodd" clip-rule="evenodd" d="M15.8761 8.57861C16.2618 8.57861 16.5745 8.89128 16.5745 9.27697V11.5785C16.5745 11.9642 16.2618 12.2769 15.8761 12.2769C15.4904 12.2769 15.1777 11.9642 15.1777 11.5785V9.27697C15.1777 8.89128 15.4904 8.57861 15.8761 8.57861ZM15.8761 20.6617C16.2618 20.6617 16.5745 20.9743 16.5745 21.36V23.0862C16.5745 23.4719 16.2618 23.7846 15.8761 23.7846C15.4904 23.7846 15.1777 23.4719 15.1777 23.0862V21.36C15.1777 20.9743 15.4904 20.6617 15.8761 20.6617Z" fill="#F5F8FF"/>
</svg>
