<svg width="28" height="20" viewBox="0 0 28 20" fill="none" xmlns="http://www.w3.org/2000/svg">
<path d="M27.4835 13.1342C27.5224 13.2058 27.5464 13.2849 27.5537 13.3664C27.561 13.448 27.5516 13.5302 27.5261 13.6078C27.5005 13.6854 27.4594 13.7567 27.4053 13.8172C27.3512 13.8777 27.2853 13.9261 27.2118 13.9592C25.7125 14.5836 24.11 14.9106 22.4904 14.9227C22.0659 14.9218 21.2222 14.8495 21.2222 14.8495C20.545 14.7207 20.1071 13.6842 19.2895 13.2858C18.6362 12.9675 17.4083 13.3845 18.0647 12.5858C19.2886 11.0964 20.8874 10.5649 22.5685 10.5649C24.3859 10.5649 26.7322 11.8289 27.4835 13.1342Z" fill="#F6F8FE"/>
<path d="M22.5156 9.08876C23.9087 9.08876 25.0381 7.93714 25.0381 6.51655C25.0381 5.09595 23.9087 3.94434 22.5156 3.94434C21.1224 3.94434 19.993 5.09595 19.993 6.51655C19.993 7.93714 21.1224 9.08876 22.5156 9.08876Z" fill="#F6F8FE"/>
<path d="M6.43186 14.8167C5.92435 14.8833 5.41239 14.9188 4.8987 14.9227C3.32897 14.9195 1.77607 14.5928 0.333322 13.9621C0.26231 13.9283 0.198787 13.8801 0.146617 13.8205C0.0944477 13.7608 0.0547216 13.691 0.0298554 13.6152C0.00498913 13.5394 -0.00449755 13.4592 0.00197234 13.3796C0.00844222 13.2999 0.0307335 13.2225 0.0674902 13.1519C0.769634 11.8731 3.0032 10.5649 4.9796 10.5649C6.43435 10.5649 8.226 11.3747 9.26847 12.3673C10.1827 13.2378 9.5839 12.9223 8.879 13.2858C8.10794 13.6836 7.14973 14.7225 6.43186 14.8167Z" fill="#F6F8FE"/>
<path d="M4.92754 9.08876C6.32069 9.08876 7.45006 7.93714 7.45006 6.51655C7.45006 5.09595 6.32069 3.94434 4.92754 3.94434C3.5344 3.94434 2.40503 5.09595 2.40503 6.51655C2.40503 7.93714 3.5344 9.08876 4.92754 9.08876Z" fill="#F6F8FE"/>
<path d="M21.8277 15.5998C21.8938 15.7147 21.9349 15.8427 21.9483 15.9751C21.9618 16.1076 21.9472 16.2415 21.9056 16.3677C21.8639 16.4939 21.7962 16.6096 21.707 16.7069C21.6178 16.8041 21.5092 16.8808 21.3885 16.9316C18.9635 17.9427 16.3714 18.4717 13.7516 18.4902C11.2117 18.4844 8.69905 17.9573 6.36318 16.9404C6.24551 16.8881 6.13994 16.8111 6.05332 16.7145C5.96669 16.6179 5.90095 16.5038 5.86036 16.3796C5.81976 16.2554 5.80522 16.1239 5.81767 15.9937C5.83013 15.8634 5.8693 15.7372 5.93264 15.6234C7.0711 13.5609 10.6829 11.4365 13.8903 11.4365C16.8202 11.4424 20.6112 13.4872 21.8277 15.5998Z" fill="#1E6DEB"/>
<path fill-rule="evenodd" clip-rule="evenodd" d="M9.42904 13.2941C8.04033 14.0517 6.9614 15.0271 6.4689 15.9193L6.46791 15.9211L6.4679 15.9211C6.44582 15.9608 6.43185 16.0054 6.4274 16.052C6.42295 16.0985 6.42818 16.1454 6.44256 16.1894C6.45692 16.2334 6.47993 16.2729 6.50939 16.3058C6.53841 16.3381 6.57299 16.3632 6.61053 16.3802C8.8683 17.3626 11.2963 17.8719 13.7503 17.8779C16.289 17.8596 18.8012 17.3469 21.1518 16.3669C21.1903 16.3506 21.226 16.3257 21.2559 16.293C21.286 16.2602 21.3095 16.2204 21.3242 16.176C21.3388 16.1315 21.3441 16.0841 21.3393 16.037C21.3345 15.99 21.32 15.9451 21.2972 15.9054C20.7695 14.989 19.6296 14.018 18.2152 13.2694C16.8095 12.5253 15.228 12.0517 13.8898 12.0489C12.4121 12.049 10.8081 12.5418 9.42904 13.2941ZM8.84255 12.219C10.3557 11.3936 12.161 10.8242 13.8904 10.8242H13.8917C15.4833 10.8274 17.2619 11.3791 18.7881 12.187C20.3059 12.9904 21.6697 14.0981 22.3585 15.2943L22.3586 15.2945C22.4679 15.4845 22.5356 15.6955 22.5577 15.9134C22.5798 16.1312 22.5559 16.3515 22.4873 16.5595C22.4187 16.7676 22.3068 16.9591 22.1585 17.1208C22.0102 17.2825 21.8288 17.4107 21.6262 17.496L21.6243 17.4968C19.1262 18.5384 16.4555 19.0835 13.7561 19.1026L13.7503 19.1026V19.1026C11.1266 19.0966 8.53122 18.5521 6.11892 17.5019L6.11452 17.5L6.11453 17.5C5.91736 17.4123 5.74137 17.2837 5.59756 17.1233C5.45378 16.963 5.34531 16.7743 5.27849 16.5699C5.21167 16.3655 5.18782 16.1494 5.20827 15.9354C5.22869 15.7218 5.29289 15.5144 5.39721 15.3266C6.04334 14.1567 7.33928 13.039 8.84255 12.219Z" fill="#F6F8FE"/>
<path d="M13.796 9.05307C16.0493 9.05307 17.876 7.19043 17.876 4.89275C17.876 2.59506 16.0493 0.732422 13.796 0.732422C11.5427 0.732422 9.71606 2.59506 9.71606 4.89275C9.71606 7.19043 11.5427 9.05307 13.796 9.05307Z" fill="#1E6DEB"/>
<path fill-rule="evenodd" clip-rule="evenodd" d="M13.7962 1.34481C11.8923 1.34481 10.3286 2.92197 10.3286 4.89279C10.3286 6.8636 11.8923 8.44077 13.7962 8.44077C15.7001 8.44077 17.2638 6.8636 17.2638 4.89279C17.2638 2.92197 15.7001 1.34481 13.7962 1.34481ZM9.10388 4.89279C9.10388 2.26823 11.1935 0.120117 13.7962 0.120117C16.3989 0.120117 18.4885 2.26823 18.4885 4.89279C18.4885 7.51734 16.3989 9.66546 13.7962 9.66546C11.1935 9.66546 9.10388 7.51734 9.10388 4.89279Z" fill="#F6F8FE"/>
</svg>
