<svg width="16" height="12" viewBox="0 0 16 12" fill="none" xmlns="http://www.w3.org/2000/svg">
<path d="M15.9576 7.55628C15.9803 7.59785 15.9942 7.64377 15.9984 7.69112C16.0027 7.73846 15.9972 7.78619 15.9824 7.83126C15.9675 7.87633 15.9436 7.91775 15.9122 7.95289C15.8808 7.98802 15.8426 8.01609 15.7999 8.03531C14.9293 8.39787 13.9989 8.58775 13.0585 8.59475C12.8119 8.59425 12.3221 8.55228 12.3221 8.55228C11.9288 8.47749 11.6746 7.87566 11.1998 7.64433C10.8205 7.45949 10.1076 7.70162 10.4887 7.23783C11.1993 6.37302 12.1277 6.06445 13.1038 6.06445C14.1591 6.06445 15.5214 6.79839 15.9576 7.55628Z" fill="#1E6DEB"/>
<path d="M13.0731 5.2073C13.882 5.2073 14.5378 4.53862 14.5378 3.71376C14.5378 2.8889 13.882 2.22021 13.0731 2.22021C12.2642 2.22021 11.6084 2.8889 11.6084 3.71376C11.6084 4.53862 12.2642 5.2073 13.0731 5.2073Z" fill="#1E6DEB"/>
<path d="M3.73463 8.53322C3.43995 8.57191 3.14268 8.59253 2.84441 8.59475C1.93295 8.59294 1.03127 8.40323 0.193542 8.03702C0.152309 8.01739 0.115425 7.9894 0.0851327 7.95477C0.0548406 7.92013 0.0317738 7.87958 0.0173354 7.83557C0.00289692 7.79156 -0.00261148 7.74502 0.00114523 7.69877C0.00490194 7.65252 0.0178452 7.60754 0.0391879 7.56655C0.446884 6.82406 1.74379 6.06445 2.89138 6.06445C3.73607 6.06445 4.77639 6.53466 5.38169 7.111C5.91252 7.61642 5.56485 7.43322 5.15555 7.64433C4.70784 7.87526 4.15146 8.47849 3.73463 8.53322Z" fill="#1E6DEB"/>
<path d="M2.86117 5.2073C3.67009 5.2073 4.32586 4.53862 4.32586 3.71376C4.32586 2.8889 3.67009 2.22021 2.86117 2.22021C2.05225 2.22021 1.39648 2.8889 1.39648 3.71376C1.39648 4.53862 2.05225 5.2073 2.86117 5.2073Z" fill="#1E6DEB"/>
<path d="M12.6736 8.98818C12.712 9.05488 12.7359 9.1292 12.7437 9.20612C12.7515 9.28304 12.743 9.36077 12.7189 9.43406C12.6947 9.50736 12.6554 9.57451 12.6036 9.631C12.5518 9.68748 12.4887 9.73197 12.4186 9.76147C11.0106 10.3486 9.50545 10.6558 7.98429 10.6665C6.50955 10.6631 5.05056 10.3571 3.69425 9.76661C3.62593 9.73622 3.56463 9.69154 3.51433 9.63544C3.46404 9.57935 3.42586 9.5131 3.40229 9.44099C3.37872 9.36888 3.37028 9.29253 3.37751 9.21688C3.38474 9.14123 3.40748 9.06798 3.44427 9.00187C4.1053 7.8043 6.20251 6.5708 8.06482 6.5708C9.76607 6.57422 11.9673 7.76153 12.6736 8.98818Z" fill="#DCE9FE"/>
<path fill-rule="evenodd" clip-rule="evenodd" d="M5.47442 7.64947C4.66808 8.08933 4.0416 8.65571 3.75563 9.17378L3.75505 9.17483L3.75505 9.17483C3.74223 9.19787 3.73412 9.22376 3.73154 9.2508C3.72895 9.27784 3.73199 9.30507 3.74034 9.3306C3.74868 9.35612 3.76203 9.37908 3.77914 9.39817C3.79599 9.41696 3.81607 9.43154 3.83787 9.44139C5.14883 10.0118 6.55864 10.3075 7.98352 10.311C9.45761 10.3004 10.9163 10.0027 12.2812 9.43368C12.3036 9.42419 12.3243 9.40971 12.3416 9.39077C12.3591 9.3717 12.3728 9.34858 12.3813 9.32279C12.3898 9.29699 12.3928 9.26943 12.3901 9.24209C12.3873 9.2148 12.3788 9.18874 12.3656 9.16569C12.0592 8.6336 11.3973 8.06981 10.5761 7.63511C9.75987 7.20308 8.84153 6.92809 8.06455 6.92644C7.20654 6.92652 6.27515 7.21266 5.47442 7.64947ZM5.13388 7.0252C6.01248 6.54592 7.0607 6.21533 8.06491 6.21533H8.06562C8.98982 6.21719 10.0226 6.53755 10.9087 7.00662C11.79 7.4731 12.5819 8.11629 12.9818 8.81085L12.9819 8.81096C13.0454 8.92128 13.0847 9.04382 13.0975 9.17032C13.1104 9.29681 13.0965 9.42472 13.0566 9.54551C13.0168 9.66631 12.9518 9.7775 12.8657 9.87139C12.7796 9.96531 12.6743 10.0398 12.5566 10.0893L12.5555 10.0897C11.1051 10.6945 9.55431 11.0111 7.98688 11.0221L7.98356 11.0222V11.0221C6.4601 11.0186 4.95311 10.7025 3.55242 10.0927L3.54986 10.0916L3.54987 10.0916C3.43538 10.0407 3.3332 9.96601 3.24969 9.87289C3.16621 9.77978 3.10322 9.67024 3.06442 9.55155C3.02563 9.43287 3.01178 9.30739 3.02365 9.18314C3.03551 9.05908 3.07279 8.93865 3.13336 8.82961C3.50853 8.1503 4.26101 7.50135 5.13388 7.0252Z" fill="#1E6DEB"/>
<path d="M8.0106 5.18682C9.31896 5.18682 10.3796 4.10528 10.3796 2.77114C10.3796 1.437 9.31896 0.355469 8.0106 0.355469C6.70224 0.355469 5.6416 1.437 5.6416 2.77114C5.6416 4.10528 6.70224 5.18682 8.0106 5.18682Z" fill="#DCE9FE"/>
<path fill-rule="evenodd" clip-rule="evenodd" d="M8.01069 0.71111C6.9052 0.71111 5.99724 1.62689 5.99724 2.77123C5.99724 3.91557 6.9052 4.83135 8.01069 4.83135C9.11618 4.83135 10.0241 3.91557 10.0241 2.77123C10.0241 1.62689 9.11618 0.71111 8.01069 0.71111ZM5.28613 2.77123C5.28613 1.24729 6.49945 0 8.01069 0C9.52193 0 10.7352 1.24729 10.7352 2.77123C10.7352 4.29516 9.52193 5.54246 8.01069 5.54246C6.49945 5.54246 5.28613 4.29516 5.28613 2.77123Z" fill="#1E6DEB"/>
</svg>
