<svg width="16" height="16" viewBox="0 0 16 16" fill="none" xmlns="http://www.w3.org/2000/svg">
<g clip-path="url(#clip0_356_44754)">
<path fill-rule="evenodd" clip-rule="evenodd" d="M6.8531 2.33317C6.17547 2.33317 5.62614 2.8825 5.62614 3.56013C5.62614 3.74422 5.4769 3.89346 5.29281 3.89346C5.10871 3.89346 4.95947 3.74422 4.95947 3.56013C4.95947 2.51431 5.80728 1.6665 6.8531 1.6665H9.11591C10.1617 1.6665 11.0095 2.51431 11.0095 3.56013C11.0095 3.74422 10.8603 3.89346 10.6762 3.89346C10.4921 3.89346 10.3429 3.74422 10.3429 3.56013C10.3429 2.8825 9.79354 2.33317 9.11591 2.33317H6.8531Z" fill="#1E6DEB"/>
<path fill-rule="evenodd" clip-rule="evenodd" d="M1.37061 7.92757C1.37061 7.74348 1.51984 7.59424 1.70394 7.59424H14.2999C14.484 7.59424 14.6333 7.74348 14.6333 7.92757V13.2188C14.6333 13.5032 14.4914 13.7561 14.2748 13.9291C14.0602 14.1007 13.7821 14.1884 13.5037 14.1884H2.50015C2.22177 14.1884 1.94371 14.1007 1.72905 13.9291C1.51246 13.7561 1.37061 13.5032 1.37061 13.2188V7.92757ZM2.03727 8.2609V13.2188C2.03727 13.272 2.06319 13.3428 2.14524 13.4083C2.22921 13.4755 2.35619 13.5218 2.50015 13.5218H13.5037C13.6477 13.5218 13.7747 13.4755 13.8586 13.4083C13.9407 13.3428 13.9666 13.272 13.9666 13.2188V8.2609H2.03727Z" fill="#1E6DEB"/>
<path fill-rule="evenodd" clip-rule="evenodd" d="M2.11931 4.33317C1.99163 4.33317 1.87369 4.3805 1.79037 4.45788C1.70789 4.53448 1.66667 4.63287 1.66667 4.72976V7.6665H14.3333V4.72976C14.3333 4.63288 14.2921 4.53448 14.2096 4.45788C14.1263 4.3805 14.0084 4.33317 13.8807 4.33317H2.11931ZM1.33671 3.96938C1.54819 3.77298 1.83008 3.6665 2.11931 3.6665H13.8807C14.1699 3.6665 14.4518 3.77298 14.6633 3.96938C14.8756 4.16655 15 4.43948 15 4.72976V7.99984C15 8.18393 14.8508 8.33317 14.6667 8.33317H1.33333C1.14924 8.33317 1 8.18393 1 7.99984V4.72976C1 4.43948 1.1244 4.16655 1.33671 3.96938Z" fill="#1E6DEB"/>
<path d="M4.92615 7.03809H4.06055V9.05156H4.92615V7.03809Z" fill="#1E6DEB"/>
<path fill-rule="evenodd" clip-rule="evenodd" d="M3.72705 7.03841C3.72705 6.85432 3.87629 6.70508 4.06038 6.70508H4.92599C5.11009 6.70508 5.25933 6.85432 5.25933 7.03841V9.05189C5.25933 9.23599 5.11009 9.38522 4.92599 9.38522H4.06038C3.87629 9.38522 3.72705 9.23599 3.72705 9.05189V7.03841ZM4.39372 7.37174V8.71856H4.59266V7.37174H4.39372Z" fill="#1E6DEB"/>
<path d="M11.9071 7.03809H11.0415V9.05156H11.9071V7.03809Z" fill="#1E6DEB"/>
<path fill-rule="evenodd" clip-rule="evenodd" d="M10.7085 7.03841C10.7085 6.85432 10.8577 6.70508 11.0418 6.70508H11.9074C12.0915 6.70508 12.2408 6.85432 12.2408 7.03841V9.05189C12.2408 9.23599 12.0915 9.38522 11.9074 9.38522H11.0418C10.8577 9.38522 10.7085 9.23599 10.7085 9.05189V7.03841ZM11.3752 7.37174V8.71856H11.5741V7.37174H11.3752Z" fill="#1E6DEB"/>
</g>
<defs>
<clipPath id="clip0_356_44754">
<rect width="16" height="16" fill="white"/>
</clipPath>
</defs>
</svg>
