<svg width="28" height="29" viewBox="0 0 28 29" fill="none" xmlns="http://www.w3.org/2000/svg">
<g clip-path="url(#clip0_356_45416)">
<path d="M24.3398 11.4405V25.1727C24.3398 26.0234 23.6945 26.6918 22.8732 26.6918H5.18517C4.36384 26.6918 3.71851 26.0234 3.71851 25.1727V11.4102" stroke="#1E6DEB" stroke-width="2" stroke-miterlimit="10" stroke-linecap="round" stroke-linejoin="round"/>
<path d="M26.8334 13.2917L14.9827 2.18547C14.4547 1.68818 13.6627 1.68818 13.1054 2.18547L1.16675 13.2917" stroke="#1E6DEB" stroke-width="2" stroke-miterlimit="10" stroke-linecap="round" stroke-linejoin="round"/>
<path d="M17.3879 14.7554H10.7292V26.6916H17.3879V14.7554Z" fill="#DCE9FE" stroke="#1E6DEB" stroke-width="2" stroke-miterlimit="10" stroke-linecap="round" stroke-linejoin="round"/>
<path d="M20.2307 7.19758V8.19758H22.2307V7.19758H20.2307ZM22.2307 4.63867C22.2307 4.08639 21.783 3.63867 21.2307 3.63867C20.6784 3.63867 20.2307 4.08639 20.2307 4.63867H22.2307ZM22.2307 7.19758V4.63867H20.2307V7.19758H22.2307Z" fill="#1E6DEB"/>
</g>
<defs>
<clipPath id="clip0_356_45416">
<rect width="28" height="29" fill="white"/>
</clipPath>
</defs>
</svg>
