<svg width="16" height="15" viewBox="0 0 16 15" fill="none" xmlns="http://www.w3.org/2000/svg">
<path d="M9.97559 12.584L8.33393 10.4425L10.6638 8.43452L12.5235 10.4425L10.1788 10.2393L9.97559 12.584Z" fill="#1E6DEB"/>
<path fill-rule="evenodd" clip-rule="evenodd" d="M10.0758 12.9011C9.94744 12.9417 9.80728 12.901 9.72066 12.7979L7.98576 10.7337L8.49534 10.3054L9.71325 11.7545L9.84709 10.2104C9.85472 10.1224 9.89696 10.0411 9.96454 9.9843C10.0321 9.92751 10.1195 9.89988 10.2074 9.90751L11.739 10.0403L10.4892 8.58576L10.994 8.15192L12.7758 10.2254C12.864 10.328 12.8813 10.4738 12.8196 10.5942C12.7578 10.7145 12.6294 10.7856 12.4946 10.7739L10.4815 10.5994L10.307 12.6125C10.2954 12.7466 10.2041 12.8606 10.0758 12.9011Z" fill="#F6F8FE"/>
<path fill-rule="evenodd" clip-rule="evenodd" d="M4.65088 13.0777L14.15 4.89499L14.5844 5.39934L5.08533 13.582L4.65088 13.0777ZM11.1142 1.37081L1.61509 9.55351L1.18064 9.04916L10.6797 0.866468L11.1142 1.37081Z" fill="#F6F8FE"/>
<path fill-rule="evenodd" clip-rule="evenodd" d="M13.9823 4.91242C14.1062 4.92928 14.1442 4.90061 14.1501 4.89552C14.156 4.89042 14.19 4.85714 14.1917 4.73212C14.1933 4.60766 14.1607 4.43267 14.08 4.21348C13.9194 3.77759 13.5941 3.23517 13.134 2.70114C12.674 2.1671 12.1857 1.76502 11.7784 1.5417C11.5736 1.4294 11.4054 1.37121 11.2821 1.35443C11.1582 1.33757 11.1202 1.36624 11.1143 1.37134C11.1084 1.37643 11.0744 1.40971 11.0727 1.53473C11.0711 1.65919 11.1037 1.83419 11.1844 2.05337C11.345 2.48926 11.6703 3.03168 12.1304 3.56572C12.5904 4.09975 13.0787 4.50183 13.486 4.72516C13.6908 4.83745 13.859 4.89564 13.9823 4.91242ZM13.1659 5.30885C12.6724 5.03823 12.1243 4.57858 11.626 4.00017C11.1278 3.42175 10.7544 2.81164 10.5598 2.28344C10.463 2.02057 10.404 1.76063 10.4071 1.52582C10.4103 1.29157 10.4776 1.04126 10.6799 0.866991C10.8822 0.692726 11.1397 0.663256 11.3718 0.694839C11.6045 0.726499 11.8528 0.823331 12.0985 0.958006C12.592 1.22863 13.1401 1.68827 13.6384 2.26669C14.1366 2.8451 14.5101 3.45521 14.7046 3.98342C14.8014 4.24628 14.8604 4.50622 14.8573 4.74104C14.8541 4.97528 14.7868 5.2256 14.5845 5.39986C14.3822 5.57413 14.1247 5.6036 13.8926 5.57201C13.6599 5.54035 13.4116 5.44352 13.1659 5.30885Z" fill="#F6F8FE"/>
<path fill-rule="evenodd" clip-rule="evenodd" d="M3.84886 12.9926C4.30741 13.1984 4.56703 13.1502 4.67201 13.0598C4.77698 12.9693 4.86312 12.7197 4.72745 12.2357C4.59973 11.7801 4.29888 11.227 3.84351 10.6984C3.38813 10.1698 2.88566 9.79032 2.454 9.59654C1.99545 9.3907 1.73582 9.43892 1.63085 9.52935C1.52588 9.61978 1.43973 9.86939 1.57541 10.3534C1.70313 10.809 2.00397 11.3621 2.45935 11.8907C2.91473 12.4194 3.4172 12.7988 3.84886 12.9926ZM3.57625 13.5999C3.0372 13.3579 2.45939 12.9107 1.955 12.3252C1.45062 11.7396 1.09394 11.102 0.934451 10.5331C0.782915 9.99249 0.779879 9.3838 1.1964 9.02501C1.61292 8.66621 2.21445 8.75935 2.72661 8.98926C3.26566 9.23124 3.84347 9.67841 4.34785 10.2639C4.85224 10.8495 5.20892 11.4871 5.36841 12.0561C5.51994 12.5966 5.52298 13.2053 5.10646 13.5641C4.68994 13.9229 4.08841 13.8298 3.57625 13.5999Z" fill="#F6F8FE"/>
</svg>
