<svg width="37" height="37" viewBox="0 0 37 37" fill="none" xmlns="http://www.w3.org/2000/svg">
<path d="M26.3408 3.75781H11.195C9.27312 3.75781 7.71509 5.31725 7.71509 7.24091V22.4004C7.71509 24.324 9.27312 25.8835 11.195 25.8835H26.3408C28.2628 25.8835 29.8208 24.324 29.8208 22.4004V7.24091C29.8208 5.31725 28.2628 3.75781 26.3408 3.75781Z" stroke="#1E6DEB" stroke-width="2" stroke-linecap="round" stroke-linejoin="round"/>
<path d="M12.2196 23.4957C13.2266 23.4957 14.0429 22.6786 14.0429 21.6707C14.0429 20.6628 13.2266 19.8457 12.2196 19.8457C11.2126 19.8457 10.3962 20.6628 10.3962 21.6707C10.3962 22.6786 11.2126 23.4957 12.2196 23.4957Z" fill="#1E6DEB"/>
<path d="M25.5455 23.4957C26.5525 23.4957 27.3688 22.6786 27.3688 21.6707C27.3688 20.6628 26.5525 19.8457 25.5455 19.8457C24.5385 19.8457 23.7222 20.6628 23.7222 21.6707C23.7222 22.6786 24.5385 23.4957 25.5455 23.4957Z" fill="#1E6DEB"/>
<path fill-rule="evenodd" clip-rule="evenodd" d="M11.195 3.75781H26.3408C28.2628 3.75781 29.8208 5.31725 29.8208 7.24091V9.74373H7.71509V7.24091C7.71509 5.31725 9.27312 3.75781 11.195 3.75781ZM7.71509 17.5233V22.4004C7.71509 24.324 9.27312 25.8835 11.195 25.8835H26.3408C28.2628 25.8835 29.8208 24.324 29.8208 22.4004V17.5233H7.71509Z" fill="#DCE9FE"/>
<path d="M29.8208 9.74373V10.7437C30.3731 10.7437 30.8208 10.296 30.8208 9.74373H29.8208ZM7.71509 9.74373H6.71509C6.71509 10.296 7.1628 10.7437 7.71509 10.7437V9.74373ZM7.71509 17.5233V16.5233C7.1628 16.5233 6.71509 16.9711 6.71509 17.5233H7.71509ZM29.8208 17.5233H30.8208C30.8208 16.9711 30.3731 16.5233 29.8208 16.5233V17.5233ZM26.3408 2.75781H11.195V4.75781H26.3408V2.75781ZM30.8208 7.24091C30.8208 4.76581 28.8159 2.75781 26.3408 2.75781V4.75781C27.7096 4.75781 28.8208 5.86868 28.8208 7.24091H30.8208ZM30.8208 9.74373V7.24091H28.8208V9.74373H30.8208ZM29.8208 8.74373H7.71509V10.7437H29.8208V8.74373ZM6.71509 7.24091V9.74373H8.71509V7.24091H6.71509ZM11.195 2.75781C8.71998 2.75781 6.71509 4.76581 6.71509 7.24091H8.71509C8.71509 5.86868 9.82625 4.75781 11.195 4.75781V2.75781ZM6.71509 17.5233V22.4004H8.71509V17.5233H6.71509ZM6.71509 22.4004C6.71509 24.8755 8.71998 26.8835 11.195 26.8835V24.8835C9.82625 24.8835 8.71509 23.7726 8.71509 22.4004H6.71509ZM11.195 26.8835H26.3408V24.8835H11.195V26.8835ZM26.3408 26.8835C28.8159 26.8835 30.8208 24.8755 30.8208 22.4004H28.8208C28.8208 23.7726 27.7096 24.8835 26.3408 24.8835V26.8835ZM30.8208 22.4004V17.5233H28.8208V22.4004H30.8208ZM7.71509 18.5233H29.8208V16.5233H7.71509V18.5233Z" fill="#1E6DEB"/>
<path d="M12.8017 29.8098C12.8017 30.7346 12.0535 31.4818 11.1336 31.4818C10.2138 31.4818 9.46558 30.7346 9.46558 29.8098C9.46558 28.8849 10.2138 28.1377 11.1336 28.1377C12.0535 28.1377 12.8017 28.8849 12.8017 29.8098Z" fill="#D0E4FF" stroke="#0064E1" stroke-width="2"/>
<path d="M28.4262 29.7287C28.4262 30.6536 27.678 31.4008 26.7582 31.4008C25.8383 31.4008 25.0901 30.6536 25.0901 29.7287C25.0901 28.8038 25.8383 28.0566 26.7582 28.0566C27.678 28.0566 28.4262 28.8038 28.4262 29.7287Z" fill="#D0E4FF" stroke="#0064E1" stroke-width="2"/>
</svg>
