<svg width="12" height="14" viewBox="0 0 12 14" fill="none" xmlns="http://www.w3.org/2000/svg">
<path d="M11.4958 10.6074C11.541 10.686 11.5691 10.7736 11.5783 10.8642C11.5875 10.9548 11.5775 11.0463 11.5491 11.1327C11.5206 11.219 11.4743 11.2981 11.4133 11.3647C11.3522 11.4312 11.2779 11.4836 11.1954 11.5184C9.53671 12.21 7.76366 12.5719 5.97173 12.5845C4.23449 12.5805 2.5158 12.22 0.91807 11.5244C0.837585 11.4886 0.765375 11.436 0.706126 11.3699C0.646876 11.3038 0.60191 11.2258 0.574143 11.1408C0.546377 11.0559 0.536429 10.966 0.544947 10.8768C0.553465 10.7877 0.580257 10.7014 0.623587 10.6236C1.40229 9.21283 3.87279 7.75977 6.0666 7.75977C8.07067 7.7638 10.6637 9.16244 11.4958 10.6074Z" fill="#DCE9FE"/>
<path fill-rule="evenodd" clip-rule="evenodd" d="M3.01491 9.03023C2.06503 9.54839 1.32704 10.2156 0.990175 10.8259L0.989492 10.8271L0.98949 10.8271C0.974388 10.8542 0.964833 10.8847 0.961788 10.9166C0.958743 10.9485 0.962321 10.9805 0.972154 11.0106C0.981981 11.0407 0.997715 11.0677 1.01787 11.0902C1.03772 11.1123 1.06137 11.1295 1.08705 11.1411C2.63136 11.8131 4.29212 12.1614 5.97062 12.1655C7.7071 12.153 9.42543 11.8023 11.0332 11.132C11.0596 11.1209 11.084 11.1038 11.1045 11.0815C11.1251 11.059 11.1412 11.0318 11.1512 11.0014C11.1612 10.971 11.1648 10.9385 11.1615 10.9063C11.1583 10.8742 11.1483 10.8435 11.1327 10.8163C10.7718 10.1895 9.99206 9.52539 9.02464 9.01332C8.06316 8.50439 6.98136 8.18045 6.06608 8.17851C5.05534 8.1786 3.95817 8.51568 3.01491 9.03023ZM2.61375 8.29484C3.64874 7.73025 4.88354 7.34082 6.0665 7.34082H6.06734C7.15604 7.34301 8.37261 7.72039 9.41653 8.27296C10.4547 8.82247 11.3875 9.58015 11.8586 10.3983L11.8587 10.3985C11.9335 10.5284 11.9798 10.6728 11.9949 10.8218C12.01 10.9708 11.9937 11.1215 11.9467 11.2638C11.8998 11.4061 11.8233 11.5371 11.7219 11.6477C11.6204 11.7583 11.4963 11.846 11.3577 11.9043L11.3565 11.9049C9.64779 12.6173 7.82101 12.9902 5.97458 13.0032L5.97066 13.0033V13.0032C4.17604 12.9991 2.4008 12.6267 0.750786 11.9084L0.747779 11.907L0.747784 11.907C0.612917 11.8471 0.492543 11.7591 0.394179 11.6494C0.295834 11.5397 0.221635 11.4107 0.175929 11.2709C0.130228 11.1311 0.113912 10.9833 0.127902 10.8369C0.14187 10.6908 0.185782 10.5489 0.257136 10.4204C0.699087 9.62021 1.58551 8.85575 2.61375 8.29484Z" fill="#1E6DEB"/>
<path d="M6.00162 6.1298C7.54287 6.1298 8.7923 4.85575 8.7923 3.28414C8.7923 1.71252 7.54287 0.438477 6.00162 0.438477C4.46037 0.438477 3.21094 1.71252 3.21094 3.28414C3.21094 4.85575 4.46037 6.1298 6.00162 6.1298Z" fill="#DCE9FE"/>
<path fill-rule="evenodd" clip-rule="evenodd" d="M6.00249 0.857218C4.70023 0.857218 3.63066 1.936 3.63066 3.28404C3.63066 4.63207 4.70023 5.71086 6.00249 5.71086C7.30476 5.71086 8.37433 4.63207 8.37433 3.28404C8.37433 1.936 7.30476 0.857218 6.00249 0.857218ZM2.79297 3.28404C2.79297 1.48884 4.22226 0.0195312 6.00249 0.0195312C7.78273 0.0195312 9.21202 1.48884 9.21202 3.28404C9.21202 5.07923 7.78273 6.54854 6.00249 6.54854C4.22226 6.54854 2.79297 5.07923 2.79297 3.28404Z" fill="#1E6DEB"/>
</svg>
