<svg width="15" height="14" viewBox="0 0 15 14" fill="none" xmlns="http://www.w3.org/2000/svg">
<path d="M9.77314 0.617188H3.33966C1.80318 0.617188 0.557617 1.86275 0.557617 3.39923V7.05067C0.557617 8.49112 1.72533 9.65884 3.16579 9.65884L3.33966 4.4425L5.25232 2.8776H12.0336C12.0336 1.62921 11.0215 0.617188 9.77314 0.617188Z" fill="#DCE9FE"/>
<path fill-rule="evenodd" clip-rule="evenodd" d="M0.209961 3.39933C0.209961 1.67079 1.61122 0.269531 3.33976 0.269531H9.77324C11.2137 0.269531 12.3814 1.43725 12.3814 2.8777H11.6859C11.6859 1.82137 10.8296 0.965043 9.77324 0.965043H3.33976C1.99534 0.965043 0.905472 2.05491 0.905472 3.39933V7.05077C0.905472 8.29916 1.91749 9.31118 3.16588 9.31118V10.0067C1.53337 10.0067 0.209961 8.68328 0.209961 7.05077V3.39933Z" fill="#1E6DEB"/>
<path fill-rule="evenodd" clip-rule="evenodd" d="M5.95793 3.20821C4.61351 3.20821 3.52364 4.29808 3.52364 5.6425V9.12005C3.52364 10.4645 4.61351 11.5543 5.95793 11.5543H10.1037C10.196 11.5543 10.2844 11.591 10.3496 11.6562L11.9054 13.212C11.9602 13.2668 12.0539 13.228 12.0539 13.1505V11.8513C12.0539 11.6847 12.172 11.5416 12.3355 11.5099C13.4572 11.2928 14.3041 10.3049 14.3041 9.12005V5.6425C14.3041 4.29808 13.2142 3.20821 11.8698 3.20821H5.95793ZM2.82812 5.6425C2.82812 3.91396 4.22939 2.5127 5.95793 2.5127H11.8698C13.5983 2.5127 14.9996 3.91396 14.9996 5.6425V9.12005C14.9996 10.5434 14.0497 11.7443 12.7494 12.1245V13.1505C12.7494 13.8476 11.9066 14.1967 11.4136 13.7038L9.95968 12.2499H5.95793C4.22939 12.2499 2.82812 10.8486 2.82812 9.12005V5.6425Z" fill="#1E6DEB"/>
<path d="M8.57679 8.1879H9.55465C9.55465 7.41994 10.6426 7.28953 10.6426 6.13035C10.6426 5.27545 9.9691 4.79004 8.99772 4.79004C8.12347 4.79004 7.51474 5.16677 7.16504 5.76086L7.94862 6.27525C8.15585 5.94198 8.47317 5.73912 8.88763 5.73912C9.30856 5.73912 9.58703 5.96371 9.58703 6.31871C9.58703 6.94902 8.57679 7.17361 8.57679 8.1879ZM9.06895 10.0064C9.4316 10.0064 9.69064 9.70933 9.69064 9.34709C9.69064 8.9776 9.4316 8.70229 9.06895 8.70229C8.7063 8.70229 8.44727 8.9776 8.44727 9.34709C8.44727 9.70933 8.7063 10.0064 9.06895 10.0064Z" fill="#1E6DEB"/>
</svg>
