<svg width="28" height="28" viewBox="0 0 28 28" fill="none" xmlns="http://www.w3.org/2000/svg">
<path fill-rule="evenodd" clip-rule="evenodd" d="M11.8026 4.01875C10.6356 4.01875 9.68953 4.96482 9.68953 6.13185C9.68953 6.4489 9.43251 6.70592 9.11546 6.70592C8.7984 6.70592 8.54138 6.4489 8.54138 6.13185C8.54138 4.33071 10.0015 2.87061 11.8026 2.87061H15.6997C17.5008 2.87061 18.9609 4.33071 18.9609 6.13185C18.9609 6.4489 18.7039 6.70592 18.3869 6.70592C18.0698 6.70592 17.8128 6.4489 17.8128 6.13185C17.8128 4.96482 16.8667 4.01875 15.6997 4.01875H11.8026Z" fill="#F6F8FE"/>
<path fill-rule="evenodd" clip-rule="evenodd" d="M2.36023 13.6532C2.36023 13.3361 2.61725 13.0791 2.9343 13.0791H24.6274C24.9445 13.0791 25.2015 13.3361 25.2015 13.6532V22.7659C25.2015 23.2556 24.9572 23.6911 24.5842 23.9892C24.2145 24.2846 23.7356 24.4358 23.2562 24.4358H4.30555C3.82612 24.4358 3.34724 24.2846 2.97755 23.9892C2.60453 23.6911 2.36023 23.2556 2.36023 22.7659V13.6532ZM3.50838 14.2272V22.7659C3.50838 22.8574 3.55302 22.9794 3.69432 23.0923C3.83894 23.2079 4.05762 23.2876 4.30555 23.2876H23.2562C23.5041 23.2876 23.7228 23.2079 23.8674 23.0923C24.0087 22.9794 24.0534 22.8574 24.0534 22.7659V14.2272H3.50838Z" fill="#F6F8FE"/>
<path fill-rule="evenodd" clip-rule="evenodd" d="M3.64987 7.46309C3.42998 7.46309 3.22686 7.54461 3.08337 7.67786C2.94131 7.80979 2.87032 7.97924 2.87032 8.14611V13.2038H24.6851V8.14611C24.6851 7.97925 24.6141 7.80979 24.4721 7.67786C24.3286 7.54461 24.1255 7.46309 23.9056 7.46309H3.64987ZM2.30206 6.83656C2.66627 6.49831 3.15175 6.31494 3.64987 6.31494H23.9056C24.4037 6.31494 24.8892 6.49831 25.2534 6.83656C25.619 7.17613 25.8333 7.64617 25.8333 8.14611V13.7779C25.8333 14.095 25.5763 14.352 25.2592 14.352H2.29624C1.97919 14.352 1.72217 14.095 1.72217 13.7779V8.14611C1.72217 7.64617 1.9364 7.17613 2.30206 6.83656Z" fill="#F6F8FE"/>
<path d="M8.48345 12.1221H6.99268V15.5897H8.48345V12.1221Z" fill="#F6F8FE"/>
<path fill-rule="evenodd" clip-rule="evenodd" d="M6.41858 12.1219C6.41858 11.8049 6.6756 11.5479 6.99265 11.5479H8.48342C8.80047 11.5479 9.0575 11.8049 9.0575 12.1219V15.5896C9.0575 15.9066 8.80047 16.1637 8.48342 16.1637H6.99265C6.6756 16.1637 6.41858 15.9066 6.41858 15.5896V12.1219ZM7.56673 12.696V15.0155H7.90935V12.696H7.56673Z" fill="#F6F8FE"/>
<path d="M20.5069 12.1221H19.0161V15.5897H20.5069V12.1221Z" fill="#F6F8FE"/>
<path fill-rule="evenodd" clip-rule="evenodd" d="M18.442 12.1219C18.442 11.8049 18.699 11.5479 19.0161 11.5479H20.5069C20.8239 11.5479 21.0809 11.8049 21.0809 12.1219V15.5896C21.0809 15.9066 20.8239 16.1637 20.5069 16.1637H19.0161C18.699 16.1637 18.442 15.9066 18.442 15.5896V12.1219ZM19.5902 12.696V15.0155H19.9328V12.696H19.5902Z" fill="#F6F8FE"/>
</svg>
