<svg width="22" height="22" viewBox="0 0 22 22" fill="none" xmlns="http://www.w3.org/2000/svg">
<path fill-rule="evenodd" clip-rule="evenodd" d="M6.73535 1.0456C8.20011 0.905323 9.66791 1.28046 10.8857 2.10634C12.1036 2.93222 12.9951 4.1571 13.4067 5.56982C13.8183 6.98255 13.7241 8.49461 13.1405 9.84535C13.0576 10.0371 13.1005 10.26 13.2485 10.4073L20.3924 17.5182V20.6411H18.0807L17.2788 19.8373V18.2819C17.2788 18.0011 17.0512 17.7735 16.7704 17.7735H15.3523V17.294C15.3523 17.0132 15.1247 16.7856 14.8439 16.7856H14.1155V15.5283C14.1155 15.2475 13.8879 15.0199 13.6071 15.0199H12.2324L10.6154 13.4147C10.6107 13.4101 10.606 13.4056 10.6012 13.4012L10.4093 13.2249C10.2612 13.0887 10.0467 13.0528 9.86231 13.1331C8.51328 13.7207 7.0015 13.8193 5.58758 13.4119C4.17365 13.0044 2.94617 12.1164 2.11674 10.901C1.2873 9.68562 0.907871 8.21891 1.04386 6.75375C1.17985 5.28858 1.82273 3.91676 2.86169 2.87476C3.90065 1.83276 5.27058 1.18587 6.73535 1.0456ZM13.6071 17.8024H14.3355V18.2819C14.3355 18.5626 14.5631 18.7902 14.8439 18.7902H16.262V20.0476C16.262 20.1822 16.3154 20.3113 16.4105 20.4066L17.5098 21.5086C17.6052 21.6042 17.7347 21.6579 17.8698 21.6579H20.9008C21.1816 21.6579 21.4092 21.4303 21.4092 21.1495V17.3069C21.4092 17.1717 21.3553 17.042 21.2594 16.9466L14.2048 9.9246C14.7636 8.44123 14.8281 6.81328 14.3829 5.28541C13.9051 3.64544 12.8702 2.22353 11.4564 1.2648C10.0427 0.306074 8.33879 -0.129407 6.63842 0.0334293C4.93804 0.196265 3.34774 0.947214 2.14166 2.15683C0.935574 3.36644 0.189278 4.95893 0.0314148 6.65978C-0.126448 8.36062 0.314013 10.0633 1.27687 11.4742C2.23973 12.8851 3.66466 13.9159 5.30602 14.3889C6.83909 14.8307 8.47127 14.76 9.95603 14.1929L11.6648 15.8891C11.76 15.9836 11.8887 16.0367 12.0229 16.0367H13.0987V17.294C13.0987 17.5748 13.3264 17.8024 13.6071 17.8024ZM4.40798 5.3073C4.40798 4.73033 4.87571 4.2626 5.45269 4.2626C6.02967 4.2626 6.4974 4.73033 6.4974 5.3073C6.4974 5.88428 6.02967 6.35201 5.45269 6.35201C4.87571 6.35201 4.40798 5.88428 4.40798 5.3073ZM5.45269 3.2458C4.31415 3.2458 3.39119 4.16877 3.39119 5.3073C3.39119 6.44584 4.31415 7.36881 5.45269 7.36881C6.59123 7.36881 7.51419 6.44584 7.51419 5.3073C7.51419 4.16877 6.59123 3.2458 5.45269 3.2458Z" fill="#1E6DEB"/>
</svg>
